<svg width="340" height="976" viewBox="17 0 250 1000" fill="none" xmlns="http://www.w3.org/2000/svg">
<rect x="-202" width="519" height="975" fill="url(#paint0_linear_3064_5386)"/>
<path opacity="0.3" d="M330.967 1004C331.401 1002.71 328.195 1000.74 328.629 999.32C331.671 984.484 316.273 993.418 314.897 987.87C309.466 966.198 309.528 901.448 276.869 892.03C274.479 891.385 259.562 883 253.696 857.586C249.858 841.074 252.03 824.561 253.551 814.628C258.765 779.539 270.424 776.572 276.652 747.675C281.793 723.809 281.576 689.881 271.51 664.596C258.91 632.861 235.013 625.121 217.416 631.442C200.181 637.635 188.305 658.404 182.367 671.047C178.964 657.501 173.098 638.151 163.105 619.316C138.846 573.262 101.697 551.46 67.9517 559.716C30.2235 569.004 6.83345 613.382 -4.89777 635.7C-70.723 760.962 -54.0675 953.049 -50.5192 989.428L231.334 1000.36C206.279 994.039 365.943 1011.74 330.967 1004Z" fill="#093646"/>
<path d="M242.801 740.569C242.805 740.535 242.805 740.501 242.801 740.467C240.917 734.246 238.247 728.331 234.864 722.886L234.789 722.76C229.94 714.95 223.242 708.656 215.379 704.518C214.047 703.823 212.715 703.207 211.362 702.649H211.224C201.934 698.863 191.962 697.997 182.033 697.826H181.714C177.026 697.689 172.52 697.7 168.365 697.598C146.515 696.959 111.327 696.013 77.8109 719.5C55.4387 735.154 48.8975 772.367 46.2981 798.681C44.4018 817.858 43.3151 839.954 52.4025 857.284C56.6639 865.436 63.7164 871.41 71.2058 876.301C78.0027 880.725 102.697 881.078 103.251 878.581C103.251 878.695 104.988 887.634 104.988 887.634L222.175 887.554L223.827 878.604C223.827 878.604 236.611 874.363 245.517 859.427C245.613 859.279 245.698 859.131 245.783 858.983C263.617 829.602 255.148 774.146 242.801 740.569Z" fill="#7DDBFF"/>
<path d="M236.451 839.919H145.439C152.438 860.328 165.063 882.366 185.922 886.665C203.34 890.279 223.273 882.104 236.462 869.882L236.451 839.919Z" fill="#FF367C"/>
<path d="M122.331 658.423C121.469 651.788 122.464 645.029 125.19 638.999C127.917 632.97 132.253 627.941 137.65 624.548C143.047 621.155 149.262 619.551 155.511 619.939C161.76 620.326 167.761 622.688 172.756 626.725C177.75 630.762 181.515 636.293 183.573 642.619C185.63 648.945 185.889 655.782 184.317 662.266C182.744 668.749 179.411 674.588 174.738 679.045C170.064 683.501 164.262 686.375 158.063 687.302C149.746 688.543 141.309 686.198 134.608 680.782C127.907 675.366 123.491 667.323 122.331 658.423Z" fill="#FFDDCC" stroke="#263238" stroke-width="2" stroke-linecap="round" stroke-linejoin="round"/>
<path d="M152.694 624.595C155.346 632.171 159.323 639.136 164.413 645.118C172.477 654.661 184.654 661.638 184.654 661.638L175.3 679.8L218.905 685.387C219.094 680.506 218.253 675.643 216.444 671.158C211.48 659.609 205.929 661.148 204.022 653.486C201.38 642.906 206.558 635.324 200.016 626.522C193.933 618.347 180.478 619.681 180.478 619.681C180.478 619.681 166.011 594.713 134.157 609.899C125.187 614.175 120.212 624.094 116.046 633.386C108.312 650.396 95.4637 650.02 97.8501 670.474C97.8501 670.554 127.839 674.043 127.839 674.043C127.839 674.043 122.182 665.48 121.447 656.416C120.712 647.352 124.931 637.787 124.931 637.787C124.931 637.787 133.891 636.954 140.261 633.83C144.847 631.495 149.046 628.376 152.694 624.595Z" fill="#263238"/>
<path d="M150.968 649.895C150.878 649.164 150.993 648.421 151.298 647.761C151.603 647.1 152.085 646.551 152.682 646.185C153.28 645.818 153.965 645.649 154.652 645.7C155.339 645.752 155.997 646.02 156.541 646.472C157.085 646.924 157.491 647.539 157.708 648.238C157.924 648.938 157.942 649.691 157.758 650.401C157.574 651.111 157.197 651.747 156.674 652.227C156.152 652.708 155.508 653.011 154.824 653.099C153.917 653.215 153.003 652.944 152.281 652.344C151.559 651.745 151.088 650.864 150.968 649.895Z" fill="#263238"/>
<path d="M131.92 647.751C131.838 647.021 131.961 646.281 132.272 645.626C132.583 644.97 133.069 644.428 133.668 644.068C134.267 643.708 134.953 643.547 135.638 643.604C136.323 643.661 136.977 643.934 137.516 644.389C138.056 644.844 138.458 645.46 138.671 646.159C138.883 646.858 138.897 647.609 138.711 648.317C138.525 649.025 138.146 649.658 137.624 650.135C137.102 650.613 136.459 650.914 135.776 651C134.862 651.116 133.943 650.839 133.22 650.23C132.497 649.62 132.029 648.729 131.92 647.751Z" fill="#263238"/>
<path d="M148.518 667.749C148.436 667.019 148.559 666.28 148.87 665.624C149.181 664.968 149.667 664.426 150.266 664.067C150.865 663.707 151.551 663.545 152.236 663.602C152.921 663.659 153.575 663.932 154.115 664.387C154.654 664.842 155.056 665.458 155.269 666.157C155.481 666.857 155.495 667.608 155.309 668.315C155.123 669.023 154.745 669.656 154.222 670.134C153.7 670.611 153.057 670.912 152.374 670.999C151.46 671.114 150.541 670.837 149.818 670.228C149.095 669.619 148.627 668.727 148.518 667.749Z" fill="#263238"/>
<path d="M145.492 646.258L139.953 658.594L147.048 659.153" stroke="#263238" stroke-width="2" stroke-linecap="round" stroke-linejoin="round"/>
<path d="M168.333 733.489C168.333 733.489 171.529 729.612 171.103 721.734C170.697 716.836 170.733 711.906 171.21 707.015C171.625 701.554 181.863 680.006 177.421 678.113C172.978 676.22 168.994 680.53 165.095 684.84C161.195 689.149 156.923 700.334 156.923 700.334C150.789 695.352 145.117 689.751 139.984 683.608C134.008 676.163 128.777 669.368 125.975 671.227C119.583 675.445 138.972 699.981 138.972 699.981C138.972 699.981 129.715 690.187 125.24 694.417C120.766 698.647 128.021 708.486 128.021 708.486C128.021 708.486 120.372 698.954 116.419 703.355C112.467 707.756 121.16 718.177 128.585 727.948C133.492 734.167 139.34 739.458 145.886 743.602L168.333 733.489Z" fill="#FFDDCC"/>
<path d="M168.323 732.52C170.507 728.497 171.523 723.869 171.242 719.226C170.816 711.348 170.784 712.465 171.242 706.992C171.7 701.52 181.895 679.983 177.453 678.09C173.01 676.198 169.026 680.507 165.127 684.817C161.228 689.127 156.956 700.311 156.956 700.311C150.822 695.33 145.149 689.729 140.017 683.586C134.04 676.141 128.809 669.345 126.007 671.204C119.615 675.422 139.005 699.958 139.005 699.958C139.005 699.958 129.747 690.164 125.272 694.394C120.798 698.624 128.053 708.463 128.053 708.463C128.053 708.463 120.404 698.932 116.451 703.333C112.499 707.733 121.192 718.154 128.618 727.925C133.043 733.795 138.575 738.601 144.853 742.028" stroke="#263238" stroke-width="2" stroke-linecap="round" stroke-linejoin="round"/>
<path d="M98.766 751.149C94.8881 761.673 81.7205 785.752 90.7972 815.395" stroke="#263238" stroke-width="2" stroke-linecap="round" stroke-linejoin="round"/>
<path d="M48.7593 845.358C52.2078 856.892 58.999 866.952 68.1485 874.078C79.8673 883.119 99.7572 879.676 113.01 876.358C127.275 872.812 142.509 868.275 156.05 862.494C168.941 856.987 182.119 850.933 191.824 839.908C186.774 828.678 174.534 797.085 174.534 797.085L80.7302 817.607" stroke="#263238" stroke-width="2" stroke-linecap="round" stroke-linejoin="round"/>
<path d="M186.188 794.634C198.802 787.793 217.893 789.081 221.802 797.473C225.712 805.864 192.729 804.621 192.729 804.621L186.188 794.634Z" fill="white"/>
<path d="M186.188 794.634C198.802 787.793 217.893 789.081 221.802 797.473C225.712 805.864 192.729 804.621 192.729 804.621L186.188 794.634Z" fill="#FFDDCC" stroke="#263238" stroke-width="2" stroke-linecap="round" stroke-linejoin="round"/>
<path d="M194.178 800.494C206.781 793.653 225.883 794.942 229.793 803.333C233.702 811.724 200.709 810.482 200.709 810.482L194.178 800.494Z" fill="#FFDDCC"/>
<path d="M207.559 796.378C217.467 795.17 227.183 797.621 229.846 803.333C230.123 803.859 230.225 804.47 230.134 805.066" stroke="#263238" stroke-width="2" stroke-linecap="round" stroke-linejoin="round"/>
<path d="M200.187 807.882C212.801 800.984 231.892 802.318 235.801 810.721C239.711 819.124 206.728 817.858 206.728 817.858L200.187 807.882Z" fill="#FFDDCC"/>
<path d="M211.075 804.131C221.781 802.181 232.925 804.53 235.801 810.721C239.722 819.112 206.728 817.858 206.728 817.858" stroke="#263238" stroke-width="2" stroke-linecap="round" stroke-linejoin="round"/>
<path d="M225.851 878.479C245.081 904.052 250.226 975.469 250.226 975.469H74.6045C74.6045 975.469 79.7501 904.052 98.9902 878.479H225.851Z" fill="#263238"/>
<path d="M236.451 827.925L213.653 828.86V822.156L211.522 822.704L181 727.036L131.025 748.31C131.025 748.31 136.447 809.877 143.266 833.227C149.658 855.231 162.708 881.888 185.879 886.676C203.298 890.29 223.23 882.116 236.419 869.893L236.451 827.925Z" fill="#7DDBFF"/>
<path d="M237.325 869.084C224.146 881.762 203.713 890.37 185.911 886.676C162.761 881.888 149.689 855.231 143.297 833.227C136.479 809.854 131.057 748.31 131.057 748.31L181.032 727.036L210.382 820.891" stroke="#263238" stroke-width="2" stroke-linecap="round" stroke-linejoin="round"/>
<path d="M136.074 752.29L138.993 763.999" stroke="#263238" stroke-width="2" stroke-linecap="round" stroke-linejoin="round"/>
<path d="M143.926 748.983L146.835 760.692" stroke="#263238" stroke-width="2" stroke-linecap="round" stroke-linejoin="round"/>
<path d="M152.257 745.734L155.166 757.443" stroke="#263238" stroke-width="2" stroke-linecap="round" stroke-linejoin="round"/>
<path d="M159.693 742.028L162.601 753.737" stroke="#263238" stroke-width="2" stroke-linecap="round" stroke-linejoin="round"/>
<path d="M168.322 737.741L171.241 749.451" stroke="#263238" stroke-width="2" stroke-linecap="round" stroke-linejoin="round"/>
<path d="M176.558 734.663L179.477 746.372" stroke="#263238" stroke-width="2" stroke-linecap="round" stroke-linejoin="round"/>
<path d="M205.593 558.576C206.04 558.118 206.576 557.757 207.169 557.516C207.762 557.275 208.399 557.16 209.038 557.177C212.044 557.315 215.008 556.427 217.441 554.659C218.562 553.728 219.443 552.543 220.01 551.202C220.578 549.861 220.816 548.404 220.705 546.953C220.742 545.696 220.504 544.445 220.005 543.29C219.507 542.135 218.761 541.103 217.82 540.267C215.826 538.501 213.228 537.569 210.565 537.666C207.681 537.644 204.892 538.702 202.75 540.631C201.701 541.725 200.261 542.359 198.745 542.393C197.761 542.425 196.8 542.097 196.042 541.47C195.463 541.09 194.979 540.582 194.628 539.985C194.276 539.389 194.066 538.72 194.013 538.031C193.96 537.341 194.067 536.648 194.324 536.005C194.581 535.362 194.981 534.787 195.496 534.323C197.432 532.347 199.734 530.765 202.274 529.666C204.897 528.559 207.717 527.993 210.565 528.001C214.041 527.961 217.467 528.824 220.508 530.505C223.47 532.119 225.946 534.495 227.679 537.386C229.423 540.27 230.325 543.584 230.284 546.953C230.395 549.17 230.065 551.387 229.313 553.476C228.56 555.564 227.4 557.483 225.9 559.121C222.71 562.207 218.6 564.171 214.192 564.716C213.912 564.813 213.814 564.995 213.814 565.093V568.1C213.824 568.751 213.705 569.397 213.465 570.002C213.225 570.607 212.867 571.158 212.414 571.625C211.495 572.523 210.261 573.025 208.975 573.025C207.69 573.025 206.456 572.523 205.537 571.625C205.076 571.163 204.714 570.613 204.473 570.007C204.233 569.401 204.118 568.752 204.137 568.1V561.96C204.158 560.685 204.681 559.469 205.593 558.576ZM205.033 586.171C204.605 585.691 204.278 585.131 204.072 584.523C203.865 583.916 203.782 583.272 203.829 582.632V581.233C203.775 580.593 203.854 579.948 204.061 579.339C204.268 578.73 204.599 578.17 205.033 577.695C205.513 577.272 206.071 576.947 206.677 576.741C207.283 576.534 207.924 576.45 208.562 576.492H209.585C210.226 576.442 210.871 576.522 211.48 576.729C212.09 576.936 212.65 577.264 213.128 577.695C213.555 578.175 213.881 578.735 214.088 579.343C214.295 579.95 214.378 580.593 214.332 581.233V582.632C214.386 583.273 214.307 583.918 214.1 584.527C213.893 585.136 213.562 585.695 213.128 586.171C212.648 586.598 212.087 586.924 211.478 587.131C210.87 587.337 210.226 587.42 209.585 587.373H208.562C207.922 587.442 207.274 587.369 206.665 587.161C206.055 586.954 205.498 586.616 205.033 586.171Z" fill="white"/>
<path d="M87.9809 544.822C88.6776 544.107 89.5152 543.544 90.4409 543.169C91.3665 542.793 92.3601 542.613 93.3588 542.641C98.8908 542.641 103.26 541.34 106.608 538.724C109.955 536.109 111.705 532.179 111.705 526.654C111.766 524.687 111.394 522.73 110.615 520.923C109.836 519.115 108.669 517.5 107.196 516.192C104.096 513.423 100.051 511.946 95.8937 512.066C91.3801 512.032 87.0176 513.689 83.6674 516.71C82.0291 518.427 79.7807 519.431 77.4072 519.507C75.8819 519.574 74.3856 519.076 73.2057 518.108C72.2997 517.514 71.5418 516.72 70.99 515.787C70.4382 514.855 70.1071 513.809 70.022 512.73C69.9368 511.65 70.0999 510.565 70.4988 509.558C70.8977 508.551 71.5218 507.649 72.3234 506.919C75.3656 503.835 78.9748 501.366 82.9531 499.646C87.0413 497.894 91.4449 496.994 95.8937 497.003C101.315 496.927 106.663 498.263 111.411 500.877C116.044 503.394 119.914 507.109 122.615 511.633C125.35 516.142 126.762 521.327 126.691 526.598C126.691 534.598 124.366 540.99 119.856 545.634C114.854 550.459 108.413 553.523 101.51 554.361C101.076 554.501 100.936 554.795 100.936 554.949V559.62C100.953 560.654 100.763 561.682 100.379 562.642C99.9939 563.603 99.4215 564.477 98.6947 565.215C97.2521 566.613 95.3205 567.396 93.3098 567.396C91.2991 567.396 89.3676 566.613 87.9249 565.215C87.2064 564.489 86.6425 563.625 86.267 562.675C85.8916 561.726 85.7123 560.71 85.7401 559.69V550.095C85.7723 548.114 86.576 546.222 87.9809 544.822ZM87.0986 587.998C86.4328 587.248 85.9228 586.374 85.5982 585.426C85.2737 584.477 85.141 583.474 85.2079 582.474V580.292C85.1255 579.291 85.2509 578.283 85.5763 577.333C85.9016 576.382 86.4198 575.509 87.0986 574.767C87.8474 574.099 88.7228 573.588 89.673 573.263C90.6232 572.939 91.6289 572.808 92.6306 572.879H94.2412C95.2417 572.795 96.249 572.919 97.1989 573.244C98.1489 573.569 99.0207 574.088 99.7591 574.767C100.431 575.513 100.946 576.387 101.274 577.336C101.601 578.285 101.734 579.291 101.664 580.292V582.474C101.744 583.476 101.617 584.484 101.289 585.435C100.961 586.385 100.44 587.258 99.7591 587.998C99.0116 588.664 98.1385 589.174 97.1909 589.498C96.2433 589.823 95.2405 589.955 94.2412 589.887H92.6306C91.6267 589.988 90.6127 589.872 89.6579 589.547C88.7031 589.221 87.83 588.693 87.0986 587.998Z" fill="white"/>
<defs>
<linearGradient id="paint0_linear_3064_5386" x1="57.5" y1="0" x2="57.5" y2="975" gradientUnits="userSpaceOnUse">
<stop stop-color="#3FA6E1"/>
<stop offset="1" stop-color="#134867"/>
</linearGradient>
</defs>
</svg>
