<svg width="340" height="976" viewBox="17 0 250 1000" fill="none" xmlns="http://www.w3.org/2000/svg">
<rect x="-202" width="519" height="975" fill="url(#paint0_linear_3062_1574)"/>
<path opacity="0.3" d="M313.572 1036.5V984.5C313.572 984.5 315.926 953.329 313.572 948C304.278 927.178 304.384 864.969 248.495 855.921C244.405 855.302 218.877 847.245 208.839 822.829C202.271 806.965 205.989 791.1 208.591 781.557C217.514 747.845 237.466 744.994 248.123 717.231C256.921 694.302 256.55 661.706 239.324 637.413C217.762 606.924 176.867 599.487 146.754 605.56C117.26 611.509 96.9371 631.464 86.7754 643.61C80.951 630.596 70.9133 612.005 53.8119 593.91C12.2978 549.663 -51.2745 528.717 -109.023 536.649C-173.586 545.573 -213.613 588.208 -233.689 609.65C-346.335 729.997 -321.5 1018.55 -315.428 1053.5L164.572 1043C121.695 1036.93 373.426 1043.94 313.572 1036.5Z" fill="#093646"/>
<path d="M365 947.089H-11V947.297H365V947.089Z" fill="#EBEBEB"/>
<path d="M87.0365 955.016H28.4497V955.224H87.0365V955.016Z" fill="#EBEBEB"/>
<path d="M327.325 961.347H298.824V961.555H327.325V961.347Z" fill="#EBEBEB"/>
<path d="M102.221 962.746H87.7886V962.954H102.221V962.746Z" fill="#EBEBEB"/>
<path d="M173.51 952.757H141.029V952.965H173.51V952.757Z" fill="#EBEBEB"/>
<path d="M184.968 952.757H180.206V952.965H184.968V952.757Z" fill="#EBEBEB"/>
<path d="M267.908 957.833H235.405V958.042H267.908V957.833Z" fill="#EBEBEB"/>
<path d="M96.5412 928.061H59.594C57.9471 928.061 56.5491 926.723 56.3107 924.92L47.0619 854.94C46.7693 852.723 48.3215 850.735 50.3451 850.735H87.2924C88.9393 850.735 90.3372 852.073 90.5756 853.877L99.8237 923.857C100.117 926.072 98.5649 928.061 96.5412 928.061Z" fill="#51AEE3"/>
<path d="M63.9884 928.061H46.5668C44.92 928.061 43.522 926.723 43.2836 924.92L34.0355 854.94C33.743 852.724 35.2951 850.736 37.3187 850.736H54.7396C56.3865 850.736 57.7844 852.074 58.0228 853.877L67.2709 923.857C67.5642 926.072 66.0121 928.061 63.9884 928.061Z" fill="#8DD1FF"/>
<path d="M284.51 833H104.928C100.367 833 96.3532 836.786 95.9629 841.455L91.4434 895.485C91.0523 900.155 94.4333 903.941 98.9942 903.941H278.576C283.136 903.941 287.151 900.155 287.541 895.485L292.06 841.455C292.451 836.786 289.07 833 284.51 833Z" fill="#72BDFF"/>
<path d="M272.319 833H92.7373C88.1764 833 84.1623 836.786 83.772 841.455L79.2525 895.485C78.8614 900.155 82.2424 903.941 86.8033 903.941H266.385C270.946 903.941 274.96 900.155 275.35 895.485L279.87 841.455C280.26 836.786 276.88 833 272.319 833Z" fill="#6CC4F6"/>
<path d="M70.0669 922.072V902.835C70.0669 899.527 72.4891 896.846 75.4775 896.846H143.115C146.103 896.846 148.526 899.527 148.526 902.835V922.072C148.526 925.38 146.104 928.061 143.115 928.061H75.4775C72.4891 928.061 70.0669 925.38 70.0669 922.072Z" fill="#8DD1FF"/>
<path d="M167.869 922.581V902.327C167.869 899.301 170.086 896.847 172.82 896.847H251.76C254.494 896.847 256.711 899.301 256.711 902.327V922.581C256.711 925.607 254.494 928.061 251.76 928.061H172.82C170.086 928.061 167.869 925.607 167.869 922.581Z" fill="#72BDFF"/>
<path d="M148.525 922.581V902.327C148.525 899.301 150.742 896.847 153.477 896.847H232.416C235.151 896.847 237.367 899.301 237.367 902.327V922.581C237.367 925.607 235.151 928.061 232.416 928.061H153.477C150.742 928.061 148.525 925.607 148.525 922.581Z" fill="#8DD1FF"/>
<path d="M284.014 928.061H256.528C254.505 928.061 253.181 926.073 253.729 923.857L271.04 853.877C271.486 852.073 273.038 850.735 274.685 850.735H302.17C304.194 850.735 305.517 852.723 304.969 854.94L287.659 924.919C287.213 926.723 285.661 928.061 284.014 928.061Z" fill="#51AEE3"/>
<path d="M260.923 928.061H243.502C241.478 928.061 240.155 926.073 240.703 923.857L258.013 853.877C258.459 852.073 260.011 850.735 261.658 850.735H279.079C281.103 850.735 282.426 852.723 281.878 854.94L264.568 924.919C264.122 926.723 262.57 928.061 260.923 928.061Z" fill="#8DD1FF"/>
<path d="M246.347 947.089H243.703L237.367 928.061H243.917L246.347 947.089Z" fill="#72BDFF"/>
<path d="M279.901 947.089H277.257L270.92 928.061H277.47L279.901 947.089Z" fill="#72BDFF"/>
<path d="M89.1758 947.089H91.8198L98.1554 928.061H91.6062L89.1758 947.089Z" fill="#72BDFF"/>
<path d="M55.6216 947.089H58.2656L64.602 928.061H58.052L55.6216 947.089Z" fill="#72BDFF"/>
<path d="M257.096 814.716H38.2264C35.8665 814.716 34.0424 812.66 34.172 810.148L41.5434 667.287C41.6731 664.774 43.7099 662.719 46.0697 662.719H264.939C267.299 662.719 269.123 664.774 268.994 667.287L261.622 810.148C261.493 812.66 259.456 814.716 257.096 814.716Z" fill="#263238"/>
<path d="M165.027 687.015H143.87C136.816 687.015 131.36 680.879 131.746 673.379L131.961 669.212C132.336 661.945 138.236 656 145.071 656H166.214C173.277 656 178.738 662.142 178.35 669.65L178.136 673.804C177.762 681.07 171.863 687.015 165.027 687.015Z" fill="#263238"/>
<path d="M184.286 962.95H177.508L158.846 659.182H165.625L184.286 962.95Z" fill="#263238"/>
<path d="M133.406 962.95H140.185L158.847 659.182H152.068L133.406 962.95Z" fill="#263238"/>
<path d="M255.931 814.716H37.0609C34.701 814.716 32.8769 812.66 33.0065 810.148L40.3779 667.287C40.5075 664.774 42.5443 662.719 44.9032 662.719H263.773C266.133 662.719 267.957 664.774 267.827 667.287L260.456 810.148C260.326 812.66 258.289 814.716 255.931 814.716Z" fill="#407BFF"/>
<path opacity="0.4" d="M40.5333 810.339C38.6444 810.339 37.191 808.703 37.2953 806.691L44.3092 670.745C44.4125 668.734 46.034 667.097 47.924 667.097H260.299C262.188 667.097 263.641 668.734 263.537 670.745L256.523 806.691C256.419 808.702 254.799 810.339 252.91 810.339H40.5333Z" fill="#382626"/>
<path opacity="0.1" d="M254.226 738.28H190.299C188.691 738.28 187.46 736.892 187.548 735.181L190.74 673.301C190.752 673.059 190.579 672.863 190.351 672.863C190.123 672.863 189.93 673.059 189.918 673.301L186.725 735.181C186.637 736.892 185.262 738.28 183.654 738.28H117.222C115.615 738.28 114.383 736.892 114.471 735.181L117.663 673.301C117.676 673.059 117.502 672.863 117.275 672.863C117.047 672.863 116.853 673.059 116.841 673.301L113.649 735.181C113.561 736.892 112.186 738.28 110.578 738.28H46.6509C46.424 738.28 46.2296 738.476 46.2174 738.718C46.2052 738.959 46.3784 739.156 46.6063 739.156H110.533C112.141 739.156 113.372 740.543 113.284 742.255L110.092 804.135C110.079 804.377 110.253 804.573 110.48 804.573C110.707 804.573 110.902 804.377 110.914 804.135L114.106 742.255C114.195 740.543 115.57 739.156 117.177 739.156H183.61C185.217 739.156 186.449 740.543 186.361 742.255L183.168 804.135C183.156 804.377 183.329 804.573 183.557 804.573C183.784 804.573 183.979 804.377 183.991 804.135L187.183 742.255C187.271 740.543 188.647 739.156 190.254 739.156H254.181C254.408 739.156 254.602 738.959 254.614 738.718C254.627 738.476 254.452 738.28 254.226 738.28Z" fill="white"/>
<path opacity="0.4" d="M149.996 684.078H124.319L122.884 711.881L148.525 712.612L149.996 684.078Z" fill="#263238"/>
<path d="M147.212 711.417C138.623 710.972 130.032 710.525 121.44 710.08C122.866 700.629 123.76 691.156 124.121 681.709C132.763 682.155 141.405 682.6 150.044 683.046C149.634 692.493 148.689 701.969 147.212 711.417Z" fill="white"/>
<path opacity="0.4" d="M180.952 702.652L155.241 704.74L155.805 732.462L181.53 731.103L180.952 702.652Z" fill="#263238"/>
<path d="M180.13 730.022C171.498 730.278 162.863 730.533 154.229 730.789C154.977 721.29 155.191 711.812 154.872 702.402C163.557 702.142 172.242 701.881 180.924 701.623C181.193 711.037 180.928 720.522 180.13 730.022Z" fill="#407BFF"/>
<path opacity="0.4" d="M105.86 753.218L58.458 751.291L54.2041 796.187L101.495 799.293L105.86 753.218Z" fill="#263238"/>
<path d="M99.1418 797.26C83.3103 795.894 67.4767 794.526 51.6421 793.16C54.8214 777.971 57.0192 762.704 58.2295 747.439C74.1583 748.809 90.0841 750.178 106.008 751.549C104.704 766.813 102.412 782.078 99.1418 797.26Z" fill="white"/>
<g opacity="0.3">
<path d="M57.073 690.36C55.6033 690.36 54.4669 689.08 54.5469 687.515C54.628 685.95 55.896 684.669 57.3667 684.669C58.8363 684.669 59.9727 685.949 59.8927 687.515C59.8116 689.08 58.5426 690.36 57.073 690.36Z" fill="#263238"/>
<path opacity="0.8" d="M98.9587 690.36H66.0681C64.5984 690.36 63.4621 689.08 63.5421 687.515C63.6231 685.95 64.8912 684.669 66.3618 684.669H99.2524C100.722 684.669 101.858 685.949 101.778 687.515C101.697 689.08 100.428 690.36 98.9587 690.36Z" fill="#263238"/>
<path d="M56.4328 702.768C54.9632 702.768 53.8268 701.488 53.9068 699.923C53.9878 698.359 55.2559 697.078 56.7255 697.078C58.1951 697.078 59.3315 698.358 59.2515 699.923C59.1715 701.488 57.9024 702.768 56.4328 702.768Z" fill="#263238"/>
<path opacity="0.8" d="M104.144 702.768H65.4285C63.9589 702.768 62.8225 701.488 62.9035 699.923C62.9845 698.359 64.2526 697.078 65.7222 697.078H104.438C105.907 697.078 107.044 698.358 106.964 699.923C106.882 701.488 105.614 702.768 104.144 702.768Z" fill="#263238"/>
<path d="M55.7922 715.176C54.3226 715.176 53.1862 713.896 53.2662 712.33C53.3472 710.766 54.6153 709.485 56.0859 709.485C57.5555 709.485 58.6919 710.765 58.6119 712.33C58.5309 713.896 57.2618 715.176 55.7922 715.176Z" fill="#263238"/>
<path opacity="0.8" d="M83.6325 715.176H64.7888C63.3192 715.176 62.1828 713.896 62.2628 712.33C62.3438 710.766 63.6119 709.485 65.0815 709.485H83.9252C85.3948 709.485 86.5312 710.765 86.4512 712.33C86.3702 713.896 85.1021 715.176 83.6325 715.176Z" fill="#263238"/>
<path opacity="0.8" d="M101.081 727.584H82.237C80.7674 727.584 79.631 726.304 79.711 724.739C79.792 723.174 81.0601 721.893 82.5307 721.893H101.374C102.844 721.893 103.98 723.173 103.9 724.739C103.819 726.304 102.551 727.584 101.081 727.584Z" fill="#263238"/>
<path d="M55.1515 727.584C53.6819 727.584 52.5455 726.304 52.6256 724.739C52.7066 723.174 53.9746 721.893 55.4443 721.893C56.9139 721.893 58.0503 723.173 57.9703 724.739C57.8902 726.304 56.6212 727.584 55.1515 727.584Z" fill="#263238"/>
<path opacity="0.8" d="M72.8504 727.584H64.1481C62.6785 727.584 61.5421 726.304 61.6221 724.739C61.7032 723.174 62.9712 721.893 64.4409 721.893H73.1431C74.6127 721.893 75.7491 723.173 75.6691 724.739C75.5881 726.304 74.32 727.584 72.8504 727.584Z" fill="#263238"/>
</g>
<path d="M136.922 764.506H124.167L122.414 798.482H135.169L136.922 764.506Z" fill="#407BFF"/>
<path d="M156.266 771.51H143.512L142.121 798.482H154.875L156.266 771.51Z" fill="#407BFF"/>
<path d="M176.907 753.416H164.152L161.828 798.481H174.581L176.907 753.416Z" fill="#407BFF"/>
<path d="M127.006 783.677C125.743 783.677 124.469 783.642 123.181 783.572C120.954 783.45 118.064 783.15 115.465 781.906C115.051 781.707 114.867 781.189 115.053 780.748C115.24 780.306 115.726 780.11 116.14 780.308C118.489 781.432 121.182 781.707 123.265 781.822C138.568 782.659 151.969 778.416 165.456 768.469C168.671 766.097 173.472 761.71 176.423 757.151C176.68 756.752 177.192 756.652 177.566 756.926C177.94 757.2 178.034 757.746 177.777 758.144C174.705 762.894 169.882 767.335 166.393 769.908C153.725 779.252 141.115 783.677 127.006 783.677Z" fill="white"/>
<path d="M179.676 763.86C179.571 763.86 179.465 763.839 179.362 763.793C178.941 763.609 178.743 763.097 178.916 762.65C180.081 759.648 180.326 756.273 179.624 753.219C176.418 755.514 172.996 757.45 169.435 758.979C169.013 759.159 168.534 758.943 168.364 758.494C168.194 758.046 168.398 757.536 168.819 757.355C172.615 755.724 176.25 753.618 179.622 751.096C179.834 750.938 180.104 750.894 180.35 750.981C180.597 751.067 180.791 751.271 180.874 751.533C182.056 755.261 181.896 759.557 180.435 763.32C180.305 763.656 179.999 763.86 179.676 763.86Z" fill="white"/>
<path d="M246.838 730.364H199.393C198.588 730.364 197.846 730.029 197.305 729.421C196.763 728.812 196.489 728.003 196.533 727.145L198.736 684.442C198.827 682.693 200.237 681.271 201.88 681.271H249.325C250.13 681.271 250.872 681.606 251.413 682.214C251.955 682.824 252.229 683.632 252.184 684.491L249.982 727.192C249.891 728.941 248.481 730.364 246.838 730.364ZM201.881 682.146C200.668 682.146 199.626 683.198 199.559 684.491L197.356 727.192C197.324 727.808 197.519 728.386 197.903 728.819C198.287 729.251 198.815 729.489 199.393 729.489H246.838C248.051 729.489 249.093 728.437 249.16 727.145L251.363 684.442C251.394 683.826 251.2 683.248 250.816 682.816C250.432 682.385 249.904 682.146 249.326 682.146H201.881Z" fill="#407BFF"/>
<path d="M251.329 693.522H198.703C198.476 693.522 198.292 693.326 198.292 693.085C198.292 692.843 198.476 692.647 198.703 692.647H251.329C251.556 692.647 251.74 692.843 251.74 693.085C251.74 693.326 251.557 693.522 251.329 693.522Z" fill="#407BFF"/>
<path d="M209.228 730.364C209.22 730.364 209.213 730.364 209.204 730.363C208.978 730.35 208.804 730.143 208.817 729.902L210.718 693.061C210.73 692.819 210.921 692.631 211.151 692.648C211.378 692.661 211.551 692.868 211.539 693.109L209.638 729.951C209.626 730.183 209.444 730.364 209.228 730.364Z" fill="#407BFF"/>
<path d="M245.302 697.899H216.731C216.504 697.899 216.32 697.703 216.32 697.461C216.32 697.22 216.504 697.024 216.731 697.024H245.302C245.529 697.024 245.713 697.22 245.713 697.461C245.713 697.703 245.529 697.899 245.302 697.899Z" fill="#407BFF"/>
<path d="M240.996 703.272H216.452C216.225 703.272 216.041 703.075 216.041 702.834C216.041 702.592 216.225 702.396 216.452 702.396H240.996C241.223 702.396 241.407 702.592 241.407 702.834C241.407 703.075 241.223 703.272 240.996 703.272Z" fill="#407BFF"/>
<path d="M230.454 708.815H216.168C215.941 708.815 215.756 708.619 215.756 708.377C215.756 708.136 215.941 707.939 216.168 707.939H230.454C230.68 707.939 230.865 708.136 230.865 708.377C230.865 708.619 230.68 708.815 230.454 708.815Z" fill="#407BFF"/>
<path d="M233.049 719.633H215.61C215.383 719.633 215.199 719.437 215.199 719.195C215.199 718.954 215.383 718.758 215.61 718.758H233.049C233.276 718.758 233.46 718.954 233.46 719.195C233.46 719.438 233.276 719.633 233.049 719.633Z" fill="#407BFF"/>
<path d="M229.609 725.176H215.323C215.096 725.176 214.912 724.98 214.912 724.739C214.912 724.497 215.096 724.301 215.323 724.301H229.609C229.836 724.301 230.02 724.497 230.02 724.739C230.02 724.98 229.836 725.176 229.609 725.176Z" fill="#407BFF"/>
<path d="M237.972 725.176H233.394C233.167 725.176 232.983 724.98 232.983 724.739C232.983 724.497 233.167 724.301 233.394 724.301H237.972C238.199 724.301 238.383 724.497 238.383 724.739C238.383 724.98 238.199 725.176 237.972 725.176Z" fill="#407BFF"/>
<path d="M242.643 714.186H215.89C215.663 714.186 215.479 713.99 215.479 713.748C215.479 713.507 215.663 713.31 215.89 713.31H242.643C242.87 713.31 243.054 713.507 243.054 713.748C243.054 713.99 242.87 714.186 242.643 714.186Z" fill="#407BFF"/>
<path d="M217.704 792.488C211.506 792.488 206.427 790.537 203.272 786.91C199.905 783.037 198.508 776.947 199.439 770.201C200.009 766.069 201.277 762.602 203.209 759.895C205.147 757.18 207.951 754.942 211.542 753.241C219.467 749.489 228.639 749.62 236.079 753.594C239.413 755.374 241.502 757.627 242.289 760.288C242.425 760.748 242.184 761.24 241.751 761.386C241.317 761.531 240.857 761.275 240.72 760.813C240.072 758.621 238.262 756.718 235.341 755.158C228.337 751.418 219.689 751.3 212.21 754.841C208.874 756.421 206.287 758.477 204.517 760.955C202.756 763.423 201.594 766.62 201.064 770.455C200.206 776.675 201.449 782.239 204.478 785.72C208.686 790.56 215.653 790.906 219.432 790.685C226.457 790.271 232.501 787.658 236.45 783.328C241.068 778.266 242.364 770.692 239.462 765.711C238.9 764.746 237.69 763.099 235.914 762.91C235.462 762.863 235.132 762.434 235.178 761.953C235.222 761.472 235.628 761.124 236.077 761.169C237.915 761.364 239.613 762.65 240.86 764.789C244.147 770.432 242.759 778.927 237.631 784.55C233.392 789.196 226.963 791.995 219.524 792.435C218.908 792.469 218.301 792.488 217.704 792.488Z" fill="white"/>
<defs>
<linearGradient id="paint0_linear_3062_1574" x1="57.5" y1="0" x2="57.5" y2="975" gradientUnits="userSpaceOnUse">
<stop stop-color="#3FA6E1"/>
<stop offset="1" stop-color="#134867"/>
</linearGradient>
</defs>
</svg>
