<svg width="1316" height="586" viewBox="0 0 1316 586" fill="none" xmlns="http://www.w3.org/2000/svg">
<path d="M1066.87 153.867L1069.5 158.671L1074.29 161.282L1069.5 163.913L1066.87 168.698L1064.26 163.913L1059.45 161.282L1064.26 158.671L1066.87 153.867Z" fill="white"/>
<path d="M26.8686 162.867L29.5002 167.671L34.2866 170.282L29.5002 172.913L26.8686 177.698L24.2561 172.913L19.4507 170.282L24.2561 167.671L26.8686 162.867Z" fill="white"/>
<path d="M1094.35 133.698L1095.66 136.1L1098.05 137.415L1095.66 138.731L1094.35 141.133L1093.03 138.731L1090.63 137.415L1093.03 136.1L1094.35 133.698Z" fill="white"/>
<path d="M54.3473 142.698L55.6631 145.1L58.0467 146.415L55.6631 147.731L54.3473 150.133L53.0315 147.731L50.6288 146.415L53.0315 145.1L54.3473 142.698Z" fill="white"/>
<path d="M1259.35 87.9667L1260.67 90.3686L1263.07 91.6649L1260.67 92.9802L1259.35 95.3821L1258.04 92.9802L1255.64 91.6649L1258.04 90.3686L1259.35 87.9667Z" fill="white"/>
<path d="M219.353 96.9667L220.669 99.3686L223.072 100.665L220.669 101.98L219.353 104.382L218.038 101.98L215.635 100.665L218.038 99.3686L219.353 96.9667Z" fill="white"/>
<path d="M1311.76 84.9548L1312.25 85.8508L1313.17 86.3655L1312.25 86.842L1311.76 87.7571L1311.26 86.842L1310.36 86.3655L1311.26 85.8508L1311.76 84.9548Z" fill="white"/>
<path d="M271.756 93.9548L272.251 94.8508L273.167 95.3655L272.251 95.842L271.756 96.7571L271.26 95.842L270.364 95.3655L271.26 94.8508L271.756 93.9548Z" fill="white"/>
<path d="M1042.52 10L1043.39 11.6203L1045.03 12.5163L1043.39 13.3932L1042.52 15.0326L1041.62 13.3932L1040 12.5163L1041.62 11.6203L1042.52 10Z" fill="white"/>
<path d="M2.51715 19L3.39432 20.6203L5.03428 21.5163L3.39432 22.3932L2.51715 24.0326L1.6209 22.3932L0 21.5163L1.6209 20.6203L2.51715 19Z" fill="white"/>
<path d="M1094.35 85.2407L1095.22 86.8611L1096.85 87.757L1095.22 88.653L1094.35 90.2733L1093.45 88.653L1091.83 87.757L1093.45 86.8611L1094.35 85.2407Z" fill="white"/>
<path d="M54.3474 94.2407L55.2245 95.8611L56.8454 96.757L55.2245 97.653L54.3474 99.2733L53.4511 97.653L51.8302 96.757L53.4511 95.8611L54.3474 94.2407Z" fill="white"/>
<path d="M1205.08 13.9078L1205.96 15.5472L1207.58 16.4241L1205.96 17.3201L1205.08 18.9404L1204.19 17.3201L1202.57 16.4241L1204.19 15.5472L1205.08 13.9078Z" fill="white"/>
<path d="M165.082 22.9078L165.96 24.5472L167.581 25.4241L165.96 26.3201L165.082 27.9404L164.186 26.3201L162.565 25.4241L164.186 24.5472L165.082 22.9078Z" fill="white"/>
<path d="M1313.17 57.371L1314.06 58.9913L1315.68 59.8873L1314.06 60.7641L1313.17 62.4035L1312.29 60.7641L1310.67 59.8873L1312.29 58.9913L1313.17 57.371Z" fill="white"/>
<path d="M273.167 66.371L274.063 67.9913L275.684 68.8873L274.063 69.7641L273.167 71.4035L272.29 69.7641L270.669 68.8873L272.29 67.9913L273.167 66.371Z" fill="white"/>
<path d="M1148.12 82.7435L1149 84.3639L1150.62 85.2407L1149 86.1367L1148.12 87.757L1147.23 86.1367L1145.61 85.2407L1147.23 84.3639L1148.12 82.7435Z" fill="white"/>
<path d="M108.123 91.7435L109 93.3639L110.621 94.2407L109 95.1367L108.123 96.757L107.226 95.1367L105.605 94.2407L107.226 93.3639L108.123 91.7435Z" fill="white"/>
<path d="M887.763 453C885.754 453 883.947 452.3 882.34 450.9C880.934 449.5 880.231 447.7 880.231 445.5V411.6H786.532C784.524 411.6 782.716 410.9 781.109 409.5C779.703 408.1 779 406.3 779 404.1V375.6C779 373.8 779.301 372.2 779.904 370.8C780.707 369.2 781.511 367.7 782.314 366.3L869.987 248.1C872.598 244.7 876.314 243 881.135 243H924.821C927.03 243 928.838 243.7 930.244 245.1C931.85 246.5 932.654 248.3 932.654 250.5V366.9H959.167C961.577 366.9 963.485 367.7 964.891 369.3C966.297 370.7 967 372.4 967 374.4V404.1C967 406.3 966.197 408.1 964.59 409.5C963.184 410.9 961.477 411.6 959.468 411.6H932.654V445.5C932.654 447.7 931.85 449.5 930.244 450.9C928.838 452.3 927.03 453 924.821 453H887.763ZM830.821 369H881.436V298.2L830.821 369Z" fill="white"/>
<path opacity="0.03" d="M618.977 127.024C621.814 87.065 591.71 52.3727 551.738 49.5365C511.766 46.7002 477.062 76.794 474.224 116.753C471.387 156.712 501.491 191.404 541.464 194.24C581.436 197.076 616.14 166.983 618.977 127.024Z" fill="white"/>
<path opacity="0.03" d="M582.617 121.887C582.598 129.005 580.47 135.958 576.5 141.867C572.53 147.776 566.898 152.377 560.314 155.088C553.73 157.799 546.491 158.498 539.509 157.098C532.528 155.698 526.119 152.261 521.09 147.221C516.062 142.181 512.641 135.765 511.259 128.782C509.877 121.8 510.595 114.564 513.325 107.99C516.054 101.416 520.671 95.7972 526.593 91.8446C532.514 87.892 539.475 85.7825 546.595 85.7825C551.334 85.7825 556.026 86.717 560.402 88.5326C564.779 90.3482 568.754 93.0092 572.1 96.3631C575.446 99.717 578.098 103.698 579.902 108.078C581.707 112.458 582.63 117.15 582.617 121.887Z" fill="white"/>
<path opacity="0.03" d="M568.449 121.887C568.449 126.208 567.167 130.432 564.766 134.024C562.364 137.617 558.951 140.417 554.958 142.07C550.965 143.724 546.571 144.156 542.332 143.313C538.093 142.471 534.199 140.39 531.143 137.335C528.086 134.28 526.005 130.387 525.162 126.149C524.319 121.912 524.751 117.519 526.405 113.527C528.059 109.535 530.86 106.124 534.454 103.723C538.048 101.323 542.273 100.041 546.595 100.041C549.465 100.041 552.307 100.606 554.958 101.704C557.609 102.802 560.019 104.411 562.048 106.44C564.077 108.468 565.687 110.877 566.785 113.527C567.883 116.178 568.449 119.018 568.449 121.887Z" fill="white"/>
<path d="M553.231 129.513C550.462 129.511 547.754 128.695 545.446 127.167C543.137 125.638 541.329 123.464 540.248 120.915C539.166 118.367 538.858 115.557 539.363 112.835C539.868 110.113 541.163 107.599 543.086 105.608C540.244 106.279 537.631 107.694 535.514 109.706C533.397 111.718 531.853 114.256 531.039 117.06C530.225 119.865 530.171 122.835 530.882 125.667C531.592 128.499 533.043 131.092 535.084 133.18C537.126 135.269 539.686 136.777 542.502 137.553C545.318 138.328 548.29 138.341 551.113 137.592C553.936 136.843 556.51 135.358 558.57 133.289C560.631 131.219 562.105 128.64 562.842 125.814C560.222 128.218 556.788 129.54 553.231 129.513Z" fill="white"/>
<path d="M726.075 176.998L728.706 181.802L733.493 184.413L728.706 187.044L726.075 191.829L723.462 187.044L718.657 184.413L723.462 181.802L726.075 176.998Z" fill="white"/>
<path d="M620.965 81.6077L623.597 86.4115L628.383 89.0421L623.597 91.6537L620.965 96.4576L618.353 91.6537L613.547 89.0421L618.353 86.4115L620.965 81.6077Z" fill="white"/>
<path d="M560.859 153.131L563.491 157.916L568.296 160.547L563.491 163.158L560.859 167.962L558.247 163.158L553.441 160.547L558.247 157.916L560.859 153.131Z" fill="white"/>
<path d="M426.059 30.7292L428.69 35.5331L433.476 38.1637L428.69 40.7753L426.059 45.5791L423.427 40.7753L418.641 38.1637L423.427 35.5331L426.059 30.7292Z" fill="white"/>
<path d="M753.554 156.829L754.869 159.231L757.253 160.547L754.869 161.862L753.554 164.264L752.238 161.862L749.835 160.547L752.238 159.231L753.554 156.829Z" fill="white"/>
<path d="M918.56 111.098L919.876 113.5L922.278 114.796L919.876 116.111L918.56 118.513L917.244 116.111L914.841 114.796L917.244 113.5L918.56 111.098Z" fill="white"/>
<path d="M992.301 246.71L993.597 249.112L996 250.428L993.597 251.743L992.301 254.126L990.985 251.743L988.582 250.428L990.985 249.112L992.301 246.71Z" fill="white"/>
<path d="M848.004 311.066L849.319 313.468L851.703 314.784L849.319 316.08L848.004 318.482L846.688 316.08L844.285 314.784L846.688 313.468L848.004 311.066Z" fill="white"/>
<path d="M779.774 296.998L781.09 299.4L783.492 300.696L781.09 302.011L779.774 304.413L778.458 302.011L776.055 300.696L778.458 299.4L779.774 296.998Z" fill="white"/>
<path d="M934.368 305.176L935.665 307.578L938.068 308.893L935.665 310.208L934.368 312.591L933.052 310.208L930.65 308.893L933.052 307.578L934.368 305.176Z" fill="white"/>
<path d="M459.964 300.696L461.279 303.098L463.663 304.413L461.279 305.729L459.964 308.112L458.648 305.729L456.245 304.413L458.648 303.098L459.964 300.696Z" fill="white"/>
<path d="M831.261 232.528L832.577 233.824L834.979 234.529L832.577 235.234L831.261 236.512L829.964 235.234L827.561 234.529L829.964 233.824L831.261 232.528Z" fill="white"/>
<path d="M700.637 103.358L701.533 104.979L703.154 105.875L701.533 106.752L700.637 108.372L699.759 106.752L698.138 105.875L699.759 104.979L700.637 103.358Z" fill="white"/>
<path d="M735.457 77.6998L735.953 78.6148L736.868 79.1105L735.953 79.6061L735.457 80.5021L734.961 79.6061L734.046 79.1105L734.961 78.6148L735.457 77.6998Z" fill="white"/>
<path d="M676.342 109.497L676.838 110.393L677.753 110.888L676.838 111.384L676.342 112.299L675.847 111.384L674.95 110.888L675.847 110.393L676.342 109.497Z" fill="white"/>
<path d="M659.333 80.2162L659.828 81.1121L660.744 81.6078L659.828 82.1034L659.333 83.0184L658.837 82.1034L657.94 81.6078L658.837 81.1121L659.333 80.2162Z" fill="white"/>
<path d="M633.398 111.994L633.894 112.909L634.79 113.404L633.894 113.9L633.398 114.796L632.903 113.9L631.987 113.404L632.903 112.909L633.398 111.994Z" fill="white"/>
<path d="M689.615 166.57L690.11 167.466L691.007 167.962L690.11 168.458L689.615 169.373L689.1 168.458L688.203 167.962L689.1 167.466L689.615 166.57Z" fill="white"/>
<path d="M629.661 210.034L630.157 210.93L631.053 211.425L630.157 211.921L629.661 212.836L629.165 211.921L628.25 211.425L629.165 210.93L629.661 210.034Z" fill="white"/>
<path d="M656.377 228.62L656.854 229.535L657.769 230.03L656.854 230.507L656.377 231.422L655.881 230.507L654.966 230.03L655.881 229.535L656.377 228.62Z" fill="white"/>
<path d="M588.815 260.016L589.31 260.931L590.226 261.427L589.31 261.922L588.815 262.818L588.319 261.922L587.422 261.427L588.319 260.931L588.815 260.016Z" fill="white"/>
<path d="M443.907 261.427L444.403 262.323L445.318 262.818L444.403 263.314L443.907 264.229L443.412 263.314L442.515 262.818L443.412 262.323L443.907 261.427Z" fill="white"/>
<path d="M375.315 271.511L375.811 272.407L376.726 272.903L375.811 273.398L375.315 274.313L374.82 273.398L373.904 272.903L374.82 272.407L375.315 271.511Z" fill="white"/>
<path d="M426.059 292.042L426.554 292.957L427.47 293.452L426.554 293.948L426.059 294.844L425.563 293.948L424.647 293.452L425.563 292.957L426.059 292.042Z" fill="white"/>
<path d="M533.819 272.903L534.315 273.818L535.23 274.313L534.315 274.809L533.819 275.705L533.323 274.809L532.408 274.313L533.323 273.818L533.819 272.903Z" fill="white"/>
<path d="M554.852 290.65L555.348 291.546L556.244 292.042L555.348 292.537L554.852 293.452L554.356 292.537L553.441 292.042L554.356 291.546L554.852 290.65Z" fill="white"/>
<path d="M890.909 274.313L891.405 275.209L892.301 275.705L891.405 276.2L890.909 277.115L890.414 276.2L889.498 275.705L890.414 275.209L890.909 274.313Z" fill="white"/>
<path d="M717.742 261.427L718.237 262.323L719.153 262.818L718.237 263.314L717.742 264.229L717.246 263.314L716.35 262.818L717.246 262.323L717.742 261.427Z" fill="white"/>
<path d="M876.627 211.425L877.122 212.34L878.019 212.836L877.122 213.331L876.627 214.227L876.131 213.331L875.215 212.836L876.131 212.34L876.627 211.425Z" fill="white"/>
<path d="M981.565 290.65L982.06 291.546L982.976 292.042L982.06 292.537L981.565 293.452L981.069 292.537L980.172 292.042L981.069 291.546L981.565 290.65Z" fill="white"/>
<path d="M951.035 322.809L951.531 323.705L952.427 324.201L951.531 324.696L951.035 325.611L950.539 324.696L949.624 324.201L950.539 323.705L951.035 322.809Z" fill="white"/>
<path d="M878.019 275.705L878.533 276.62L879.43 277.115L878.533 277.611L878.019 278.507L877.523 277.611L876.627 277.115L877.523 276.62L878.019 275.705Z" fill="white"/>
<path d="M827.561 277.115L828.057 278.031L828.972 278.526L828.057 279.022L827.561 279.918L827.066 279.022L826.15 278.526L827.066 278.031L827.561 277.115Z" fill="white"/>
<path d="M836.314 176.998L836.81 177.913L837.725 178.408L836.81 178.904L836.314 179.8L835.818 178.904L834.922 178.408L835.818 177.913L836.314 176.998Z" fill="white"/>
<path d="M419.175 175.587L419.67 176.502L420.586 176.998L419.67 177.493L419.175 178.408L418.679 177.493L417.763 176.998L418.679 176.502L419.175 175.587Z" fill="white"/>
<path d="M510.898 127.511L511.393 128.426L512.309 128.922L511.393 129.417L510.898 130.313L510.402 129.417L509.506 128.922L510.402 128.426L510.898 127.511Z" fill="white"/>
<path d="M553.441 109.497L553.937 110.393L554.852 110.888L553.937 111.384L553.441 112.299L552.945 111.384L552.049 110.888L552.945 110.393L553.441 109.497Z" fill="white"/>
<path d="M471.863 76.2892L472.359 77.2042L473.274 77.6998L472.359 78.1955L471.863 79.1105L471.367 78.1955L470.452 77.6998L471.367 77.2042L471.863 76.2892Z" fill="white"/>
<path d="M598.158 190.437L598.654 191.333L599.57 191.829L598.654 192.324L598.158 193.239L597.663 192.324L596.747 191.829L597.663 191.333L598.158 190.437Z" fill="white"/>
<path d="M450.276 181.611L450.772 182.526L451.669 183.022L450.772 183.517L450.276 184.413L449.762 183.517L448.865 183.022L449.762 182.526L450.276 181.611Z" fill="white"/>
<path d="M798.862 29.3376L799.358 30.2336L800.273 30.7292L799.358 31.2249L798.862 32.1399L798.366 31.2249L797.451 30.7292L798.366 30.2336L798.862 29.3376Z" fill="white"/>
<path d="M982.976 36.7531L983.472 37.649L984.387 38.1637L983.472 38.6593L982.976 39.5553L982.48 38.6593L981.584 38.1637L982.48 37.649L982.976 36.7531Z" fill="white"/>
<path d="M934.368 146.021L934.845 146.917L935.76 147.412L934.845 147.908L934.368 148.823L933.853 147.908L932.957 147.412L933.853 146.917L934.368 146.021Z" fill="white"/>
<path d="M864.289 0L864.785 0.915013L865.681 1.41064L864.785 1.90628L864.289 2.80223L863.793 1.90628L862.878 1.41064L863.793 0.915013L864.289 0Z" fill="white"/>
<path d="M970.962 108.086L971.458 108.982L972.373 109.497L971.458 109.973L970.962 110.888L970.466 109.973L969.57 109.497L970.466 108.982L970.962 108.086Z" fill="white"/>
<path d="M451.669 95.047L452.164 95.962L453.08 96.4576L452.164 96.9533L451.669 97.8492L451.173 96.9533L450.276 96.4576L451.173 95.962L451.669 95.047Z" fill="white"/>
<path d="M587.422 223.511L587.918 224.426L588.815 224.922L587.918 225.417L587.422 226.313L586.927 225.417L586.011 224.922L586.927 224.426L587.422 223.511Z" fill="white"/>
<path d="M749.835 235.101L750.331 236.016L751.246 236.512L750.331 237.007L749.835 237.922L749.339 237.007L748.443 236.512L749.339 236.016L749.835 235.101Z" fill="white"/>
<path d="M783.035 183.022L783.531 183.918L784.427 184.413L783.531 184.909L783.035 185.824L782.539 184.909L781.624 184.413L782.539 183.918L783.035 183.022Z" fill="white"/>
<path d="M795.487 247.625L795.983 248.521L796.898 249.017L795.983 249.513L795.487 250.428L794.991 249.513L794.095 249.017L794.991 248.521L795.487 247.625Z" fill="white"/>
<path d="M961.961 292.042L962.457 292.957L963.373 293.452L962.457 293.948L961.961 294.844L961.485 293.948L960.569 293.452L961.485 292.957L961.961 292.042Z" fill="white"/>
<path d="M701.723 33.1311L702.601 34.7514L704.241 35.6474L702.601 36.5243L701.723 38.1637L700.827 36.5243L699.206 35.6474L700.827 34.7514L701.723 33.1311Z" fill="white"/>
<path d="M753.554 108.372L754.431 109.992L756.052 110.888L754.431 111.784L753.554 113.404L752.657 111.784L751.037 110.888L752.657 109.992L753.554 108.372Z" fill="white"/>
<path d="M864.289 37.0389L865.166 38.6783L866.787 39.5552L865.166 40.4512L864.289 42.0715L863.393 40.4512L861.772 39.5552L863.393 38.6783L864.289 37.0389Z" fill="white"/>
<path d="M972.373 80.5021L973.269 82.1224L974.89 83.0184L973.269 83.8952L972.373 85.5346L971.496 83.8952L969.875 83.0184L971.496 82.1224L972.373 80.5021Z" fill="white"/>
<path d="M894.819 173.09L895.715 174.71L897.336 175.587L895.715 176.483L894.819 178.103L893.941 176.483L892.301 175.587L893.941 174.71L894.819 173.09Z" fill="white"/>
<path d="M668.543 206.926L669.439 208.547L671.06 209.443L669.439 210.32L668.543 211.959L667.666 210.32L666.026 209.443L667.666 208.547L668.543 206.926Z" fill="white"/>
<path d="M521.214 54.3861L522.11 56.0064L523.731 56.9024L522.11 57.7793L521.214 59.3996L520.337 57.7793L518.716 56.9024L520.337 56.0064L521.214 54.3861Z" fill="white"/>
<path d="M595.641 116.855L596.538 118.494L598.158 119.371L596.538 120.267L595.641 121.887L594.764 120.267L593.143 119.371L594.764 118.494L595.641 116.855Z" fill="white"/>
<path d="M627.144 189.331L628.021 190.952L629.661 191.848L628.021 192.725L627.144 194.345L626.247 192.725L624.627 191.848L626.247 190.952L627.144 189.331Z" fill="white"/>
<path d="M647.052 166.856L647.929 168.477L649.569 169.373L647.929 170.25L647.052 171.87L646.156 170.25L644.535 169.373L646.156 168.477L647.052 166.856Z" fill="white"/>
<path d="M501.783 230.03L502.66 231.651L504.3 232.528L502.66 233.424L501.783 235.044L500.886 233.424L499.265 232.528L500.886 231.651L501.783 230.03Z" fill="white"/>
<path d="M807.329 105.875L808.206 107.495L809.827 108.372L808.206 109.268L807.329 110.888L806.433 109.268L804.812 108.372L806.433 107.495L807.329 105.875Z" fill="white"/>
<path d="M712.536 154.332L713.413 155.952L715.034 156.829L713.413 157.725L712.536 159.346L711.639 157.725L710.019 156.829L711.639 155.952L712.536 154.332Z" fill="white"/>
<path d="M499.723 399.098H499.437C487.042 395.857 480.215 391.035 480.215 385.525C480.215 375.994 502.297 368.369 530.482 368.369C537.811 368.339 545.132 368.894 552.373 370.027C552.666 370.074 552.928 370.235 553.103 370.474C553.278 370.713 553.352 371.012 553.308 371.305C553.256 371.599 553.092 371.861 552.849 372.035C552.607 372.21 552.306 372.283 552.011 372.239C544.889 371.127 537.69 370.585 530.482 370.618C501.763 370.618 482.465 378.243 482.465 385.506C482.465 389.776 489.025 394.027 500.009 396.944C500.294 397.024 500.537 397.212 500.687 397.469C500.836 397.725 500.88 398.029 500.81 398.317C500.736 398.546 500.591 398.746 500.395 398.887C500.2 399.027 499.964 399.101 499.723 399.098Z" fill="white"/>
<path d="M530.482 396.029C515.913 396.029 500.429 392.331 500.429 385.487C500.429 378.644 515.913 374.927 530.482 374.927C545.051 374.927 560.516 378.625 560.516 385.487C560.516 392.35 545.108 396.029 530.482 396.029ZM530.482 377.176C514.101 377.176 502.679 381.56 502.679 385.487C502.679 389.414 514.12 393.78 530.482 393.78C546.843 393.78 558.266 389.414 558.266 385.487C558.266 381.56 546.862 377.176 530.482 377.176Z" fill="white"/>
<path d="M532.026 390.901C524.532 390.901 516.58 388.995 516.58 385.487C516.58 381.98 524.532 380.073 532.026 380.073C532.158 380.098 532.277 380.167 532.362 380.27C532.448 380.373 532.494 380.502 532.494 380.636C532.494 380.769 532.448 380.899 532.362 381.002C532.277 381.104 532.158 381.174 532.026 381.198C523.579 381.198 517.705 383.448 517.705 385.487C517.705 387.527 523.579 389.776 532.026 389.776C532.158 389.801 532.277 389.87 532.362 389.973C532.448 390.076 532.494 390.205 532.494 390.339C532.494 390.472 532.448 390.602 532.362 390.705C532.277 390.807 532.158 390.877 532.026 390.901Z" fill="white"/>
<path d="M838.374 409.564C828.892 409.584 819.42 408.979 810.018 407.753C809.796 407.724 809.582 407.653 809.388 407.541C809.194 407.43 809.024 407.282 808.887 407.105C808.751 406.927 808.651 406.725 808.593 406.509C808.535 406.293 808.52 406.068 808.549 405.846C808.577 405.625 808.649 405.412 808.761 405.219C808.872 405.026 809.021 404.857 809.199 404.722C809.376 404.587 809.579 404.489 809.795 404.433C810.011 404.377 810.236 404.365 810.456 404.398C819.713 405.602 829.039 406.194 838.374 406.17C881.794 406.17 910.837 394.542 910.837 383.657C910.837 379.559 906.661 375.289 899.052 371.629C898.85 371.532 898.67 371.397 898.52 371.231C898.371 371.065 898.256 370.871 898.182 370.66C898.107 370.45 898.075 370.226 898.087 370.003C898.099 369.78 898.155 369.562 898.251 369.36C898.347 369.159 898.483 368.978 898.649 368.829C898.815 368.68 899.009 368.564 899.22 368.49C899.431 368.416 899.654 368.384 899.877 368.395C900.1 368.407 900.319 368.463 900.52 368.56C909.502 372.887 914.231 378.091 914.231 383.657C914.326 398.202 880.974 409.564 838.374 409.564Z" fill="white"/>
<path d="M791.902 404.245C791.756 404.264 791.609 404.264 791.463 404.245C772.737 399.327 762.421 392.045 762.421 383.714C762.421 369.208 795.792 357.827 838.374 357.827C849.456 357.772 860.525 358.594 871.478 360.286C871.923 360.357 872.322 360.602 872.586 360.966C872.851 361.331 872.96 361.786 872.889 362.231C872.818 362.676 872.573 363.074 872.209 363.339C871.844 363.603 871.389 363.712 870.944 363.641C860.17 361.959 849.278 361.137 838.374 361.182C794.972 361.182 765.815 372.811 765.815 383.676C765.815 390.12 775.731 396.582 792.321 400.928C792.756 401.04 793.128 401.32 793.357 401.706C793.585 402.092 793.652 402.552 793.542 402.987C793.442 403.346 793.229 403.663 792.933 403.89C792.637 404.117 792.275 404.242 791.902 404.245Z" fill="white"/>
<path d="M838.374 399.613C816.368 399.613 792.97 394.027 792.97 383.657C792.97 373.287 816.368 367.721 838.374 367.721C860.38 367.721 883.777 373.306 883.777 383.657C883.777 394.008 860.399 399.613 838.374 399.613ZM838.374 371.114C813.584 371.114 796.421 377.729 796.421 383.657C796.421 389.586 813.679 396.22 838.374 396.22C863.068 396.22 880.326 389.605 880.326 383.657C880.326 377.71 863.145 371.114 838.374 371.114Z" fill="white"/>
<path d="M831.547 391.854C820.22 391.854 808.206 388.995 808.206 383.657C808.206 378.32 820.22 375.479 831.547 375.479C831.75 375.51 831.936 375.612 832.07 375.768C832.204 375.924 832.277 376.122 832.277 376.328C832.277 376.533 832.204 376.732 832.07 376.887C831.936 377.043 831.75 377.145 831.547 377.176C818.79 377.176 809.903 380.607 809.903 383.657C809.903 386.707 818.79 390.158 831.547 390.158C831.75 390.188 831.936 390.291 832.07 390.446C832.204 390.602 832.277 390.801 832.277 391.006C832.277 391.211 832.204 391.41 832.07 391.566C831.936 391.721 831.75 391.824 831.547 391.854Z" fill="white"/>
<path d="M859.75 386.86C863.564 386.86 867.778 385.849 867.778 383.676C867.778 381.503 863.621 380.474 859.75 380.474C859.547 380.504 859.362 380.607 859.228 380.762C859.093 380.918 859.02 381.117 859.02 381.322C859.02 381.527 859.093 381.726 859.228 381.882C859.362 382.037 859.547 382.14 859.75 382.17C863.85 382.17 865.967 383.276 866.081 383.676C866.196 384.077 863.831 385.163 859.75 385.163C859.547 385.194 859.362 385.296 859.228 385.452C859.093 385.607 859.02 385.806 859.02 386.011C859.02 386.217 859.093 386.415 859.228 386.571C859.362 386.727 859.547 386.829 859.75 386.86Z" fill="white"/>
<g style="mix-blend-mode:multiply" opacity="0.4">
<path d="M599.509 138.661L597.416 139.087L605.624 179.456L607.717 179.03L599.509 138.661Z" fill="white"/>
</g>
<mask id="mask0_6294_20726" style="mask-type:luminance" maskUnits="userSpaceOnUse" x="537" y="264" width="275" height="208">
<path d="M804.564 438.444C804.564 456.839 746.079 471.765 673.901 471.765C601.724 471.765 543.201 456.801 543.201 438.444C532.694 413.948 517.248 264.667 673.863 264.667C842.741 264.629 811.181 421.116 804.564 438.444Z" fill="white"/>
</mask>
<g mask="url(#mask0_6294_20726)">
<path d="M543.067 428.912C543.067 454.785 550.742 480.076 565.121 501.588C579.501 523.1 599.938 539.866 623.85 549.766C647.761 559.666 674.072 562.255 699.456 557.206C724.839 552.157 748.155 539.697 766.454 521.401C784.754 503.105 797.215 479.796 802.262 454.42C807.308 429.045 804.714 402.743 794.808 378.841C784.901 354.939 768.126 334.511 746.605 320.14C725.084 305.768 699.783 298.1 673.901 298.104C656.718 298.104 639.704 301.487 623.829 308.061C607.954 314.635 593.53 324.271 581.381 336.418C569.232 348.565 559.595 362.985 553.021 378.855C546.447 394.726 543.065 411.735 543.067 428.912Z" fill="#0096F2"/>
<g opacity="0.4">
<path d="M564.578 357.103C566.749 359.073 569.318 360.554 572.111 361.447C574.904 362.339 577.856 362.623 580.767 362.278C583.679 361.933 586.483 360.967 588.99 359.446C591.497 357.925 593.648 355.885 595.298 353.462C597.383 354.548 599.714 355.074 602.063 354.988C604.412 354.901 606.698 354.206 608.697 352.97C610.697 351.734 612.34 349.999 613.466 347.936C614.592 345.874 615.163 343.554 615.121 341.204C615.08 338.855 614.428 336.556 613.23 334.535C612.032 332.513 610.328 330.837 608.287 329.672C606.245 328.507 603.936 327.893 601.585 327.889C599.235 327.886 596.923 328.493 594.879 329.652C594.1 328.613 593.226 327.649 592.266 326.774C581.499 335.366 572.155 345.601 564.578 357.103Z" fill="#D2F9FF"/>
<path d="M642.914 326.164C642.914 328.554 643.623 330.891 644.951 332.878C646.28 334.866 648.168 336.415 650.377 337.33C652.586 338.244 655.017 338.484 657.362 338.017C659.708 337.551 661.862 336.4 663.553 334.71C665.243 333.02 666.395 330.866 666.861 328.522C667.328 326.177 667.089 323.747 666.173 321.539C665.258 319.33 663.709 317.443 661.721 316.115C659.732 314.787 657.395 314.078 655.004 314.078C651.799 314.083 648.727 315.358 646.461 317.624C644.194 319.889 642.919 322.96 642.914 326.164Z" fill="#D2F9FF"/>
<path d="M706.586 403.864C706.581 397.959 704.233 392.296 700.058 388.119C695.883 383.941 690.221 381.59 684.313 381.579C681.913 381.575 679.529 381.968 677.258 382.742C671.241 372.408 661.867 364.443 650.694 360.173C639.522 355.902 627.224 355.582 615.844 359.266C604.465 362.95 594.69 370.417 588.143 380.424C581.597 390.432 578.674 402.378 579.86 414.276C581.046 426.175 586.269 437.309 594.663 445.828C603.056 454.348 614.113 459.739 625.996 461.106C637.879 462.473 649.872 459.733 659.982 453.343C670.091 446.952 677.709 437.295 681.567 425.977C684.702 426.369 687.884 426.09 690.903 425.157C693.921 424.225 696.706 422.661 699.073 420.569C701.44 418.477 703.334 415.906 704.629 413.025C705.925 410.145 706.592 407.022 706.586 403.864Z" fill="#D2F9FF"/>
<path d="M682.406 447.346C682.406 449.736 683.115 452.073 684.444 454.061C685.772 456.048 687.66 457.597 689.87 458.512C692.079 459.427 694.51 459.666 696.855 459.2C699.2 458.733 701.354 457.582 703.045 455.892C704.736 454.202 705.887 452.048 706.354 449.704C706.82 447.359 706.581 444.929 705.666 442.721C704.751 440.513 703.201 438.625 701.213 437.297C699.225 435.969 696.887 435.26 694.496 435.26C691.291 435.265 688.219 436.54 685.953 438.806C683.687 441.071 682.411 444.142 682.406 447.346Z" fill="#D2F9FF"/>
<path d="M793.008 460.633C793.015 457.136 791.963 453.72 789.992 450.831C788.02 447.943 785.221 445.719 781.962 444.451C778.702 443.183 775.135 442.93 771.729 443.725C768.323 444.521 765.238 446.328 762.879 448.909C760.208 443.166 755.657 438.506 749.977 435.7C744.297 432.893 737.83 432.109 731.644 433.476C725.458 434.843 719.923 438.279 715.956 443.218C711.989 448.156 709.827 454.299 709.827 460.633C709.827 466.966 711.989 473.11 715.956 478.048C719.923 482.986 725.458 486.423 731.644 487.79C737.83 489.157 744.297 488.372 749.977 485.566C755.657 482.76 760.208 478.099 762.879 472.356C765.238 474.937 768.323 476.744 771.729 477.54C775.135 478.336 778.702 478.083 781.962 476.815C785.221 475.546 788.02 473.322 789.992 470.434C791.963 467.546 793.015 464.129 793.008 460.633Z" fill="#D2F9FF"/>
<path d="M747.795 424.471C747.795 426.861 748.504 429.198 749.832 431.185C751.161 433.173 753.049 434.722 755.258 435.636C757.467 436.551 759.898 436.791 762.243 436.324C764.589 435.858 766.743 434.707 768.434 433.017C770.124 431.326 771.276 429.173 771.742 426.829C772.209 424.484 771.969 422.054 771.054 419.846C770.139 417.637 768.59 415.75 766.601 414.422C764.613 413.094 762.276 412.385 759.885 412.385C756.68 412.39 753.608 413.665 751.341 415.93C749.075 418.196 747.8 421.267 747.795 424.471Z" fill="#D2F9FF"/>
<path d="M724.778 308.397C715.231 318.451 709.85 331.748 709.719 345.609C709.587 359.47 714.715 372.866 724.069 383.099C733.423 393.332 746.308 399.642 760.13 400.757C773.952 401.872 787.682 397.71 798.557 389.109C792.791 371.142 783.215 354.631 770.482 340.701C757.75 326.772 742.16 315.753 724.778 308.397Z" fill="#D2F9FF"/>
</g>
<path d="M684.313 383.257C681.631 383.257 678.975 383.781 676.495 384.801C670.869 374.548 661.869 366.554 651.022 362.176C640.174 357.798 628.146 357.304 616.975 360.778C605.805 364.252 596.18 371.48 589.732 381.238C583.283 390.995 580.408 402.681 581.594 414.316C582.78 425.95 587.954 436.816 596.238 445.073C604.523 453.33 615.408 458.469 627.05 459.619C638.692 460.77 650.373 457.861 660.115 451.385C669.856 444.91 677.058 435.266 680.499 424.089C681.757 424.329 683.033 424.456 684.313 424.471C689.78 424.471 695.024 422.3 698.889 418.435C702.755 414.571 704.927 409.329 704.927 403.864C704.927 398.399 702.755 393.157 698.889 389.293C695.024 385.428 689.78 383.257 684.313 383.257Z" fill="#0B6CF9"/>
<path d="M655.004 336.572C657.063 336.572 659.076 335.962 660.788 334.818C662.501 333.675 663.835 332.049 664.623 330.147C665.411 328.245 665.617 326.152 665.216 324.133C664.814 322.114 663.822 320.26 662.366 318.804C660.91 317.349 659.055 316.357 657.035 315.956C655.015 315.554 652.922 315.76 651.019 316.548C649.117 317.336 647.491 318.67 646.347 320.381C645.203 322.093 644.592 324.105 644.592 326.164C644.59 327.532 644.857 328.886 645.379 330.15C645.902 331.414 646.669 332.562 647.636 333.529C648.603 334.496 649.752 335.263 651.016 335.785C652.281 336.307 653.636 336.575 655.004 336.572Z" fill="#0B6CF9"/>
<path d="M749.473 424.471C749.473 426.529 750.084 428.542 751.228 430.253C752.372 431.965 753.998 433.299 755.9 434.087C757.803 434.875 759.896 435.081 761.916 434.679C763.936 434.277 765.791 433.286 767.247 431.831C768.703 430.375 769.695 428.52 770.096 426.501C770.498 424.482 770.292 422.39 769.504 420.488C768.716 418.586 767.381 416.96 765.669 415.817C763.957 414.673 761.944 414.062 759.885 414.062C757.123 414.062 754.475 415.159 752.522 417.111C750.57 419.063 749.473 421.71 749.473 424.471Z" fill="#0B6CF9"/>
<path d="M694.496 436.938C692.437 436.938 690.424 437.548 688.712 438.692C687 439.836 685.665 441.461 684.877 443.363C684.089 445.265 683.883 447.358 684.284 449.377C684.686 451.396 685.678 453.25 687.134 454.706C688.59 456.161 690.445 457.153 692.465 457.554C694.485 457.956 696.578 457.75 698.481 456.962C700.383 456.174 702.009 454.84 703.153 453.129C704.297 451.417 704.908 449.405 704.908 447.346C704.908 444.586 703.811 441.938 701.858 439.986C699.906 438.034 697.258 436.938 694.496 436.938Z" fill="#0B6CF9"/>
<path d="M764.614 399.213C776.759 399.225 788.54 395.066 797.985 387.432C792.163 370.116 782.789 354.207 770.462 340.722C758.135 327.237 743.127 316.474 726.399 309.122C719.148 316.619 714.263 326.083 712.353 336.335C710.443 346.587 711.592 357.175 715.658 366.779C719.723 376.382 726.526 384.578 735.217 390.346C743.909 396.113 754.106 399.197 764.538 399.213H764.614Z" fill="#0B6CF9"/>
<path d="M775.56 444.963C772.917 444.965 770.317 445.635 768.003 446.911C765.689 448.188 763.736 450.029 762.326 452.264C760.341 446.394 756.334 441.42 751.021 438.229C745.707 435.038 739.433 433.839 733.316 434.844C727.2 435.849 721.64 438.994 717.628 443.718C713.616 448.442 711.414 454.436 711.414 460.633C711.414 466.829 713.616 472.824 717.628 477.548C721.64 482.271 727.2 485.416 733.316 486.422C739.433 487.427 745.707 486.227 751.021 483.036C756.334 479.846 760.341 474.871 762.326 469.001C763.781 471.305 765.813 473.19 768.22 474.469C770.627 475.748 773.326 476.377 776.05 476.295C778.775 476.213 781.431 475.422 783.756 474C786.082 472.579 787.996 470.575 789.31 468.188C790.625 465.801 791.293 463.112 791.251 460.388C791.208 457.663 790.455 454.997 789.067 452.652C787.679 450.307 785.703 448.364 783.334 447.016C780.965 445.668 778.285 444.96 775.56 444.963Z" fill="#0B6CF9"/>
<path d="M594.688 351.174C596.483 352.429 598.591 353.164 600.777 353.296C602.964 353.429 605.145 352.954 607.079 351.925C609.013 350.896 610.624 349.353 611.735 347.465C612.846 345.578 613.414 343.42 613.375 341.23C613.336 339.04 612.692 336.904 611.514 335.057C610.336 333.211 608.67 331.726 606.701 330.766C604.732 329.807 602.535 329.41 600.355 329.621C598.174 329.831 596.094 330.641 594.345 331.959C593.389 330.44 592.22 329.066 590.874 327.88C581.098 335.905 572.53 345.298 565.436 355.768C567.527 357.704 570.029 359.14 572.755 359.97C575.482 360.8 578.36 361.001 581.176 360.559C583.991 360.117 586.669 359.043 589.009 357.417C591.35 355.792 593.291 353.658 594.688 351.174Z" fill="#0B6CF9"/>
<path d="M749.473 424.471C749.473 426.529 750.084 428.542 751.228 430.253C752.372 431.965 753.998 433.299 755.9 434.087C757.803 434.875 759.896 435.081 761.916 434.679C763.936 434.277 765.791 433.286 767.247 431.831C768.703 430.375 769.695 428.52 770.096 426.501C770.498 424.482 770.292 422.39 769.504 420.488C768.716 418.586 767.381 416.96 765.669 415.817C763.957 414.673 761.944 414.062 759.885 414.062C757.123 414.062 754.475 415.159 752.522 417.111C750.57 419.063 749.473 421.71 749.473 424.471ZM764.614 399.213C776.759 399.225 788.54 395.066 797.985 387.432C792.163 370.116 782.789 354.207 770.462 340.722C758.135 327.237 743.127 316.474 726.399 309.122C719.148 316.619 714.263 326.083 712.353 336.335C710.443 346.587 711.592 357.175 715.658 366.779C719.723 376.382 726.526 384.578 735.217 390.346C743.909 396.113 754.106 399.197 764.538 399.213H764.614ZM655.004 336.572C657.063 336.572 659.076 335.962 660.788 334.818C662.501 333.675 663.835 332.049 664.623 330.147C665.411 328.245 665.617 326.153 665.216 324.134C664.814 322.114 663.822 320.26 662.366 318.804C660.91 317.349 659.055 316.357 657.035 315.956C655.015 315.554 652.922 315.76 651.019 316.548C649.117 317.336 647.491 318.67 646.347 320.382C645.203 322.093 644.592 324.106 644.592 326.164C644.59 327.532 644.857 328.886 645.379 330.15C645.902 331.414 646.669 332.562 647.636 333.529C648.603 334.496 649.752 335.263 651.016 335.785C652.281 336.307 653.636 336.575 655.004 336.572ZM684.313 383.257C681.631 383.257 678.975 383.782 676.495 384.801C670.869 374.548 661.869 366.554 651.022 362.176C640.174 357.798 628.146 357.304 616.975 360.778C605.805 364.252 596.18 371.48 589.732 381.238C583.283 390.995 580.408 402.681 581.594 414.316C582.78 425.95 587.954 436.816 596.238 445.073C604.523 453.33 615.408 458.469 627.05 459.62C638.692 460.77 650.373 457.861 660.115 451.385C669.856 444.91 677.058 435.266 680.499 424.09C681.757 424.329 683.033 424.456 684.313 424.471C689.78 424.471 695.024 422.3 698.889 418.435C702.755 414.571 704.927 409.329 704.927 403.864C704.927 398.399 702.755 393.157 698.889 389.293C695.024 385.428 689.78 383.257 684.313 383.257ZM775.579 444.963C772.936 444.965 770.336 445.635 768.022 446.911C765.708 448.188 763.755 450.03 762.345 452.264C760.36 446.394 756.353 441.42 751.04 438.229C745.726 435.038 739.452 433.839 733.335 434.844C727.219 435.849 721.659 438.995 717.647 443.718C713.636 448.442 711.433 454.436 711.433 460.633C711.433 466.829 713.636 472.824 717.647 477.548C721.659 482.271 727.219 485.416 733.335 486.422C739.452 487.427 745.726 486.227 751.04 483.036C756.353 479.846 760.36 474.871 762.345 469.001C763.8 471.305 765.832 473.19 768.239 474.469C770.646 475.748 773.345 476.377 776.069 476.295C778.794 476.213 781.45 475.422 783.775 474C786.101 472.579 788.015 470.575 789.329 468.188C790.644 465.801 791.312 463.112 791.27 460.388C791.227 457.663 790.475 454.997 789.086 452.652C787.698 450.307 785.722 448.364 783.353 447.016C780.984 445.668 778.304 444.96 775.579 444.963ZM694.515 436.938C692.456 436.938 690.443 437.548 688.731 438.692C687.019 439.836 685.684 441.461 684.896 443.363C684.108 445.265 683.902 447.358 684.304 449.377C684.705 451.396 685.697 453.25 687.153 454.706C688.609 456.161 690.464 457.153 692.484 457.554C694.504 457.956 696.597 457.75 698.5 456.962C700.402 456.174 702.028 454.84 703.172 453.129C704.316 451.417 704.927 449.405 704.927 447.346C704.927 445.978 704.657 444.623 704.133 443.359C703.608 442.095 702.84 440.946 701.871 439.98C700.902 439.013 699.752 438.247 698.487 437.725C697.221 437.203 695.865 436.935 694.496 436.938H694.515ZM594.783 351.155C596.579 352.41 598.686 353.145 600.873 353.277C603.06 353.41 605.24 352.935 607.174 351.906C609.108 350.877 610.72 349.334 611.831 347.446C612.942 345.559 613.509 343.401 613.47 341.211C613.431 339.021 612.787 336.885 611.609 335.038C610.431 333.192 608.766 331.707 606.796 330.747C604.827 329.788 602.631 329.391 600.45 329.602C598.269 329.812 596.189 330.622 594.44 331.94C593.454 330.421 592.253 329.054 590.874 327.88C581.098 335.905 572.53 345.298 565.436 355.769C567.527 357.704 570.029 359.141 572.755 359.97C575.482 360.8 578.36 361.001 581.176 360.559C583.991 360.117 586.669 359.043 589.009 357.418C591.35 355.792 593.291 353.658 594.688 351.174L594.783 351.155Z" fill="#0B6CF9"/>
<g style="mix-blend-mode:multiply" opacity="0.4">
<path d="M594.688 351.174C596.467 352.426 598.557 353.165 600.729 353.309C602.9 353.453 605.069 352.998 606.999 351.992C608.928 350.986 610.544 349.469 611.669 347.607C612.793 345.744 613.384 343.609 613.376 341.433C613.376 341.224 613.376 340.995 613.376 340.766C613.262 342.878 612.585 344.922 611.415 346.684C610.245 348.447 608.625 349.865 606.722 350.79C604.82 351.716 602.704 352.116 600.595 351.949C598.485 351.782 596.459 351.054 594.726 349.84C593.352 352.248 591.463 354.323 589.195 355.918C586.926 357.512 584.334 358.587 581.603 359.066C578.871 359.545 576.068 359.416 573.392 358.687C570.716 357.959 568.234 356.65 566.122 354.853L565.531 355.692C567.616 357.613 570.108 359.039 572.82 359.864C575.533 360.689 578.397 360.891 581.199 360.457C584 360.023 586.668 358.963 589.004 357.356C591.339 355.749 593.282 353.636 594.688 351.174Z" fill="#0B6CF9"/>
<path d="M759.885 434.879C762.645 434.874 765.29 433.776 767.241 431.825C769.193 429.874 770.291 427.23 770.296 424.471C770.296 424.242 770.296 424.013 770.296 423.784C770.136 426.426 768.973 428.907 767.046 430.721C765.118 432.535 762.57 433.545 759.923 433.545C757.275 433.545 754.728 432.535 752.8 430.721C750.872 428.907 749.709 426.426 749.549 423.784C749.549 424.013 749.549 424.242 749.549 424.471C749.549 427.218 750.636 429.854 752.572 431.804C754.508 433.753 757.137 434.859 759.885 434.879Z" fill="#0B6CF9"/>
<path d="M655.004 336.572C656.372 336.575 657.727 336.307 658.991 335.785C660.256 335.263 661.404 334.496 662.372 333.529C663.339 332.562 664.106 331.414 664.628 330.15C665.151 328.886 665.418 327.532 665.416 326.164C665.416 325.935 665.416 325.726 665.416 325.497C665.221 328.117 664.043 330.566 662.117 332.353C660.191 334.141 657.66 335.134 655.032 335.134C652.405 335.134 649.874 334.141 647.948 332.353C646.022 330.566 644.844 328.117 644.649 325.497C644.649 325.726 644.649 325.935 644.649 326.164C644.649 328.915 645.738 331.553 647.679 333.504C649.619 335.454 652.252 336.557 655.004 336.572Z" fill="#0B6CF9"/>
<path d="M694.496 456.401C691.854 456.406 689.309 455.403 687.381 453.596C685.453 451.789 684.288 449.315 684.123 446.679C684.123 446.889 684.123 447.117 684.123 447.346C684.123 450.106 685.22 452.754 687.172 454.706C689.125 456.658 691.773 457.754 694.534 457.754C697.296 457.754 699.944 456.658 701.897 454.706C703.849 452.754 704.946 450.106 704.946 447.346C704.946 447.117 704.946 446.889 704.946 446.679C704.78 449.329 703.604 451.814 701.66 453.622C699.716 455.431 697.152 456.426 694.496 456.401Z" fill="#0B6CF9"/>
<path d="M764.614 397.859C750.63 397.86 737.21 392.352 727.261 382.528C717.313 372.704 711.638 359.357 711.468 345.379C711.468 345.608 711.468 345.837 711.468 346.066C711.469 356.093 714.308 365.916 719.658 374.4C725.007 382.883 732.648 389.68 741.698 394.006C750.747 398.332 760.837 400.01 770.801 398.847C780.764 397.684 790.195 393.726 798.004 387.432C797.89 387.07 797.737 386.726 797.623 386.383C788.237 393.835 776.599 397.881 764.614 397.859Z" fill="#0B6CF9"/>
<path d="M775.56 474.968C772.917 474.967 770.317 474.297 768.003 473.02C765.689 471.743 763.736 469.902 762.326 467.667C760.37 473.477 756.43 478.413 751.198 481.61C745.965 484.807 739.774 486.061 733.71 485.151C727.645 484.241 722.095 481.227 718.032 476.636C713.968 472.044 711.651 466.17 711.487 460.042C711.487 460.271 711.487 460.48 711.487 460.709C711.541 466.872 713.773 472.817 717.79 477.493C721.806 482.169 727.346 485.274 733.432 486.26C739.518 487.246 745.756 486.048 751.044 482.879C756.331 479.711 760.327 474.774 762.326 468.944C764.135 471.821 766.832 474.03 770.008 475.239C773.185 476.448 776.669 476.591 779.933 475.646C783.198 474.701 786.067 472.719 788.105 470C790.144 467.282 791.243 463.973 791.235 460.576C791.235 460.347 791.235 460.137 791.235 459.908C791.081 463.959 789.362 467.793 786.438 470.602C783.515 473.411 779.615 474.976 775.56 474.968Z" fill="#0B6CF9"/>
<path d="M684.313 423.194C683.033 423.188 681.756 423.061 680.499 422.812C676.941 434.362 669.371 444.261 659.155 450.723C648.939 457.186 636.749 459.787 624.784 458.057C612.819 456.327 601.866 450.381 593.9 441.29C585.934 432.199 581.479 420.562 581.339 408.477C581.339 408.706 581.339 408.916 581.339 409.144C581.348 421.27 585.703 432.991 593.615 442.182C601.527 451.373 612.471 457.425 624.464 459.242C636.456 461.059 648.703 458.519 658.984 452.084C669.264 445.649 676.897 435.744 680.499 424.166C681.757 424.405 683.033 424.533 684.313 424.547C689.78 424.547 695.024 422.376 698.889 418.511C702.755 414.647 704.927 409.405 704.927 403.94C704.927 403.711 704.927 403.502 704.927 403.273C704.758 408.622 702.511 413.694 698.662 417.413C694.814 421.133 689.666 423.206 684.313 423.194Z" fill="#0B6CF9"/>
</g>
</g>
<g style="mix-blend-mode:multiply" opacity="0.4">
<path d="M673.901 471.727C604.985 471.727 548.559 458.116 543.62 440.865C546.567 473.371 561.568 503.6 585.674 525.613C609.781 547.626 641.251 559.832 673.901 559.832C706.552 559.832 738.022 547.626 762.128 525.613C786.235 503.6 801.236 473.371 804.182 440.865C799.244 458.116 742.818 471.727 673.901 471.727Z" fill="#FCFCFC"/>
</g>
<path d="M599.512 488.598H599.245C532.98 480.115 491.809 461.51 491.809 440.064C491.809 430.094 500.829 420.487 517.858 412.29C518.351 412.052 518.918 412.02 519.435 412.2C519.952 412.381 520.376 412.759 520.613 413.252C520.851 413.745 520.883 414.312 520.703 414.829C520.522 415.345 520.143 415.769 519.65 416.007C504.128 423.46 495.947 431.791 495.947 440.064C495.947 458.707 537.671 476.55 599.76 484.518C600.275 484.588 600.744 484.85 601.074 485.252C601.404 485.653 601.569 486.164 601.538 486.683C601.507 487.201 601.28 487.688 600.905 488.047C600.529 488.406 600.032 488.609 599.512 488.617V488.598Z" fill="white"/>
<path d="M648.883 492.601C640.721 492.296 632.559 491.819 624.627 491.19C624.082 491.147 623.576 490.89 623.219 490.476C622.862 490.062 622.683 489.524 622.72 488.979C622.768 488.433 623.029 487.927 623.446 487.571C623.863 487.215 624.403 487.036 624.951 487.073C632.807 487.702 640.912 488.178 649.016 488.483C649.562 488.483 650.086 488.7 650.472 489.086C650.859 489.473 651.076 489.996 651.076 490.542C651.076 491.088 650.859 491.612 650.472 491.998C650.086 492.384 649.562 492.601 649.016 492.601H648.883Z" fill="white"/>
<path d="M672.872 493.059C669.382 493.059 665.892 493.059 662.441 493.059C662.17 493.054 661.904 492.995 661.656 492.887C661.408 492.779 661.183 492.623 660.996 492.429C660.808 492.234 660.66 492.004 660.562 491.752C660.463 491.501 660.414 491.232 660.42 490.962C660.444 490.42 660.675 489.909 661.065 489.533C661.456 489.157 661.975 488.945 662.517 488.941C665.95 488.941 669.401 488.941 672.872 488.941C697.03 488.999 721.167 487.547 745.144 484.595C745.688 484.526 746.236 484.677 746.669 485.013C747.102 485.349 747.383 485.843 747.451 486.387C747.52 486.93 747.369 487.478 747.033 487.911C746.697 488.344 746.203 488.625 745.659 488.693C721.511 491.661 697.201 493.119 672.872 493.059Z" fill="white"/>
<path d="M785.38 481.735C784.878 481.729 784.395 481.54 784.023 481.204C783.65 480.867 783.414 480.406 783.357 479.907C783.301 479.408 783.429 478.906 783.718 478.495C784.006 478.084 784.434 477.792 784.923 477.675C825.559 468.315 849.758 454.247 849.758 440.045C849.758 431.734 841.501 423.384 825.864 415.892C825.375 415.654 824.998 415.232 824.816 414.719C824.635 414.205 824.662 413.641 824.892 413.147C825.134 412.657 825.56 412.28 826.076 412.098C826.593 411.917 827.16 411.944 827.657 412.175C844.819 420.391 853.877 430.037 853.877 440.045C853.877 456.553 829.087 471.727 785.8 481.697L785.38 481.735Z" fill="white"/>
<path d="M672.872 481.735C615.473 481.735 562.976 473.157 535.897 459.336C523.274 452.893 516.828 445.707 516.828 437.967C516.828 431.638 521.138 425.633 529.643 420.124C530.103 419.826 530.663 419.723 531.199 419.837C531.736 419.952 532.205 420.274 532.503 420.734C532.801 421.194 532.905 421.754 532.79 422.29C532.676 422.827 532.353 423.295 531.893 423.594C524.627 428.283 520.947 433.125 520.947 437.967C520.947 443.953 526.668 450.072 537.728 455.676C564.272 469.211 616.045 477.618 672.834 477.618C701.17 477.775 729.467 475.473 757.406 470.736C757.944 470.64 758.499 470.762 758.948 471.075C759.397 471.387 759.703 471.866 759.799 472.404C759.895 472.942 759.773 473.497 759.46 473.946C759.147 474.394 758.669 474.7 758.13 474.796C729.965 479.57 701.438 481.892 672.872 481.735Z" fill="white"/>
<path d="M803.839 413.662C804.03 415.263 804.183 416.884 804.297 418.504C817.531 424.528 824.796 431.295 824.796 437.91C824.796 447.804 809.083 457.792 781.719 465.284C781.458 465.353 781.212 465.472 780.998 465.636C780.783 465.8 780.603 466.005 780.468 466.239C780.333 466.473 780.246 466.732 780.212 467C780.178 467.268 780.198 467.54 780.27 467.8C780.386 468.223 780.633 468.598 780.975 468.872C781.318 469.146 781.738 469.305 782.177 469.325C782.36 469.352 782.546 469.352 782.73 469.325C799.892 464.617 828.839 454.285 828.839 437.986C828.915 428.493 819.419 420.334 803.839 413.662Z" fill="white"/>
<path d="M528.441 403.769C534.162 401.862 540.321 400.166 546.652 398.545C547.034 396.944 547.434 395.362 547.873 393.799C497.625 406.17 465.646 425.996 465.646 448.757C465.646 460.194 473.541 470.946 489.121 480.763C489.453 480.97 489.835 481.082 490.227 481.087C490.676 481.089 491.113 480.944 491.472 480.674C491.831 480.404 492.092 480.024 492.215 479.593C492.339 479.161 492.317 478.701 492.154 478.282C491.991 477.864 491.696 477.51 491.313 477.275C477.221 468.391 469.765 458.517 469.765 448.68C469.765 432.229 491.142 415.835 528.441 403.769Z" fill="white"/>
<path d="M672.872 517.211C625.485 517.211 579.204 511.873 542.533 502.17C542.005 502.029 541.554 501.683 541.281 501.21C541.007 500.736 540.933 500.173 541.075 499.645C541.216 499.116 541.562 498.666 542.036 498.392C542.51 498.119 543.073 498.045 543.601 498.186C579.833 507.718 625.828 513.093 672.872 513.093C678.211 513.093 683.608 513.093 688.928 512.884C689.474 512.884 689.998 513.101 690.384 513.487C690.77 513.873 690.987 514.397 690.987 514.943C690.987 515.489 690.77 516.012 690.384 516.398C689.998 516.784 689.474 517.001 688.928 517.001C683.684 517.135 678.249 517.211 672.872 517.211Z" fill="white"/>
<path d="M719.115 515.514C718.844 515.524 718.574 515.481 718.321 515.387C718.067 515.293 717.834 515.149 717.636 514.965C717.438 514.781 717.278 514.56 717.165 514.314C717.052 514.068 716.989 513.802 716.979 513.532C716.969 513.262 717.012 512.992 717.106 512.738C717.201 512.485 717.344 512.252 717.528 512.054C717.9 511.653 718.416 511.417 718.962 511.397C809.98 504.63 876.035 478.266 876.035 448.757C876.035 441.131 871.745 433.773 863.297 426.606C862.882 426.254 862.624 425.753 862.58 425.211C862.535 424.669 862.707 424.132 863.059 423.718C863.41 423.303 863.912 423.045 864.454 423C864.996 422.956 865.533 423.128 865.948 423.479C875.387 431.448 880.154 439.95 880.154 448.757C880.154 481.011 814.003 508.461 719.267 515.476L719.115 515.514Z" fill="white"/>
<g style="mix-blend-mode:multiply" opacity="0.5">
<path d="M797.623 555.012C797.626 555.953 797.351 556.873 796.83 557.657C796.31 558.44 795.569 559.052 794.7 559.413C793.832 559.775 792.876 559.87 791.953 559.688C791.03 559.505 790.182 559.053 789.517 558.388C788.852 557.723 788.399 556.875 788.217 555.953C788.034 555.03 788.13 554.074 788.491 553.206C788.853 552.338 789.465 551.597 790.248 551.077C791.032 550.557 791.953 550.281 792.894 550.285C794.148 550.285 795.351 550.783 796.238 551.67C797.124 552.556 797.623 553.759 797.623 555.012Z" fill="white"/>
</g>
<g style="mix-blend-mode:multiply" opacity="0.5">
<path d="M828.839 517.211C828.839 518.146 828.562 519.06 828.042 519.837C827.522 520.615 826.784 521.221 825.92 521.579C825.056 521.936 824.105 522.03 823.187 521.848C822.27 521.665 821.427 521.215 820.766 520.554C820.104 519.893 819.654 519.05 819.472 518.133C819.289 517.216 819.383 516.266 819.741 515.402C820.099 514.538 820.705 513.8 821.482 513.28C822.26 512.761 823.175 512.483 824.11 512.483C824.731 512.483 825.346 512.606 825.92 512.843C826.493 513.081 827.015 513.429 827.454 513.868C827.893 514.307 828.241 514.828 828.479 515.402C828.717 515.975 828.839 516.59 828.839 517.211Z" fill="white"/>
</g>
<g style="mix-blend-mode:multiply" opacity="0.5">
<path d="M699.168 537.78C699.172 538.719 698.897 539.639 698.377 540.422C697.858 541.205 697.118 541.816 696.25 542.179C695.383 542.541 694.428 542.638 693.505 542.457C692.583 542.276 691.735 541.825 691.069 541.162C690.403 540.499 689.949 539.653 689.764 538.732C689.58 537.811 689.673 536.855 690.031 535.987C690.39 535.118 690.999 534.376 691.78 533.854C692.561 533.331 693.48 533.052 694.42 533.052C695.676 533.052 696.881 533.55 697.771 534.436C698.661 535.322 699.163 536.524 699.168 537.78Z" fill="white"/>
</g>
<g style="mix-blend-mode:multiply" opacity="0.5">
<path d="M587.556 498.11C587.556 499.045 587.279 499.959 586.759 500.737C586.239 501.514 585.501 502.12 584.637 502.478C583.772 502.836 582.822 502.929 581.904 502.747C580.987 502.564 580.144 502.114 579.483 501.453C578.821 500.792 578.371 499.949 578.188 499.032C578.006 498.115 578.1 497.165 578.458 496.301C578.816 495.437 579.422 494.699 580.199 494.179C580.977 493.66 581.891 493.383 582.827 493.383C584.081 493.383 585.284 493.881 586.171 494.767C587.058 495.654 587.556 496.856 587.556 498.11Z" fill="white"/>
</g>
<g style="mix-blend-mode:multiply" opacity="0.5">
<path d="M532.331 488.827C532.331 489.762 532.054 490.676 531.534 491.453C531.015 492.23 530.276 492.836 529.412 493.194C528.548 493.552 527.597 493.646 526.68 493.463C525.762 493.281 524.92 492.831 524.258 492.169C523.597 491.508 523.146 490.666 522.964 489.749C522.781 488.832 522.875 487.881 523.233 487.017C523.591 486.154 524.197 485.415 524.975 484.896C525.753 484.376 526.667 484.099 527.602 484.099C528.857 484.099 530.059 484.597 530.946 485.484C531.833 486.37 532.331 487.573 532.331 488.827Z" fill="white"/>
</g>
<g style="mix-blend-mode:multiply" opacity="0.5">
<path d="M704.889 564.258C704.893 565.198 704.617 566.117 704.098 566.9C703.579 567.683 702.838 568.295 701.971 568.657C701.104 569.019 700.148 569.116 699.226 568.935C698.304 568.754 697.456 568.303 696.79 567.64C696.124 566.977 695.67 566.131 695.485 565.21C695.3 564.289 695.393 563.333 695.752 562.465C696.111 561.597 696.72 560.854 697.501 560.332C698.282 559.809 699.201 559.53 700.141 559.53C701.397 559.53 702.602 560.028 703.492 560.914C704.381 561.8 704.884 563.002 704.889 564.258Z" fill="white"/>
</g>
<g style="mix-blend-mode:multiply" opacity="0.5">
<path d="M855.631 501.58C855.631 501.961 855.516 502.333 855.302 502.648C855.088 502.963 854.784 503.207 854.43 503.348C854.076 503.489 853.688 503.521 853.316 503.439C852.944 503.358 852.604 503.166 852.342 502.89C852.079 502.614 851.906 502.265 851.843 501.89C851.781 501.514 851.832 501.128 851.991 500.782C852.151 500.435 852.41 500.145 852.736 499.947C853.061 499.75 853.439 499.654 853.82 499.673C854.309 499.698 854.77 499.909 855.107 500.264C855.444 500.619 855.632 501.09 855.631 501.58Z" fill="white"/>
</g>
<g style="mix-blend-mode:multiply" opacity="0.5">
<path d="M908.854 424.814C908.854 425.191 908.742 425.559 908.532 425.873C908.323 426.186 908.025 426.431 907.676 426.575C907.328 426.719 906.945 426.757 906.575 426.683C906.205 426.61 905.865 426.428 905.598 426.162C905.332 425.895 905.15 425.555 905.076 425.186C905.003 424.816 905.041 424.433 905.185 424.084C905.329 423.736 905.574 423.438 905.887 423.229C906.201 423.019 906.569 422.907 906.947 422.907C907.452 422.907 907.937 423.108 908.295 423.466C908.653 423.823 908.854 424.308 908.854 424.814Z" fill="white"/>
</g>
<g style="mix-blend-mode:multiply" opacity="0.5">
<path d="M486.47 407.257C486.47 407.634 486.358 408.003 486.149 408.316C485.939 408.63 485.641 408.874 485.293 409.018C484.944 409.162 484.561 409.2 484.191 409.127C483.821 409.053 483.481 408.872 483.215 408.605C482.948 408.338 482.766 407.999 482.693 407.629C482.619 407.259 482.657 406.876 482.801 406.527C482.946 406.179 483.19 405.881 483.504 405.672C483.817 405.463 484.186 405.351 484.563 405.351C485.069 405.351 485.554 405.552 485.911 405.909C486.269 406.267 486.47 406.751 486.47 407.257Z" fill="white"/>
</g>
<g style="mix-blend-mode:multiply" opacity="0.5">
<path d="M395.395 441.551C395.275 441.939 395.033 442.279 394.705 442.52C394.377 442.762 393.981 442.892 393.574 442.892C393.167 442.892 392.771 442.762 392.443 442.52C392.116 442.279 391.874 441.939 391.753 441.551C391.664 441.266 391.644 440.964 391.694 440.669C391.743 440.374 391.862 440.096 392.039 439.855C392.216 439.614 392.447 439.419 392.714 439.284C392.981 439.149 393.275 439.079 393.574 439.079C393.873 439.079 394.168 439.149 394.434 439.284C394.701 439.419 394.932 439.614 395.11 439.855C395.287 440.096 395.405 440.374 395.455 440.669C395.504 440.964 395.484 441.266 395.395 441.551Z" fill="white"/>
</g>
<g style="mix-blend-mode:multiply" opacity="0.5">
<path d="M801.665 482.765C801.665 483.142 801.554 483.51 801.344 483.824C801.134 484.137 800.837 484.382 800.488 484.526C800.14 484.67 799.756 484.708 799.386 484.634C799.017 484.561 798.677 484.379 798.41 484.113C798.143 483.846 797.962 483.506 797.888 483.137C797.815 482.767 797.852 482.383 797.997 482.035C798.141 481.687 798.385 481.389 798.699 481.18C799.013 480.97 799.381 480.858 799.758 480.858C800.264 480.858 800.749 481.059 801.107 481.417C801.464 481.774 801.665 482.259 801.665 482.765Z" fill="white"/>
</g>
<g style="mix-blend-mode:multiply" opacity="0.5">
<path d="M826.97 458.822C826.97 459.199 826.858 459.567 826.649 459.881C826.439 460.194 826.141 460.439 825.793 460.583C825.445 460.727 825.061 460.765 824.691 460.691C824.321 460.618 823.982 460.436 823.715 460.17C823.448 459.903 823.267 459.563 823.193 459.194C823.119 458.824 823.157 458.441 823.301 458.092C823.446 457.744 823.69 457.446 824.004 457.237C824.317 457.027 824.686 456.916 825.063 456.916C825.569 456.916 826.054 457.116 826.412 457.474C826.769 457.831 826.97 458.316 826.97 458.822Z" fill="white"/>
</g>
<g style="mix-blend-mode:multiply" opacity="0.5">
<path d="M517.381 517.211C517.381 517.588 517.269 517.957 517.06 518.27C516.85 518.584 516.552 518.828 516.204 518.972C515.856 519.116 515.472 519.154 515.102 519.081C514.732 519.007 514.393 518.826 514.126 518.559C513.859 518.292 513.678 517.953 513.604 517.583C513.53 517.213 513.568 516.83 513.712 516.482C513.857 516.133 514.101 515.836 514.415 515.626C514.728 515.417 515.097 515.305 515.474 515.305C515.98 515.305 516.465 515.506 516.823 515.863C517.18 516.221 517.381 516.706 517.381 517.211Z" fill="white"/>
</g>
<g style="mix-blend-mode:multiply" opacity="0.5">
<path d="M556.759 535.969C556.638 536.357 556.397 536.697 556.069 536.938C555.741 537.179 555.345 537.31 554.938 537.31C554.531 537.31 554.135 537.179 553.807 536.938C553.479 536.697 553.238 536.357 553.117 535.969C553.028 535.683 553.008 535.381 553.058 535.087C553.107 534.792 553.225 534.513 553.403 534.273C553.58 534.032 553.811 533.837 554.078 533.702C554.345 533.567 554.639 533.497 554.938 533.497C555.237 533.497 555.532 533.567 555.798 533.702C556.065 533.837 556.296 534.032 556.473 534.273C556.651 534.513 556.769 534.792 556.818 535.087C556.868 535.381 556.848 535.683 556.759 535.969Z" fill="white"/>
</g>
<g style="mix-blend-mode:multiply" opacity="0.5">
<path d="M634.257 532.328C634.256 532.709 634.141 533.081 633.927 533.396C633.713 533.711 633.41 533.955 633.056 534.096C632.702 534.237 632.313 534.269 631.941 534.187C631.569 534.106 631.23 533.915 630.967 533.638C630.705 533.362 630.531 533.014 630.468 532.638C630.406 532.262 630.458 531.876 630.617 531.53C630.776 531.184 631.035 530.893 631.361 530.695C631.687 530.498 632.064 530.403 632.445 530.422C632.934 530.446 633.395 530.658 633.732 531.013C634.069 531.367 634.257 531.838 634.257 532.328Z" fill="white"/>
</g>
<g style="mix-blend-mode:multiply" opacity="0.5">
<path d="M599.76 530.498C599.64 530.886 599.398 531.226 599.07 531.467C598.742 531.708 598.346 531.839 597.939 531.839C597.532 531.839 597.136 531.708 596.808 531.467C596.481 531.226 596.239 530.886 596.118 530.498C596.029 530.213 596.009 529.91 596.059 529.616C596.108 529.321 596.227 529.042 596.404 528.802C596.581 528.561 596.812 528.366 597.079 528.231C597.346 528.096 597.64 528.026 597.939 528.026C598.238 528.026 598.533 528.096 598.799 528.231C599.066 528.366 599.297 528.561 599.475 528.802C599.652 529.042 599.77 529.321 599.82 529.616C599.869 529.91 599.849 530.213 599.76 530.498Z" fill="white"/>
</g>
<path d="M895.677 486.463C898.289 486.463 900.406 484.346 900.406 481.735C900.406 479.124 898.289 477.008 895.677 477.008C893.065 477.008 890.948 479.124 890.948 481.735C890.948 484.346 893.065 486.463 895.677 486.463Z" fill="white"/>
<path d="M790.128 528.668C790.132 529.607 789.857 530.527 789.338 531.31C788.818 532.093 788.078 532.704 787.211 533.067C786.343 533.429 785.388 533.526 784.466 533.345C783.543 533.164 782.695 532.713 782.029 532.05C781.364 531.387 780.909 530.541 780.725 529.62C780.54 528.699 780.633 527.743 780.992 526.875C781.35 526.006 781.959 525.264 782.74 524.741C783.522 524.219 784.44 523.94 785.38 523.94C786.635 523.945 787.837 524.444 788.725 525.329C789.614 526.214 790.118 527.414 790.128 528.668Z" fill="white"/>
<path d="M875.94 414.348C875.944 414.859 875.796 415.359 875.514 415.785C875.233 416.211 874.831 416.544 874.36 416.741C873.889 416.938 873.369 416.991 872.868 416.892C872.367 416.794 871.907 416.548 871.545 416.187C871.184 415.826 870.939 415.366 870.84 414.865C870.741 414.364 870.794 413.845 870.991 413.374C871.188 412.903 871.521 412.501 871.947 412.22C872.374 411.938 872.874 411.79 873.385 411.794C874.062 411.794 874.712 412.063 875.192 412.542C875.671 413.021 875.94 413.671 875.94 414.348Z" fill="white"/>
<path d="M879.811 487.073C879.811 487.578 879.661 488.072 879.38 488.492C879.1 488.912 878.701 489.239 878.234 489.433C877.767 489.626 877.253 489.677 876.757 489.578C876.262 489.48 875.806 489.236 875.449 488.879C875.092 488.522 874.848 488.067 874.75 487.571C874.651 487.076 874.702 486.562 874.895 486.095C875.088 485.629 875.416 485.23 875.836 484.949C876.256 484.668 876.75 484.518 877.256 484.518C877.932 484.523 878.579 484.794 879.057 485.272C879.535 485.75 879.806 486.397 879.811 487.073Z" fill="white"/>
<path d="M464.826 515.514C464.826 516.02 464.676 516.513 464.396 516.934C464.115 517.354 463.716 517.681 463.249 517.874C462.782 518.068 462.268 518.118 461.773 518.02C461.277 517.921 460.822 517.678 460.464 517.321C460.107 516.963 459.863 516.508 459.765 516.013C459.666 515.517 459.717 515.004 459.91 514.537C460.104 514.07 460.431 513.671 460.851 513.39C461.272 513.11 461.766 512.96 462.271 512.96C462.949 512.96 463.599 513.229 464.078 513.708C464.557 514.187 464.826 514.837 464.826 515.514Z" fill="white"/>
<path d="M436.089 480.935C436.093 481.444 435.945 481.944 435.664 482.37C435.384 482.795 434.983 483.128 434.513 483.326C434.043 483.523 433.525 483.577 433.024 483.48C432.524 483.383 432.063 483.139 431.701 482.78C431.339 482.421 431.092 481.963 430.991 481.463C430.89 480.963 430.94 480.445 431.134 479.973C431.329 479.502 431.659 479.099 432.082 478.815C432.506 478.532 433.005 478.38 433.515 478.38C433.852 478.378 434.186 478.442 434.498 478.569C434.811 478.696 435.095 478.884 435.334 479.122C435.573 479.359 435.763 479.642 435.893 479.953C436.022 480.264 436.089 480.598 436.089 480.935Z" fill="white"/>
<path d="M465.646 416.712C465.65 417.222 465.502 417.721 465.222 418.147C464.941 418.573 464.54 418.906 464.07 419.103C463.6 419.301 463.082 419.355 462.582 419.258C462.081 419.16 461.62 418.917 461.258 418.558C460.897 418.199 460.649 417.74 460.549 417.24C460.448 416.741 460.498 416.222 460.692 415.751C460.886 415.279 461.216 414.876 461.64 414.593C462.064 414.309 462.562 414.158 463.072 414.158C463.751 414.158 464.403 414.426 464.886 414.905C465.368 415.383 465.641 416.033 465.646 416.712Z" fill="white"/>
<path d="M463.11 441.551C463.11 442.06 462.959 442.557 462.676 442.981C462.393 443.404 461.991 443.734 461.521 443.928C461.051 444.123 460.533 444.174 460.034 444.075C459.534 443.976 459.075 443.731 458.715 443.371C458.355 443.011 458.11 442.552 458.011 442.053C457.912 441.554 457.963 441.036 458.157 440.566C458.352 440.096 458.682 439.694 459.106 439.411C459.529 439.128 460.027 438.977 460.536 438.977C461.219 438.977 461.873 439.249 462.356 439.731C462.839 440.214 463.11 440.868 463.11 441.551Z" fill="white"/>
<path d="M899.319 585.799C888.039 585.824 876.77 585.105 865.585 583.645C865.058 583.568 864.582 583.285 864.262 582.859C863.942 582.433 863.803 581.897 863.876 581.369C863.949 580.841 864.228 580.363 864.651 580.04C865.075 579.716 865.61 579.573 866.138 579.642C877.14 581.08 888.224 581.787 899.319 581.758C950.92 581.758 985.569 567.937 985.569 555.07C985.569 550.19 980.592 545.1 971.553 540.754C971.07 540.521 970.699 540.106 970.522 539.6C970.345 539.094 970.377 538.539 970.609 538.056C970.842 537.573 971.257 537.203 971.763 537.026C972.269 536.849 972.825 536.88 973.308 537.113C983.967 542.24 989.612 548.455 989.612 555.07C989.612 572.283 949.948 585.799 899.319 585.799Z" fill="white"/>
<path d="M844.075 579.508C843.904 579.528 843.732 579.528 843.56 579.508C821.288 573.656 809.026 565.001 809.026 555.108C809.026 537.837 848.69 524.321 899.319 524.321C912.49 524.267 925.645 525.262 938.659 527.295C939.188 527.384 939.661 527.678 939.976 528.114C940.29 528.549 940.42 529.09 940.337 529.621C940.295 529.882 940.202 530.132 940.064 530.356C939.925 530.581 939.743 530.776 939.529 530.93C939.314 531.084 939.071 531.195 938.814 531.255C938.557 531.315 938.29 531.323 938.029 531.279C925.224 529.278 912.28 528.297 899.319 528.344C847.718 528.344 813.05 542.183 813.05 555.032C813.05 562.657 824.834 570.282 844.571 575.524C844.829 575.588 845.071 575.703 845.284 575.862C845.497 576.021 845.676 576.221 845.811 576.45C845.946 576.679 846.034 576.932 846.07 577.196C846.106 577.459 846.089 577.727 846.02 577.983C845.908 578.415 845.657 578.798 845.305 579.074C844.954 579.349 844.522 579.502 844.075 579.508Z" fill="white"/>
<path d="M899.319 573.961C873.156 573.961 845.334 567.327 845.334 555.012C845.334 542.698 873.156 536.064 899.319 536.064C925.482 536.064 953.285 542.698 953.285 555.012C953.285 567.327 925.482 573.961 899.319 573.961ZM899.319 540.086C869.895 540.086 849.377 547.959 849.377 555.012C849.377 562.066 869.895 569.977 899.319 569.977C928.743 569.977 949.261 562.123 949.261 555.07C949.261 548.016 928.743 540.086 899.319 540.086Z" fill="white"/>
<path d="M902.103 564.735C888.755 564.735 874.357 561.322 874.357 555.013C874.357 548.703 888.659 545.291 902.103 545.291C902.246 545.271 902.392 545.282 902.53 545.323C902.669 545.364 902.797 545.435 902.905 545.53C903.014 545.624 903.102 545.741 903.161 545.873C903.221 546.004 903.252 546.147 903.252 546.291C903.252 546.436 903.221 546.578 903.161 546.71C903.102 546.841 903.014 546.958 902.905 547.053C902.797 547.148 902.669 547.218 902.53 547.26C902.392 547.301 902.246 547.312 902.103 547.292C886.943 547.292 876.379 551.372 876.379 554.917C876.379 558.463 886.943 562.542 902.103 562.542C902.371 562.542 902.628 562.649 902.818 562.838C903.007 563.028 903.114 563.285 903.114 563.553C903.139 563.699 903.132 563.849 903.092 563.992C903.053 564.135 902.982 564.268 902.886 564.381C902.789 564.494 902.669 564.584 902.534 564.645C902.399 564.706 902.252 564.737 902.103 564.735Z" fill="white"/>
<path d="M902.103 558.806C901.835 558.806 901.578 558.7 901.388 558.51C901.199 558.321 901.092 558.064 901.092 557.796C901.092 557.528 901.199 557.271 901.388 557.081C901.578 556.892 901.835 556.785 902.103 556.785C906.966 556.785 909.483 555.489 909.731 554.993C909.597 554.536 907.061 553.24 902.103 553.24C901.835 553.24 901.578 553.133 901.388 552.944C901.199 552.754 901.092 552.497 901.092 552.229C901.092 551.961 901.199 551.704 901.388 551.515C901.578 551.325 901.835 551.219 902.103 551.219C906.699 551.219 911.638 552.401 911.638 555.032C911.638 557.662 906.699 558.806 902.103 558.806Z" fill="white"/>
<path d="M902.103 558.806C897.507 558.806 892.568 557.624 892.568 554.993C892.568 552.363 897.507 551.181 902.103 551.181C902.371 551.181 902.628 551.287 902.818 551.477C903.007 551.666 903.114 551.923 903.114 552.191C903.114 552.459 903.007 552.716 902.818 552.906C902.628 553.095 902.371 553.202 902.103 553.202C897.24 553.202 894.723 554.498 894.59 554.993C894.456 555.489 897.259 556.747 902.103 556.747C902.371 556.747 902.628 556.854 902.818 557.043C903.007 557.233 903.114 557.49 903.114 557.758C903.114 558.025 903.007 558.282 902.818 558.472C902.628 558.661 902.371 558.768 902.103 558.768V558.806Z" fill="white"/>
<g opacity="0.6">
<path d="M571.156 558.539C564.041 558.553 556.932 558.101 549.875 557.186C549.541 557.134 549.24 556.953 549.037 556.682C548.834 556.412 548.744 556.072 548.788 555.737C548.836 555.404 549.012 555.103 549.28 554.9C549.548 554.696 549.885 554.607 550.218 554.65C557.173 555.561 564.181 556.007 571.195 555.985C603.765 555.985 625.637 547.254 625.637 539.114C625.637 536.026 622.491 532.823 616.789 530.078C616.483 529.932 616.248 529.67 616.135 529.35C616.023 529.03 616.042 528.678 616.188 528.372C616.335 528.066 616.597 527.831 616.917 527.719C617.237 527.606 617.589 527.625 617.895 527.772C624.627 531.012 628.193 534.939 628.193 539.114C628.154 550.037 603.116 558.539 571.156 558.539Z" fill="white"/>
<path d="M536.298 554.574C536.191 554.594 536.081 554.594 535.974 554.574C521.92 550.895 514.178 545.424 514.178 539.19C514.178 528.286 539.215 519.746 571.156 519.746C579.457 519.721 587.747 520.359 595.946 521.653C596.261 521.726 596.536 521.916 596.717 522.184C596.897 522.452 596.969 522.778 596.918 523.097C596.867 523.416 596.698 523.704 596.443 523.903C596.188 524.102 595.868 524.197 595.546 524.169C587.461 522.881 579.286 522.244 571.099 522.263C538.548 522.263 516.676 530.993 516.676 539.152C516.676 543.975 524.113 548.817 536.565 552.077C536.853 552.165 537.101 552.353 537.264 552.606C537.428 552.86 537.496 553.163 537.457 553.462C537.418 553.761 537.275 554.037 537.052 554.24C536.83 554.444 536.542 554.562 536.241 554.574H536.298Z" fill="white"/>
<path d="M571.156 551.105C554.662 551.105 537.099 546.911 537.099 539.152C537.099 531.394 554.662 527.181 571.156 527.181C587.651 527.181 605.233 531.375 605.233 539.152C605.233 546.93 587.67 551.105 571.156 551.105ZM571.156 529.735C552.583 529.735 539.654 534.692 539.654 539.152C539.654 543.613 552.583 548.55 571.156 548.55C589.73 548.55 602.678 543.594 602.678 539.152C602.678 534.711 589.73 529.735 571.156 529.735Z" fill="white"/>
<path d="M572.93 545.29C564.425 545.29 555.405 543.136 555.405 539.152C555.405 535.168 564.425 533.014 572.93 533.014C573.097 533.014 573.257 533.08 573.375 533.198C573.493 533.316 573.559 533.476 573.559 533.643C573.559 533.81 573.493 533.97 573.375 534.088C573.257 534.206 573.097 534.272 572.93 534.272C563.395 534.272 556.683 536.846 556.683 539.152C556.683 541.459 563.357 544.013 572.93 544.013C573.08 544.039 573.217 544.118 573.315 544.235C573.413 544.351 573.467 544.499 573.467 544.652C573.467 544.805 573.413 544.952 573.315 545.069C573.217 545.186 573.08 545.264 572.93 545.29Z" fill="white"/>
<path d="M572.93 541.535C572.837 541.551 572.741 541.547 572.65 541.522C572.559 541.498 572.474 541.453 572.402 541.392C572.329 541.332 572.271 541.256 572.231 541.17C572.191 541.084 572.171 540.991 572.171 540.897C572.171 540.802 572.191 540.709 572.231 540.623C572.271 540.537 572.329 540.461 572.402 540.401C572.474 540.34 572.559 540.295 572.65 540.271C572.741 540.246 572.837 540.242 572.93 540.258C575.981 540.258 577.583 539.438 577.678 539.133C577.773 538.828 576 538.028 572.93 538.028C572.837 538.044 572.741 538.039 572.65 538.015C572.559 537.99 572.474 537.946 572.402 537.885C572.329 537.824 572.271 537.748 572.231 537.662C572.191 537.577 572.171 537.483 572.171 537.389C572.171 537.294 572.191 537.201 572.231 537.115C572.271 537.03 572.329 536.954 572.402 536.893C572.474 536.832 572.559 536.788 572.65 536.763C572.741 536.739 572.837 536.734 572.93 536.75C575.828 536.75 578.956 537.494 578.956 539.152C578.956 540.811 575.828 541.535 572.93 541.535Z" fill="white"/>
<path d="M572.93 541.535C570.031 541.535 566.904 540.792 566.904 539.152C566.904 537.513 570.031 536.75 572.93 536.75C573.08 536.776 573.217 536.855 573.315 536.972C573.413 537.088 573.467 537.236 573.467 537.389C573.467 537.542 573.413 537.689 573.315 537.806C573.217 537.923 573.08 538.001 572.93 538.028C569.86 538.028 568.258 538.847 568.182 539.152C568.105 539.457 569.86 540.258 572.93 540.258C573.08 540.284 573.217 540.362 573.315 540.479C573.413 540.596 573.467 540.744 573.467 540.896C573.467 541.049 573.413 541.197 573.315 541.314C573.217 541.431 573.08 541.509 572.93 541.535Z" fill="white"/>
</g>
<g opacity="0.9">
<path d="M344.148 568.041C339.506 568.056 334.869 567.763 330.266 567.164C330.048 567.133 329.852 567.018 329.719 566.843C329.587 566.668 329.53 566.447 329.56 566.23C329.59 566.012 329.706 565.816 329.881 565.683C330.056 565.551 330.277 565.494 330.494 565.524C335.022 566.107 339.583 566.394 344.148 566.382C365.372 566.382 379.617 560.663 379.617 555.383C379.617 553.381 377.576 551.284 373.896 549.492C373.796 549.448 373.706 549.383 373.632 549.302C373.558 549.221 373.501 549.126 373.465 549.022C373.43 548.919 373.416 548.809 373.424 548.7C373.432 548.59 373.463 548.484 373.515 548.387C373.561 548.289 373.627 548.201 373.709 548.128C373.79 548.055 373.885 548 373.988 547.964C374.091 547.929 374.2 547.914 374.308 547.921C374.417 547.928 374.523 547.957 374.621 548.006C379.007 550.102 381.314 552.657 381.314 555.383C381.276 562.493 364.972 568.041 344.148 568.041Z" fill="white"/>
<path d="M321.417 565.448H321.208C312.035 563.046 307.001 559.5 307.001 555.421C307.001 548.311 323.305 542.763 344.148 542.763C349.562 542.738 354.97 543.146 360.319 543.983C360.427 543.999 360.531 544.037 360.625 544.094C360.718 544.151 360.799 544.226 360.863 544.315C360.927 544.404 360.973 544.505 360.997 544.611C361.021 544.718 361.024 544.829 361.005 544.936C360.991 545.044 360.956 545.148 360.901 545.241C360.846 545.334 360.772 545.415 360.685 545.48C360.598 545.544 360.498 545.59 360.393 545.614C360.287 545.639 360.178 545.642 360.071 545.623C354.803 544.802 349.479 544.4 344.148 544.422C322.924 544.422 308.66 550.141 308.66 555.421C308.66 558.566 313.504 561.731 321.627 563.847C321.816 563.905 321.978 564.028 322.085 564.194C322.192 564.36 322.237 564.559 322.212 564.755C322.187 564.951 322.094 565.131 321.948 565.265C321.803 565.399 321.615 565.477 321.417 565.486V565.448Z" fill="white"/>
<path d="M344.148 563.18C333.374 563.18 321.932 560.454 321.932 555.383C321.932 550.312 333.374 547.586 344.148 547.586C354.922 547.586 366.345 550.312 366.345 555.383C366.345 560.454 354.903 563.18 344.148 563.18ZM344.148 549.245C332.039 549.245 323.591 552.485 323.591 555.383C323.591 558.28 332.039 561.521 344.148 561.521C356.257 561.521 364.686 558.28 364.686 555.383C364.686 552.485 356.238 549.245 344.148 549.245Z" fill="white"/>
<path d="M345.292 559.386C339.743 559.386 333.851 557.975 333.851 555.383C333.851 552.79 339.724 551.38 345.292 551.38C345.403 551.38 345.51 551.424 345.589 551.502C345.667 551.581 345.712 551.688 345.712 551.799C345.712 551.91 345.667 552.017 345.589 552.096C345.51 552.174 345.403 552.218 345.292 552.218C339.057 552.218 334.709 553.877 334.709 555.383C334.709 556.889 339.057 558.566 345.292 558.566C345.346 558.564 345.4 558.572 345.451 558.591C345.502 558.61 345.549 558.639 345.588 558.677C345.627 558.714 345.658 558.759 345.679 558.809C345.701 558.859 345.712 558.912 345.712 558.967C345.712 559.022 345.701 559.076 345.68 559.127C345.659 559.178 345.628 559.224 345.589 559.263C345.55 559.302 345.504 559.333 345.453 559.354C345.402 559.375 345.347 559.386 345.292 559.386Z" fill="white"/>
<path d="M345.292 556.946C345.181 556.946 345.074 556.902 344.996 556.823C344.917 556.745 344.873 556.638 344.873 556.527C344.873 556.415 344.917 556.309 344.996 556.23C345.074 556.151 345.181 556.107 345.292 556.107C347.199 556.107 348.324 555.573 348.381 555.383C348.439 555.192 347.294 554.658 345.292 554.658C345.181 554.658 345.074 554.614 344.996 554.536C344.917 554.457 344.873 554.35 344.873 554.239C344.873 554.128 344.917 554.021 344.996 553.943C345.074 553.864 345.181 553.82 345.292 553.82C347.199 553.82 349.22 554.315 349.22 555.383C349.22 556.45 347.18 556.946 345.292 556.946Z" fill="white"/>
<path d="M345.292 556.946C343.385 556.946 341.364 556.45 341.364 555.383C341.364 554.315 343.404 553.82 345.292 553.82C345.403 553.82 345.51 553.864 345.589 553.943C345.667 554.021 345.712 554.128 345.712 554.239C345.712 554.35 345.667 554.457 345.589 554.536C345.51 554.614 345.403 554.658 345.292 554.658C343.29 554.658 342.241 555.192 342.184 555.383C342.127 555.573 343.29 556.107 345.292 556.107C345.403 556.107 345.51 556.151 345.589 556.23C345.667 556.309 345.712 556.415 345.712 556.527C345.712 556.638 345.667 556.745 345.589 556.823C345.51 556.902 345.403 556.946 345.292 556.946Z" fill="white"/>
</g>
<path d="M415.113 457.85C411.625 457.855 408.141 457.632 404.682 457.182C404.6 457.173 404.52 457.147 404.448 457.106C404.376 457.065 404.313 457.01 404.264 456.944C404.214 456.878 404.178 456.803 404.158 456.723C404.138 456.642 404.135 456.559 404.148 456.477C404.172 456.313 404.259 456.165 404.391 456.065C404.523 455.965 404.689 455.922 404.854 455.943C408.255 456.393 411.682 456.616 415.113 456.61C431.074 456.61 441.81 452.321 441.81 448.318C441.81 446.812 440.265 445.23 437.462 443.896C437.381 443.864 437.306 443.816 437.245 443.755C437.183 443.693 437.134 443.619 437.103 443.538C437.071 443.457 437.056 443.37 437.06 443.282C437.064 443.195 437.085 443.11 437.124 443.031C437.162 442.953 437.217 442.883 437.284 442.827C437.35 442.771 437.428 442.729 437.512 442.705C437.596 442.68 437.684 442.674 437.77 442.685C437.857 442.696 437.94 442.726 438.015 442.771C441.314 444.353 443.049 446.278 443.049 448.318C443.049 453.694 430.788 457.85 415.113 457.85Z" fill="white"/>
<path d="M398.027 455.886H397.855C390.971 454.075 387.176 451.406 387.176 448.261C387.176 442.923 399.457 438.73 415.113 438.73C419.193 438.72 423.267 439.032 427.298 439.664C427.379 439.675 427.456 439.703 427.526 439.745C427.596 439.787 427.656 439.842 427.704 439.908C427.752 439.974 427.786 440.048 427.805 440.127C427.824 440.207 427.826 440.289 427.813 440.369C427.785 440.534 427.694 440.683 427.558 440.782C427.423 440.882 427.255 440.925 427.088 440.903C423.128 440.277 419.123 439.971 415.113 439.988C399.152 439.988 388.416 444.277 388.416 448.261C388.416 450.644 392.077 453.008 398.179 454.609C398.259 454.629 398.334 454.664 398.4 454.714C398.465 454.763 398.52 454.826 398.561 454.897C398.602 454.968 398.628 455.047 398.638 455.128C398.648 455.21 398.641 455.293 398.618 455.371C398.592 455.511 398.52 455.639 398.412 455.732C398.305 455.826 398.169 455.88 398.027 455.886Z" fill="white"/>
<path d="M415.113 454.19C407.027 454.19 398.408 452.131 398.408 448.318C398.408 444.506 407.027 442.466 415.113 442.466C423.198 442.466 431.817 444.506 431.817 448.318C431.817 452.131 423.217 454.19 415.113 454.19ZM415.113 443.705C406.017 443.705 399.667 446.145 399.667 448.318C399.667 450.491 406.017 452.931 415.113 452.931C424.209 452.931 430.578 450.51 430.578 448.318C430.578 446.126 424.228 443.705 415.113 443.705Z" fill="white"/>
<path d="M415.971 451.33C411.814 451.33 407.39 450.282 407.39 448.318C407.39 446.355 411.814 445.306 415.971 445.306C416.055 445.311 416.135 445.346 416.195 445.406C416.255 445.466 416.291 445.546 416.295 445.63C416.29 445.713 416.254 445.791 416.194 445.847C416.133 445.904 416.054 445.935 415.971 445.935C411.28 445.935 408.019 447.193 408.019 448.318C408.019 449.443 411.28 450.701 415.971 450.701C416.055 450.706 416.135 450.741 416.195 450.801C416.255 450.861 416.291 450.941 416.295 451.025C416.29 451.108 416.254 451.185 416.194 451.242C416.133 451.299 416.054 451.33 415.971 451.33Z" fill="white"/>
<path d="M415.971 449.5C415.888 449.495 415.811 449.459 415.754 449.399C415.697 449.338 415.666 449.259 415.666 449.176C415.666 449.095 415.698 449.018 415.755 448.96C415.812 448.903 415.89 448.871 415.971 448.871C417.477 448.871 418.259 448.471 418.316 448.318C418.374 448.166 417.477 447.765 415.971 447.765C415.89 447.765 415.812 447.733 415.755 447.676C415.698 447.619 415.666 447.541 415.666 447.46C415.666 447.379 415.698 447.302 415.755 447.245C415.812 447.188 415.89 447.155 415.971 447.155C417.401 447.155 418.927 447.518 418.927 448.318C418.927 449.119 417.344 449.5 415.971 449.5Z" fill="white"/>
<path d="M415.971 449.5C414.56 449.5 413.034 449.138 413.034 448.318C413.034 447.498 414.56 447.155 415.971 447.155C416.052 447.155 416.129 447.188 416.187 447.245C416.244 447.302 416.276 447.379 416.276 447.46C416.276 447.541 416.244 447.619 416.187 447.676C416.129 447.733 416.052 447.765 415.971 447.765C414.484 447.765 413.702 448.166 413.644 448.337C414.336 448.777 415.157 448.966 415.971 448.871C416.054 448.871 416.133 448.902 416.194 448.959C416.254 449.016 416.29 449.093 416.295 449.176C416.291 449.261 416.255 449.34 416.195 449.4C416.135 449.46 416.055 449.496 415.971 449.5Z" fill="white"/>
<g opacity="0.3">
<path d="M747.242 333.598C774.415 356.15 792.131 385.201 793.885 420.982C794.705 437.205 769.515 437.128 768.714 420.982C767.264 391.74 751.361 369.513 729.431 351.403C716.922 341.014 734.828 323.305 747.242 333.598Z" fill="white"/>
</g>
<g opacity="0.3">
<path d="M707.597 336.954C706.72 336.439 705.842 335.962 704.927 335.505C703.63 334.914 703.726 334.933 705.194 335.505L703.287 334.818C700.884 333.961 698.444 333.236 696.041 332.359C689.595 330.015 685.324 323.915 687.25 316.88C688.966 310.666 696.289 305.729 702.734 308.092C708.646 310.247 714.767 311.905 720.221 315.146C721.648 315.979 722.897 317.086 723.897 318.402C724.896 319.718 725.627 321.218 726.047 322.817C726.466 324.415 726.567 326.081 726.343 327.718C726.119 329.355 725.574 330.932 724.74 332.359C723.906 333.786 722.799 335.035 721.483 336.034C720.166 337.034 718.665 337.764 717.066 338.183C715.467 338.603 713.801 338.704 712.163 338.479C710.526 338.255 708.948 337.711 707.521 336.877L707.597 336.954Z" fill="white"/>
</g>
<g opacity="0.3">
<path d="M577.011 425.958C576.858 424.947 576.763 424.051 576.686 422.946C576.686 421.516 576.686 421.611 576.686 423.232C576.686 422.564 576.686 421.916 576.686 421.325C576.82 418.771 577.106 416.236 577.239 413.7C577.583 406.857 573.616 400.528 566.389 399.575C560.001 398.736 552.602 403.559 552.259 410.421C551.954 416.712 551.077 422.984 551.973 429.274C552.513 432.491 554.281 435.373 556.903 437.314C559.526 439.255 562.799 440.104 566.035 439.682C569.271 439.259 572.216 437.599 574.253 435.05C576.289 432.502 577.257 429.263 576.953 426.015L577.011 425.958Z" fill="white"/>
</g>
<path d="M244.71 194.459L246.388 197.509L249.439 199.168L246.388 200.845L244.71 203.895L243.051 200.845L240 199.168L243.051 197.509L244.71 194.459Z" fill="white"/>
<path d="M486.763 457C484.754 457 482.947 456.3 481.34 454.9C479.934 453.5 479.231 451.7 479.231 449.5V415.6H385.532C383.524 415.6 381.716 414.9 380.109 413.5C378.703 412.1 378 410.3 378 408.1V379.6C378 377.8 378.301 376.2 378.904 374.8C379.707 373.2 380.511 371.7 381.314 370.3L468.987 252.1C471.598 248.7 475.314 247 480.135 247H523.821C526.03 247 527.838 247.7 529.244 249.1C530.85 250.5 531.654 252.3 531.654 254.5V370.9H558.167C560.577 370.9 562.485 371.7 563.891 373.3C565.297 374.7 566 376.4 566 378.4V408.1C566 410.3 565.197 412.1 563.59 413.5C562.184 414.9 560.477 415.6 558.468 415.6H531.654V449.5C531.654 451.7 530.85 453.5 529.244 454.9C527.838 456.3 526.03 457 523.821 457H486.763ZM429.821 373H480.436V302.2L429.821 373Z" fill="white"/>
</svg>
