<svg width="78" height="54" viewBox="0 0 78 54" fill="none" xmlns="http://www.w3.org/2000/svg">
<g id="Group 937">
<path id="Union" d="M78 33.0571C78 21.8225 68.9311 12.7061 57.7147 12.6291C55.2366 5.28666 48.2928 0 40.1143 0C33.5159 0 27.7212 3.44117 24.427 8.62677C23.7826 8.57121 23.1303 8.54286 22.4714 8.54286C10.0608 8.54286 0 18.6037 0 31.0143C0 42.8627 9.16994 52.5694 20.8 53.4245V53.4857H59.8V53.3656C70.034 52.2552 78 43.5865 78 33.0571Z" fill="#B7E3FC"/>
<path id="Union_2" d="M40.6204 19.1718C39.774 18.0384 38.0256 18.0519 37.1981 19.1983L32.4998 25.707C31.5274 27.0541 32.523 28.9034 34.2207 28.9034H35.5909V41.533C35.5909 42.6555 36.5309 43.5654 37.6903 43.5654H40.3895C41.549 43.5654 42.4889 42.6555 42.4889 41.533V28.9034H43.7792C45.4923 28.9034 46.4842 27.0244 45.4807 25.6805L40.6204 19.1718Z" fill="white"/>
</g>
</svg>
