<svg width="32" height="32" viewBox="0 0 32 32" fill="none" xmlns="http://www.w3.org/2000/svg">
<path fill-rule="evenodd" clip-rule="evenodd" d="M19.6299 9.13509C19.1 8.5704 19.1 7.65487 19.6299 7.09018C20.1598 6.5255 21.019 6.5255 21.5489 7.09018L28.9356 14.9614C29.4655 15.5261 29.4655 16.4417 28.9356 17.0063C28.8537 17.0936 28.7639 17.1674 28.6687 17.2277L21.4595 24.9098C20.9296 25.4745 20.0704 25.4745 19.5405 24.9098C19.0106 24.3451 19.0106 23.4296 19.5405 22.8649L24.901 17.1527H4.02329C3.27387 17.1527 2.66634 16.5054 2.66634 15.7068C2.66634 14.9082 3.27387 14.2608 4.02329 14.2608H24.4401L19.6299 9.13509Z" fill="#121212"/>
</svg>
