<svg width="32" height="32" viewBox="0 0 32 32" fill="none" xmlns="http://www.w3.org/2000/svg">
<path fill-rule="evenodd" clip-rule="evenodd" d="M16.0003 2.66667C16.8185 2.66667 17.4818 3.32995 17.4818 4.14815V14.5185H27.8522C28.6704 14.5185 29.3337 15.1818 29.3337 16C29.3337 16.8182 28.6704 17.4815 27.8522 17.4815H17.4818V27.8519C17.4818 28.6701 16.8185 29.3333 16.0003 29.3333C15.1821 29.3333 14.5188 28.6701 14.5188 27.8519V17.4815H4.14847C3.33027 17.4815 2.66699 16.8182 2.66699 16C2.66699 15.1818 3.33027 14.5185 4.14847 14.5185H14.5188V4.14815C14.5188 3.32995 15.1821 2.66667 16.0003 2.66667Z" fill="#121212"/>
</svg>
