<svg width="32" height="32" viewBox="0 0 32 32" fill="none" xmlns="http://www.w3.org/2000/svg">
<path fill-rule="evenodd" clip-rule="evenodd" d="M4 4.51259C4 3.49312 4.82645 2.66667 5.84592 2.66667H20.0547C20.5442 2.66667 21.0138 2.86117 21.3599 3.20744L25.1995 7.04687C25.5456 7.39306 25.7401 7.86265 25.7401 8.35215V15.9757C25.7401 16.591 25.2412 17.0899 24.6259 17.0899C24.0105 17.0899 23.5116 16.591 23.5116 15.9757V8.51056L19.8961 4.89515H6.22847V27.0562H13.6506C14.2659 27.0562 14.7648 27.5551 14.7648 28.1704C14.7648 28.7858 14.2659 29.2847 13.6506 29.2847H5.84592C4.82648 29.2847 4 28.4583 4 27.4388V4.51259ZM19.784 4.783C19.7839 4.78296 19.784 4.78304 19.784 4.783V4.783Z" fill="#121212"/>
<path fill-rule="evenodd" clip-rule="evenodd" d="M8.87806 8.65881C8.87806 8.04344 9.37692 7.54457 9.9923 7.54457H14.8702C15.4856 7.54457 15.9844 8.04344 15.9844 8.65881C15.9844 9.27419 15.4856 9.77305 14.8702 9.77305H9.9923C9.37692 9.77305 8.87806 9.27419 8.87806 8.65881ZM8.87806 13.5367C8.87806 12.9213 9.37692 12.4225 9.9923 12.4225H19.7481C20.3635 12.4225 20.8623 12.9213 20.8623 13.5367C20.8623 14.1521 20.3635 14.651 19.7481 14.651H9.9923C9.37692 14.651 8.87806 14.1521 8.87806 13.5367ZM8.87806 18.4146C8.87806 17.7992 9.37692 17.3004 9.9923 17.3004H13.6507C14.2661 17.3004 14.765 17.7992 14.765 18.4146C14.765 19.03 14.2661 19.5289 13.6507 19.5289H9.9923C9.37692 19.5289 8.87806 19.03 8.87806 18.4146Z" fill="#121212"/>
<path fill-rule="evenodd" clip-rule="evenodd" d="M24.4965 21.5676C24.3976 21.4687 24.2373 21.4687 24.1384 21.5676L23.7068 21.9991L24.0649 22.3572L24.4965 21.9256C24.5953 21.8268 24.5953 21.6664 24.4965 21.5676ZM22.4891 23.933L22.131 23.5749L19.2713 26.4346C19.2555 26.4504 19.2453 26.4708 19.2419 26.4925L19.181 26.8831L19.571 26.8223C19.593 26.8189 19.6134 26.8085 19.6293 26.7927L22.4891 23.933ZM22.5626 19.9918C23.5318 19.0226 25.1031 19.0226 26.0722 19.9918C27.0414 20.9609 27.0414 22.5323 26.0722 23.5014L21.2051 28.3685C21.205 28.3685 21.2051 28.3685 21.2051 28.3685C20.8553 28.7182 20.4035 28.9478 19.9146 29.0242L18.0165 29.32C17.6651 29.3748 17.3085 29.2585 17.057 29.007C16.8055 28.7554 16.6892 28.3989 16.744 28.0474L17.0399 26.1497C17.0399 26.1498 17.0399 26.1496 17.0399 26.1497C17.1161 25.6608 17.3458 25.2086 17.6956 24.8588L22.5626 19.9918Z" fill="#121212"/>
<path fill-rule="evenodd" clip-rule="evenodd" d="M19.7481 2.66667C20.3635 2.66667 20.8623 3.16553 20.8623 3.78091V7.54458H24.626C25.2414 7.54458 25.7402 8.04344 25.7402 8.65881C25.7402 9.27419 25.2414 9.77305 24.626 9.77305H20.4798C19.4602 9.77305 18.6338 8.94657 18.6338 7.92713V3.78091C18.6338 3.16553 19.1327 2.66667 19.7481 2.66667Z" fill="#121212"/>
</svg>
