<svg width="32" height="32" viewBox="0 0 32 32" fill="none" xmlns="http://www.w3.org/2000/svg">
<path d="M14 4.66666C14 4.13622 14.2107 3.62752 14.5858 3.25244C14.9609 2.87737 15.4696 2.66666 16 2.66666C16.5304 2.66666 17.0391 2.87737 17.4142 3.25244C17.7893 3.62752 18 4.13622 18 4.66666V20.6667C18 21.1971 17.7893 21.7058 17.4142 22.0809C17.0391 22.4559 16.5304 22.6667 16 22.6667C15.4696 22.6667 14.9609 22.4559 14.5858 22.0809C14.2107 21.7058 14 21.1971 14 20.6667V4.66666ZM14 27.3333C14 26.8029 14.2107 26.2942 14.5858 25.9191C14.9609 25.544 15.4696 25.3333 16 25.3333C16.5304 25.3333 17.0391 25.544 17.4142 25.9191C17.7893 26.2942 18 26.8029 18 27.3333C18 27.8638 17.7893 28.3725 17.4142 28.7475C17.0391 29.1226 16.5304 29.3333 16 29.3333C15.4696 29.3333 14.9609 29.1226 14.5858 28.7475C14.2107 28.3725 14 27.8638 14 27.3333Z" fill="#121212"/>
</svg>
