<svg width="32" height="32" viewBox="0 0 32 32" fill="none" xmlns="http://www.w3.org/2000/svg">
<g id="ic_arrow_back">
<path id="Union" fill-rule="evenodd" clip-rule="evenodd" d="M12.3701 9.13507C12.9 8.57039 12.9 7.65485 12.3701 7.09017C11.8402 6.52548 10.981 6.52549 10.4511 7.09017L3.06443 14.9614C2.53451 15.5261 2.53451 16.4416 3.06443 17.0063C3.14633 17.0936 3.23609 17.1674 3.33128 17.2277L10.5405 24.9098C11.0704 25.4745 11.9296 25.4745 12.4595 24.9098C12.9894 24.3451 12.9894 23.4296 12.4595 22.8649L7.09899 17.1527H27.9767C28.7261 17.1527 29.3337 16.5054 29.3337 15.7068C29.3337 14.9082 28.7261 14.2608 27.9767 14.2608H7.55994L12.3701 9.13507Z" fill="#121212"/>
</g>
</svg>
