<svg width="32" height="32" viewBox="0 0 32 32" fill="none" xmlns="http://www.w3.org/2000/svg">
<g clip-path="url(#clip0_442_13638)">
<path d="M14.947 26.7712C14.6513 26.7615 14.361 26.6903 14.0943 26.5622C13.8277 26.4341 13.5903 26.2518 13.3979 26.0271C13.2055 25.8024 13.0624 25.5401 12.9769 25.2569C12.8914 24.9737 12.8655 24.6758 12.9015 24.3821V22.3213C12.9157 21.7395 12.7958 21.1622 12.551 20.6343C12.3062 20.1063 11.9431 19.6418 11.4899 19.2768C10.241 18.3399 9.28657 17.0649 8.73987 15.6026C8.19316 14.1402 8.077 12.5517 8.40504 11.0253C8.73333 9.48984 9.49731 8.08158 10.6055 6.96919C11.7137 5.85679 13.119 5.08745 14.6533 4.75334C15.8547 4.4937 17.0991 4.50681 18.2948 4.79162C19.4905 5.07643 20.6073 5.62573 21.5626 6.3991C22.5088 7.16474 23.2716 8.13252 23.7948 9.23146C24.318 10.3304 24.5884 11.5325 24.5863 12.7497C24.589 13.9877 24.3087 15.21 23.7671 16.3233C23.2255 17.4366 22.437 18.4114 21.4613 19.1734C20.9959 19.5161 20.6143 19.9603 20.3461 20.4723C20.0779 20.9843 19.9298 21.5507 19.9131 22.1285V24.7259C19.9124 25.2681 19.6969 25.7879 19.3135 26.1713C18.9301 26.5547 18.4102 26.7705 17.868 26.7712H14.947ZM14.6533 24.3821C14.6533 24.4891 14.6664 25.0222 14.9452 25.0222H17.8653C17.9036 25.0222 17.9415 25.0146 17.9769 25C18.0123 24.9853 18.0445 24.9638 18.0716 24.9367C18.0986 24.9096 18.1203 24.8775 18.135 24.8421C18.1496 24.8067 18.1568 24.7688 18.1568 24.7305V23.2676H14.6524L14.6533 24.3821ZM18.1961 21.5132C18.402 20.0339 19.1864 18.6966 20.3769 17.7947C21.144 17.1967 21.7639 16.4313 22.1899 15.5569C22.6158 14.6825 22.8365 13.7223 22.8345 12.7497C22.8362 11.793 22.6235 10.8482 22.2122 9.98448C21.8008 9.12078 21.2011 8.36016 20.4573 7.75859C19.3073 6.82722 17.8715 6.32091 16.3917 6.32499C15.9274 6.32527 15.4643 6.37336 15.01 6.46852C13.8096 6.72997 12.7099 7.33208 11.843 8.20256C10.9761 9.07304 10.3785 10.175 10.122 11.3764C9.86265 12.5778 9.95296 13.8283 10.3818 14.9801C10.8107 16.1319 11.5602 17.1369 12.5421 17.8761C13.1073 18.3171 13.5802 18.8652 13.9332 19.4892C14.2862 20.1131 14.5124 20.8007 14.5992 21.5123L18.1961 21.5132ZM19.9122 12.4562C19.9117 11.6043 19.5731 10.7873 18.9707 10.1849C18.3683 9.58251 17.5516 9.24389 16.6997 9.24341C16.4671 9.24341 16.244 9.15103 16.0796 8.9866C15.9152 8.82217 15.8229 8.59916 15.8229 8.36662C15.8229 8.25152 15.8453 8.13757 15.8894 8.03124C15.9335 7.92491 15.9982 7.82832 16.0796 7.74698C16.161 7.66563 16.2576 7.6011 16.364 7.55713C16.4703 7.51317 16.5846 7.49061 16.6997 7.49073C18.0161 7.49218 19.278 8.01564 20.2091 8.94631C21.1401 9.87698 21.6638 11.1389 21.6658 12.4553C21.6658 12.6879 21.5735 12.9109 21.4091 13.0753C21.2446 13.2398 21.0215 13.3321 20.789 13.3321C20.5567 13.3321 20.3342 13.24 20.1698 13.076C20.0054 12.912 19.9127 12.6885 19.9122 12.4562Z" fill="#121212"/>
</g>
<defs>
<clipPath id="clip0_442_13638">
<rect width="32" height="32" fill="white"/>
</clipPath>
</defs>
</svg>
