<svg width="32" height="32" viewBox="0 0 32 32" fill="none" xmlns="http://www.w3.org/2000/svg">
<g clip-path="url(#clip0_442_13616)">
<path d="M14.9356 26.7164C14.6414 26.7068 14.3524 26.6359 14.0871 26.5085C13.8218 26.381 13.5859 26.1997 13.3945 25.9761C13.2032 25.7525 13.0605 25.4914 12.9755 25.2096C12.8906 24.9278 12.8653 24.6313 12.9013 24.3392V22.2894C12.9013 22.0225 12.8762 21.7562 12.8263 21.494H12.8199C12.7805 21.2721 12.7221 21.0539 12.6453 20.8421C12.4823 20.3982 12.2338 19.9907 11.9139 19.6425C11.7843 19.5037 11.6426 19.3767 11.4906 19.263C11.084 18.9558 10.7067 18.6119 10.3632 18.2355C9.47107 17.2608 8.83268 16.0813 8.50449 14.8013C8.19016 13.5722 8.16169 12.2874 8.42129 11.0455C8.58838 10.2457 8.87894 9.47665 9.28255 8.76616C9.84544 7.76613 10.6138 6.89665 11.5369 6.21494C12.46 5.53322 13.5171 5.05468 14.6384 4.81092C16.5638 4.39809 18.5733 4.6901 20.3015 5.6338C20.728 5.8665 21.1326 6.13732 21.5102 6.44295C22.4525 7.20533 23.212 8.16912 23.733 9.26349C24.254 10.3579 24.5232 11.555 24.521 12.7671C24.5214 13.4229 24.4429 14.0765 24.2869 14.7136C24.0793 15.5615 23.735 16.37 23.2675 17.1072L23.2565 17.1236C22.7616 17.8992 22.1405 18.5864 21.4188 19.157C20.6549 19.7284 20.1259 20.5592 19.9312 21.4931C19.8942 21.6915 19.8755 21.8928 19.8755 22.0946V24.6793C19.8747 25.2188 19.6601 25.7359 19.2785 26.1173C18.897 26.4987 18.3797 26.7131 17.8403 26.7136L14.9356 26.7164ZM14.643 24.3392C14.643 24.4452 14.6567 24.9719 14.9337 24.9719H17.8403C17.8784 24.9719 17.9163 24.9644 17.9515 24.9498C17.9868 24.9351 18.0189 24.9137 18.0459 24.8867C18.0729 24.8597 18.0943 24.8277 18.1089 24.7924C18.1235 24.7571 18.131 24.7193 18.131 24.6811V23.2283H14.6439L14.643 24.3392ZM15.8069 8.40779C15.8074 8.63905 15.8996 8.86063 16.0633 9.02398C16.227 9.18733 16.4488 9.27911 16.68 9.27911C17.5287 9.27911 18.3427 9.61627 18.9428 10.2164C19.5429 10.8165 19.88 11.6304 19.88 12.4791C19.88 12.7103 19.9718 12.932 20.1352 13.0955C20.2986 13.2591 20.5202 13.3511 20.7514 13.3513C20.9826 13.3511 21.2043 13.2592 21.3678 13.0956C21.5314 12.9321 21.6233 12.7104 21.6236 12.4791C21.6212 11.1704 21.1002 9.91609 20.1749 8.99072C19.2495 8.06535 17.9951 7.54436 16.6864 7.54195C16.5716 7.54122 16.4577 7.56314 16.3513 7.60645C16.2449 7.64977 16.1481 7.71365 16.0664 7.7944C15.9848 7.87515 15.9198 7.97123 15.8753 8.0771C15.8307 8.18298 15.8075 8.29662 15.8069 8.41148V8.40779ZM26.3824 22.6305L24.7733 21.0213C24.6102 20.8575 24.5187 20.6357 24.5187 20.4046C24.5187 20.1734 24.6102 19.9517 24.7733 19.7879C24.9369 19.6244 25.1587 19.5325 25.39 19.5325C25.6213 19.5325 25.8431 19.6244 26.0067 19.7879L27.6158 21.3971C27.6968 21.478 27.761 21.574 27.8048 21.6798C27.8486 21.7855 27.8711 21.8988 27.8711 22.0133C27.8711 22.1277 27.8486 22.241 27.8048 22.3467C27.761 22.4525 27.6968 22.5485 27.6158 22.6294C27.535 22.7108 27.4388 22.7753 27.3329 22.8193C27.2269 22.8632 27.1133 22.8857 26.9987 22.8855C26.8843 22.8864 26.771 22.8645 26.6652 22.8212C26.5594 22.7779 26.4633 22.7139 26.3824 22.6331V22.6305ZM5.52393 22.6305C5.44298 22.5495 5.37877 22.4534 5.33496 22.3476C5.29115 22.2419 5.26861 22.1286 5.26861 22.0142C5.26861 21.8997 5.29115 21.7864 5.33496 21.6807C5.37877 21.5749 5.44298 21.4789 5.52393 21.398L7.13306 19.7888C7.29663 19.6253 7.51846 19.5334 7.74975 19.5334C7.98104 19.5334 8.20287 19.6253 8.36643 19.7888C8.52996 19.9524 8.62183 20.1742 8.62183 20.4055C8.62183 20.6367 8.52996 20.8586 8.36643 21.0222L6.7573 22.6313C6.67642 22.7126 6.58025 22.7771 6.47433 22.8211C6.36841 22.865 6.25482 22.8876 6.14015 22.8874C6.02572 22.8879 5.91233 22.8657 5.80654 22.8221C5.70076 22.7784 5.60469 22.7142 5.52393 22.6331V22.6305ZM27.2547 13.6421C27.0233 13.6421 26.8015 13.5502 26.6379 13.3866C26.4743 13.223 26.3824 13.0012 26.3824 12.7698C26.3827 12.5387 26.4747 12.317 26.6382 12.1537C26.8018 11.9903 27.0235 11.8985 27.2547 11.8985H29.5294C29.7606 11.8985 29.9823 11.9903 30.1458 12.1537C30.3094 12.317 30.4014 12.5387 30.4016 12.7698C30.4016 13.0012 30.3097 13.223 30.1462 13.3866C29.9826 13.5502 29.7607 13.6421 29.5294 13.6421H27.2547ZM3.24918 13.6421C3.01785 13.6421 2.796 13.5502 2.63242 13.3866C2.46885 13.223 2.37695 13.0012 2.37695 12.7698C2.3772 12.5387 2.46919 12.317 2.63274 12.1537C2.79629 11.9903 3.01801 11.8985 3.24918 11.8985H5.52393C5.7551 11.8985 5.97681 11.9903 6.14036 12.1537C6.30391 12.317 6.39591 12.5387 6.39615 12.7698C6.39615 13.0012 6.30426 13.223 6.14068 13.3866C5.97711 13.5502 5.75526 13.6421 5.52393 13.6421H3.24918ZM24.7724 5.74719C24.6091 5.58366 24.5174 5.36208 24.5174 5.13101C24.5174 4.89994 24.6091 4.67825 24.7724 4.51471L26.3815 2.90556C26.5451 2.74231 26.7667 2.65065 26.9978 2.65065C27.2288 2.65065 27.4504 2.74231 27.614 2.90556C27.7775 3.06913 27.8694 3.29101 27.8694 3.5223C27.8694 3.7536 27.7775 3.97536 27.614 4.13893L26.0048 5.74808C25.9239 5.82926 25.8277 5.89366 25.7218 5.93759C25.6159 5.98152 25.5023 6.00414 25.3877 6.00411C25.1582 6.00308 24.9386 5.91098 24.777 5.74808L24.7724 5.74719ZM7.13216 5.74719L5.52301 4.13804C5.35948 3.97447 5.26762 3.7527 5.26762 3.52141C5.26762 3.29012 5.35948 3.06824 5.52301 2.90467C5.68669 2.74136 5.90847 2.64965 6.13969 2.64965C6.37091 2.64965 6.59269 2.74136 6.75638 2.90467L8.36553 4.51382C8.44647 4.59473 8.51068 4.69079 8.55449 4.79652C8.5983 4.90226 8.62084 5.01555 8.62084 5.13C8.62084 5.24445 8.5983 5.35786 8.55449 5.4636C8.51068 5.56933 8.44647 5.66539 8.36553 5.7463C8.20183 5.90999 7.97988 6.00209 7.74838 6.00233C7.63381 6.0029 7.52028 5.98067 7.41434 5.93704C7.3084 5.8934 7.21217 5.82917 7.13124 5.74808L7.13216 5.74719Z" fill="#121212"/>
</g>
<defs>
<clipPath id="clip0_442_13616">
<rect width="32" height="32" fill="white"/>
</clipPath>
</defs>
</svg>
