<svg width="32" height="32" viewBox="0 0 32 32" fill="none" xmlns="http://www.w3.org/2000/svg">
<path d="M12.4428 12.4268C12.4218 12.4268 12.4014 12.4204 12.3841 12.4084L12.0615 12.184C11.5047 11.7966 10.7333 11.8734 10.3695 12.4459C9.71357 13.4781 9.33366 14.703 9.33366 16.0166C9.33366 17.7132 9.96742 19.2617 11.0111 20.4385C11.2642 20.7238 11.687 20.7617 12.0119 20.5617C12.521 20.2484 12.5547 19.5119 12.183 19.0438C11.5228 18.2125 11.1285 17.1606 11.1285 16.0166C11.1285 14.6908 11.6581 13.4888 12.5172 12.6104C12.5826 12.5434 12.5365 12.4268 12.4428 12.4268Z" fill="#121212"/>
<path d="M19.8582 18.992C19.677 19.2266 19.8327 19.6063 20.1291 19.6063C20.1955 19.6063 20.2603 19.6266 20.3148 19.6646L20.4649 19.7689C20.8533 20.0392 21.3905 19.9688 21.6429 19.5686C22.2916 18.5403 22.667 17.3222 22.667 16.0166C22.667 14.4602 22.1337 13.0284 21.2398 11.8939C20.9905 11.5775 20.5419 11.5255 20.1989 11.7366C19.7058 12.04 19.6508 12.739 19.9844 13.2121C20.5437 14.0051 20.8721 14.9725 20.8721 16.0166C20.8721 17.137 20.4939 18.169 19.8582 18.992Z" fill="#121212"/>
<path d="M9.17832 22.3055C9.65749 22.0106 9.73778 21.3478 9.40287 20.8957C8.39265 19.532 7.7952 17.844 7.7952 16.0166C7.7952 14.3079 8.3175 12.7212 9.21114 11.4074C9.50887 10.9697 9.43728 10.3584 9.00273 10.0561C8.62535 9.79362 8.10632 9.85995 7.84023 10.2348C6.68152 11.8672 6.00033 13.8623 6.00033 16.0166C6.00033 18.3173 6.77729 20.4365 8.08315 22.1262C8.34313 22.4626 8.81624 22.5283 9.17832 22.3055Z" fill="#121212"/>
<path d="M24.3858 21.467C24.1271 21.8643 23.5902 21.9431 23.201 21.6723C22.7776 21.3778 22.6957 20.7885 22.9685 20.3509C23.7525 19.0931 24.2055 17.6077 24.2055 16.0166C24.2055 14.2973 23.6766 12.7015 22.7728 11.383C22.4618 10.9293 22.5524 10.2883 23.0208 10C23.394 9.77035 23.8828 9.84679 24.1379 10.2031C25.3103 11.8414 26.0003 13.8484 26.0003 16.0166C26.0003 18.0271 25.407 19.8991 24.3858 21.467Z" fill="#121212"/>
<path d="M6.34027 24.052C6.80461 23.7662 6.90186 23.1343 6.58618 22.6898C5.24838 20.8059 4.46186 18.5031 4.46186 16.0166C4.46186 13.591 5.21031 11.3402 6.48887 9.48257C6.78404 9.05372 6.70356 8.45673 6.27618 8.15942C5.89074 7.89128 5.36068 7.96579 5.09038 8.34972C3.56355 10.5184 2.66699 13.1628 2.66699 16.0166C2.66699 18.9414 3.60873 21.6462 5.20553 23.8444C5.4667 24.204 5.9618 24.2849 6.34027 24.052Z" fill="#121212"/>
<path d="M27.131 23.3599C26.8663 23.7603 26.3233 23.8444 25.9293 23.5703C25.5102 23.2787 25.4227 22.6977 25.6997 22.2688C26.8634 20.4673 27.5388 18.3208 27.5388 16.0166C27.5388 13.6417 26.8213 11.4343 25.5912 9.59952C25.2928 9.15442 25.3967 8.53795 25.853 8.25709C26.2396 8.01921 26.7461 8.10866 27.0028 8.48294C28.4732 10.6263 29.3337 13.221 29.3337 16.0166C29.3337 18.73 28.5231 21.254 27.131 23.3599Z" fill="#121212"/>
<path fill-rule="evenodd" clip-rule="evenodd" d="M19.3337 16.0166C19.3337 17.8575 17.8413 19.3499 16.0003 19.3499C14.1594 19.3499 12.667 17.8575 12.667 16.0166C12.667 14.1756 14.1594 12.6832 16.0003 12.6832C17.8413 12.6832 19.3337 14.1756 19.3337 16.0166ZM17.5388 16.0166C17.5388 16.8662 16.85 17.555 16.0003 17.555C15.1507 17.555 14.4619 16.8662 14.4619 16.0166C14.4619 15.1669 15.1507 14.4781 16.0003 14.4781C16.85 14.4781 17.5388 15.1669 17.5388 16.0166Z" fill="#121212"/>
</svg>
