<svg width="32" height="32" viewBox="0 0 32 32" fill="none" xmlns="http://www.w3.org/2000/svg">
<path d="M7.92192 29.3318H25.1757C25.3835 29.3318 25.5829 29.2492 25.7299 29.1022C25.8769 28.9552 25.9594 28.7559 25.9594 28.548V3.45044C25.9594 3.24257 25.8769 3.04321 25.7299 2.89623C25.5829 2.74924 25.3835 2.66667 25.1757 2.66667H7.92192C6.88201 2.66748 5.88493 3.08094 5.1496 3.81627C4.41427 4.55159 4.00081 5.54868 4 6.58859V25.4114C3.9994 25.9266 4.10043 26.4369 4.29731 26.913C4.49419 27.3891 4.78306 27.8217 5.14736 28.186C5.51167 28.5503 5.94425 28.8391 6.42036 29.036C6.89646 29.2329 7.40672 29.3339 7.92192 29.3333V29.3318ZM7.92192 27.7627C7.29791 27.7627 6.69945 27.5148 6.25821 27.0736C5.81696 26.6323 5.56908 26.0339 5.56908 25.4099C5.56908 24.7859 5.81696 24.1874 6.25821 23.7462C6.69945 23.3049 7.29791 23.057 7.92192 23.057H24.3919V24.6261H7.92192V26.1952H24.3919V27.7643L7.92192 27.7627ZM24.3919 21.4879H8.7057V4.23574H24.3919V21.4879ZM5.56908 6.58707C5.57108 6.1022 5.72291 5.62981 6.0038 5.2346C6.2847 4.83938 6.6809 4.54066 7.13815 4.37936V21.5674C7.08162 21.5796 7.03121 21.6025 6.9762 21.6178C6.81631 21.6589 6.65915 21.7099 6.50564 21.7706C6.42772 21.8011 6.35285 21.8348 6.27799 21.8699C6.13507 21.9369 5.99629 22.0124 5.86241 22.096C5.79672 22.1373 5.72949 22.1739 5.66685 22.2213C5.63477 22.2427 5.59964 22.2595 5.56908 22.2839V6.58707Z" fill="#121212"/>
<path d="M11.8414 12.0719H21.2528C21.4607 12.0719 21.66 11.9894 21.807 11.8424C21.954 11.6954 22.0366 11.496 22.0366 11.2882V8.15612C22.0366 7.94825 21.954 7.74889 21.807 7.6019C21.66 7.45492 21.4607 7.37234 21.2528 7.37234H11.8414C11.6335 7.37234 11.4342 7.45492 11.2872 7.6019C11.1402 7.74889 11.0576 7.94825 11.0576 8.15612V11.2866C11.0574 11.3897 11.0775 11.4918 11.1168 11.587C11.1561 11.6823 11.2138 11.7689 11.2866 11.8418C11.3594 11.9148 11.4459 11.9726 11.5411 12.0121C11.6363 12.0516 11.7383 12.0719 11.8414 12.0719ZM12.6252 8.94142H20.4675V10.5029H12.6252V8.94142Z" fill="#121212"/>
</svg>
