<svg width="32" height="32" viewBox="0 0 32 32" fill="none" xmlns="http://www.w3.org/2000/svg">
<path fill-rule="evenodd" clip-rule="evenodd" d="M27.6789 6.8782C28.0608 7.19833 28.1097 7.76613 27.7882 8.14641L13.7404 24.7629C13.5658 24.9696 13.3071 25.0871 13.0359 25.0832C12.7647 25.0793 12.5096 24.9544 12.341 24.7428L5.5299 16.1972C5.21957 15.8078 5.28498 15.2416 5.676 14.9326C6.06702 14.6236 6.63557 14.6887 6.9459 15.0781L13.0696 22.7613L26.4053 6.9871C26.7268 6.60682 27.297 6.55806 27.6789 6.8782Z" fill="#121212"/>
<path fill-rule="evenodd" clip-rule="evenodd" d="M25.8959 6.5567C26.4547 5.89573 27.444 5.81162 28.1069 6.3673C28.7714 6.92437 28.8573 7.91419 28.2971 8.57682L27.796 8.15323L28.2971 8.57682L14.2493 25.1933C13.9454 25.5528 13.4962 25.7566 13.026 25.7498C12.5559 25.7431 12.1127 25.5264 11.8193 25.1583L5.00828 16.6127C4.46741 15.9341 4.58209 14.9472 5.26235 14.4096C5.94092 13.8733 6.92743 13.9857 7.46695 14.6626L13.0845 21.7107L25.8959 6.5567ZM27.2503 7.3891C27.1494 7.30451 26.9983 7.31792 26.9141 7.41751L13.5784 23.1917C13.4496 23.3441 13.2592 23.4308 13.0597 23.4279C12.8601 23.425 12.6723 23.3329 12.548 23.1768L6.42428 15.4936C6.34314 15.3918 6.19253 15.3739 6.08907 15.4557L5.6786 14.9363L6.08907 15.4557C5.98729 15.5361 5.97115 15.6815 6.05095 15.7817L12.862 24.3273C12.9058 24.3823 12.973 24.4156 13.0452 24.4167C13.1175 24.4177 13.1856 24.3863 13.231 24.3325L27.2788 7.716C27.3616 7.61808 27.3495 7.4723 27.2503 7.3891Z" fill="#121212"/>
</svg>
