<svg width="32" height="32" viewBox="0 0 32 32" fill="none" xmlns="http://www.w3.org/2000/svg">
<path d="M27.5561 7.99936C27.2045 7.99936 26.8609 8.10361 26.5685 8.29893C26.2762 8.49425 26.0484 8.77187 25.9138 9.09668C25.7793 9.42148 25.7441 9.77889 25.8127 10.1237C25.8813 10.4685 26.0506 10.7853 26.2992 11.0338C26.5478 11.2824 26.8645 11.4517 27.2093 11.5203C27.5541 11.5889 27.9115 11.5537 28.2363 11.4192C28.5612 11.2846 28.8388 11.0568 29.0341 10.7645C29.2294 10.4722 29.3337 10.1285 29.3337 9.77692C29.3331 9.30564 29.1457 8.85381 28.8125 8.52056C28.4792 8.18731 28.0274 7.99987 27.5561 7.99936ZM27.5561 10.6657C27.3803 10.6657 27.2085 10.6136 27.0623 10.5159C26.9162 10.4183 26.8022 10.2794 26.735 10.117C26.6677 9.95464 26.6501 9.77594 26.6844 9.60353C26.7187 9.43112 26.8033 9.27276 26.9276 9.14846C27.0519 9.02416 27.2103 8.93951 27.3827 8.90522C27.5551 8.87092 27.7338 8.88853 27.8962 8.9558C28.0586 9.02307 28.1974 9.13698 28.2951 9.28314C28.3927 9.4293 28.4449 9.60114 28.4449 9.77692C28.4447 10.0126 28.351 10.2386 28.1844 10.4052C28.0177 10.5718 27.7918 10.6655 27.5561 10.6657Z" fill="#121212"/>
<path d="M4.44456 22.6646C4.09299 22.6646 3.74931 22.7688 3.457 22.9641C3.16468 23.1595 2.93684 23.4371 2.8023 23.7619C2.66776 24.0867 2.63256 24.4441 2.70115 24.7889C2.76974 25.1337 2.93903 25.4505 3.18763 25.6991C3.43623 25.9477 3.75296 26.1169 4.09777 26.1855C4.44259 26.2541 4.79999 26.2189 5.1248 26.0844C5.44961 25.9498 5.72723 25.722 5.92255 25.4297C6.11787 25.1374 6.22212 24.7937 6.22212 24.4421C6.22161 23.9708 6.03417 23.519 5.70092 23.1858C5.36767 22.8525 4.91584 22.6651 4.44456 22.6646ZM4.44456 25.3309C4.26877 25.3309 4.09694 25.2788 3.95078 25.1811C3.80462 25.0835 3.6907 24.9447 3.62343 24.7823C3.55616 24.6199 3.53856 24.4411 3.57285 24.2687C3.60715 24.0963 3.6918 23.938 3.81609 23.8137C3.94039 23.6894 4.09876 23.6047 4.27116 23.5704C4.44357 23.5361 4.62228 23.5537 4.78468 23.621C4.94708 23.6883 5.08589 23.8022 5.18355 23.9483C5.28121 24.0945 5.33334 24.2663 5.33334 24.4421C5.33317 24.6778 5.23947 24.9038 5.07283 25.0704C4.90619 25.237 4.68022 25.3307 4.44456 25.3309Z" fill="#121212"/>
<path d="M26.6918 8.56119L22.858 6.71026C22.7518 6.65905 22.6297 6.65212 22.5184 6.69098C22.4071 6.72984 22.3158 6.81132 22.2646 6.91749C22.2134 7.02366 22.2065 7.14582 22.2453 7.2571C22.2842 7.36838 22.3657 7.45966 22.4718 7.51087L26.3056 9.3618C26.4118 9.41301 26.534 9.41994 26.6452 9.38108C26.7565 9.34221 26.8478 9.26073 26.899 9.15456C26.9502 9.0484 26.9572 8.92624 26.9183 8.81496C26.8794 8.70368 26.7979 8.61239 26.6918 8.56119Z" fill="#121212"/>
<path d="M22.6649 25.7756C22.3133 25.7756 21.9696 25.8799 21.6773 26.0752C21.385 26.2705 21.1572 26.5481 21.0226 26.8729C20.8881 27.1977 20.8529 27.5552 20.9215 27.9C20.9901 28.2448 21.1594 28.5615 21.408 28.8101C21.6565 29.0587 21.9733 29.228 22.3181 29.2966C22.6629 29.3652 23.0203 29.33 23.3451 29.1954C23.6699 29.0609 23.9475 28.8331 24.1429 28.5407C24.3382 28.2484 24.4424 27.9047 24.4424 27.5532C24.4419 27.0819 24.2545 26.6301 23.9212 26.2968C23.588 25.9636 23.1362 25.7761 22.6649 25.7756ZM22.6649 28.442C22.4891 28.442 22.3173 28.3898 22.1711 28.2922C22.0249 28.1945 21.911 28.0557 21.8438 27.8933C21.7765 27.7309 21.7589 27.5522 21.7932 27.3798C21.8275 27.2074 21.9121 27.049 22.0364 26.9247C22.1607 26.8004 22.3191 26.7158 22.4915 26.6815C22.6639 26.6472 22.8426 26.6648 23.005 26.732C23.1674 26.7993 23.3062 26.9132 23.4039 27.0594C23.5015 27.2056 23.5537 27.3774 23.5537 27.5532C23.5535 27.7888 23.4598 28.0148 23.2932 28.1815C23.1265 28.3481 22.9006 28.4418 22.6649 28.442Z" fill="#121212"/>
<path d="M21.8032 26.3375L17.9694 24.4865C17.8632 24.4353 17.741 24.4284 17.6298 24.4673C17.5185 24.5061 17.4272 24.5876 17.376 24.6938C17.3248 24.8 17.3178 24.9221 17.3567 25.0334C17.3956 25.1447 17.477 25.236 17.5832 25.2872L21.417 27.1381C21.5232 27.1893 21.6453 27.1962 21.7566 27.1574C21.8679 27.1185 21.9592 27.037 22.0104 26.9309C22.0616 26.8247 22.0685 26.7025 22.0297 26.5913C21.9908 26.48 21.9093 26.3887 21.8032 26.3375Z" fill="#121212"/>
<path d="M15.9993 14.6655C15.6478 14.6655 15.3041 14.7698 15.0118 14.9651C14.7195 15.1604 14.4916 15.438 14.3571 15.7628C14.2226 16.0877 14.1874 16.4451 14.2559 16.7899C14.3245 17.1347 14.4938 17.4514 14.7424 17.7C14.991 17.9486 15.3078 18.1179 15.6526 18.1865C15.9974 18.2551 16.3548 18.2199 16.6796 18.0853C17.0044 17.9508 17.282 17.723 17.4773 17.4307C17.6727 17.1383 17.7769 16.7947 17.7769 16.4431C17.7764 15.9718 17.589 15.52 17.2557 15.1867C16.9225 14.8535 16.4706 14.666 15.9993 14.6655ZM15.9993 17.3319C15.8236 17.3319 15.6517 17.2797 15.5056 17.1821C15.3594 17.0844 15.2455 16.9456 15.1782 16.7832C15.1109 16.6208 15.0934 16.4421 15.1276 16.2697C15.1619 16.0973 15.2466 15.9389 15.3709 15.8146C15.4952 15.6903 15.6535 15.6057 15.826 15.5714C15.9984 15.5371 16.1771 15.5547 16.3395 15.622C16.5019 15.6892 16.6407 15.8032 16.7383 15.9493C16.836 16.0955 16.8881 16.2673 16.8881 16.4431C16.888 16.6788 16.7943 16.9047 16.6276 17.0714C16.461 17.238 16.235 17.3317 15.9993 17.3319Z" fill="#121212"/>
<path d="M15.2181 15.2769L12.2731 12.9813C12.2272 12.9438 12.1742 12.9159 12.1174 12.8991C12.0605 12.8824 12.0009 12.8772 11.942 12.8838C11.8831 12.8904 11.8261 12.9088 11.7744 12.9377C11.7227 12.9667 11.6773 13.0057 11.6409 13.0524C11.6045 13.0992 11.5778 13.1528 11.5624 13.21C11.5469 13.2672 11.5431 13.3269 11.5511 13.3857C11.5591 13.4444 11.5787 13.5009 11.6089 13.552C11.639 13.603 11.6791 13.6475 11.7267 13.6828L14.6717 15.9784C14.7176 16.0159 14.7705 16.0439 14.8274 16.0606C14.8842 16.0773 14.9438 16.0826 15.0027 16.0759C15.0616 16.0693 15.1186 16.051 15.1703 16.022C15.222 15.993 15.2674 15.954 15.3038 15.9073C15.3403 15.8605 15.367 15.807 15.3824 15.7497C15.3978 15.6925 15.4016 15.6328 15.3937 15.574C15.3857 15.5153 15.366 15.4588 15.3359 15.4078C15.3057 15.3567 15.2657 15.3122 15.2181 15.2769Z" fill="#121212"/>
<path d="M23.9984 14.2215C23.031 14.2215 22.0853 14.5083 21.281 15.0458C20.4766 15.5832 19.8497 16.3471 19.4795 17.2409C19.1093 18.1346 19.0124 19.1181 19.2012 20.0669C19.3899 21.0157 19.8557 21.8872 20.5398 22.5712C21.2238 23.2553 22.0954 23.7211 23.0442 23.9099C23.993 24.0986 24.9764 24.0017 25.8702 23.6315C26.7639 23.2613 27.5278 22.6344 28.0653 21.83C28.6027 21.0257 28.8896 20.08 28.8896 19.1126C28.8896 17.8154 28.3743 16.5713 27.457 15.654C26.5397 14.7368 25.2956 14.2215 23.9984 14.2215ZM23.9984 23.1093C23.2073 23.1093 22.434 22.8747 21.7762 22.4352C21.1184 21.9957 20.6058 21.371 20.303 20.6401C20.0003 19.9092 19.9211 19.105 20.0754 18.3291C20.2297 17.5532 20.6107 16.8405 21.1701 16.2811C21.7295 15.7217 22.4422 15.3408 23.2181 15.1864C23.9939 15.0321 24.7982 15.1113 25.529 15.4141C26.2599 15.7168 26.8846 16.2295 27.3241 16.8872C27.7636 17.545 27.9982 18.3183 27.9982 19.1094C27.9972 20.1699 27.5755 21.1867 26.8256 21.9366C26.0757 22.6865 25.0589 23.1082 23.9984 23.1093Z" fill="#121212"/>
<path d="M23.9984 15.999C23.6468 15.999 23.3032 16.1033 23.0108 16.2986C22.7185 16.4939 22.4907 16.7715 22.3561 17.0963C22.2216 17.4212 22.1864 17.7786 22.255 18.1234C22.3236 18.4682 22.4929 18.7849 22.7415 19.0335C22.9901 19.2821 23.3068 19.4514 23.6516 19.52C23.9964 19.5886 24.3538 19.5534 24.6786 19.4188C25.0035 19.2843 25.2811 19.0565 25.4764 18.7642C25.6717 18.4718 25.776 18.1282 25.776 17.7766C25.7754 17.3053 25.588 16.8535 25.2548 16.5202C24.9215 16.187 24.4697 15.9995 23.9984 15.999ZM23.9984 18.6654C23.8226 18.6654 23.6508 18.6132 23.5046 18.5156C23.3585 18.4179 23.2445 18.2791 23.1773 18.1167C23.11 17.9543 23.0924 17.7756 23.1267 17.6032C23.161 17.4308 23.2456 17.2724 23.3699 17.1481C23.4942 17.0238 23.6526 16.9392 23.825 16.9049C23.9974 16.8706 24.1761 16.8882 24.3385 16.9555C24.5009 17.0227 24.6397 17.1367 24.7374 17.2828C24.835 17.429 24.8872 17.6008 24.8872 17.7766C24.887 18.0123 24.7933 18.2382 24.6267 18.4049C24.46 18.5715 24.2341 18.6652 23.9984 18.6654Z" fill="#121212"/>
<path d="M25.2875 20.4429H22.7093C22.3491 20.4385 22.0019 20.577 21.7437 20.8282C21.4855 21.0794 21.3375 21.4227 21.3321 21.7829V22.9542C21.3318 23.0324 21.3523 23.1092 21.3913 23.177C21.4302 23.2448 21.4864 23.3011 21.5541 23.3403C22.2967 23.7723 23.1405 23.9999 23.9997 23.9999C24.8589 23.9999 25.7027 23.7723 26.4453 23.3403C26.513 23.3012 26.5692 23.2449 26.6082 23.1771C26.6472 23.1093 26.6676 23.0324 26.6673 22.9542V21.7829C26.6619 21.4222 26.5135 21.0785 26.2548 20.8273C25.996 20.576 25.6481 20.4378 25.2875 20.4429ZM25.776 22.6897C25.2228 22.9615 24.6147 23.1029 23.9984 23.1029C23.3821 23.1029 22.774 22.9615 22.2208 22.6897V21.7835C22.2264 21.6591 22.2808 21.542 22.3723 21.4577C22.4638 21.3733 22.5849 21.3285 22.7093 21.333H25.2875C25.4119 21.3285 25.533 21.3733 25.6245 21.4577C25.716 21.542 25.7704 21.6591 25.776 21.7835V22.6897Z" fill="#121212"/>
<path d="M13.333 19.5542C12.3656 19.5542 11.42 19.841 10.6156 20.3785C9.81127 20.9159 9.18436 21.6798 8.81416 22.5736C8.44395 23.4673 8.34709 24.4508 8.53582 25.3996C8.72455 26.3484 9.19039 27.2199 9.87444 27.9039C10.5585 28.588 11.43 29.0538 12.3788 29.2425C13.3276 29.4313 14.3111 29.3344 15.2048 28.9642C16.0986 28.594 16.8625 27.9671 17.3999 27.1627C17.9374 26.3584 18.2242 25.4127 18.2242 24.4453C18.2242 23.1481 17.7089 21.904 16.7916 20.9867C15.8744 20.0695 14.6303 19.5542 13.333 19.5542ZM13.333 28.442C12.5419 28.442 11.7686 28.2074 11.1108 27.7679C10.4531 27.3284 9.9404 26.7037 9.63766 25.9728C9.33492 25.2419 9.25571 24.4377 9.41005 23.6618C9.56438 22.8859 9.94533 22.1732 10.5047 21.6138C11.0641 21.0544 11.7768 20.6735 12.5527 20.5191C13.3286 20.3648 14.1328 20.444 14.8637 20.7468C15.5946 21.0495 16.2193 21.5622 16.6588 22.2199C17.0983 22.8777 17.3329 23.651 17.3329 24.4421C17.3318 25.5026 16.9101 26.5194 16.1602 27.2693C15.4103 28.0192 14.3935 28.4409 13.333 28.442Z" fill="#121212"/>
<path d="M13.3324 21.3317C12.9808 21.3317 12.6371 21.436 12.3448 21.6313C12.0525 21.8266 11.8247 22.1042 11.6901 22.4291C11.5556 22.7539 11.5204 23.1113 11.589 23.4561C11.6576 23.8009 11.8268 24.1176 12.0754 24.3662C12.324 24.6148 12.6408 24.7841 12.9856 24.8527C13.3304 24.9213 13.6878 24.8861 14.0126 24.7515C14.3374 24.617 14.615 24.3892 14.8104 24.0968C15.0057 23.8045 15.1099 23.4609 15.1099 23.1093C15.1094 22.638 14.922 22.1862 14.5887 21.8529C14.2555 21.5197 13.8037 21.3322 13.3324 21.3317ZM13.3324 23.9981C13.1566 23.9981 12.9848 23.946 12.8386 23.8483C12.6924 23.7506 12.5785 23.6118 12.5112 23.4494C12.444 23.287 12.4264 23.1083 12.4607 22.9359C12.495 22.7635 12.5796 22.6051 12.7039 22.4808C12.8282 22.3565 12.9866 22.2719 13.159 22.2376C13.3314 22.2033 13.5101 22.2209 13.6725 22.2882C13.8349 22.3554 13.9737 22.4693 14.0714 22.6155C14.169 22.7617 14.2212 22.9335 14.2212 23.1093C14.221 23.345 14.1273 23.5709 13.9607 23.7376C13.794 23.9042 13.568 23.9979 13.3324 23.9981Z" fill="#121212"/>
<path d="M14.6215 25.7756H12.0433C11.6831 25.7711 11.3359 25.9097 11.0777 26.1609C10.8195 26.4121 10.6715 26.7554 10.666 27.1155V28.2869C10.6658 28.3651 10.6862 28.4419 10.7252 28.5097C10.7642 28.5775 10.8204 28.6338 10.8881 28.673C11.6307 29.105 12.4745 29.3326 13.3337 29.3326C14.1928 29.3326 15.0366 29.105 15.7793 28.673C15.847 28.6339 15.9032 28.5776 15.9422 28.5098C15.9812 28.442 16.0016 28.3651 16.0013 28.2869V27.1155C15.9959 26.7549 15.8475 26.4112 15.5888 26.16C15.33 25.9087 14.9821 25.7705 14.6215 25.7756ZM15.1099 28.0223C14.5568 28.2942 13.9487 28.4356 13.3324 28.4356C12.7161 28.4356 12.1079 28.2942 11.5548 28.0223V27.1162C11.5603 26.9919 11.6148 26.8747 11.7063 26.7903C11.7978 26.706 11.9189 26.6611 12.0433 26.6657H14.6215C14.7459 26.6611 14.867 26.706 14.9585 26.7903C15.05 26.8747 15.1044 26.9919 15.1099 27.1162V28.0223Z" fill="#121212"/>
<path d="M7.55819 8.44406C6.5908 8.44406 5.64514 8.73092 4.84079 9.26837C4.03643 9.80582 3.40952 10.5697 3.03931 11.4635C2.66911 12.3572 2.57225 13.3407 2.76098 14.2895C2.94971 15.2383 3.41555 16.1098 4.09959 16.7939C4.78364 17.4779 5.65516 17.9437 6.60396 18.1325C7.55276 18.3212 8.53622 18.2243 9.42997 17.8541C10.3237 17.4839 11.0876 16.857 11.6251 16.0527C12.1625 15.2483 12.4494 14.3026 12.4494 13.3353C12.4494 12.038 11.9341 10.7939 11.0168 9.87666C10.0995 8.95938 8.85541 8.44406 7.55819 8.44406ZM7.55819 17.3319C6.7671 17.3319 5.99377 17.0973 5.336 16.6578C4.67823 16.2183 4.16556 15.5936 3.86282 14.8627C3.56008 14.1318 3.48087 13.3276 3.63521 12.5517C3.78954 11.7758 4.17049 11.0631 4.72988 10.5037C5.28926 9.94434 6.00197 9.56339 6.77786 9.40905C7.55375 9.25472 8.35799 9.33393 9.08886 9.63667C9.81974 9.9394 10.4444 10.4521 10.8839 11.1098C11.3234 11.7676 11.558 12.5409 11.558 13.332C11.557 14.3925 11.1353 15.4093 10.3854 16.1592C9.63548 16.9091 8.6187 17.3308 7.55819 17.3319Z" fill="#121212"/>
<path d="M7.5582 10.2216C7.20663 10.2216 6.86295 10.3259 6.57064 10.5212C6.27832 10.7165 6.05048 10.9942 5.91594 11.319C5.7814 11.6438 5.7462 12.0012 5.81479 12.346C5.88338 12.6908 6.05267 13.0075 6.30127 13.2561C6.54987 13.5047 6.8666 13.674 7.21141 13.7426C7.55622 13.8112 7.91363 13.776 8.23844 13.6415C8.56325 13.5069 8.84086 13.2791 9.03618 12.9868C9.23151 12.6944 9.33576 12.3508 9.33576 11.9992C9.33525 11.5279 9.1478 11.0761 8.81456 10.7428C8.48131 10.4096 8.02948 10.2221 7.5582 10.2216ZM7.5582 12.888C7.38241 12.888 7.21058 12.8359 7.06442 12.7382C6.91826 12.6405 6.80434 12.5017 6.73707 12.3393C6.6698 12.1769 6.6522 11.9982 6.68649 11.8258C6.72079 11.6534 6.80544 11.495 6.92973 11.3707C7.05403 11.2464 7.2124 11.1618 7.3848 11.1275C7.55721 11.0932 7.73591 11.1108 7.89832 11.1781C8.06072 11.2453 8.19953 11.3593 8.29719 11.5054C8.39485 11.6516 8.44698 11.8234 8.44698 11.9992C8.44681 12.2349 8.35311 12.4608 8.18647 12.6275C8.01983 12.7941 7.79386 12.8878 7.5582 12.888Z" fill="#121212"/>
<path d="M8.8447 14.6655H6.26653C5.90635 14.6611 5.55909 14.7996 5.30091 15.0508C5.04273 15.302 4.8947 15.6453 4.88927 16.0055V17.1768C4.88906 17.255 4.90947 17.3318 4.94846 17.3996C4.98744 17.4674 5.04361 17.5238 5.11131 17.5629C5.85394 17.9949 6.69775 18.2225 7.5569 18.2225C8.41605 18.2225 9.25987 17.9949 10.0025 17.5629C10.0702 17.5238 10.1264 17.4675 10.1654 17.3997C10.2044 17.3319 10.2248 17.255 10.2245 17.1768V16.0055C10.2191 15.6448 10.0707 15.3011 9.81198 15.0499C9.55324 14.7986 9.20533 14.6604 8.8447 14.6655ZM9.33318 16.9123C8.78006 17.1842 8.17195 17.3255 7.55562 17.3255C6.93929 17.3255 6.33117 17.1842 5.77805 16.9123V16.0061C5.78357 15.8818 5.83801 15.7646 5.92951 15.6802C6.02101 15.5959 6.14214 15.5511 6.26653 15.5556H8.8447C8.96909 15.5511 9.09023 15.5959 9.18172 15.6802C9.27322 15.7646 9.32766 15.8818 9.33318 16.0061V16.9123Z" fill="#121212"/>
<path d="M18.2236 2.66666C17.2562 2.66666 16.3105 2.95353 15.5062 3.49098C14.7018 4.02843 14.0749 4.79233 13.7047 5.68608C13.3345 6.57983 13.2376 7.56328 13.4264 8.51208C13.6151 9.46088 14.0809 10.3324 14.765 11.0165C15.449 11.7005 16.3206 12.1663 17.2694 12.3551C18.2181 12.5438 19.2016 12.4469 20.0954 12.0767C20.9891 11.7065 21.753 11.0796 22.2905 10.2753C22.8279 9.47091 23.1148 8.52525 23.1148 7.55786C23.1148 6.26063 22.5995 5.01654 21.6822 4.09926C20.7649 3.18198 19.5208 2.66666 18.2236 2.66666ZM18.2236 11.5545C17.4322 11.5551 16.6584 11.321 16.0002 10.8817C15.3419 10.4425 14.8287 9.81781 14.5256 9.0868C14.2225 8.35579 14.143 7.55129 14.2972 6.7751C14.4515 5.99891 14.8325 5.28591 15.392 4.72633C15.9516 4.16675 16.6646 3.78573 17.4408 3.6315C18.217 3.47727 19.0215 3.55675 19.7525 3.85989C20.4835 4.16303 21.1082 4.67619 21.5474 5.33446C21.9867 5.99272 22.2208 6.76649 22.2202 7.55786C22.2183 8.61725 21.7966 9.63272 21.0475 10.3818C20.2984 11.1309 19.283 11.5526 18.2236 11.5545Z" fill="#121212"/>
<path d="M18.2235 4.44424C17.872 4.44424 17.5283 4.54849 17.236 4.74382C16.9437 4.93914 16.7158 5.21675 16.5813 5.54156C16.4468 5.86637 16.4116 6.22378 16.4801 6.56859C16.5487 6.9134 16.718 7.23014 16.9666 7.47873C17.2152 7.72733 17.532 7.89663 17.8768 7.96521C18.2216 8.0338 18.579 7.9986 18.9038 7.86406C19.2286 7.72952 19.5062 7.50169 19.7015 7.20937C19.8969 6.91705 20.0011 6.57337 20.0011 6.22181C20.0006 5.75052 19.8132 5.29869 19.4799 4.96544C19.1467 4.6322 18.6948 4.44475 18.2235 4.44424ZM18.2235 7.11059C18.0478 7.11059 17.8759 7.05846 17.7298 6.9608C17.5836 6.86314 17.4697 6.72433 17.4024 6.56193C17.3351 6.39952 17.3176 6.22082 17.3518 6.04841C17.3861 5.87601 17.4708 5.71764 17.5951 5.59334C17.7194 5.46904 17.8778 5.3844 18.0502 5.3501C18.2226 5.31581 18.4013 5.33341 18.5637 5.40068C18.7261 5.46795 18.8649 5.58187 18.9626 5.72803C19.0602 5.87419 19.1123 6.04602 19.1123 6.22181C19.1122 6.45747 19.0185 6.68344 18.8518 6.85008C18.6852 7.01672 18.4592 7.11042 18.2235 7.11059Z" fill="#121212"/>
<path d="M19.5101 8.88813H16.9319C16.5717 8.88366 16.2245 9.02221 15.9663 9.27339C15.7081 9.52457 15.5601 9.8679 15.5547 10.2281V11.3994C15.5545 11.4776 15.5749 11.5545 15.6138 11.6223C15.6528 11.69 15.709 11.7464 15.7767 11.7855C16.5193 12.2175 17.3631 12.4451 18.2223 12.4451C19.0814 12.4451 19.9253 12.2175 20.6679 11.7855C20.7356 11.7464 20.7918 11.6901 20.8308 11.6223C20.8698 11.5545 20.8902 11.4776 20.8899 11.3994V10.2281C20.8845 9.86744 20.7361 9.52373 20.4774 9.27247C20.2186 9.02121 19.8707 8.88297 19.5101 8.88813ZM19.9986 11.1349C19.4455 11.4068 18.8373 11.5481 18.221 11.5481C17.6047 11.5481 16.9966 11.4068 16.4435 11.1349V10.2287C16.449 10.1044 16.5034 9.98724 16.5949 9.90285C16.6864 9.81847 16.8075 9.77366 16.9319 9.7782H19.5101C19.6345 9.77366 19.7556 9.81847 19.8471 9.90285C19.9386 9.98724 19.993 10.1044 19.9986 10.2287V11.1349Z" fill="#121212"/>
<path d="M14.1156 7.26568C14.0388 7.17619 13.9297 7.12084 13.8122 7.11179C13.6946 7.10274 13.5783 7.14073 13.4887 7.21741L10.4092 9.85287C10.3649 9.8909 10.3285 9.93729 10.3021 9.98939C10.2757 10.0415 10.2598 10.0983 10.2554 10.1565C10.2509 10.2148 10.258 10.2733 10.2761 10.3288C10.2943 10.3843 10.3232 10.4357 10.3613 10.48C10.3993 10.5244 10.4457 10.5608 10.4978 10.5872C10.5499 10.6136 10.6067 10.6294 10.6649 10.6339C10.7232 10.6384 10.7817 10.6313 10.8372 10.6131C10.8927 10.5949 10.9441 10.566 10.9884 10.528L14.068 7.89252C14.1123 7.85453 14.1487 7.80816 14.1751 7.75607C14.2015 7.70399 14.2174 7.64721 14.2218 7.58898C14.2262 7.53076 14.2191 7.47223 14.2009 7.41675C14.1827 7.36128 14.1537 7.30994 14.1156 7.26568Z" fill="#121212"/>
<path d="M23.9096 14.3991L21.2432 10.844C21.1696 10.7589 21.0664 10.7049 20.9545 10.693C20.8426 10.6811 20.7303 10.7121 20.6404 10.7798C20.5505 10.8475 20.4896 10.9468 20.4701 11.0576C20.4506 11.1684 20.4739 11.2826 20.5353 11.3769L23.2016 14.932C23.2753 15.0171 23.3785 15.0711 23.4904 15.083C23.6023 15.0949 23.7146 15.0639 23.8045 14.9962C23.8944 14.9285 23.9553 14.8292 23.9748 14.7184C23.9943 14.6075 23.971 14.4934 23.9096 14.3991Z" fill="#121212"/>
<path d="M20.2624 20.5794C20.1917 20.4851 20.0863 20.4228 19.9696 20.4061C19.8529 20.3895 19.7344 20.4199 19.6401 20.4906L17.1578 22.3524C17.1073 22.3859 17.0641 22.4293 17.031 22.48C16.9978 22.5308 16.9755 22.5878 16.9652 22.6475C16.9549 22.7073 16.957 22.7685 16.9713 22.8274C16.9855 22.8863 17.0117 22.9416 17.0482 22.99C17.0847 23.0384 17.1307 23.0789 17.1834 23.1088C17.2361 23.1388 17.2943 23.1576 17.3546 23.1642C17.4148 23.1708 17.4758 23.165 17.5337 23.1471C17.5916 23.1293 17.6453 23.0997 17.6913 23.0603L20.1736 21.1985C20.2671 21.1279 20.3289 21.0232 20.3455 20.9072C20.3622 20.7912 20.3323 20.6734 20.2624 20.5794Z" fill="#121212"/>
<path d="M8.88846 23.9981H5.7774C5.66247 24.0025 5.5537 24.0512 5.47393 24.134C5.39417 24.2169 5.3496 24.3274 5.3496 24.4425C5.3496 24.5575 5.39417 24.668 5.47393 24.7509C5.5537 24.8337 5.66247 24.8825 5.7774 24.8868H8.88846C9.00339 24.8825 9.11216 24.8337 9.19193 24.7509C9.2717 24.668 9.31626 24.5575 9.31626 24.4425C9.31626 24.3274 9.2717 24.2169 9.19193 24.134C9.11216 24.0512 9.00339 24.0025 8.88846 23.9981Z" fill="#121212"/>
<path d="M7.55883 2.66666C7.20726 2.66666 6.86358 2.77092 6.57126 2.96624C6.27895 3.16156 6.05111 3.43918 5.91657 3.76398C5.78203 4.08879 5.74683 4.4462 5.81542 4.79101C5.88401 5.13583 6.0533 5.45256 6.3019 5.70115C6.55049 5.94975 6.86723 6.11905 7.21204 6.18763C7.55685 6.25622 7.91426 6.22102 8.23907 6.08648C8.56388 5.95194 8.84149 5.72411 9.03681 5.43179C9.23213 5.13947 9.33639 4.7958 9.33639 4.44423C9.33588 3.97295 9.14843 3.52111 8.81519 3.18786C8.48194 2.85462 8.03011 2.66718 7.55883 2.66666ZM7.55883 5.33301C7.38304 5.33301 7.2112 5.28088 7.06504 5.18322C6.91889 5.08556 6.80497 4.94675 6.7377 4.78435C6.67043 4.62195 6.65283 4.44324 6.68712 4.27083C6.72141 4.09843 6.80606 3.94006 6.93036 3.81576C7.05466 3.69147 7.21303 3.60682 7.38543 3.57252C7.55784 3.53823 7.73654 3.55583 7.89895 3.6231C8.06135 3.69037 8.20016 3.80429 8.29782 3.95045C8.39548 4.09661 8.44761 4.26844 8.44761 4.44423C8.44744 4.67989 8.35374 4.90586 8.1871 5.0725C8.02046 5.23914 7.79449 5.33284 7.55883 5.33301Z" fill="#121212"/>
<path d="M7.55563 5.33301C7.49726 5.33293 7.43945 5.34435 7.3855 5.36663C7.33155 5.38891 7.28252 5.4216 7.24121 5.46285C7.19991 5.50409 7.16714 5.55308 7.14479 5.60699C7.12243 5.66091 7.11092 5.71871 7.11092 5.77708V8.88814C7.11092 9.006 7.15774 9.11903 7.24108 9.20237C7.32442 9.28571 7.43745 9.33253 7.55531 9.33253C7.67317 9.33253 7.7862 9.28571 7.86954 9.20237C7.95288 9.11903 7.9997 9.006 7.9997 8.88814V5.77708C7.9997 5.65931 7.95291 5.54636 7.86964 5.46308C7.78636 5.3798 7.67341 5.33301 7.55563 5.33301Z" fill="#121212"/>
</svg>
