<svg width="32" height="32" viewBox="0 0 32 32" fill="none" xmlns="http://www.w3.org/2000/svg">
<path fill-rule="evenodd" clip-rule="evenodd" d="M15.4693 2.80301C15.7622 2.51012 16.2371 2.51012 16.53 2.80301L21.1967 7.46968C21.4896 7.76257 21.4896 8.23745 21.1967 8.53034L16.53 13.197C16.2371 13.4899 15.7622 13.4899 15.4693 13.197L10.8027 8.53034C10.5098 8.23745 10.5098 7.76257 10.8027 7.46968L15.4693 2.80301ZM12.3937 8.00001L15.9997 11.606L19.6057 8.00001L15.9997 4.394L12.3937 8.00001ZM7.46934 10.803C7.76224 10.5101 8.23711 10.5101 8.53 10.803L13.1967 15.4697C13.4896 15.7626 13.4896 16.2374 13.1967 16.5303L8.53 21.197C8.23711 21.4899 7.76224 21.4899 7.46934 21.197L2.80268 16.5303C2.50978 16.2374 2.50978 15.7626 2.80268 15.4697L7.46934 10.803ZM23.9997 10.5833C24.1986 10.5833 24.3894 10.6624 24.53 10.803L29.1967 15.4697C29.4896 15.7626 29.4896 16.2374 29.1967 16.5303L24.53 21.197C24.3894 21.3377 24.1986 21.4167 23.9997 21.4167C23.8008 21.4167 23.61 21.3377 23.4693 21.197L18.8027 16.5303C18.662 16.3897 18.583 16.1989 18.583 16C18.583 15.8011 18.662 15.6103 18.8027 15.4697L23.4693 10.803C23.61 10.6624 23.8008 10.5833 23.9997 10.5833ZM4.39367 16L7.99967 19.606L11.6057 16L7.99967 12.394L4.39367 16ZM20.3937 16L23.9997 19.606L27.6057 16L23.9997 12.394L20.3937 16ZM15.9997 18.5833C16.1986 18.5833 16.3894 18.6624 16.53 18.803L21.1967 23.4697C21.3373 23.6103 21.4163 23.8011 21.4163 24C21.4163 24.1989 21.3373 24.3897 21.1967 24.5303L16.53 29.197C16.2371 29.4899 15.7622 29.4899 15.4693 29.197L10.8027 24.5303C10.662 24.3897 10.583 24.1989 10.583 24C10.583 23.8011 10.662 23.6103 10.8027 23.4697L15.4693 18.803C15.61 18.6624 15.8008 18.5833 15.9997 18.5833ZM12.3937 24L15.9997 27.606L19.6057 24L15.9997 20.394L12.3937 24Z" fill="#121212"/>
</svg>
