<svg width="32" height="32" viewBox="0 0 32 32" fill="none" xmlns="http://www.w3.org/2000/svg">
<path d="M22.7071 21.2925C22.8001 21.3854 22.8738 21.4957 22.9241 21.6171C22.9745 21.7385 23.0004 21.8686 23.0004 22C23.0004 22.1314 22.9745 22.2615 22.9241 22.3829C22.8738 22.5043 22.8001 22.6146 22.7071 22.7075L16.7071 28.7075C16.6142 28.8005 16.5039 28.8742 16.3825 28.9246C16.2611 28.9749 16.131 29.0008 15.9996 29.0008C15.8682 29.0008 15.738 28.9749 15.6166 28.9246C15.4952 28.8742 15.385 28.8005 15.2921 28.7075L9.29208 22.7075C9.10444 22.5199 8.99902 22.2654 8.99902 22C8.99902 21.7346 9.10444 21.4801 9.29208 21.2925C9.47972 21.1049 9.73422 20.9994 9.99958 20.9994C10.2649 20.9994 10.5194 21.1049 10.7071 21.2925L15.9996 26.5862L21.2921 21.2925C21.385 21.1995 21.4952 21.1258 21.6166 21.0754C21.738 21.0251 21.8682 20.9992 21.9996 20.9992C22.131 20.9992 22.2611 21.0251 22.3825 21.0754C22.5039 21.1258 22.6142 21.1995 22.7071 21.2925ZM10.7071 10.7075L15.9996 5.41374L21.2921 10.7075C21.4797 10.8951 21.7342 11.0005 21.9996 11.0005C22.2649 11.0005 22.5194 10.8951 22.7071 10.7075C22.8947 10.5199 23.0001 10.2654 23.0001 9.99999C23.0001 9.73463 22.8947 9.48013 22.7071 9.29249L16.7071 3.29249C16.6142 3.19952 16.5039 3.12576 16.3825 3.07543C16.2611 3.02511 16.131 2.99921 15.9996 2.99921C15.8682 2.99921 15.738 3.02511 15.6166 3.07543C15.4952 3.12576 15.385 3.19952 15.2921 3.29249L9.29208 9.29249C9.10444 9.48013 8.99902 9.73463 8.99902 9.99999C8.99902 10.2654 9.10444 10.5199 9.29208 10.7075C9.47972 10.8951 9.73422 11.0005 9.99958 11.0005C10.2649 11.0005 10.5194 10.8951 10.7071 10.7075Z" fill="#121212"/>
</svg>
