<svg width="32" height="32" viewBox="0 0 32 32" fill="none" xmlns="http://www.w3.org/2000/svg">
<path d="M28.2532 21.0172C28.5292 21.0172 28.7938 20.9076 28.989 20.7124C29.1842 20.5173 29.2938 20.2526 29.2938 19.9766V8.94741C29.2926 7.84418 28.8538 6.78649 28.0737 6.0064C27.2936 5.2263 26.2359 4.78751 25.1327 4.7863H23.7808V3.74717C23.7861 3.60725 23.7632 3.4677 23.7134 3.33686C23.6635 3.20601 23.5878 3.08657 23.4907 2.98569C23.3936 2.88481 23.2771 2.80456 23.1483 2.74974C23.0195 2.69492 22.8809 2.66667 22.7409 2.66667C22.6009 2.66667 22.4623 2.69492 22.3334 2.74974C22.2046 2.80456 22.0882 2.88481 21.9911 2.98569C21.894 3.08657 21.8182 3.20601 21.7684 3.33686C21.7185 3.4677 21.6956 3.60725 21.701 3.74717V4.78782H16.9707V3.74717C16.9761 3.60725 16.9531 3.4677 16.9033 3.33686C16.8535 3.20601 16.7777 3.08657 16.6806 2.98569C16.5835 2.88481 16.4671 2.80456 16.3382 2.74974C16.2094 2.69492 16.0708 2.66667 15.9308 2.66667C15.7908 2.66667 15.6522 2.69492 15.5234 2.74974C15.3945 2.80456 15.2781 2.88481 15.181 2.98569C15.0839 3.08657 15.0082 3.20601 14.9583 3.33686C14.9085 3.4677 14.8856 3.60725 14.8909 3.74717V4.78782H10.208V3.74717C10.2133 3.60725 10.1904 3.4677 10.1405 3.33686C10.0907 3.20601 10.015 3.08657 9.91787 2.98569C9.82078 2.88481 9.70432 2.80456 9.57549 2.74974C9.44665 2.69492 9.30807 2.66667 9.16806 2.66667C9.02804 2.66667 8.88947 2.69492 8.76063 2.74974C8.63179 2.80456 8.51534 2.88481 8.41825 2.98569C8.32115 3.08657 8.24542 3.20601 8.19557 3.33686C8.14573 3.4677 8.1228 3.60725 8.12816 3.74717V4.78782H6.8281C5.72514 4.78904 4.66768 5.22762 3.88763 6.00738C3.10758 6.78715 2.66861 7.84445 2.66699 8.94741V25.1722C2.6682 26.2754 3.10699 27.3331 3.88709 28.1132C4.66719 28.8933 5.72488 29.3321 6.8281 29.3333H25.1388C26.242 29.3321 27.2997 28.8933 28.0798 28.1132C28.8599 27.3331 29.2987 26.2754 29.2999 25.1722C29.2896 24.9033 29.1756 24.6489 28.9817 24.4623C28.7878 24.2756 28.5291 24.1714 28.26 24.1714C27.9909 24.1714 27.7323 24.2756 27.5384 24.4623C27.3445 24.6489 27.2304 24.9033 27.2201 25.1722C27.2193 25.7236 26.9999 26.2521 26.6101 26.642C26.2202 27.0318 25.6917 27.2512 25.1403 27.252H6.82963C6.27828 27.2512 5.74975 27.0318 5.35988 26.642C4.97002 26.2521 4.75064 25.7236 4.74984 25.1722V8.94741C4.75064 8.39632 4.96981 7.86802 5.35934 7.4782C5.74888 7.08838 6.27702 6.86883 6.8281 6.86762H8.12816V7.90827C8.1228 8.04819 8.14573 8.18774 8.19557 8.31859C8.24542 8.44943 8.32115 8.56887 8.41825 8.66975C8.51534 8.77063 8.63179 8.85089 8.76063 8.9057C8.88947 8.96052 9.02804 8.98878 9.16806 8.98878C9.30807 8.98878 9.44665 8.96052 9.57549 8.9057C9.70432 8.85089 9.82078 8.77063 9.91787 8.66975C10.015 8.56887 10.0907 8.44943 10.1405 8.31859C10.1904 8.18774 10.2133 8.04819 10.208 7.90827V6.86762H14.8879V7.90827C14.8825 8.04819 14.9054 8.18774 14.9553 8.31859C15.0051 8.44943 15.0809 8.56887 15.1779 8.66975C15.275 8.77063 15.3915 8.85089 15.5203 8.9057C15.6492 8.96052 15.7877 8.98878 15.9278 8.98878C16.0678 8.98878 16.2064 8.96052 16.3352 8.9057C16.464 8.85089 16.5805 8.77063 16.6776 8.66975C16.7747 8.56887 16.8504 8.44943 16.9002 8.31859C16.9501 8.18774 16.973 8.04819 16.9677 7.90827V6.86762H21.6979V7.90827C21.6926 8.04819 21.7155 8.18774 21.7653 8.31859C21.8152 8.44943 21.8909 8.56887 21.988 8.66975C22.0851 8.77063 22.2016 8.85089 22.3304 8.9057C22.4592 8.96052 22.5978 8.98878 22.7378 8.98878C22.8778 8.98878 23.0164 8.96052 23.1452 8.9057C23.2741 8.85089 23.3905 8.77063 23.4876 8.66975C23.5847 8.56887 23.6605 8.44943 23.7103 8.31859C23.7601 8.18774 23.7831 8.04819 23.7777 7.90827V6.86762H25.1297C25.6818 6.86721 26.2115 7.08606 26.6024 7.47605C26.9932 7.86604 27.2132 8.39527 27.214 8.94741V19.972C27.2134 20.1089 27.2398 20.2446 27.2918 20.3713C27.3437 20.498 27.4201 20.6132 27.5167 20.7103C27.6132 20.8074 27.7279 20.8845 27.8543 20.9371C27.9807 20.9898 28.1162 21.017 28.2532 21.0172Z" fill="#121212"/>
<path d="M9.53273 14.9136C10.3755 14.9136 11.0586 14.2304 11.0586 13.3877C11.0586 12.545 10.3755 11.8618 9.53273 11.8618C8.69 11.8618 8.00684 12.545 8.00684 13.3877C8.00684 14.2304 8.69 14.9136 9.53273 14.9136Z" fill="#121212"/>
<path d="M16.0952 14.9136C16.938 14.9136 17.6211 14.2304 17.6211 13.3877C17.6211 12.545 16.938 11.8618 16.0952 11.8618C15.2525 11.8618 14.5693 12.545 14.5693 13.3877C14.5693 14.2304 15.2525 14.9136 16.0952 14.9136Z" fill="#121212"/>
<path d="M22.353 14.9137C23.1958 14.9137 23.8789 14.2305 23.8789 13.3878C23.8789 12.5451 23.1958 11.8619 22.353 11.8619C21.5103 11.8619 20.8271 12.5451 20.8271 13.3878C20.8271 14.2305 21.5103 14.9137 22.353 14.9137Z" fill="#121212"/>
<path d="M9.53273 19.4913C10.3755 19.4913 11.0586 18.8082 11.0586 17.9654C11.0586 17.1227 10.3755 16.4395 9.53273 16.4395C8.69 16.4395 8.00684 17.1227 8.00684 17.9654C8.00684 18.8082 8.69 19.4913 9.53273 19.4913Z" fill="#121212"/>
<path d="M16.0952 19.4913C16.938 19.4913 17.6211 18.8082 17.6211 17.9654C17.6211 17.1227 16.938 16.4395 16.0952 16.4395C15.2525 16.4395 14.5693 17.1227 14.5693 17.9654C14.5693 18.8082 15.2525 19.4913 16.0952 19.4913Z" fill="#121212"/>
<path d="M22.353 19.4912C23.1958 19.4912 23.8789 18.8081 23.8789 17.9653C23.8789 17.1226 23.1958 16.4395 22.353 16.4395C21.5103 16.4395 20.8271 17.1226 20.8271 17.9653C20.8271 18.8081 21.5103 19.4912 22.353 19.4912Z" fill="#121212"/>
<path d="M9.53273 24.069C10.3755 24.069 11.0586 23.3858 11.0586 22.5431C11.0586 21.7003 10.3755 21.0172 9.53273 21.0172C8.69 21.0172 8.00684 21.7003 8.00684 22.5431C8.00684 23.3858 8.69 24.069 9.53273 24.069Z" fill="#121212"/>
<path d="M16.0952 24.069C16.938 24.069 17.6211 23.3858 17.6211 22.5431C17.6211 21.7003 16.938 21.0172 16.0952 21.0172C15.2525 21.0172 14.5693 21.7003 14.5693 22.5431C14.5693 23.3858 15.2525 24.069 16.0952 24.069Z" fill="#121212"/>
<path d="M22.353 24.069C23.1958 24.069 23.8789 23.3858 23.8789 22.5431C23.8789 21.7003 23.1958 21.0172 22.353 21.0172C21.5103 21.0172 20.8271 21.7003 20.8271 22.5431C20.8271 23.3858 21.5103 24.069 22.353 24.069Z" fill="#121212"/>
</svg>
