<svg width="32" height="32" viewBox="0 0 32 32" fill="none" xmlns="http://www.w3.org/2000/svg">
<path fill-rule="evenodd" clip-rule="evenodd" d="M2.66699 10.3451C2.66699 8.31357 4.31389 6.66667 6.34544 6.66667H25.6552C27.6868 6.66667 29.3337 8.31358 29.3337 10.3451V17.2415C29.3337 17.7495 28.9218 18.1614 28.4137 18.1614C27.9057 18.1614 27.4938 17.7495 27.4938 17.2415V10.3451C27.4938 9.32967 26.6707 8.5065 25.6552 8.5065H6.34544C5.33 8.5065 4.50682 9.32968 4.50682 10.3451V18.6207C4.50682 19.6362 5.32999 20.4594 6.34544 20.4594H16.0003C16.5084 20.4594 16.9202 20.8712 16.9202 21.3793C16.9202 21.8873 16.5084 22.2992 16.0003 22.2992H6.34544C4.3139 22.2992 2.66699 20.6523 2.66699 18.6207V10.3451Z" fill="#121212"/>
<path fill-rule="evenodd" clip-rule="evenodd" d="M16.7006 13.7191C17.1216 14.0984 17.1554 14.7472 16.7761 15.1682L16.7623 15.1835C16.383 15.6045 15.7342 15.6383 15.3132 15.259C14.8922 14.8797 14.8584 14.2309 15.2377 13.8099L15.2515 13.7946C15.6308 13.3736 16.2796 13.3398 16.7006 13.7191Z" fill="#121212"/>
<path fill-rule="evenodd" clip-rule="evenodd" d="M22.2184 13.7191C22.6394 14.0984 22.6732 14.7472 22.2939 15.1682L22.2801 15.1835C21.9008 15.6045 21.252 15.6383 20.831 15.259C20.41 14.8797 20.3762 14.2309 20.7555 13.8099L20.7693 13.7946C21.1486 13.3736 21.7974 13.3398 22.2184 13.7191Z" fill="#121212"/>
<path fill-rule="evenodd" clip-rule="evenodd" d="M19.8803 20.5483C20.3558 19.0137 21.6912 17.8561 23.3189 17.8561C24.8403 17.8561 26.1083 18.8692 26.6539 20.2531C26.7614 20.5258 26.6275 20.834 26.3548 20.9415C26.0821 21.049 25.7739 20.9151 25.6664 20.6424C25.2555 19.6 24.3393 18.9175 23.3189 18.9175C22.2288 18.9175 21.2547 19.699 20.8942 20.8624C20.8074 21.1424 20.5101 21.2991 20.2302 21.2123C19.9502 21.1255 19.7936 20.8282 19.8803 20.5483Z" fill="#121212"/>
<path fill-rule="evenodd" clip-rule="evenodd" d="M26.4176 18.2811C26.7107 18.2811 26.9483 18.5188 26.9483 18.8119V20.0657C26.9483 20.6148 26.5031 21.0601 25.9539 21.0601H24.868C24.5749 21.0601 24.3373 20.8225 24.3373 20.5294C24.3373 20.2363 24.5749 19.9987 24.868 19.9987H25.8869V18.8119C25.8869 18.5188 26.1245 18.2811 26.4176 18.2811Z" fill="#121212"/>
<path fill-rule="evenodd" clip-rule="evenodd" d="M26.4233 21.7441C26.7033 21.8309 26.86 22.1282 26.7732 22.4082C26.2977 23.9427 24.9623 25.1004 23.3346 25.1004C21.8132 25.1004 20.5452 24.0872 19.9996 22.7033C19.8921 22.4306 20.026 22.1224 20.2987 22.0149C20.5714 21.9074 20.8796 22.0413 20.9871 22.314C21.398 23.3564 22.3142 24.0389 23.3346 24.0389C24.4247 24.0389 25.3988 23.2575 25.7593 22.094C25.8461 21.814 26.1434 21.6574 26.4233 21.7441Z" fill="#121212"/>
<path fill-rule="evenodd" clip-rule="evenodd" d="M19.7041 22.8907C19.7041 22.3416 20.1494 21.8963 20.6985 21.8963H21.7844C22.0775 21.8963 22.3151 22.1339 22.3151 22.427C22.3151 22.7201 22.0775 22.9577 21.7844 22.9577H20.7656V24.1445C20.7656 24.4376 20.5279 24.6752 20.2348 24.6752C19.9417 24.6752 19.7041 24.4376 19.7041 24.1445V22.8907Z" fill="#121212"/>
<path fill-rule="evenodd" clip-rule="evenodd" d="M11.1838 13.7191C11.6048 14.0984 11.6386 14.7472 11.2593 15.1682L11.2455 15.1835C10.8662 15.6045 10.2174 15.6383 9.79639 15.259C9.37538 14.8797 9.34157 14.2309 9.72087 13.8099L9.73467 13.7946C10.114 13.3736 10.7628 13.3398 11.1838 13.7191Z" fill="#121212"/>
</svg>
