<svg width="32" height="32" viewBox="0 0 32 32" fill="none" xmlns="http://www.w3.org/2000/svg">
<path d="M14.2644 6.86545C14.2798 6.88052 14.2913 6.89911 14.2979 6.91962C14.3046 6.94013 14.3061 6.96194 14.3025 6.98318L14.0989 8.17015C14.0714 8.33514 14.0904 8.50453 14.1538 8.65931C14.2172 8.81409 14.3225 8.94815 14.4578 9.04645C14.5932 9.14475 14.7532 9.2034 14.92 9.21583C15.0868 9.22826 15.2538 9.19397 15.4022 9.11682L16.4679 8.55657C16.4871 8.5465 16.5083 8.54124 16.5299 8.54124C16.5515 8.54124 16.5728 8.5465 16.5919 8.55657L17.6577 9.11682C17.8061 9.19397 17.9731 9.22826 18.1399 9.21583C18.3067 9.2034 18.4667 9.14475 18.602 9.04645C18.7374 8.94815 18.8426 8.81409 18.906 8.65931C18.9694 8.50453 18.9885 8.33514 18.961 8.17015L18.7574 6.98318C18.7537 6.96194 18.7553 6.94013 18.7619 6.91962C18.7685 6.89911 18.7801 6.88052 18.7955 6.86545L19.6584 6.02267C19.7775 5.90534 19.8617 5.75712 19.9014 5.59465C19.941 5.43218 19.9347 5.26187 19.883 5.10282C19.8313 4.94377 19.7363 4.80226 19.6087 4.69416C19.481 4.58607 19.3258 4.51566 19.1604 4.49082L17.9686 4.3177C17.9472 4.31464 17.9269 4.30643 17.9094 4.29376C17.8919 4.28109 17.8778 4.26435 17.8682 4.24498L17.3357 3.16466C17.2609 3.01503 17.146 2.88918 17.0037 2.80122C16.8615 2.71326 16.6975 2.66667 16.5303 2.66667C16.363 2.66667 16.1991 2.71326 16.0568 2.80122C15.9146 2.88918 15.7996 3.01503 15.7249 3.16466L15.1916 4.24498C15.1821 4.26435 15.1679 4.28109 15.1504 4.29376C15.1329 4.30643 15.1126 4.31464 15.0912 4.3177L13.8994 4.49082C13.734 4.51566 13.5788 4.58607 13.4512 4.69416C13.3236 4.80226 13.2286 4.94377 13.1769 5.10282C13.1252 5.26187 13.1188 5.43218 13.1585 5.59465C13.1982 5.75712 13.2823 5.90534 13.4015 6.02267L14.2644 6.86545ZM13.9022 5.34192C13.9093 5.31799 13.9232 5.29665 13.9423 5.28053C13.9614 5.26441 13.9847 5.25422 14.0095 5.2512L15.2013 5.07808C15.3455 5.05698 15.4823 5.00121 15.6002 4.91557C15.718 4.82993 15.8133 4.71697 15.8779 4.58639L16.4112 3.50607C16.4221 3.4837 16.4391 3.46485 16.4602 3.45167C16.4813 3.43848 16.5057 3.43149 16.5306 3.43149C16.5555 3.43149 16.5799 3.43848 16.601 3.45167C16.6221 3.46485 16.6391 3.4837 16.6501 3.50607L17.1833 4.5857C17.2479 4.71628 17.3432 4.82924 17.461 4.91488C17.5789 5.00052 17.7158 5.05629 17.8599 5.07738L19.0517 5.25051C19.0763 5.25407 19.0994 5.26446 19.1184 5.28049C19.1374 5.29653 19.1515 5.31756 19.1592 5.34122C19.1668 5.36487 19.1677 5.39019 19.1617 5.41431C19.1556 5.43843 19.143 5.46037 19.1251 5.47766L18.265 6.31768C18.1609 6.41943 18.083 6.54492 18.038 6.68338C17.993 6.82185 17.9823 6.96916 18.0067 7.11268L18.2103 8.29965C18.2142 8.32402 18.2112 8.34897 18.2017 8.37174C18.1922 8.3945 18.1765 8.41417 18.1565 8.42854C18.1364 8.44291 18.1128 8.45142 18.0881 8.45312C18.0635 8.45482 18.0389 8.44964 18.0171 8.43815L16.9513 7.87791C16.8224 7.81033 16.679 7.77502 16.5334 7.77502C16.3878 7.77502 16.2444 7.81033 16.1155 7.87791L15.0497 8.43815C15.0278 8.44964 15.0032 8.45482 14.9786 8.45312C14.954 8.45142 14.9304 8.44291 14.9103 8.42854C14.8903 8.41417 14.8746 8.3945 14.8651 8.37174C14.8556 8.34897 14.8526 8.32402 14.8565 8.29965L15.0601 7.11268C15.0845 6.96916 15.0738 6.82185 15.0288 6.68338C14.9838 6.54492 14.9059 6.41943 14.8018 6.31768L13.9396 5.47696C13.9208 5.45984 13.9076 5.43753 13.9016 5.41287C13.8955 5.38821 13.8969 5.36231 13.9057 5.33846L13.9022 5.34192Z" fill="#121212"/>
<path d="M19.8441 7.78376C19.8226 7.82923 19.8104 7.87847 19.808 7.92867C19.8057 7.97887 19.8132 8.02904 19.8303 8.07632C19.8473 8.12359 19.8735 8.16704 19.9074 8.20418C19.9412 8.24132 19.9821 8.27142 20.0276 8.29276L20.9043 8.70827C20.9961 8.75143 21.1014 8.75635 21.1968 8.72193C21.2923 8.68752 21.3701 8.61659 21.4133 8.52475C21.4565 8.43292 21.4614 8.3277 21.427 8.23225C21.3925 8.13679 21.3216 8.05892 21.2298 8.01575L20.3531 7.60025C20.3076 7.57883 20.2583 7.56659 20.2081 7.56422C20.1579 7.56186 20.1078 7.56942 20.0605 7.58646C20.0132 7.60351 19.9698 7.62971 19.9326 7.66356C19.8955 7.69742 19.8654 7.73826 19.8441 7.78376Z" fill="#121212"/>
<path d="M20.8064 6.78308H21.6831C21.7358 6.78758 21.789 6.78108 21.8391 6.76399C21.8892 6.74689 21.9352 6.71957 21.9742 6.68376C22.0132 6.64795 22.0443 6.60444 22.0656 6.55597C22.0869 6.5075 22.0979 6.45514 22.0979 6.4022C22.0979 6.34926 22.0869 6.29689 22.0656 6.24843C22.0443 6.19996 22.0132 6.15644 21.9742 6.12064C21.9352 6.08483 21.8892 6.05751 21.8391 6.04042C21.789 6.02332 21.7358 6.01681 21.6831 6.02132H20.8064C20.7536 6.01681 20.7005 6.02332 20.6504 6.04042C20.6003 6.05751 20.5543 6.08483 20.5153 6.12064C20.4763 6.15644 20.4452 6.19996 20.4239 6.24843C20.4026 6.29689 20.3916 6.34926 20.3916 6.4022C20.3916 6.45514 20.4026 6.5075 20.4239 6.55597C20.4452 6.60444 20.4763 6.64795 20.5153 6.68376C20.5543 6.71957 20.6003 6.74689 20.6504 6.76399C20.7005 6.78108 20.7536 6.78758 20.8064 6.78308Z" fill="#121212"/>
<path d="M11.6448 8.52126C11.6662 8.56676 11.6963 8.60761 11.7334 8.64147C11.7706 8.67532 11.814 8.70152 11.8613 8.71856C11.9086 8.73561 11.9587 8.74317 12.0089 8.7408C12.0591 8.73843 12.1084 8.72619 12.1538 8.70478L13.0306 8.28927C13.076 8.2679 13.1169 8.23778 13.1507 8.20063C13.1845 8.16349 13.2107 8.12004 13.2277 8.07278C13.2448 8.02551 13.2523 7.97535 13.25 7.92517C13.2477 7.87498 13.2354 7.82574 13.2141 7.78027C13.1927 7.7348 13.1626 7.69398 13.1254 7.66015C13.0883 7.62632 13.0449 7.60014 12.9976 7.5831C12.9503 7.56606 12.9002 7.55849 12.85 7.56083C12.7998 7.56318 12.7505 7.57538 12.7051 7.59676L11.8284 8.01226C11.7829 8.0336 11.742 8.0637 11.7082 8.10084C11.6743 8.13798 11.6481 8.18143 11.6311 8.22871C11.614 8.27599 11.6065 8.32616 11.6088 8.37636C11.6112 8.42656 11.6234 8.4758 11.6448 8.52126Z" fill="#121212"/>
<path d="M11.3722 6.78305H12.2489C12.3443 6.7749 12.4332 6.73125 12.498 6.66072C12.5628 6.59019 12.5987 6.49792 12.5987 6.40217C12.5987 6.30641 12.5628 6.21414 12.498 6.14361C12.4332 6.07308 12.3443 6.02943 12.2489 6.02128H11.3722C11.2768 6.02943 11.1879 6.07308 11.1232 6.14361C11.0584 6.21414 11.0225 6.30641 11.0225 6.40217C11.0225 6.49792 11.0584 6.59019 11.1232 6.66072C11.1879 6.73125 11.2768 6.7749 11.3722 6.78305Z" fill="#121212"/>
<path d="M26.1973 19.6311C25.3384 19.3186 24.4304 19.1631 23.5166 19.172C23.4653 19.172 23.4145 19.182 23.3671 19.2017C23.3197 19.2213 23.2766 19.2501 23.2404 19.2863C23.2041 19.3226 23.1753 19.3657 23.1557 19.4131C23.1361 19.4604 23.126 19.5112 23.126 19.5625C23.126 19.6138 23.1361 19.6646 23.1557 19.712C23.1753 19.7594 23.2041 19.8024 23.2404 19.8387C23.2766 19.875 23.3197 19.9037 23.3671 19.9234C23.4145 19.943 23.4653 19.9531 23.5166 19.9531C24.3099 19.9406 25.0992 20.0681 25.8482 20.3298C25.94 20.3688 26.0431 20.3713 26.1366 20.3367C26.23 20.3021 26.3067 20.2331 26.351 20.1438C26.3952 20.0545 26.4037 19.9517 26.3746 19.8564C26.3455 19.761 26.2811 19.6804 26.1945 19.6311H26.1973Z" fill="#121212"/>
<path d="M28.1453 25.0016L26.5317 24.5404C26.4978 24.5306 26.4679 24.51 26.4466 24.4818C26.4252 24.4536 26.4136 24.4193 26.4133 24.3839V23.8451C26.5459 23.7535 26.6708 23.6512 26.7866 23.5391C27.0657 23.27 27.2876 22.9472 27.4387 22.5902C27.5899 22.2332 27.6672 21.8492 27.6661 21.4615V20.7164L27.8219 20.4047C27.9935 20.0605 28.083 19.6813 28.0837 19.2967V17.2822C28.0837 17.1786 28.0425 17.0793 27.9693 17.006C27.896 16.9328 27.7967 16.8916 27.6931 16.8916H23.9341C23.2768 16.8924 22.6467 17.1538 22.1819 17.6186C21.7171 18.0834 21.4557 18.7135 21.4549 19.3708V19.3944C21.4553 19.7143 21.5297 20.0298 21.6724 20.3161L21.8725 20.7164V21.3542C21.8723 21.8347 21.9857 22.3085 22.2036 22.7369C22.4214 23.1652 22.7375 23.536 23.126 23.8188V24.3832C23.126 24.4705 23.126 24.5065 22.8033 24.5986L22.0159 24.8237L19.7382 23.9927C19.7424 23.9381 19.735 23.8833 19.7166 23.8317C19.6983 23.7802 19.6693 23.7331 19.6315 23.6935L18.9037 22.9317V21.6485C18.9806 21.5848 19.0568 21.5197 19.1302 21.4511C19.5853 21.0233 19.9482 20.5069 20.1966 19.9338C20.445 19.3606 20.5737 18.7427 20.5747 18.1181V17.0897C20.8494 16.4944 20.9912 15.8464 20.9903 15.1908V11.0163C20.9903 10.9127 20.9491 10.8134 20.8759 10.7402C20.8026 10.6669 20.7033 10.6258 20.5997 10.6258H14.7542C13.7648 10.6276 12.8164 11.0214 12.1168 11.721C11.4172 12.4207 11.0233 13.369 11.0215 14.3584V15.1936C11.0205 15.8492 11.1623 16.4972 11.437 17.0924V17.9747C11.4348 18.6668 11.5831 19.3512 11.8716 19.9803C12.1602 20.6094 12.5821 21.1682 13.1081 21.618V22.9338L12.3802 23.6956C12.3425 23.7352 12.3134 23.7823 12.2951 23.8338C12.2767 23.8853 12.2694 23.9402 12.2736 23.9947L9.86917 24.8694C9.69702 24.9316 9.53398 25.0166 9.38441 25.1221L9.00699 24.9331C9.62595 24.7058 10.1522 24.2799 10.5035 23.7219C10.5301 23.668 10.544 23.6088 10.544 23.5488C10.544 23.4887 10.5301 23.4295 10.5035 23.3756C10.2454 22.5946 10.1281 21.7739 10.1573 20.9518C10.1483 20.6748 10.1393 20.4144 10.1233 20.1824C10.0953 19.315 9.73637 18.4911 9.1202 17.8798C8.50404 17.2685 7.67733 16.9162 6.80965 16.8951C5.94197 16.9162 5.11526 17.2685 4.49909 17.8798C3.88293 18.4911 3.52401 19.315 3.49597 20.1824C3.47935 20.4151 3.47104 20.6755 3.46204 20.9518C3.49115 21.7739 3.37391 22.5946 3.11578 23.3756C3.08916 23.4295 3.07531 23.4887 3.07531 23.5488C3.07531 23.6088 3.08916 23.668 3.11578 23.7219C3.46753 24.2799 3.99429 24.7056 4.61369 24.9324L3.56522 25.4566C3.29339 25.5938 3.06528 25.8042 2.90659 26.0641C2.7479 26.324 2.66493 26.623 2.66703 26.9275V29.262C2.66703 29.3656 2.70818 29.4649 2.78143 29.5382C2.85468 29.6114 2.95402 29.6526 3.05761 29.6526C3.1612 29.6526 3.26054 29.6114 3.33379 29.5382C3.40704 29.4649 3.44819 29.3656 3.44819 29.262V26.9275C3.44764 26.7673 3.49198 26.6101 3.57618 26.4737C3.66039 26.3374 3.7811 26.2273 3.92464 26.1561L5.22933 25.5037L5.68362 25.9352C5.98908 26.2255 6.39442 26.3875 6.81588 26.3875C7.23734 26.3875 7.64269 26.2255 7.94814 25.9352L8.40243 25.5037L8.82833 25.7163C8.62332 26.0432 8.51438 26.4212 8.51392 26.807V29.262C8.51392 29.3656 8.55507 29.4649 8.62832 29.5382C8.70157 29.6114 8.80091 29.6526 8.9045 29.6526C9.00809 29.6526 9.10744 29.6114 9.18068 29.5382C9.25393 29.4649 9.29508 29.3656 9.29508 29.262V26.807C9.29567 26.5444 9.37678 26.2883 9.52748 26.0732C9.67818 25.8581 9.89122 25.6944 10.1379 25.6041L12.6725 24.6824L13.7272 26.2648C13.7933 26.3644 13.8809 26.448 13.9834 26.5096C14.086 26.5712 14.2009 26.6092 14.32 26.6207C14.3467 26.6235 14.3735 26.6249 14.4003 26.6249C14.5063 26.6249 14.6113 26.604 14.7092 26.5634C14.8071 26.5227 14.8961 26.4632 14.9709 26.3881L15.617 25.7461V29.2634C15.617 29.367 15.6582 29.4663 15.7314 29.5396C15.8047 29.6128 15.904 29.654 16.0076 29.654C16.1112 29.654 16.2105 29.6128 16.2838 29.5396C16.357 29.4663 16.3982 29.367 16.3982 29.2634V25.7461L17.0415 26.3894C17.1164 26.4646 17.2053 26.5242 17.3032 26.5648C17.4011 26.6055 17.5061 26.6263 17.6122 26.6263C17.6389 26.6263 17.6657 26.6249 17.6925 26.6221C17.8115 26.6105 17.9265 26.5726 18.029 26.511C18.1316 26.4494 18.2191 26.3658 18.2853 26.2662L19.34 24.6838L21.8746 25.6055C22.1212 25.6958 22.3343 25.8595 22.485 26.0746C22.6357 26.2896 22.7168 26.5458 22.7174 26.8084V29.2634C22.7174 29.367 22.7585 29.4663 22.8318 29.5396C22.905 29.6128 23.0044 29.654 23.108 29.654C23.2115 29.654 23.3109 29.6128 23.3841 29.5396C23.4574 29.4663 23.4985 29.367 23.4985 29.2634V26.807C23.4977 26.2739 23.2908 25.7617 22.921 25.3777L23.0172 25.35C23.1421 25.3171 23.2638 25.2731 23.3808 25.2184L24.378 26.2156V29.2627C24.378 29.3663 24.4192 29.4656 24.4924 29.5389C24.5657 29.6121 24.665 29.6533 24.7686 29.6533C24.8722 29.6533 24.9715 29.6121 25.0448 29.5389C25.118 29.4656 25.1592 29.3663 25.1592 29.2627V26.2156L26.1495 25.2253C26.2025 25.2537 26.2582 25.2769 26.3157 25.2946L27.9292 25.7558C28.109 25.8083 28.2669 25.9177 28.3792 26.0675C28.4916 26.2173 28.5524 26.3995 28.5525 26.5868V29.2668C28.5525 29.3704 28.5937 29.4698 28.6669 29.543C28.7402 29.6163 28.8395 29.6574 28.9431 29.6574C29.0467 29.6574 29.146 29.6163 29.2193 29.543C29.2925 29.4698 29.3337 29.3704 29.3337 29.2668V26.5868C29.3337 26.2296 29.2179 25.882 29.0037 25.5962C28.7894 25.3104 28.4882 25.1017 28.1453 25.0016ZM5.17324 24.3091C4.69037 24.1587 4.25707 23.8807 3.9191 23.5044C4.02812 23.2019 4.10292 22.8881 4.14209 22.5688C4.35711 23.0828 4.71496 23.5243 5.17324 23.841V24.3091ZM7.41144 25.3666C7.25117 25.519 7.03845 25.604 6.81727 25.604C6.59608 25.604 6.38336 25.519 6.22309 25.3666L5.85952 25.0203C5.92208 24.9029 5.95466 24.7718 5.95439 24.6388V24.2233C6.51615 24.3979 7.11769 24.3979 7.67945 24.2233V24.6388C7.67918 24.7718 7.71176 24.9029 7.77432 25.0203L7.41144 25.3666ZM6.81727 23.573C6.25669 23.5724 5.71921 23.3497 5.32263 22.9535C4.92605 22.5573 4.70274 22.02 4.70164 21.4594C4.70197 21.4026 4.68983 21.3464 4.66606 21.2948C4.6423 21.2431 4.6075 21.1973 4.56411 21.1606C4.52072 21.1239 4.46981 21.0971 4.41496 21.0822C4.36011 21.0674 4.30265 21.0647 4.24665 21.0744C4.24665 21.0405 4.24665 21.0052 4.24665 20.974C4.25566 20.7053 4.26397 20.4518 4.2792 20.2337C4.32012 19.5525 4.59991 18.9076 5.06936 18.4124C5.29569 18.1784 5.56676 17.9924 5.86645 17.8654C6.16613 17.7383 6.4883 17.6729 6.8138 17.6729C7.1393 17.6729 7.46148 17.7383 7.76116 17.8654C8.06084 17.9924 8.33191 18.1784 8.55825 18.4124C9.02769 18.9076 9.30748 19.5525 9.3484 20.2337C9.36364 20.4511 9.37195 20.7053 9.38095 20.9733V21.0425C8.92235 20.3613 8.23939 19.8623 7.45092 19.6326C6.9706 19.4781 6.46932 19.3987 5.96478 19.3971C5.86264 19.4 5.76568 19.4427 5.6947 19.5162L4.99595 20.2482C4.96035 20.2852 4.93237 20.3287 4.9136 20.3765C4.89484 20.4242 4.88566 20.4752 4.88659 20.5265C4.88753 20.5777 4.89855 20.6283 4.91904 20.6754C4.93953 20.7224 4.96907 20.7649 5.006 20.8005C5.04292 20.8361 5.08649 20.8641 5.13423 20.8829C5.18197 20.9016 5.23293 20.9108 5.28422 20.9099C5.3355 20.9089 5.3861 20.8979 5.43312 20.8774C5.48014 20.8569 5.52267 20.8274 5.55828 20.7905L6.14484 20.1824C6.64968 20.2074 8.27501 20.3964 8.90727 21.7877C8.82998 22.2862 8.57669 22.7406 8.1933 23.0685C7.8099 23.3963 7.32175 23.5761 6.81727 23.5751V23.573ZM8.46129 24.3126V23.8465C8.92069 23.5304 9.27881 23.0881 9.49245 22.573C9.53149 22.8915 9.60606 23.2046 9.71474 23.5065C9.3767 23.8827 8.94379 24.1611 8.46129 24.3126ZM12.2237 17.9747V17.0052C12.2237 16.9464 12.2105 16.8884 12.1849 16.8355C11.9357 16.3241 11.8061 15.7626 11.8061 15.1936V14.3584C11.8071 13.5761 12.1182 12.8261 12.6714 12.2729C13.2246 11.7197 13.9746 11.4085 14.7569 11.4076H20.2146V15.1943C20.2147 15.7632 20.0851 16.3248 19.8358 16.8362C19.8103 16.8891 19.7971 16.9471 19.7971 17.0059V18.1181C19.7986 18.6367 19.6926 19.1501 19.4856 19.6257C19.2787 20.1013 18.9754 20.5288 18.5948 20.8812C18.4992 20.9709 18.3992 21.0557 18.295 21.1353L18.2881 21.1402C17.5634 21.6907 16.6635 21.9595 15.7555 21.8964C14.7798 21.811 13.8728 21.3588 13.2174 20.631C12.5619 19.9033 12.2068 18.954 12.2237 17.9747ZM14.4231 25.8354C14.4205 25.8384 14.4171 25.8406 14.4134 25.8419C14.4096 25.8432 14.4056 25.8436 14.4017 25.8431C14.3976 25.8429 14.3937 25.8417 14.3902 25.8397C14.3867 25.8376 14.3837 25.8347 14.3816 25.8313L13.1669 24.0086L13.5582 23.5979L15.4017 24.8576L14.4231 25.8354ZM16.0097 24.3278L13.8941 22.8819V22.1526C14.4532 22.4562 15.0715 22.6348 15.7064 22.6762C15.8093 22.6827 15.9118 22.6859 16.0139 22.6859C16.7493 22.6876 17.474 22.51 18.1253 22.1686V22.8826L16.0097 24.3278ZM17.6385 25.8313C17.6363 25.8347 17.6334 25.8376 17.6299 25.8397C17.6264 25.8417 17.6225 25.8429 17.6184 25.8431C17.6145 25.8436 17.6105 25.8432 17.6067 25.8419C17.603 25.8406 17.5996 25.8384 17.5969 25.8354L16.6191 24.8576L18.4563 23.5993L18.8476 24.01L17.6385 25.8313ZM24.7714 25.5016L23.885 24.6152C23.9015 24.539 23.9096 24.4612 23.9092 24.3832V24.2184C24.159 24.3015 24.4196 24.3482 24.6827 24.3569H24.7728C25.0648 24.3571 25.3553 24.3132 25.6343 24.2267V24.3839C25.6343 24.4607 25.6438 24.5373 25.6626 24.6118L24.7714 25.5016ZM26.243 22.976C26.0401 23.1742 25.7991 23.3292 25.5346 23.4317C25.2702 23.5342 24.9877 23.582 24.7042 23.5723C24.1425 23.5373 23.6159 23.287 23.234 22.8736C22.852 22.4602 22.6442 21.9155 22.6537 21.3528V20.6215C22.6535 20.5609 22.6393 20.5011 22.6121 20.447L22.3711 19.9622C22.2813 19.7846 22.2339 19.5886 22.2326 19.3895V19.366C22.2332 18.9158 22.4123 18.4842 22.7306 18.1659C23.0489 17.8476 23.4805 17.6685 23.9307 17.6679H27.2997V19.2905C27.2998 19.5549 27.2384 19.8156 27.1204 20.0523L26.923 20.447C26.8958 20.5011 26.8816 20.5609 26.8815 20.6215V21.4594C26.8827 21.7422 26.8268 22.0223 26.717 22.2829C26.6073 22.5435 26.4461 22.7793 26.243 22.976Z" fill="#121212"/>
<path d="M27.2734 26.3015C27.1698 26.3015 27.0705 26.3427 26.9972 26.4159C26.924 26.4892 26.8828 26.5885 26.8828 26.6921V29.2004C26.8828 29.304 26.924 29.4033 26.9972 29.4766C27.0705 29.5498 27.1698 29.591 27.2734 29.591C27.377 29.591 27.4763 29.5498 27.5496 29.4766C27.6228 29.4033 27.664 29.304 27.664 29.2004V26.6942C27.6642 26.6427 27.6543 26.5917 27.6348 26.5441C27.6153 26.4965 27.5866 26.4532 27.5503 26.4167C27.514 26.3802 27.4709 26.3512 27.4233 26.3315C27.3758 26.3117 27.3249 26.3015 27.2734 26.3015Z" fill="#121212"/>
<path d="M4.73042 26.9543C4.62683 26.9543 4.52749 26.9955 4.45424 27.0687C4.38099 27.142 4.33984 27.2413 4.33984 27.3449V29.3345C4.33984 29.4381 4.38099 29.5374 4.45424 29.6107C4.52749 29.6839 4.62683 29.7251 4.73042 29.7251C4.83401 29.7251 4.93335 29.6839 5.0066 29.6107C5.07985 29.5374 5.121 29.4381 5.121 29.3345V27.3449C5.121 27.2413 5.07985 27.142 5.0066 27.0687C4.93335 26.9955 4.83401 26.9543 4.73042 26.9543Z" fill="#121212"/>
<path d="M19.2056 15.5268C17.7278 14.049 14.635 14.3315 13.376 14.5219C13.1846 14.55 13.0097 14.6464 12.8837 14.7932C12.7577 14.9401 12.6891 15.1276 12.6905 15.3211V16.2214C12.6905 16.325 12.7316 16.4243 12.8048 16.4976C12.8781 16.5708 12.9774 16.612 13.081 16.612C13.1846 16.612 13.284 16.5708 13.3572 16.4976C13.4304 16.4243 13.4716 16.325 13.4716 16.2214V15.3211C13.4713 15.315 13.4731 15.3091 13.4768 15.3043C13.4805 15.2994 13.4858 15.2961 13.4917 15.2948C14.3312 15.1663 15.1817 15.1247 16.0297 15.1708C16.984 15.1541 17.9132 15.4763 18.6523 16.0801C18.7258 16.1536 18.8254 16.1948 18.9293 16.1948C19.0332 16.1948 19.1328 16.1536 19.2063 16.0801C19.2798 16.0066 19.321 15.907 19.321 15.8031C19.321 15.6992 19.2798 15.5996 19.2063 15.5261L19.2056 15.5268Z" fill="#121212"/>
<path d="M11.414 27.2156C11.3627 27.2156 11.3119 27.2257 11.2645 27.2453C11.2172 27.2649 11.1741 27.2937 11.1378 27.33C11.1016 27.3662 11.0728 27.4093 11.0532 27.4567C11.0335 27.5041 11.0234 27.5549 11.0234 27.6062V29.2772C11.0234 29.3285 11.0335 29.3793 11.0532 29.4267C11.0728 29.4741 11.1016 29.5171 11.1378 29.5534C11.1741 29.5897 11.2172 29.6184 11.2645 29.6381C11.3119 29.6577 11.3627 29.6678 11.414 29.6678C11.4653 29.6678 11.5161 29.6577 11.5635 29.6381C11.6109 29.6184 11.6539 29.5897 11.6902 29.5534C11.7265 29.5171 11.7552 29.4741 11.7749 29.4267C11.7945 29.3793 11.8046 29.3285 11.8046 29.2772V27.6062C11.8046 27.5549 11.7945 27.5041 11.7749 27.4567C11.7552 27.4093 11.7265 27.3662 11.6902 27.33C11.6539 27.2937 11.6109 27.2649 11.5635 27.2453C11.5161 27.2257 11.4653 27.2156 11.414 27.2156Z" fill="#121212"/>
<path d="M20.6015 27.2156C20.5502 27.2156 20.4994 27.2257 20.4521 27.2453C20.4047 27.265 20.3616 27.2937 20.3253 27.33C20.2891 27.3663 20.2603 27.4093 20.2407 27.4567C20.221 27.5041 20.2109 27.5549 20.2109 27.6062V29.2772C20.2109 29.3808 20.2521 29.4801 20.3253 29.5534C20.3986 29.6266 20.4979 29.6678 20.6015 29.6678C20.7051 29.6678 20.8044 29.6266 20.8777 29.5534C20.9509 29.4801 20.9921 29.3808 20.9921 29.2772V27.6062C20.9921 27.5549 20.982 27.5041 20.9624 27.4567C20.9427 27.4093 20.914 27.3663 20.8777 27.33C20.8414 27.2937 20.7984 27.265 20.751 27.2453C20.7036 27.2257 20.6528 27.2156 20.6015 27.2156Z" fill="#121212"/>
</svg>
