<svg width="32" height="32" viewBox="0 0 32 32" fill="none" xmlns="http://www.w3.org/2000/svg">
<path fill-rule="evenodd" clip-rule="evenodd" d="M4.44477 2.66666C3.463 2.66666 2.66699 3.46261 2.66699 4.44443V13.3333C2.66699 14.3151 3.463 15.1111 4.44477 15.1111H13.3337C14.3154 15.1111 15.1114 14.3151 15.1114 13.3333V4.44443C15.1114 3.46261 14.3154 2.66666 13.3337 2.66666H4.44477ZM6.22255 5.33332C5.73166 5.33332 5.33366 5.73127 5.33366 6.22221V11.5555C5.33366 12.0465 5.73166 12.4444 6.22255 12.4444H11.5559C12.0468 12.4444 12.4448 12.0465 12.4448 11.5555V6.22221C12.4448 5.73127 12.0468 5.33332 11.5559 5.33332H6.22255Z" fill="#121212"/>
<path fill-rule="evenodd" clip-rule="evenodd" d="M4.44477 16.8889C3.46293 16.8889 2.66699 17.6848 2.66699 18.6667V27.5555C2.66699 28.5374 3.46293 29.3333 4.44477 29.3333H13.3337C14.3155 29.3333 15.1114 28.5374 15.1114 27.5555V18.6667C15.1114 17.6848 14.3155 16.8889 13.3337 16.8889H4.44477ZM6.22255 19.5555C5.73163 19.5555 5.33366 19.9535 5.33366 20.4444V25.7778C5.33366 26.2687 5.73163 26.6667 6.22255 26.6667H11.5559C12.0468 26.6667 12.4448 26.2687 12.4448 25.7778V20.4444C12.4448 19.9535 12.0468 19.5555 11.5559 19.5555H6.22255Z" fill="#121212"/>
<path fill-rule="evenodd" clip-rule="evenodd" d="M18.667 2.66666C17.6852 2.66666 16.8892 3.46259 16.8892 4.44443V13.3333C16.8892 14.3152 17.6852 15.1111 18.667 15.1111H27.5559C28.5377 15.1111 29.3337 14.3152 29.3337 13.3333V4.44443C29.3337 3.46259 28.5377 2.66666 27.5559 2.66666H18.667ZM20.4448 5.33332C19.9538 5.33332 19.5559 5.73129 19.5559 6.22221V11.5555C19.5559 12.0465 19.9538 12.4444 20.4448 12.4444H25.7781C26.269 12.4444 26.667 12.0465 26.667 11.5555V6.22221C26.667 5.73129 26.269 5.33332 25.7781 5.33332H20.4448Z" fill="#121212"/>
<path fill-rule="evenodd" clip-rule="evenodd" d="M18.667 16.8889C17.6852 16.8889 16.8892 17.6848 16.8892 18.6667V27.5555C16.8892 28.5374 17.6852 29.3333 18.667 29.3333H27.5559C28.5377 29.3333 29.3337 28.5374 29.3337 27.5555V18.6667C29.3337 17.6848 28.5377 16.8889 27.5559 16.8889H18.667ZM20.4448 19.5555C19.9538 19.5555 19.5559 19.9535 19.5559 20.4444V25.7778C19.5559 26.2687 19.9538 26.6667 20.4448 26.6667H25.7781C26.269 26.6667 26.667 26.2687 26.667 25.7778V20.4444C26.667 19.9535 26.269 19.5555 25.7781 19.5555H20.4448Z" fill="#121212"/>
</svg>
