<svg width="32" height="32" viewBox="0 0 32 32" fill="none" xmlns="http://www.w3.org/2000/svg">
<path fill-rule="evenodd" clip-rule="evenodd" d="M13.1095 13.1091V26.2655H26.2658V13.1091H13.1095ZM10.0416 12.4602C10.0416 11.1243 11.1246 10.0413 12.4605 10.0413H26.9148C28.2508 10.0413 29.3337 11.1243 29.3337 12.4602V26.9144C29.3337 28.2504 28.2507 29.3333 26.9148 29.3333H12.4605C11.1246 29.3333 10.0416 28.2505 10.0416 26.9144V12.4602Z" fill="#121212"/>
<path fill-rule="evenodd" clip-rule="evenodd" d="M2.66699 5.08554C2.66699 3.74963 3.74996 2.66666 5.08587 2.66666H19.5401C20.8761 2.66666 21.959 3.74968 21.959 5.08554V11.5752C21.959 12.4224 21.2723 13.1091 20.4251 13.1091C19.5779 13.1091 18.8912 12.4224 18.8912 11.5752V5.73451H5.73484V18.8909H11.5755C12.4227 18.8909 13.1095 19.5776 13.1095 20.4248C13.1095 21.2719 12.4227 21.9587 11.5755 21.9587H5.08587C3.75001 21.9587 2.66699 20.8758 2.66699 19.5398V5.08554Z" fill="#121212"/>
</svg>
