<svg width="32" height="32" viewBox="0 0 32 32" fill="none" xmlns="http://www.w3.org/2000/svg">
<path fill-rule="evenodd" clip-rule="evenodd" d="M5.33301 28.0755C5.33301 27.3808 5.89617 26.8176 6.59087 26.8176H24.7041C25.3988 26.8176 25.9619 27.3808 25.9619 28.0755C25.9619 28.7702 25.3988 29.3333 24.7041 29.3333H6.59087C5.89617 29.3333 5.33301 28.7702 5.33301 28.0755Z" fill="#121212"/>
<path fill-rule="evenodd" clip-rule="evenodd" d="M15.6475 2.66666C16.3422 2.66666 16.9054 3.22983 16.9054 3.92453V19.001L20.0411 15.8653C20.5323 15.374 21.3287 15.374 21.82 15.8653C22.3112 16.3565 22.3112 17.1529 21.82 17.6442L16.537 22.9272C16.0457 23.4184 15.2493 23.4184 14.7581 22.9272L9.47505 17.6442C8.98382 17.1529 8.98382 16.3565 9.47505 15.8653C9.96627 15.374 10.7627 15.374 11.2539 15.8653L14.3896 19.001V3.92453C14.3896 3.22983 14.9528 2.66666 15.6475 2.66666Z" fill="#121212"/>
</svg>
