<svg width="32" height="32" viewBox="0 0 32 32" fill="none" xmlns="http://www.w3.org/2000/svg">
<path fill-rule="evenodd" clip-rule="evenodd" d="M9.52484 12.1909C9.77932 11.9364 10.1919 11.9364 10.4464 12.1909L16.0007 17.7451L21.5549 12.1909C21.8094 11.9364 22.222 11.9364 22.4765 12.1909C22.7309 12.4453 22.7309 12.8579 22.4765 13.1124L16.4614 19.1274C16.2069 19.3819 15.7944 19.3819 15.5399 19.1274L9.52484 13.1124C9.27037 12.8579 9.27037 12.4453 9.52484 12.1909Z" fill="#121212"/>
<path fill-rule="evenodd" clip-rule="evenodd" d="M9.17129 11.8373C9.62103 11.3876 10.3502 11.3876 10.7999 11.8373L16.0007 17.038L21.2014 11.8373C21.6511 11.3876 22.3803 11.3876 22.83 11.8373C23.2798 12.287 23.2798 13.0162 22.83 13.466L22.4765 13.1124L22.83 13.466L16.815 19.481C16.3652 19.9307 15.6361 19.9307 15.1863 19.481L9.17129 13.466L9.52484 13.1124L9.17129 13.466C8.72155 13.0162 8.72155 12.287 9.17129 11.8373ZM10.0928 12.5444C10.0336 12.4852 9.93761 12.4852 9.8784 12.5444C9.81918 12.6036 9.81918 12.6996 9.8784 12.7588L15.8934 18.7739C15.9526 18.8331 16.0487 18.8331 16.1079 18.7739L22.1229 12.7588L22.4617 13.0977L22.1229 12.7588C22.1821 12.6996 22.1821 12.6036 22.1229 12.5444L22.4731 12.1942L22.1229 12.5444C22.0637 12.4852 21.9677 12.4852 21.9085 12.5444L16.3542 18.0987C16.2604 18.1924 16.1333 18.2451 16.0007 18.2451C15.868 18.2451 15.7409 18.1924 15.6471 18.0987L10.0928 12.5444Z" fill="#121212"/>
</svg>
