<svg width="32" height="32" viewBox="0 0 32 32" fill="none" xmlns="http://www.w3.org/2000/svg">
<path fill-rule="evenodd" clip-rule="evenodd" d="M2.2666 28.0001C2.2666 27.0428 3.04264 26.2667 3.99993 26.2667H28C28.9573 26.2667 29.7333 27.0428 29.7333 28.0001C29.7333 28.9574 28.9573 29.7334 28 29.7334H3.99993C3.04264 29.7334 2.2666 28.9574 2.2666 28.0001Z" fill="#121212"/>
<path fill-rule="evenodd" clip-rule="evenodd" d="M18.8413 2.77428C19.5182 2.09738 20.6157 2.09739 21.2926 2.7743L27.8922 9.37398C28.5691 10.0509 28.5691 11.1484 27.8922 11.8253L16.6455 23.072C16.0703 23.6472 15.2903 23.9702 14.4771 23.9702H8.42962C7.47233 23.9702 6.69629 23.1941 6.69629 22.2368V16.1895C6.69629 15.3763 7.01929 14.5962 7.59449 14.021C7.59445 14.0211 7.59452 14.021 7.59449 14.021L15.0699 6.54554L18.8413 2.77428ZM18.7469 7.7712L22.8953 11.9195L24.2153 10.5996L20.0669 6.45124L18.7469 7.7712ZM20.444 14.3708L16.2956 10.2225L10.163 16.3552V20.5035H14.3114L20.444 14.3708ZM10.0458 16.4723C10.0457 16.4724 10.0459 16.4723 10.0458 16.4723V16.4723Z" fill="#121212"/>
</svg>
