<svg width="32" height="32" viewBox="0 0 32 32" fill="none" xmlns="http://www.w3.org/2000/svg">
<path d="M14.6364 16.7842C14.488 16.7743 14.3459 16.7204 14.2282 16.6295C14.1105 16.5386 14.0226 16.4147 13.9756 16.2736C13.9285 16.1325 13.9246 15.9807 13.9641 15.8373C14.0037 15.694 14.0851 15.5657 14.1978 15.4687L20.9215 9.99852L21.2368 8.30964L21.2214 7.1132C21.2219 7.08541 21.2238 7.05767 21.2272 7.0301C21.2452 6.83888 21.3361 6.66189 21.4809 6.53576L24.8714 3.58808C24.9791 3.4944 25.1114 3.43346 25.2526 3.41243C25.3938 3.39141 25.5381 3.41118 25.6685 3.46941C25.7988 3.52764 25.9098 3.62191 25.9884 3.74112C26.067 3.86032 26.1099 3.9995 26.112 4.14226L26.1451 6.45121L28.4269 6.80514C28.568 6.82735 28.6999 6.88942 28.807 6.98403C28.9141 7.07865 28.9919 7.20188 29.0314 7.33923C29.0708 7.47658 29.0702 7.62233 29.0296 7.75935C28.9891 7.89637 28.9102 8.01895 28.8023 8.11267L25.4083 11.0607C25.3889 11.0783 25.3683 11.0944 25.3465 11.1089L25.3386 11.1136C25.3343 11.1163 25.3302 11.1193 25.3263 11.1227L25.3129 11.1311C25.3006 11.139 25.2908 11.1453 25.2805 11.151L25.2678 11.1571L25.2546 11.1632C25.2388 11.1714 25.2249 11.1786 25.2098 11.1852L25.196 11.1906L25.1828 11.1961C25.1672 11.202 25.1528 11.2063 25.1373 11.211C25.1276 11.2146 25.1176 11.2176 25.1075 11.22C25.0932 11.2243 25.0784 11.2273 25.0641 11.2304C25.0534 11.2329 25.0426 11.2346 25.0316 11.2357L24.9916 11.2411L24.9534 11.2437L24.9049 11.2444L24.8648 11.2416C24.8436 11.2414 24.8225 11.2399 24.8015 11.2371L23.6167 11.053L21.9026 11.1307L15.1834 16.6024C15.1089 16.6675 15.0221 16.7171 14.9282 16.7483C14.8342 16.7795 14.735 16.7917 14.6364 16.7842ZM24.635 5.77652L22.7238 7.43989L22.7509 9.40098L24.689 9.70159L26.6031 8.03842L25.2895 7.83475C25.1147 7.80734 24.9553 7.71913 24.8393 7.58568C24.7232 7.45223 24.658 7.2821 24.6551 7.10527L24.6362 5.77602L24.635 5.77652Z" fill="#121212"/>
<path d="M17.3457 15.4632C17.3457 15.9382 17.2049 16.4024 16.941 16.7973C16.6772 17.1922 16.3021 17.5 15.8634 17.6817C15.4246 17.8635 14.9418 17.911 14.476 17.8184C14.0102 17.7257 13.5823 17.497 13.2465 17.1612C12.9107 16.8254 12.682 16.3975 12.5893 15.9317C12.4967 15.4659 12.5442 14.9831 12.726 14.5443C12.9077 14.1055 13.2155 13.7305 13.6104 13.4667C14.0053 13.2028 14.4695 13.062 14.9444 13.062C15.5813 13.062 16.1921 13.315 16.6424 13.7653C17.0927 14.2156 17.3457 14.8264 17.3457 15.4632Z" fill="#121212"/>
<path d="M23.9365 15.4022C23.9379 15.4798 23.9392 15.5565 23.9405 15.6322C23.9296 17.1575 23.5251 18.6541 22.7662 19.9773L22.7526 20.0014L22.713 20.069C21.5243 22.0893 19.5875 23.5598 17.3221 24.1618C15.0567 24.7639 12.6453 24.449 10.6105 23.2854L10.5864 23.2718L10.5188 23.2322C9.30195 22.5145 8.27217 21.5192 7.51356 20.3274L7.47166 20.2612L7.45728 20.2375C6.6128 18.8746 6.1538 17.3081 6.12916 15.7049C6.12745 15.604 6.12749 15.5034 6.12928 15.4032C6.15323 13.9289 6.54298 12.4836 7.26353 11.1972C7.98407 9.91074 9.01286 8.82339 10.2575 8.0328L10.3237 7.99091L10.3474 7.97653C11.7103 7.13205 13.2768 6.67305 14.88 6.64841C14.88 6.64841 14.8847 6.64833 14.8864 6.6483C14.8864 6.6483 14.8905 6.64823 14.8928 6.64819L14.9074 6.64794L14.9347 6.64748L14.9411 6.64737L14.9621 6.64701L14.9685 6.6469L14.997 6.64642L15.0256 6.64593L15.0541 6.64545L15.0821 6.64497L15.1164 6.64439L15.2329 6.64241L16.1371 6.62704L16.1482 6.62685L16.1651 6.62656L16.1761 6.62637L16.1825 6.62627L16.1889 6.62616L16.2 6.62597L16.2076 6.62584L16.2146 6.62572L16.2215 6.6256L16.2332 6.6254L16.2402 6.62529L16.2594 6.62787L16.2664 6.62775L16.2734 6.62763L16.2851 6.62743L16.292 6.62732L16.2996 6.62719L16.3113 6.62699L16.3183 6.62687L16.3252 6.62675L16.3445 6.62934L16.3521 6.62921L16.3713 6.63237L16.3783 6.63226L16.3976 6.63542L16.4052 6.63529L16.451 6.75916C16.8315 6.82017 17.2077 6.90599 17.5771 7.01608L17.6029 7.0238L17.6286 7.03152L17.6356 7.0314L17.6538 7.03691L17.6607 7.0368L17.6789 7.04231L17.6853 7.0422L17.6917 7.04209L17.7022 7.04541L17.7086 7.0453L17.715 7.04519L17.7329 7.06586L17.7393 7.06575L17.7451 7.06565L17.7515 7.06554L17.755 7.06548L17.7608 7.06538L17.7666 7.06528L17.7725 7.06518L17.776 7.06512L17.7812 7.06503L17.7864 7.06495L17.7911 7.06487L17.794 7.06482L17.7981 7.06475L17.8027 7.06467L17.8068 7.0646L17.8097 7.06455L17.8132 7.06449L17.8167 7.06443L17.8214 7.06435L17.8255 7.06428L17.8284 7.06423L17.8324 7.06416L17.8359 7.0641L17.8388 7.06405L17.8423 7.06399L17.8452 7.06395L17.8493 7.06388L17.8528 7.06382L17.8563 7.06376L17.8604 7.06369L17.8645 7.06362L17.868 7.06356L17.8709 7.06351L17.8744 7.06345L17.8784 7.06338L17.8825 7.06331L17.8854 7.06326L17.8889 7.0632L17.8924 7.06314L17.8965 7.06307L17.9011 7.063L17.9052 7.06293L17.9093 7.06286L17.914 7.06278L17.9186 7.0627L17.9233 7.06262L17.9273 7.06255L17.932 7.06247L17.9367 7.06239L17.9413 7.06231L17.9454 7.06224L17.9501 7.06216L17.9547 7.06208L17.9594 7.06201L18.0656 7.17669L18.0702 7.17661L18.0755 7.17652L18.0807 7.17643L18.086 7.17634L18.0912 7.17625L18.0964 7.17616L18.1017 7.17607L18.1075 7.17597L18.1127 7.17588L18.118 7.1758L18.1232 7.17571L18.129 7.17561L18.1349 7.17551L18.1407 7.17541L18.1459 7.17532L18.1518 7.17522L18.1576 7.17512L18.1634 7.17502L18.1692 7.17492L18.175 7.17483L18.2063 7.23254L18.2121 7.23244L18.218 7.23234L18.2432 7.24181C18.4276 7.31323 18.6091 7.39052 18.7876 7.47368C18.9032 7.53127 18.9918 7.63177 19.0343 7.75373C19.0768 7.87569 19.07 8.00945 19.0153 8.12646C18.9606 8.24346 18.8623 8.33445 18.7414 8.37998C18.6206 8.42552 18.4867 8.422 18.3683 8.37018C17.1512 7.80533 15.8105 7.55897 14.4721 7.65421C13.1337 7.74946 11.8414 8.1832 10.7166 8.91472C9.59169 9.64624 8.67112 10.6516 8.04124 11.8363C7.41136 13.0211 7.09282 14.3465 7.11552 15.6881C7.142 17.2537 7.63217 18.7763 8.52403 20.0633C9.4159 21.3503 10.6694 22.3439 12.126 22.9185C13.5826 23.493 15.1769 23.6227 16.7072 23.2912C18.2375 22.9596 19.6351 22.1816 20.7233 21.0557C21.4482 20.3098 22.0179 19.4276 22.3996 18.4601C22.7812 17.4925 22.9672 16.4589 22.9467 15.419C22.9404 15.0546 22.9093 14.691 22.8536 14.3308C22.8336 14.201 22.8659 14.0686 22.9435 13.9626C23.0211 13.8567 23.1377 13.7859 23.2675 13.7658C23.3973 13.7458 23.5297 13.7781 23.6357 13.8557C23.7416 13.9333 23.8124 14.0499 23.8325 14.1797C23.8709 14.4275 23.899 14.6794 23.917 14.9354L23.9249 15.4047L23.9365 15.4022Z" fill="#121212"/>
<path d="M20.5747 15.4604C20.5933 16.5565 20.2865 17.6335 19.693 18.5552C19.0996 19.4769 18.2461 20.202 17.2406 20.6387C16.235 21.0753 15.1226 21.204 14.0439 21.0085C12.9652 20.8129 11.9688 20.3019 11.1805 19.54C10.3923 18.7781 9.84769 17.7996 9.61557 16.7282C9.38346 15.6568 9.47426 14.5406 9.87651 13.5208C10.2788 12.501 10.9744 11.6234 11.8754 10.9989C12.7764 10.3745 13.8424 10.0312 14.9385 10.0126C14.9385 10.0126 14.9414 10.0125 14.9431 10.0125L14.9833 10.0118L15.0281 10.0111L15.0724 10.0103L15.2005 10.0081L15.2855 10.0067L15.3018 10.0064L15.3298 10.0059L15.3466 10.0057L15.3694 10.0053L15.3903 10.0049L15.395 10.0048L15.4084 10.0046L15.434 10.0042L15.448 10.0039L15.4526 10.0039L15.4567 10.0038L15.4782 10.0034L15.4829 10.0033L15.487 10.0033L15.4916 10.0032L15.4963 10.0031L15.5009 10.003L15.5219 10.0027L15.5266 10.0026L15.5312 10.0025L15.5353 10.0024L15.54 10.0024L15.5446 10.0023L15.5702 10.0019L15.5743 10.0018L15.579 10.0017L15.5836 10.0016L15.6093 10.0041L15.6134 10.004L15.6268 10.0038L15.6314 10.0037L15.6524 10.0034L15.6745 10.003L15.6792 10.0029L15.6955 10.0026L15.7188 10.0022L15.7345 10.002L15.8119 10.0007L15.8504 10L15.8643 9.99977L15.8835 9.99944L15.8888 9.99935L15.9127 10.003C16.0015 10.017 16.0895 10.0334 16.1768 10.0521C16.2457 10.0654 16.3113 10.0921 16.3699 10.1308C16.4285 10.1694 16.4789 10.2192 16.5182 10.2773C16.5576 10.3355 16.5851 10.4008 16.5992 10.4695C16.6133 10.5383 16.6137 10.6091 16.6004 10.678C16.5871 10.7469 16.5604 10.8125 16.5217 10.8711C16.4831 10.9297 16.4333 10.9801 16.3752 11.0194C16.3171 11.0588 16.2518 11.0863 16.183 11.1004C16.1143 11.1145 16.0434 11.1149 15.9745 11.1016C15.0505 10.9061 14.0887 11.0028 13.2221 11.3783C12.3555 11.7537 11.6271 12.3893 11.1377 13.197C10.6484 14.0048 10.4223 14.9447 10.4908 15.8866C10.5592 16.8285 10.9189 17.7259 11.52 18.4543C12.121 19.1828 12.9337 19.7063 13.8455 19.9524C14.7573 20.1986 15.723 20.1551 16.609 19.828C17.495 19.501 18.2573 18.9065 18.7905 18.127C19.3237 17.3475 19.6013 16.4215 19.5848 15.4772C19.5826 15.3459 19.6326 15.2192 19.7238 15.1248C19.8151 15.0304 19.9401 14.9761 20.0713 14.9739C20.2026 14.9716 20.3294 15.0216 20.4238 15.1129C20.5182 15.2041 20.5725 15.3291 20.5747 15.4604Z" fill="#121212"/>
<path d="M27.4719 15.575C27.4692 18.2392 26.6096 20.8318 25.02 22.9698C24.8903 23.1445 24.756 23.3157 24.6171 23.4834C24.4381 23.6996 24.2516 23.91 24.0575 24.1145C22.5387 25.7153 20.6185 26.8794 18.4969 27.4858H18.4887C16.3373 28.1069 14.0575 28.1311 11.8934 27.5557C11.65 27.4909 11.409 27.4189 11.1703 27.3397C8.93365 26.596 6.95422 25.2324 5.46233 23.4077L5.44835 23.3902L5.43671 23.3762L5.38547 23.3133L5.37907 23.3052C5.30415 23.2116 5.23059 23.1167 5.15839 23.0205L5.13917 22.9948L5.11297 22.964L5.10249 22.9494L5.08036 22.9197C5.02447 22.8421 4.96954 22.7656 4.91558 22.6903C4.27735 21.7799 3.76498 20.7875 3.39238 19.74C3.30426 19.4923 3.22333 19.24 3.14958 18.983C2.55164 16.9049 2.50858 14.7063 3.02469 12.6064C3.54079 10.5064 4.59805 8.57826 6.09117 7.01402C6.3629 6.72754 6.64957 6.45369 6.95118 6.19244L6.96049 6.18429L6.96865 6.17731C8.32778 5.00414 9.92633 4.14137 11.653 3.64911C12.7561 3.33171 13.8979 3.16887 15.0458 3.16525H15.0534H15.0615C15.0615 3.16525 15.0662 3.16525 15.0685 3.16525C15.0685 3.16525 15.0732 3.16525 15.0755 3.16525C15.0755 3.16525 15.0802 3.16525 15.0831 3.16525C15.0831 3.16525 15.0883 3.16525 15.0906 3.16525H15.1058C15.1104 3.16525 15.1157 3.16525 15.1209 3.16525H15.1442H15.1594H15.1669H15.1745C15.1826 3.16525 15.1896 3.16525 15.1978 3.16525H15.2054H15.2129H15.2286H15.2444H15.2519C15.2624 3.16525 15.2729 3.16525 15.2834 3.16525C15.2939 3.16525 15.3043 3.16525 15.3148 3.16525C16.7204 3.19282 18.111 3.46003 19.4268 3.95539C19.5496 4.00171 19.649 4.09494 19.7031 4.21457C19.7572 4.33419 19.7616 4.47041 19.7153 4.59326C19.669 4.7161 19.5757 4.81551 19.4561 4.86962C19.3365 4.92373 19.2003 4.9281 19.0774 4.88177C16.7602 4.01053 14.2224 3.91743 11.8476 4.61654C9.47284 5.31565 7.39025 6.76897 5.91475 8.75673C5.19246 9.72923 4.62901 10.8101 4.2454 11.9592C3.48262 14.2408 3.46144 16.7054 4.1849 18.9998C4.90836 21.2942 6.33935 23.3008 8.27292 24.7323C9.24774 25.4544 10.331 26.0171 11.4824 26.3993C13.7596 27.1565 16.2177 27.1754 18.5063 26.4533C20.7949 25.7312 22.7971 24.3051 24.2275 22.3782C24.9498 21.4057 25.5133 20.3248 25.8969 19.1758C26.5054 17.3598 26.644 15.4194 26.2998 13.5354C26.2772 13.4067 26.3064 13.2744 26.3809 13.1671C26.4555 13.0599 26.5694 12.9865 26.6979 12.9629C26.8263 12.9393 26.9589 12.9675 27.0667 13.0412C27.1745 13.115 27.2488 13.2283 27.2734 13.3566C27.3386 13.7137 27.3877 14.0707 27.4207 14.4274V14.4536V14.467V14.4804V14.6958V14.7092V14.9171V14.9433C27.4265 15.057 27.4308 15.1706 27.4335 15.2839V15.575H27.4719Z" fill="#121212"/>
</svg>
