<svg width="32" height="32" viewBox="0 0 32 32" fill="none" xmlns="http://www.w3.org/2000/svg">
<path d="M26.8291 22.9123C26.831 22.1289 26.5919 21.3638 26.1444 20.7208C25.6969 20.0778 25.0625 19.5879 24.3273 19.3175L21.5532 18.3713C21.3962 18.2268 21.4374 18.2889 18.8836 16.9261V15.6462C19.4614 15.1956 19.9396 14.6304 20.2884 13.9861C20.6372 13.3417 20.8489 12.6322 20.9103 11.9021C21.1805 11.843 21.4215 11.6913 21.5918 11.4733C21.762 11.2553 21.8508 10.9847 21.8427 10.7082L21.8541 6.57253C21.8541 5.53742 22.8552 3.27914 22.0218 2.66666L20.9963 2.80218H13.7827C12.8881 2.83489 12.0383 3.20207 11.4014 3.83113C10.7645 4.46019 10.3868 5.30532 10.343 6.19944C10.3353 6.29256 10.3192 7.97597 10.3192 8.09058C10.3154 8.14924 10.3236 8.20805 10.3435 8.26338C10.3633 8.31871 10.3943 8.36938 10.4345 8.41227C10.4747 8.45515 10.5233 8.48933 10.5772 8.51269C10.6311 8.53606 10.6893 8.54812 10.7481 8.54812C10.8068 8.54812 10.865 8.53606 10.9189 8.51269C10.9729 8.48933 11.0214 8.45515 11.0616 8.41227C11.1018 8.36938 11.1328 8.31871 11.1526 8.26338C11.1725 8.20805 11.1808 8.14924 11.177 8.09058C11.177 7.97836 11.1943 6.29972 11.2086 6.16959C11.2637 5.5175 11.5564 4.90836 12.031 4.45782C12.5056 4.00729 13.1292 3.74674 13.7833 3.72566H18.3088C18.7445 3.72566 20.5432 3.9722 21.2064 3.72566C21.8696 3.47912 20.9957 5.4622 20.9957 5.4622V6.57253L20.9843 8.6356H20.5068C20.3732 8.63031 20.2471 8.57233 20.1561 8.47433C20.0652 8.37633 20.0168 8.24629 20.0214 8.11267V7.57541C20.0338 7.34765 19.9909 7.12027 19.8963 6.9127C19.8017 6.70514 19.6583 6.52356 19.4782 6.38348C19.2982 6.24341 19.087 6.149 18.8625 6.10832C18.6381 6.06764 18.4071 6.0819 18.1894 6.14989C16.8251 6.63415 15.3356 6.63415 13.9713 6.14989C13.7536 6.08214 13.5228 6.06806 13.2985 6.10885C13.0743 6.14964 12.8632 6.24409 12.6833 6.38414C12.5034 6.52418 12.3601 6.70568 12.2656 6.91311C12.1711 7.12055 12.1281 7.34779 12.1405 7.57541V8.11267C12.1451 8.24629 12.0967 8.37633 12.0058 8.47433C11.9148 8.57233 11.7887 8.63031 11.6551 8.6356H11.1776L11.177 8.09058C11.1808 8.03193 11.1731 7.97312 11.1532 7.91779C11.1334 7.86246 11.1024 7.81179 11.0622 7.7689C11.022 7.72602 10.9735 7.69184 10.9195 7.66847C10.8656 7.6451 10.8074 7.63305 10.7487 7.63305C10.6899 7.63305 10.6317 7.6451 10.5778 7.66847C10.5239 7.69184 10.4753 7.72602 10.4351 7.7689C10.3949 7.81179 10.3639 7.86246 10.3441 7.91779C10.3242 7.97312 10.3154 8.03193 10.3192 8.09058L10.3198 10.7082C10.3117 10.9846 10.4003 11.2552 10.5705 11.4731C10.7406 11.6911 10.9815 11.8429 11.2516 11.9021C11.3126 12.6326 11.5241 13.3425 11.8728 13.9873C12.2214 14.632 12.6998 15.1977 13.2777 15.6486V16.9291C10.7275 18.2895 10.7627 18.2298 10.6081 18.3725L7.83583 19.3181C7.10055 19.5885 6.46617 20.0784 6.01865 20.7214C5.57114 21.3644 5.33212 22.1295 5.334 22.9129C5.35231 23.2601 5.35231 23.608 5.334 23.9552C6.0981 26.2547 11.319 29.4084 16.0792 29.332C20.8858 29.2556 25.8931 26.8636 26.8488 24.1665C26.8559 24.0203 26.8201 23.3039 26.8291 22.9123ZM11.1662 21.9429L11.4993 21.5847C11.6701 21.3965 11.7808 21.1616 11.8173 20.9101C11.8537 20.6586 11.8143 20.4019 11.7041 20.1729L11.1752 19.0686L12.9063 18.1516C12.7399 19.0079 12.7097 19.8851 12.8168 20.7508C13.1328 22.9956 13.7511 25.1874 14.6548 27.2665C13.3242 25.8243 11.5465 23.7027 11.0988 22.2318C11.0833 22.1818 11.0812 22.1287 11.0927 22.0777C11.1042 22.0266 11.129 21.9795 11.1644 21.9411L11.1662 21.9429ZM11.1764 9.56088H11.6539C12.0236 9.54627 12.3725 9.38582 12.6242 9.11464C12.8759 8.84347 13.01 8.48363 12.9971 8.11386V7.57661C12.9922 7.48883 13.0087 7.40119 13.0452 7.3212C13.0817 7.24121 13.137 7.17127 13.2064 7.11738C13.2759 7.06349 13.3574 7.02725 13.4439 7.01179C13.5305 6.99633 13.6195 7.0021 13.7033 7.0286C15.241 7.57418 16.9197 7.57418 18.4574 7.0286C18.5412 7.00258 18.63 6.9972 18.7163 7.01292C18.8025 7.02863 18.8837 7.06499 18.9529 7.11888C19.0221 7.17277 19.0773 7.24259 19.1136 7.3224C19.15 7.40221 19.1665 7.48963 19.1618 7.5772V8.11446C19.1491 8.48413 19.2832 8.84381 19.5349 9.11486C19.7866 9.3859 20.1354 9.54626 20.505 9.56088H20.9825V10.7082C20.985 10.7805 20.9587 10.8508 20.9095 10.9038C20.8603 10.9568 20.7921 10.9882 20.7199 10.9912C20.5465 10.9974 20.3819 11.0695 20.2599 11.1929C20.1379 11.3162 20.0675 11.4815 20.0632 11.655C20.0697 12.1827 19.9713 12.7065 19.7738 13.1959C19.5763 13.6853 19.2837 14.1307 18.9128 14.5062C18.5419 14.8816 18.1001 15.1797 17.6131 15.3832C17.1262 15.5867 16.6036 15.6914 16.0759 15.6914C15.5481 15.6914 15.0256 15.5867 14.5386 15.3832C14.0516 15.1797 13.6099 14.8816 13.239 14.5062C12.8681 14.1307 12.5754 13.6853 12.3779 13.1959C12.1804 12.7065 12.0821 12.1827 12.0885 11.655C12.0842 11.4815 12.0139 11.3162 11.8918 11.1929C11.7698 11.0695 11.6053 10.9974 11.4319 10.9912C11.3596 10.9882 11.2915 10.9568 11.2422 10.9038C11.193 10.8508 11.1668 10.7805 11.1692 10.7082V9.56147L11.1764 9.56088ZM16.0815 28.3607C15.8034 27.7596 15.4249 26.903 15.0518 25.909L15.7556 22.9243H16.4075L17.1113 25.909C16.7346 26.9042 16.3591 27.762 16.0815 28.3607ZM15.5174 20.1102L14.388 21.1251C14.3501 21.16 14.3004 21.1793 14.2489 21.1793C14.1974 21.1793 14.1477 21.16 14.1098 21.1251L13.6567 20.5215C13.5563 19.6946 13.613 18.8561 13.8239 18.0501L15.5174 20.1102ZM14.2495 22.1064C14.3598 22.1061 14.4693 22.0876 14.5736 22.0515L14.9557 22.5721L14.5241 24.4017C14.2712 23.6258 14.06 22.8369 13.8913 22.0384C14.0056 22.0827 14.127 22.1058 14.2495 22.1064ZM16.5275 22.0026H15.632L15.2834 21.525L16.1311 20.7621L16.8976 21.4683L16.5275 22.0026ZM17.7918 21.0803L16.7364 20.1078L18.3446 18.0704C18.5496 18.8651 18.6051 19.691 18.5082 20.506L18.07 21.0845C18.0315 21.1187 17.9815 21.1372 17.93 21.1364C17.8784 21.1355 17.8291 21.1158 17.7918 21.0803ZM16.0821 16.6109C16.7555 16.6105 17.4203 16.46 18.0282 16.1703V17.0455L16.1263 19.4554L14.1367 17.0389V16.1709C14.7445 16.4606 15.4094 16.6111 16.0827 16.6115L16.0821 16.6109ZM17.6414 24.3993L17.208 22.5637L17.5972 22.002C17.8188 22.0827 18.0622 22.0808 18.2825 21.9966C18.1124 22.8088 17.898 23.6112 17.6402 24.3999L17.6414 24.3993ZM6.19063 23.9546V22.9995C6.17676 22.3926 6.35283 21.7965 6.69424 21.2946C7.03566 20.7926 7.52535 20.4098 8.0949 20.1998L10.3806 19.4202C10.4033 19.4799 10.3806 19.4202 10.9418 20.5973C10.968 20.6516 10.9774 20.7125 10.9688 20.7722C10.9602 20.8318 10.9339 20.8876 10.8934 20.9322L10.5603 21.2904C10.411 21.454 10.3071 21.6538 10.259 21.8699C10.2108 22.0861 10.22 22.311 10.2857 22.5225C10.8331 24.3199 12.9857 26.8086 14.4644 28.3661C11.2632 27.9462 8.32327 26.3786 6.19063 23.9546ZM17.6993 28.3649C18.5678 27.454 19.3892 26.4994 20.1605 25.5049C20.1199 25.5592 21.3264 23.6854 21.4296 23.5451C21.5006 23.4477 21.5329 23.3273 21.5202 23.2074C21.5075 23.0876 21.4508 22.9766 21.361 22.8962C21.3178 22.8587 21.2672 22.8306 21.2125 22.8139C21.1578 22.7972 21.1001 22.7922 21.0434 22.7991C20.9866 22.8061 20.9319 22.825 20.8828 22.8544C20.8338 22.8839 20.7915 22.9234 20.7587 22.9702C20.7587 22.9738 19.6531 24.7116 19.5051 24.9127C18.8789 25.7326 18.2119 26.5203 17.5065 27.2731C18.4129 25.1878 19.0316 22.989 19.3457 20.737C19.4509 19.8764 19.4201 19.0045 19.2543 18.1534L20.9855 19.0703L20.4566 20.1747C20.3464 20.4037 20.307 20.6604 20.3434 20.9119C20.3799 21.1634 20.4906 21.3983 20.6614 21.5865L20.9945 21.9447C21.0299 21.9831 21.0547 22.0302 21.0662 22.0812C21.0777 22.1323 21.0756 22.1854 21.0601 22.2354C20.9795 22.4889 20.8778 22.7353 20.7563 22.972C20.7016 23.0792 20.6891 23.203 20.7212 23.3189C20.7534 23.4349 20.8279 23.5346 20.93 23.5982C20.9799 23.6266 21.0351 23.6444 21.0921 23.6503C21.1492 23.6562 21.2069 23.6502 21.2615 23.6326C21.3162 23.6151 21.3665 23.5863 21.4095 23.5482C21.4524 23.5101 21.4869 23.4635 21.5108 23.4114C21.6568 23.1262 21.7786 22.8292 21.875 22.5237C21.9406 22.3122 21.9498 22.0873 21.9016 21.8711C21.8535 21.655 21.7496 21.4552 21.6004 21.2916L21.2673 20.9334C21.2268 20.8888 21.2005 20.833 21.1919 20.7734C21.1833 20.7137 21.1927 20.6528 21.2189 20.5985C21.7765 19.4315 21.7562 19.4781 21.7801 19.4208L24.0682 20.1998C24.638 20.4099 25.1279 20.793 25.4694 21.2953C25.8108 21.7976 25.9867 22.3941 25.9725 23.0013V23.9564C23.8397 26.38 20.8997 27.9471 17.6987 28.3667L17.6993 28.3649Z" fill="#121212"/>
</svg>
