<svg width="32" height="32" viewBox="0 0 32 32" fill="none" xmlns="http://www.w3.org/2000/svg">
<path fill-rule="evenodd" clip-rule="evenodd" d="M4.27789 16.9682C5.54839 18.7983 7.20052 20.5767 9.08075 21.9435C11.2277 23.5042 13.5992 24.4778 15.9995 24.4778C18.3999 24.4778 20.7714 23.5042 22.9183 21.9435C24.7986 20.5767 26.4507 18.7983 27.7212 16.9682C24.4204 12.9449 20.9244 9.30001 15.9995 9.30001C11.0747 9.30001 7.57875 12.945 4.27789 16.9682ZM1.65546 16.0714C4.98454 11.9555 9.34751 6.70001 15.9995 6.70001C22.6516 6.70001 27.0146 11.9555 30.3436 16.0714C30.6938 16.5043 30.7294 17.1122 30.4321 17.583C28.9574 19.9184 26.8928 22.2687 24.4471 24.0465C22.004 25.8225 19.1078 27.0778 15.9995 27.0778C12.8913 27.0778 9.99506 25.8225 7.55197 24.0465C5.10631 22.2687 3.04163 19.9184 1.567 17.583C1.26972 17.1121 1.30529 16.5043 1.65546 16.0714ZM11.7366 16.8889C11.7366 14.5345 13.6451 12.6259 15.9995 12.6259C18.354 12.6259 20.2625 14.5345 20.2625 16.8889C20.2625 19.2433 18.354 21.1519 15.9995 21.1519C13.6451 21.1519 11.7366 19.2433 11.7366 16.8889ZM15.9995 15.2259C15.0811 15.2259 14.3366 15.9704 14.3366 16.8889C14.3366 17.8074 15.0811 18.5519 15.9995 18.5519C16.918 18.5519 17.6625 17.8074 17.6625 16.8889C17.6625 15.9704 16.918 15.2259 15.9995 15.2259Z" fill="#121212"/>
</svg>
