<svg width="32" height="32" viewBox="0 0 32 32" fill="none" xmlns="http://www.w3.org/2000/svg">
<path fill-rule="evenodd" clip-rule="evenodd" d="M4.71212 26.197C5.18687 26.6717 5.75758 26.9091 6.42424 26.9091H17.3329C16.8035 26.2043 16.4242 25.3804 16.2424 24.4848H6.42424V12.3636H23.3939V17.3333C24.2896 17.5151 25.1134 17.8944 25.8182 18.4238V7.51514C25.8182 6.84847 25.5808 6.27777 25.1061 5.80302C24.6313 5.32827 24.0606 5.0909 23.3939 5.0909H22.1818V2.66666H19.7576V5.0909H10.0606V2.66666H7.63636V5.0909H6.42424C5.75758 5.0909 5.18687 5.32827 4.71212 5.80302C4.23737 6.27777 4 6.84847 4 7.51514V24.4848C4 25.1515 4.23737 25.7222 4.71212 26.197ZM23.3939 9.93938H6.42424V7.51514H23.3939V9.93938Z" fill="#121212"/>
<path d="M22.1818 26.9091C22.3434 26.9091 22.4848 26.8485 22.6061 26.7273C22.7273 26.606 22.7879 26.4646 22.7879 26.303C22.7879 26.1414 22.7273 26 22.6061 25.8788C22.4848 25.7576 22.3434 25.697 22.1818 25.697C22.0202 25.697 21.8788 25.7576 21.7576 25.8788C21.6364 26 21.5758 26.1414 21.5758 26.303C21.5758 26.4646 21.6364 26.606 21.7576 26.7273C21.8788 26.8485 22.0202 26.9091 22.1818 26.9091ZM21.5758 24.4848H22.7879V19.6364H21.5758V24.4848ZM22.1818 29.3333C20.5051 29.3333 19.0758 28.7424 17.8939 27.5606C16.7121 26.3788 16.1212 24.9495 16.1212 23.2727C16.1212 21.5959 16.7121 20.1667 17.8939 18.9848C19.0758 17.803 20.5051 17.2121 22.1818 17.2121C23.8586 17.2121 25.2879 17.803 26.4697 18.9848C27.6515 20.1667 28.2424 21.5959 28.2424 23.2727C28.2424 24.9495 27.6515 26.3788 26.4697 27.5606C25.2879 28.7424 23.8586 29.3333 22.1818 29.3333Z" fill="#121212"/>
</svg>
