<svg width="32" height="32" viewBox="0 0 32 32" fill="none" xmlns="http://www.w3.org/2000/svg">
<path fill-rule="evenodd" clip-rule="evenodd" d="M3.04871 3.04839C3.55767 2.53943 4.38284 2.53943 4.8918 3.04839L28.9519 27.1085C29.4609 27.6175 29.4609 28.4427 28.9519 28.9516C28.443 29.4606 27.6178 29.4606 27.1089 28.9516L3.04871 4.89147C2.53976 4.38252 2.53976 3.55734 3.04871 3.04839Z" fill="#121212"/>
<path fill-rule="evenodd" clip-rule="evenodd" d="M14.8575 13.2547C15.3971 13.7311 15.4484 14.5547 14.972 15.0942C14.7583 15.3363 14.6299 15.6516 14.6299 16C14.6299 16.7566 15.2433 17.3701 16 17.3701C16.3483 17.3701 16.6635 17.2418 16.9059 17.0279C17.4456 16.5516 18.2691 16.603 18.7454 17.1426C19.2217 17.6823 19.1703 18.5058 18.6307 18.9821C17.9304 19.6002 17.0076 19.9766 16 19.9766C13.8037 19.9766 12.0234 18.1961 12.0234 16C12.0234 14.9925 12.3998 14.0694 13.018 13.3692C13.4944 12.8296 14.318 12.7783 14.8575 13.2547Z" fill="#121212"/>
<path fill-rule="evenodd" clip-rule="evenodd" d="M10.8679 9.3187C11.281 9.90815 11.138 10.7208 10.5486 11.1339C8.71349 12.4199 7.12012 14.2112 5.58757 16.0777C6.71887 17.6899 8.17864 19.2515 9.83444 20.4551C11.7567 21.8525 13.87 22.7168 16.0003 22.7168C17.7754 22.7168 19.5387 22.1175 21.195 21.1047C21.8091 20.7292 22.6113 20.9227 22.9867 21.5367C23.3622 22.1508 23.1688 22.953 22.5548 23.3285C20.598 24.5249 18.3687 25.3233 16.0003 25.3233C13.1605 25.3233 10.521 24.1766 8.30182 22.5634C6.08011 20.9484 4.20637 18.815 2.86828 16.6958C2.57026 16.2238 2.60592 15.6144 2.95697 15.1804C4.65582 13.0801 6.63384 10.6944 9.05271 8.99934C9.64215 8.58628 10.4548 8.72926 10.8679 9.3187Z" fill="#121212"/>
<path fill-rule="evenodd" clip-rule="evenodd" d="M14.6967 7.97995C14.6967 7.26018 15.2802 6.67669 15.9999 6.67669C22.0734 6.67669 26.0473 11.4763 29.0433 15.1804C29.3944 15.6145 29.43 16.2239 29.1319 16.6959C28.6786 17.4136 28.1658 18.1304 27.601 18.8262C27.1475 19.3851 26.3267 19.4705 25.7678 19.017C25.209 18.5634 25.1236 17.7427 25.5771 17.1838C25.8726 16.8197 26.1515 16.4498 26.4124 16.078C23.4504 12.4763 20.346 9.28321 15.9999 9.28321C15.2802 9.28321 14.6967 8.69972 14.6967 7.97995Z" fill="#121212"/>
</svg>
