<svg width="32" height="32" viewBox="0 0 32 32" fill="none" xmlns="http://www.w3.org/2000/svg">
<path d="M28.3402 5.94334H15.9128C15.6371 5.98224 15.3847 6.1194 15.2021 6.32957C15.0195 6.53975 14.9189 6.8088 14.9189 7.08722C14.9189 7.36564 15.0195 7.6347 15.2021 7.84488C15.3847 8.05505 15.6371 8.19221 15.9128 8.23111H28.3402C28.6159 8.19221 28.8683 8.05505 29.0509 7.84488C29.2335 7.6347 29.334 7.36564 29.334 7.08722C29.334 6.8088 29.2335 6.53975 29.0509 6.32957C28.8683 6.1194 28.6159 5.98224 28.3402 5.94334Z" fill="#121212"/>
<path d="M24.9465 11.7487C24.7595 11.5618 24.5134 11.4454 24.2502 11.4195C23.987 11.3937 23.7229 11.4598 23.5031 11.6068C23.2832 11.7538 23.1211 11.9724 23.0443 12.2255C22.9676 12.4786 22.9809 12.7505 23.0822 12.9948C23.1834 13.2392 23.3662 13.4408 23.5995 13.5655C23.8327 13.6902 24.102 13.7301 24.3614 13.6785C24.6208 13.6269 24.8542 13.487 25.022 13.2826C25.1898 13.0781 25.2815 12.8218 25.2815 12.5574C25.2806 12.2543 25.1602 11.9637 24.9465 11.7487Z" fill="#121212"/>
<path d="M20.7265 11.4137H16.099C15.7956 11.4137 15.5046 11.5342 15.2901 11.7488C15.0756 11.9633 14.9551 12.2542 14.9551 12.5576C14.9551 12.861 15.0756 13.1519 15.2901 13.3665C15.5046 13.581 15.7956 13.7015 16.099 13.7015H20.7265C21.0299 13.7015 21.3208 13.581 21.5353 13.3665C21.7499 13.1519 21.8704 12.861 21.8704 12.5576C21.8704 12.2542 21.7499 11.9633 21.5353 11.7488C21.3208 11.5342 21.0299 11.4137 20.7265 11.4137Z" fill="#121212"/>
<path d="M28.3402 18.2539H15.9128C15.6371 18.2928 15.3847 18.43 15.2021 18.6402C15.0195 18.8503 14.9189 19.1194 14.9189 19.3978C14.9189 19.6762 15.0195 19.9453 15.2021 20.1555C15.3847 20.3656 15.6371 20.5028 15.9128 20.5417H28.3402C28.6159 20.5028 28.8683 20.3656 29.0509 20.1555C29.2335 19.9453 29.334 19.6762 29.334 19.3978C29.334 19.1194 29.2335 18.8503 29.0509 18.6402C28.8683 18.43 28.6159 18.2928 28.3402 18.2539Z" fill="#121212"/>
<path d="M24.9465 24.061C24.7595 23.8741 24.5134 23.7577 24.2502 23.7319C23.987 23.706 23.7229 23.7722 23.5031 23.9191C23.2832 24.0661 23.1211 24.2848 23.0443 24.5378C22.9676 24.7909 22.9809 25.0628 23.0822 25.3072C23.1834 25.5515 23.3662 25.7532 23.5995 25.8778C23.8327 26.0025 24.102 26.0424 24.3614 25.9908C24.6208 25.9392 24.8542 25.7993 25.022 25.5949C25.1898 25.3904 25.2815 25.1342 25.2815 24.8697C25.2806 24.5666 25.1602 24.2761 24.9465 24.061Z" fill="#121212"/>
<path d="M21.1698 23.7261H16.098C15.7946 23.7261 15.5037 23.8466 15.2891 24.0611C15.0746 24.2756 14.9541 24.5666 14.9541 24.8699C14.9541 25.1733 15.0746 25.4643 15.2891 25.6788C15.5037 25.8933 15.7946 26.0138 16.098 26.0138H21.1698C21.4732 26.0138 21.7641 25.8933 21.9787 25.6788C22.1932 25.4643 22.3137 25.1733 22.3137 24.8699C22.3137 24.5666 22.1932 24.2756 21.9787 24.0611C21.7641 23.8466 21.4732 23.7261 21.1698 23.7261Z" fill="#121212"/>
<path d="M12.6381 5.6683C12.4236 5.45382 12.1326 5.33333 11.8292 5.33333C11.5259 5.33333 11.2349 5.45382 11.0204 5.6683L6.12938 10.5597L4.62271 9.05308C4.40819 8.83855 4.11723 8.71803 3.81384 8.71803C3.51045 8.71803 3.21949 8.83855 3.00497 9.05308C2.79044 9.2676 2.66992 9.55856 2.66992 9.86195C2.66992 10.1653 2.79044 10.4563 3.00497 10.6708L5.32073 12.9866C5.42693 13.0928 5.55303 13.1771 5.69182 13.2346C5.83061 13.2921 5.97937 13.3217 6.1296 13.3217C6.27983 13.3217 6.42859 13.2921 6.56738 13.2346C6.70617 13.1771 6.83226 13.0928 6.93847 12.9866L12.6381 7.28604C12.8526 7.07149 12.9731 6.78054 12.9731 6.47717C12.9731 6.1738 12.8526 5.88285 12.6381 5.6683Z" fill="#121212"/>
<path d="M9.30147 18.2357H3.8111C3.66087 18.2356 3.51211 18.2652 3.3733 18.3226C3.2345 18.3801 3.10836 18.4643 3.00212 18.5705C2.89587 18.6767 2.81159 18.8028 2.75409 18.9416C2.69659 19.0804 2.66699 19.2291 2.66699 19.3794V24.8697C2.66699 25.0199 2.69657 25.1686 2.75405 25.3074C2.81152 25.4462 2.89576 25.5722 3.00196 25.6784C3.10816 25.7846 3.23424 25.8689 3.37299 25.9263C3.51175 25.9838 3.66046 26.0134 3.81065 26.0134H9.30103C9.45121 26.0134 9.59993 25.9838 9.73869 25.9263C9.87744 25.8689 10.0035 25.7846 10.1097 25.6784C10.2159 25.5722 10.3002 25.4462 10.3576 25.3074C10.4151 25.1686 10.4447 25.0199 10.4447 24.8697V19.3794C10.4447 19.0761 10.3243 18.7853 10.1099 18.5708C9.89549 18.3564 9.60471 18.2358 9.30147 18.2357ZM8.15781 23.7261H4.9552V20.5235H8.15781V23.7261Z" fill="#121212"/>
</svg>
