<svg width="32" height="32" viewBox="0 0 32 32" fill="none" xmlns="http://www.w3.org/2000/svg">
<path fill-rule="evenodd" clip-rule="evenodd" d="M8.25405 21.8621C8.25405 21.4012 8.62771 21.0275 9.08864 21.0275H22.0247C22.4856 21.0275 22.8593 21.4012 22.8593 21.8621C22.8593 22.323 22.4856 22.6967 22.0247 22.6967H9.08864C8.62771 22.6967 8.25405 22.323 8.25405 21.8621ZM8.25405 25.2004C8.25405 24.7395 8.62771 24.3659 9.08864 24.3659H22.0247C22.4856 24.3659 22.8593 24.7395 22.8593 25.2004C22.8593 25.6614 22.4856 26.035 22.0247 26.035H9.08864C8.62771 26.035 8.25405 25.6614 8.25405 25.2004Z" fill="black"/>
<path fill-rule="evenodd" clip-rule="evenodd" d="M7.83676 4.33583C7.37583 4.33583 7.00218 4.70948 7.00218 5.17041V26.8296C7.00218 27.2982 7.388 27.675 7.85655 27.6639L23.7137 27.2878C24.1667 27.2771 24.5285 26.9067 24.5285 26.4535V11.6195H19.5209C18.1382 11.6195 17.0172 10.4985 17.0172 9.11572V4.33583H7.83676ZM18.6864 4.33583V9.11572C18.6864 9.57665 19.06 9.9503 19.5209 9.9503H23.9401L19.3865 4.62785C19.2279 4.44252 18.9962 4.33583 18.7523 4.33583H18.6864ZM5.33301 5.17041C5.33301 3.78763 6.45398 2.66666 7.83676 2.66666H18.7523C19.484 2.66666 20.1791 2.98674 20.6548 3.54273L25.7013 9.44119C26.0216 9.81561 26.1976 10.2921 26.1976 10.7849V26.4535C26.1976 27.8132 25.1125 28.9243 23.7532 28.9565L7.89612 29.3326C6.49049 29.3659 5.33301 28.2356 5.33301 26.8296V5.17041Z" fill="black"/>
<path fill-rule="evenodd" clip-rule="evenodd" d="M12.695 11.0125C13.519 11.0125 14.1871 10.3453 14.1871 9.52217C14.1871 8.69909 13.519 8.03184 12.695 8.03184C11.8709 8.03184 11.2028 8.69909 11.2028 9.52217C11.2028 10.3453 11.8709 11.0125 12.695 11.0125ZM12.695 12.2048C14.1783 12.2048 15.3808 11.0037 15.3808 9.52217C15.3808 8.04062 14.1783 6.83958 12.695 6.83958C11.2116 6.83958 10.0091 8.04062 10.0091 9.52217C10.0091 11.0037 11.2116 12.2048 12.695 12.2048Z" fill="black"/>
<path fill-rule="evenodd" clip-rule="evenodd" d="M10.1251 13.9932C9.83338 13.9932 9.58438 14.2038 9.53641 14.4913L9.03904 17.4719C8.9784 17.8353 9.25895 18.1661 9.62777 18.1661H16.0608C16.4296 18.1661 16.7101 17.8353 16.6495 17.4719L16.1521 14.4913C16.1042 14.2038 15.8552 13.9932 15.5634 13.9932H14.784V14.5893C14.784 15.577 13.9824 16.3777 12.9935 16.3777H12.3966C11.4077 16.3777 10.6061 15.577 10.6061 14.5893V13.9932H10.1251ZM11.7998 13.9932V14.5893C11.7998 14.9185 12.067 15.1854 12.3966 15.1854H12.9935C13.3231 15.1854 13.5903 14.9185 13.5903 14.5893V13.9932H11.7998ZM8.35895 14.2953C8.50284 13.4329 9.24985 12.8009 10.1251 12.8009H15.5634C16.4387 12.8009 17.1857 13.4329 17.3296 14.2953L17.827 17.2759C18.0089 18.366 17.1672 19.3583 16.0608 19.3583H9.62777C8.52131 19.3583 7.67967 18.366 7.86157 17.2759L8.35895 14.2953Z" fill="black"/>
</svg>
