<svg width="32" height="32" viewBox="0 0 32 32" fill="none" xmlns="http://www.w3.org/2000/svg">
<path d="M12.5007 28.2198V15.2773L2.85682 4.39667C2.74418 4.22977 2.67909 4.03536 2.66852 3.83428C2.65795 3.63321 2.70231 3.43304 2.79684 3.25525C2.89136 3.07747 3.03249 2.92876 3.2051 2.82507C3.3777 2.72138 3.57527 2.66662 3.77663 2.66666H28.2159C28.4169 2.66762 28.6138 2.723 28.7858 2.82691C28.9578 2.93082 29.0985 3.07938 29.1928 3.25681C29.2871 3.43425 29.3316 3.63392 29.3216 3.83462C29.3116 4.03532 29.2473 4.22955 29.1357 4.39667L19.4918 15.2773V24.6235C19.4914 24.7959 19.451 24.9658 19.3739 25.12C19.2969 25.2742 19.1851 25.4084 19.0475 25.5122L14.2796 29.107C14.115 29.2323 13.9185 29.309 13.7126 29.3284C13.5066 29.3479 13.2993 29.3092 13.1141 29.2169C12.929 29.1245 12.7734 28.9822 12.665 28.806C12.5566 28.6298 12.4997 28.4267 12.5007 28.2198ZM5.86508 4.88842L14.5359 14.322C14.6607 14.5049 14.7273 14.7212 14.7269 14.9426V25.9966L17.2731 24.0711V14.9396C17.2727 14.7182 17.3393 14.5019 17.4641 14.319L26.1216 4.88842H5.86508Z" fill="#121212"/>
</svg>
