<svg width="32" height="32" viewBox="0 0 32 32" fill="none" xmlns="http://www.w3.org/2000/svg">
<path d="M16.3875 30C12.6625 30 9.5 28.6813 6.9 26.0438C4.3 23.4062 3 20.2125 3 16.4625H5.25C5.25 19.5875 6.325 22.25 8.475 24.45C10.625 26.65 13.2625 27.75 16.3875 27.75C19.5625 27.75 22.25 26.6375 24.45 24.4125C26.65 22.1875 27.75 19.4875 27.75 16.3125C27.75 13.2125 26.6375 10.5938 24.4125 8.45625C22.1875 6.31875 19.5125 5.25 16.3875 5.25C14.6875 5.25 13.0938 5.6375 11.6063 6.4125C10.1188 7.1875 8.825 8.2125 7.725 9.4875H11.6625V11.7375H3.825V3.9375H6.075V7.9125C7.375 6.3875 8.91875 5.1875 10.7063 4.3125C12.4938 3.4375 14.3875 3 16.3875 3C18.2625 3 20.025 3.35 21.675 4.05C23.325 4.75 24.7688 5.70625 26.0063 6.91875C27.2438 8.13125 28.2188 9.55 28.9313 11.175C29.6438 12.8 30 14.55 30 16.425C30 18.3 29.6438 20.0625 28.9313 21.7125C28.2188 23.3625 27.2438 24.8 26.0063 26.025C24.7688 27.25 23.325 28.2188 21.675 28.9313C20.025 29.6438 18.2625 30 16.3875 30ZM21.1875 22.6125L15.4125 16.9125V8.8875H17.6625V15.975L22.8 21L21.1875 22.6125Z" fill="black"/>
</svg>
