<svg width="32" height="32" viewBox="0 0 32 32" fill="none" xmlns="http://www.w3.org/2000/svg">
<path fill-rule="evenodd" clip-rule="evenodd" d="M13.9747 5.99633C13.9747 5.99634 13.9747 5.99633 13.9747 5.99633L7.32852 10.1818C6.15031 10.9238 5.40739 12.2699 5.40739 13.7472V22.4383C5.40739 24.7828 7.22347 26.5929 9.35414 26.5929H10.6424V22.4383C10.6424 19.4431 12.9921 16.9245 16.0003 16.9245C19.0085 16.9245 21.3582 19.4431 21.3582 22.4383V26.5929H22.6465C24.7771 26.5929 26.5933 24.7828 26.5933 22.4383V13.7472C26.5933 12.2699 25.8504 10.9238 24.6721 10.1818L18.026 5.99633C18.0259 5.99633 18.026 5.99634 18.026 5.99633C16.7783 5.21067 15.2223 5.21066 13.9747 5.99633ZM18.6178 26.5929V22.4383C18.6178 20.8565 17.3969 19.6649 16.0003 19.6649C14.6037 19.6649 13.3828 20.8565 13.3828 22.4383V26.5929H18.6178ZM12.5144 3.67743C14.6545 2.32975 17.3462 2.32975 19.4862 3.67743L26.1325 7.86291C28.1343 9.12356 29.3337 11.3606 29.3337 13.7472V22.4383C29.3337 26.1963 26.3887 29.3333 22.6465 29.3333H9.35414C5.61186 29.3333 2.66699 26.1963 2.66699 22.4383V13.7472C2.66699 11.3606 3.86639 9.12356 5.86819 7.86291L12.5144 3.67743Z" fill="#121212"/>
</svg>
