<svg width="32" height="32" viewBox="0 0 32 32" fill="none" xmlns="http://www.w3.org/2000/svg">
<path fill-rule="evenodd" clip-rule="evenodd" d="M28.922 3.04839C28.413 2.53943 27.5879 2.53943 27.0789 3.04839L15.0488 15.0785C14.5399 15.5874 14.5399 16.4126 15.0488 16.9215L27.0789 28.9516C27.5879 29.4606 28.413 29.4606 28.922 28.9516C29.4309 28.4427 29.4309 27.6175 28.922 27.1085L17.8135 16L28.922 4.89147C29.4309 4.38252 29.4309 3.55734 28.922 3.04839Z" fill="#121212"/>
<path fill-rule="evenodd" clip-rule="evenodd" d="M16.922 3.04839C16.413 2.53943 15.5879 2.53943 15.0789 3.04839L3.04883 15.0785C2.53988 15.5874 2.53988 16.4126 3.04883 16.9215L15.0789 28.9516C15.5879 29.4606 16.413 29.4606 16.922 28.9516C17.4309 28.4427 17.4309 27.6175 16.922 27.1085L5.81346 16L16.922 4.89147C17.4309 4.38252 17.4309 3.55734 16.922 3.04839Z" fill="#121212"/>
</svg>
