<svg width="32" height="32" viewBox="0 0 32 32" fill="none" xmlns="http://www.w3.org/2000/svg">
<path d="M29.0346 13.7845L16.614 2.89305C16.4474 2.74712 16.2335 2.66667 16.0121 2.66667C15.7906 2.66667 15.5767 2.74712 15.4101 2.89305L2.98954 13.7845C2.89713 13.8629 2.82121 13.9589 2.76627 14.0669C2.71133 14.1749 2.67842 14.2928 2.66948 14.4137C2.66054 14.5345 2.67575 14.6559 2.7142 14.7709C2.75265 14.8858 2.81359 14.9919 2.89346 15.0831C2.97333 15.1742 3.07056 15.2485 3.17944 15.3017C3.28832 15.3549 3.4067 15.386 3.52769 15.393C3.64867 15.4 3.76984 15.3828 3.88413 15.3425C3.99843 15.3022 4.10353 15.2396 4.19338 15.1583L5.15476 14.316V27.8984C5.15476 28.0183 5.17839 28.1371 5.22429 28.2479C5.2702 28.3588 5.33748 28.4594 5.4223 28.5443C5.50712 28.6291 5.60779 28.6964 5.71861 28.7423C5.82943 28.7882 5.94823 28.8118 6.06818 28.8118H25.9545C26.1968 28.8118 26.4291 28.7156 26.6004 28.5443C26.7717 28.373 26.8679 28.1406 26.8679 27.8984V14.316L27.8293 15.1583C28.0121 15.3134 28.2485 15.3904 28.4876 15.3727C28.7266 15.355 28.9492 15.244 29.1072 15.0638C29.2652 14.8835 29.346 14.6483 29.3321 14.409C29.3183 14.1697 29.2109 13.9454 29.0332 13.7845H29.0346ZM13.9028 26.9849V19.4626H18.1141V26.9864L13.9028 26.9849ZM25.0425 12.7215V26.9849H19.9482V18.5492C19.9482 18.4292 19.9246 18.3104 19.8787 18.1996C19.8328 18.0888 19.7655 17.9881 19.6807 17.9033C19.5959 17.8184 19.4952 17.7512 19.3844 17.7053C19.2736 17.6593 19.1548 17.6357 19.0348 17.6357H12.9908C12.7485 17.6357 12.5162 17.732 12.3449 17.9033C12.1736 18.0746 12.0774 18.3069 12.0774 18.5492V26.9849H6.98307V12.7215L16.0128 4.80704L25.044 12.7215H25.0425Z" fill="#121212"/>
</svg>
