<svg width="32" height="32" viewBox="0 0 32 32" fill="none" xmlns="http://www.w3.org/2000/svg">
<path d="M29.3337 17.9682C29.3337 14.1274 26.2332 11.0106 22.3985 10.9843C21.5513 8.47406 19.1774 6.66666 16.3813 6.66666C14.1254 6.66666 12.1443 7.84312 11.0181 9.61598C10.7978 9.59699 10.5748 9.58729 10.3495 9.58729C6.10658 9.58729 2.66699 13.0269 2.66699 17.2698C2.66699 21.3206 5.80201 24.6391 9.7781 24.9314V24.9524H23.1114V24.9113C26.6102 24.5317 29.3337 21.568 29.3337 17.9682Z" fill="#B7E3FC"/>
<path d="M16.5544 13.2213C16.265 12.8338 15.6673 12.8384 15.3844 13.2303L13.7781 15.4555C13.4457 15.9161 13.786 16.5483 14.3665 16.5483H14.8349V20.8661C14.8349 21.2499 15.1562 21.561 15.5526 21.561H16.4754C16.8718 21.561 17.1932 21.2499 17.1932 20.8661V16.5483H17.6343C18.22 16.5483 18.5591 15.9059 18.216 15.4465L16.5544 13.2213Z" fill="white"/>
</svg>
