<svg width="32" height="32" viewBox="0 0 32 32" fill="none" xmlns="http://www.w3.org/2000/svg">
<g id="ic_import">
<g id="Union">
<path fill-rule="evenodd" clip-rule="evenodd" d="M14.6797 29.3333C11.3206 29.3333 8.47871 28.7592 6.15402 27.6111C3.82934 26.463 2.66699 25.0617 2.66699 23.4074V8.59258C2.66699 6.96295 3.84046 5.56789 6.18739 4.4074C8.53432 3.2469 11.3651 2.66666 14.6797 2.66666C17.9944 2.66666 20.8251 3.2469 23.1721 4.4074C25.519 5.56789 26.6925 6.96295 26.6925 8.59258V14.9743C26.6925 15.5408 26.2248 16 25.6479 16H25.0676C24.4906 16 24.023 15.5408 24.023 14.9743V14.1583C24.023 13.3582 23.1174 12.8469 22.3654 13.1552C22.2793 13.1904 22.1923 13.2251 22.1043 13.2592C21.4035 13.5309 20.6583 13.7592 19.8686 13.9444C19.0788 14.1296 18.2502 14.2716 17.3826 14.3704C16.515 14.4691 15.6141 14.5185 14.6797 14.5185C13.7454 14.5185 12.8333 14.4691 11.9435 14.3704C11.0537 14.2716 10.2139 14.1296 9.42416 13.9444C8.63443 13.7592 7.89476 13.5309 7.20514 13.2592C7.14338 13.2349 7.08215 13.2103 7.02147 13.1854C6.26203 12.8736 5.33649 13.3882 5.33649 14.1965V16.2132C5.33649 16.5647 5.51805 16.895 5.83097 17.0658C6.25505 17.2973 6.71311 17.5099 7.20514 17.7037C7.89476 17.9753 8.63443 18.2037 9.42416 18.3889C10.2139 18.5741 11.0537 18.716 11.9435 18.8148C12.8333 18.9136 13.7454 18.963 14.6797 18.963C15.6141 18.963 16.515 18.9136 17.3826 18.8148C17.8842 18.7577 18.3358 19.1353 18.3358 19.6312V20.774C18.3358 21.2783 17.9627 21.7101 17.4527 21.7697L17.3826 21.7778C16.515 21.8765 15.6141 21.9259 14.6797 21.9259C13.7454 21.9259 12.8333 21.8765 11.9435 21.7778C11.0537 21.679 10.2139 21.537 9.42416 21.3518C8.63443 21.1667 7.89476 20.9383 7.20514 20.6667C7.14338 20.6423 7.08216 20.6177 7.02147 20.5928C6.26203 20.281 5.33649 20.7957 5.33649 21.6039V23.2593C5.33649 23.3575 5.34789 23.4566 5.38949 23.5459C5.53917 23.8672 5.87187 24.1791 6.3876 24.4815C6.97712 24.8271 7.71679 25.142 8.60662 25.4259C9.49645 25.7099 10.4753 25.9383 11.5431 26.1111C12.6109 26.2839 13.6564 26.3704 14.6797 26.3704C15.703 26.3704 16.743 26.2839 17.7997 26.1111C18.0786 26.0655 18.3358 26.2744 18.3358 26.552V28.1959C18.3358 28.7027 17.959 29.136 17.446 29.1913C16.5665 29.286 15.6445 29.3333 14.6797 29.3333ZM14.6797 11.5926C16.6596 11.5926 18.6506 11.2778 20.6527 10.6481C22.3681 10.1087 23.4384 9.53752 23.8637 8.93463C23.9933 8.75105 23.9932 8.5083 23.8642 8.32437C23.4403 7.71991 22.3754 7.14265 20.6694 6.59258C18.6784 5.95061 16.6818 5.62962 14.6797 5.62962C12.6554 5.62962 10.6699 5.94443 8.72341 6.57406C7.09787 7.09987 6.04247 7.66443 5.55723 8.26773C5.38607 8.48054 5.38599 8.77879 5.5575 8.99134C6.04286 9.59281 7.09816 10.1512 8.72341 10.6667C10.6699 11.2839 12.6554 11.5926 14.6797 11.5926Z" fill="#121212"/>
<path d="M28.9989 22.5284L28.7025 22.798C28.3043 23.1602 27.6899 23.1626 27.2888 22.8035L25.909 21.5681V27.282C25.909 27.8485 25.4413 28.3077 24.8644 28.3077H24.3421C23.7652 28.3077 23.2976 27.8485 23.2976 27.282V21.5681L22.0551 22.6805C21.5764 23.1091 20.8431 23.1063 20.3678 22.674C19.8351 22.1895 19.8351 21.3624 20.3678 20.8779L24.6033 17.0256L28.9989 21.0235C29.4452 21.4295 29.4452 22.1225 28.9989 22.5284Z" fill="#121212"/>
</g>
</g>
</svg>
