<svg width="32" height="32" viewBox="0 0 32 32" fill="none" xmlns="http://www.w3.org/2000/svg">
<path d="M14.7867 16L8.22667 22.56L6.33333 20.6667L9.66667 17.3333H3V14.6667H9.66667L6.33333 11.3333L8.22667 9.44L14.7867 16ZM19 4C14.4533 4 10.5733 5.42667 9.04 7.42667L9.66667 8L11.04 9.42667C11 9.4 11 9.33333 11 9.33333C11 8.66667 13.84 6.66667 19 6.66667C24.16 6.66667 27 8.66667 27 9.33333C27 10 24.16 12 19 12C15.5067 12 13.1067 11.08 11.9067 10.2933L16.0667 14.4533C17 14.5867 17.9867 14.6667 19 14.6667C22.1867 14.6667 25.04 13.96 27 12.8533V16.6C25.2667 17.8667 22.2267 18.6667 19 18.6667C17.72 18.6667 16.4667 18.5333 15.32 18.3067L13.12 20.4933C14.88 21.0267 16.88 21.3333 19 21.3333C22.04 21.3333 24.8533 20.7333 27 19.6933V22.6667C27 23.3333 24.16 25.3333 19 25.3333C13.84 25.3333 11 23.3333 11 22.6667V22.6133L9.66667 24L9.05333 24.5733C10.5867 26.5733 14.4667 28 19 28C24.88 28 29.6667 25.6133 29.6667 22.6667V9.33333C29.6667 6.38667 24.8933 4 19 4Z" fill="#121212"/>
</svg>
