<svg width="32" height="32" viewBox="0 0 32 32" fill="none" xmlns="http://www.w3.org/2000/svg">
<path d="M16.0819 11.682V12.8383C16.082 13.0474 16.1652 13.248 16.3131 13.3959C16.4609 13.5438 16.6615 13.6269 16.8706 13.6271H17.0315V15.9207L16.1391 16.8131C16.0607 16.8914 16.0167 16.9976 16.0166 17.1084V18.034C16.0206 18.1421 16.0664 18.2444 16.1442 18.3194C16.2221 18.3945 16.326 18.4364 16.4342 18.4364C16.5423 18.4364 16.6463 18.3945 16.7241 18.3194C16.802 18.2444 16.8477 18.1421 16.8518 18.034V17.2813L17.7441 16.3889C17.783 16.3502 17.8138 16.3041 17.8348 16.2534C17.8558 16.2027 17.8666 16.1484 17.8666 16.0936V13.6271H18.0275C18.2366 13.6269 18.4371 13.5438 18.585 13.3959C18.7329 13.248 18.8161 13.0474 18.8162 12.8383V11.682C18.8161 11.4729 18.7329 11.2723 18.585 11.1244C18.4371 10.9766 18.2366 10.8934 18.0275 10.8932H16.8712C16.6621 10.8934 16.4615 10.9766 16.3136 11.1244C16.1657 11.2723 16.082 11.4729 16.0819 11.682ZM16.917 11.7284H17.9805V12.7919H16.9176L16.917 11.7284Z" fill="#121212"/>
<path d="M10.9548 10.3037C10.7456 10.3039 10.5451 10.387 10.3972 10.5349C10.2493 10.6828 10.1662 10.8833 10.166 11.0925V12.5C10.1662 12.7092 10.2493 12.9097 10.3972 13.0576C10.5451 13.2055 10.7456 13.2887 10.9548 13.2888H12.3595C12.5686 13.2887 12.7692 13.2055 12.917 13.0576C13.0649 12.9097 13.1481 12.7092 13.1482 12.5V11.0925C13.1481 10.8833 13.0649 10.6828 12.917 10.5349C12.7692 10.387 12.5686 10.3039 12.3595 10.3037H10.9548ZM12.316 12.4537H10.9994V11.1371H12.316V12.4537Z" fill="#121212"/>
<path d="M11.9268 7.53153V8.38555C11.9269 8.5947 12.0101 8.79524 12.158 8.94313C12.3058 9.09102 12.5064 9.17418 12.7155 9.17433H13.5696C13.7787 9.17418 13.9793 9.09102 14.1271 8.94313C14.275 8.79524 14.3582 8.5947 14.3583 8.38555V7.53153C14.3582 7.32238 14.275 7.12183 14.1271 6.97394C13.9793 6.82605 13.7787 6.7429 13.5696 6.74275H12.7155C12.5064 6.7429 12.3058 6.82605 12.158 6.97394C12.0101 7.12183 11.9269 7.32238 11.9268 7.53153ZM12.7619 7.57789H13.5232V8.33919H12.7619V7.57789Z" fill="#121212"/>
<path d="M22.434 10.1343H21.0339C20.8247 10.1344 20.6242 10.2176 20.4763 10.3655C20.3284 10.5134 20.2453 10.7139 20.2451 10.9231V12.3232C20.2453 12.5323 20.3284 12.7329 20.4763 12.8808C20.6242 13.0286 20.8247 13.1118 21.0339 13.1119H22.434C22.6431 13.1118 22.8437 13.0286 22.9916 12.8808C23.1395 12.7329 23.2226 12.5323 23.2228 12.3232V10.9231C23.2226 10.7139 23.1395 10.5134 22.9916 10.3655C22.8437 10.2176 22.6431 10.1344 22.434 10.1343ZM22.3876 12.2762H21.0803V10.9694H22.3876V12.2762Z" fill="#121212"/>
<path d="M15.7831 29.0471C15.2093 29.0464 14.6548 28.8397 14.2206 28.4647C13.7863 28.0896 13.5011 27.5712 13.4167 27.0037C13.1796 26.9203 12.9742 26.7654 12.8288 26.5603C12.6834 26.3553 12.6053 26.1102 12.6051 25.8588V25.2635C12.2376 25.2451 11.8912 25.0864 11.6372 24.8202C11.3832 24.5539 11.241 24.2005 11.2399 23.8325C11.2403 23.5601 11.3181 23.2934 11.4642 23.0634C11.6103 22.8335 11.8187 22.6498 12.0652 22.5337C11.5956 21.4574 10.9603 20.4612 10.1826 19.5813C10.1097 19.498 10.0728 19.3893 10.08 19.2788C10.0872 19.1684 10.1379 19.0654 10.221 18.9923C10.3042 18.9191 10.413 18.882 10.5235 18.8891C10.6341 18.8962 10.7374 18.9469 10.8106 19.03C11.6931 20.0289 12.4041 21.1669 12.9148 22.3981H13.7991V17.2075H13.6382C13.429 17.2074 13.2284 17.1241 13.0805 16.9761C12.9326 16.8281 12.8495 16.6274 12.8495 16.4182V15.2619C12.8495 15.0526 12.9326 14.852 13.0805 14.7039C13.2284 14.5559 13.429 14.4727 13.6382 14.4725H14.7951C15.0043 14.4729 15.2048 14.5561 15.3527 14.7041C15.5005 14.8521 15.5836 15.0527 15.5838 15.2619V16.4182C15.5836 16.6274 15.5005 16.828 15.3527 16.9759C15.2048 17.1239 15.0043 17.2072 14.7951 17.2075H14.6342V22.3981H16.016V19.8137C16.0159 19.7588 16.0266 19.7044 16.0475 19.6537C16.0684 19.603 16.0991 19.5569 16.1379 19.5181C16.1767 19.4792 16.2228 19.4485 16.2735 19.4275C16.3242 19.4065 16.3785 19.3957 16.4333 19.3958C16.4882 19.3958 16.5424 19.4066 16.5931 19.4276C16.6437 19.4486 16.6899 19.4794 16.7286 19.5182C16.7674 19.557 16.7981 19.6031 16.819 19.6538C16.84 19.7045 16.8507 19.7588 16.8506 19.8137V22.3964H17.7734V19.8858C17.7734 19.8309 17.7841 19.7766 17.8051 19.7259C17.8261 19.6752 17.8569 19.6292 17.8958 19.5904L19.7653 17.721V16.8423H19.6794C19.4938 16.842 19.3159 16.7682 19.1847 16.6369C19.0535 16.5057 18.9797 16.3278 18.9794 16.1423V15.2298C18.9795 15.1378 18.9978 15.0467 19.0332 14.9617C19.0686 14.8767 19.1203 14.7995 19.1855 14.7346C19.2507 14.6696 19.3282 14.6181 19.4133 14.5831C19.4984 14.5481 19.5897 14.5301 19.6818 14.5304H20.5942C20.7798 14.5305 20.9578 14.6043 21.089 14.7356C21.2203 14.8668 21.294 15.0448 21.2942 15.2304V16.1428C21.2939 16.327 21.2212 16.5036 21.0917 16.6345C20.9622 16.7654 20.7863 16.8401 20.6021 16.8423V17.8944C20.6021 18.0052 20.558 18.1114 20.4796 18.1898L18.6102 20.0587V22.3969H19.0846C19.7089 20.8636 20.6504 19.4796 21.8471 18.3357C22.6878 17.5448 23.3567 16.5894 23.8126 15.529C24.2684 14.4686 24.5013 13.3257 24.4968 12.1715C24.4968 11.8213 24.4754 11.4715 24.4326 11.124C24.4298 11.0956 24.4298 11.067 24.4326 11.0387C24.2477 9.65632 23.7222 8.34158 22.9032 7.21273C22.8711 7.16827 22.8481 7.11793 22.8354 7.06458C22.8228 7.01123 22.8209 6.95592 22.8297 6.9018C22.8385 6.84769 22.8578 6.79583 22.8866 6.7492C22.9154 6.70256 22.9532 6.66207 22.9977 6.63002C23.0421 6.59788 23.0924 6.5748 23.1457 6.5621C23.199 6.5494 23.2542 6.54732 23.3083 6.55598C23.3625 6.56465 23.4143 6.58389 23.4609 6.6126C23.5076 6.64131 23.5482 6.67893 23.5803 6.72332C24.7296 8.30711 25.3469 10.2146 25.3433 12.1715C25.3422 14.4165 24.5311 16.5858 23.0589 18.2808C23.0436 18.2983 23.027 18.3146 23.0091 18.3294C22.8233 18.5401 22.6268 18.7437 22.4195 18.9402C21.3556 19.9564 20.5093 21.1782 19.9319 22.5314C20.1789 22.6472 20.3877 22.8308 20.5342 23.0609C20.6807 23.291 20.7586 23.5581 20.7589 23.8308C20.7578 24.1987 20.6156 24.5522 20.3616 24.8185C20.1077 25.0847 19.7612 25.2434 19.3937 25.2618V25.8571C19.3935 26.1085 19.3154 26.3536 19.17 26.5586C19.0246 26.7637 18.8192 26.9185 18.5821 27.0019C18.4977 27.5694 18.2124 28.0878 17.7781 28.4628C17.3439 28.8378 16.7895 29.0445 16.2157 29.0454L15.7831 29.0471ZM15.7831 28.212H16.2163C16.5562 28.2114 16.8867 28.0998 17.1574 27.8942C17.4281 27.6886 17.6243 27.4002 17.7161 27.0729H14.2816C14.3735 27.4004 14.57 27.6888 14.841 27.8943C15.1121 28.0997 15.443 28.2109 15.7831 28.2109V28.212ZM13.4408 25.8594C13.4408 25.9598 13.4807 26.0561 13.5516 26.1272C13.6225 26.1982 13.7187 26.2382 13.8191 26.2383H18.1814C18.2819 26.2382 18.3782 26.1982 18.4492 26.1272C18.5202 26.0562 18.5603 25.9599 18.5604 25.8594V25.2658H17.949C17.8941 25.2659 17.8397 25.2551 17.789 25.2342C17.7383 25.2132 17.6921 25.1824 17.6533 25.1436C17.6145 25.1048 17.5837 25.0587 17.5628 25.008C17.5418 24.9572 17.5311 24.9029 17.5312 24.848C17.5311 24.7931 17.5418 24.7387 17.5628 24.688C17.5837 24.6372 17.6145 24.5912 17.6533 24.5523C17.6921 24.5135 17.7383 24.4827 17.789 24.4618C17.8397 24.4408 17.8941 24.43 17.949 24.4301H19.3262C19.485 24.4298 19.6373 24.3666 19.7495 24.2542C19.8618 24.1419 19.9248 23.9896 19.9249 23.8308C19.9248 23.6788 19.867 23.5325 19.7631 23.4215C19.6591 23.3105 19.5169 23.2432 19.3652 23.2332H19.3486H19.3216H12.6783H12.6497H12.6343C12.4828 23.2434 12.3408 23.3107 12.2371 23.4215C12.1334 23.5324 12.0757 23.6784 12.0756 23.8302C12.0757 23.9893 12.1389 24.1418 12.2514 24.2542C12.3638 24.3667 12.5165 24.43 12.6755 24.4301H16.1671C16.222 24.4301 16.2763 24.4409 16.327 24.4619C16.3776 24.4829 16.4236 24.5137 16.4624 24.5525C16.5011 24.5913 16.5319 24.6374 16.5528 24.6881C16.5737 24.7388 16.5845 24.7931 16.5844 24.848C16.5845 24.9028 16.5737 24.9571 16.5528 25.0078C16.5319 25.0585 16.5011 25.1046 16.4624 25.1434C16.4236 25.1822 16.3776 25.213 16.327 25.234C16.2763 25.255 16.222 25.2658 16.1671 25.2658H13.4425L13.4408 25.8594ZM13.6852 16.3701H14.7487V15.3065H13.6852V16.3701ZM19.8151 16.0066H20.4574V15.3644H19.8151V16.0066Z" fill="#121212"/>
<path d="M7.50537 12.1709C7.50159 10.3898 8.06273 8.65351 9.1081 7.21155C9.17292 7.12175 9.19942 7.00988 9.18176 6.90055C9.1641 6.79121 9.10374 6.69337 9.01394 6.62855C8.92414 6.56373 8.81227 6.53723 8.70294 6.55489C8.59361 6.57255 8.49577 6.63291 8.43094 6.72271C7.20108 8.42515 6.58272 10.4933 6.67623 12.5914C6.76975 14.6895 7.56966 16.6945 8.94611 18.2807C8.98148 18.3239 9.02516 18.3596 9.07456 18.3856C9.12396 18.4116 9.17808 18.4274 9.23371 18.4321C9.28933 18.4369 9.34534 18.4304 9.39842 18.413C9.45149 18.3957 9.50055 18.3679 9.54269 18.3313C9.58483 18.2947 9.61919 18.25 9.64374 18.1998C9.66829 18.1497 9.68252 18.0951 9.68561 18.0394C9.68869 17.9837 9.68056 17.9279 9.66169 17.8753C9.64282 17.8228 9.6136 17.7746 9.57575 17.7335C8.23879 16.1888 7.5037 14.2138 7.50537 12.1709Z" fill="#121212"/>
<path d="M13.8233 3.94545C13.8579 3.94547 13.8923 3.94125 13.9258 3.93286C14.6102 3.75981 15.3137 3.67346 16.0197 3.67585C16.454 3.67681 16.8876 3.71068 17.3167 3.77716C17.3717 3.78747 17.4283 3.78662 17.4829 3.77466C17.5376 3.76271 17.5893 3.73989 17.635 3.70757C17.6807 3.67524 17.7194 3.63407 17.7489 3.58649C17.7784 3.53891 17.798 3.4859 17.8066 3.43059C17.8152 3.37529 17.8126 3.31882 17.7989 3.26455C17.7853 3.21027 17.7609 3.15929 17.7271 3.11463C17.6934 3.06996 17.651 3.03253 17.6026 3.00455C17.5541 2.97658 17.5005 2.95862 17.4449 2.95175C16.9741 2.87883 16.4984 2.84171 16.0219 2.84071C15.2465 2.83804 14.4738 2.93304 13.722 3.12348C13.6237 3.14876 13.5379 3.209 13.4807 3.29294C13.4235 3.37687 13.3989 3.47875 13.4114 3.57954C13.4239 3.68032 13.4726 3.77311 13.5485 3.84056C13.6245 3.90801 13.7224 3.9455 13.8239 3.94602L13.8233 3.94545Z" fill="#121212"/>
<path d="M10.1833 6.28425H11.8112C12.0204 6.2841 12.2209 6.20095 12.3688 6.05306C12.5167 5.90517 12.5998 5.70463 12.6 5.49548V3.86756C12.5998 3.65841 12.5167 3.45787 12.3688 3.30998C12.2209 3.16208 12.0204 3.07893 11.8112 3.07878H10.1833C9.97415 3.07893 9.77362 3.16208 9.62573 3.30998C9.47783 3.45787 9.39468 3.65841 9.39453 3.86756V5.49548C9.39468 5.70463 9.47783 5.90517 9.62573 6.05306C9.77362 6.20095 9.97415 6.2841 10.1833 6.28425ZM10.2297 3.9145H11.7643V5.44911H10.2297V3.9145Z" fill="#121212"/>
<path d="M20.5546 5.86527H21.7819C22.0432 5.86496 22.2937 5.76102 22.4785 5.57623C22.6633 5.39145 22.7672 5.14091 22.7675 4.87958V3.65235C22.7672 3.39102 22.6633 3.14048 22.4785 2.9557C22.2937 2.77091 22.0432 2.66697 21.7819 2.66666H20.5546C20.2932 2.66682 20.0425 2.77069 19.8576 2.9555C19.6727 3.1403 19.5687 3.39092 19.5684 3.65235V4.87958C19.5687 5.14101 19.6727 5.39163 19.8576 5.57643C20.0425 5.76124 20.2932 5.86512 20.5546 5.86527ZM20.6119 3.71016H21.7229V4.81891H20.613L20.6119 3.71016Z" fill="#121212"/>
<path d="M18.4362 9.22645H19.2004C19.4095 9.2263 19.6101 9.14315 19.758 8.99525C19.9059 8.84736 19.989 8.64682 19.9892 8.43767V7.67351C19.989 7.46436 19.9059 7.26382 19.758 7.11593C19.6101 6.96804 19.4095 6.88489 19.2004 6.88474H18.4362C18.2271 6.88489 18.0265 6.96804 17.8787 7.11593C17.7308 7.26382 17.6476 7.46436 17.6475 7.67351V8.43767C17.6476 8.64682 17.7308 8.84736 17.8787 8.99525C18.0265 9.14315 18.2271 9.2263 18.4362 9.22645ZM18.4826 7.71987H19.154V8.39188H18.4815L18.4826 7.71987Z" fill="#121212"/>
</svg>
