<svg width="32" height="32" viewBox="0 0 32 32" fill="none" xmlns="http://www.w3.org/2000/svg">
<path fill-rule="evenodd" clip-rule="evenodd" d="M23.9447 24.4265C24.3936 24.4265 24.6767 23.991 24.4571 23.6381L23.5233 22.1372C23.3076 21.7905 22.7607 21.7736 22.5192 22.1063L21.4298 23.6072C21.1742 23.9593 21.4546 24.4265 21.9215 24.4265H22.1005V26.6705C22.1005 26.9629 22.3635 27.2 22.688 27.2H23.0947C23.4192 27.2 23.6822 26.9629 23.6822 26.6705V24.4265H23.9447Z" fill="black"/>
<path fill-rule="evenodd" clip-rule="evenodd" d="M18.1837 7.9238C18.1837 9.53682 16.8318 10.8444 15.1642 10.8444C13.4965 10.8444 12.1446 9.53682 12.1446 7.9238C12.1446 6.31078 13.4965 5.00317 15.1642 5.00317C16.8318 5.00317 18.1837 6.31078 18.1837 7.9238ZM20.5993 7.9238C20.5993 10.8272 18.1659 13.1809 15.1642 13.1809C12.1624 13.1809 9.72902 10.8272 9.72902 7.9238C9.72902 5.02036 12.1624 2.66666 15.1642 2.66666C18.1659 2.66666 20.5993 5.02036 20.5993 7.9238ZM8.77247 17.6619C8.86954 17.0986 9.37343 16.6857 9.96385 16.6857H10.937V17.854C10.937 19.7896 12.5593 21.3587 14.5605 21.3587H15.7683C17.7695 21.3587 19.3917 19.7896 19.3917 17.854V16.6857H20.9688C21.5592 16.6857 22.0631 17.0986 22.1602 17.6619L22.5201 19.7508C22.6562 19.7392 22.7939 19.7333 22.933 19.7333C23.6931 19.7333 24.412 19.91 25.0507 20.2245L24.543 17.2778C24.2518 15.5878 22.7401 14.3492 20.9688 14.3492H9.96385C8.19257 14.3492 6.68091 15.5878 6.38972 17.2778L5.38321 23.119C5.01511 25.2553 6.71828 27.2 8.95734 27.2H18.9413C18.4882 26.523 18.2027 25.7244 18.1442 24.8635H8.95734C8.21099 24.8635 7.64326 24.2153 7.76596 23.5032L8.77247 17.6619ZM13.3527 17.854V16.6857H16.9761V17.854C16.9761 18.4992 16.4353 19.0222 15.7683 19.0222H14.5605C13.8934 19.0222 13.3527 18.4992 13.3527 17.854Z" fill="black"/>
<path fill-rule="evenodd" clip-rule="evenodd" d="M22.933 28.2667C24.9949 28.2667 26.6663 26.5952 26.6663 24.5333C26.6663 22.4715 24.9949 20.8 22.933 20.8C20.8711 20.8 19.1997 22.4715 19.1997 24.5333C19.1997 26.5952 20.8711 28.2667 22.933 28.2667ZM22.933 29.3333C25.584 29.3333 27.733 27.1843 27.733 24.5333C27.733 21.8824 25.584 19.7333 22.933 19.7333C20.282 19.7333 18.133 21.8824 18.133 24.5333C18.133 27.1843 20.282 29.3333 22.933 29.3333Z" fill="black"/>
</svg>
