<svg width="32" height="32" viewBox="0 0 32 32" fill="none" xmlns="http://www.w3.org/2000/svg">
<path fill-rule="evenodd" clip-rule="evenodd" d="M5.33366 20.4796V26.5929H10.2567V20.4796H5.33366ZM4.71827 17.7391C3.58538 17.7391 2.66699 18.6829 2.66699 19.8472V27.2253C2.66699 28.3895 3.58538 29.3333 4.71827 29.3333H12.9234V19.8472C12.9234 18.6829 12.005 17.7391 10.8721 17.7391H4.71827Z" fill="#121212"/>
<path fill-rule="evenodd" clip-rule="evenodd" d="M13.5388 12.0474V26.5929H18.4619V12.0474H13.5388ZM12.9234 9.30698C11.7905 9.30698 10.8721 10.2508 10.8721 11.415V27.2253C10.8721 28.3895 11.7905 29.3333 12.9234 29.3333H19.0772C20.2101 29.3333 21.1285 28.3895 21.1285 27.2253V11.415C21.1285 10.2508 20.2101 9.30698 19.0772 9.30698H12.9234Z" fill="#121212"/>
<path fill-rule="evenodd" clip-rule="evenodd" d="M21.7439 23.6416V26.5929H26.667V23.6416H21.7439ZM21.1285 20.9012C19.9956 20.9012 19.0772 21.845 19.0772 23.0092V29.3333H27.2824C28.4153 29.3333 29.3337 28.3895 29.3337 27.2253V23.0092C29.3337 21.845 28.4153 20.9012 27.2824 20.9012H21.1285Z" fill="#121212"/>
<path fill-rule="evenodd" clip-rule="evenodd" d="M10.0516 4.0369C10.0516 3.28014 10.6485 2.66667 11.3849 2.66667H20.6157C21.352 2.66667 21.949 3.28014 21.949 4.0369C21.949 4.79365 21.352 5.40712 20.6157 5.40712H11.3849C10.6485 5.40712 10.0516 4.79365 10.0516 4.0369Z" fill="#121212"/>
</svg>
