<svg width="32" height="32" viewBox="0 0 32 32" fill="none" xmlns="http://www.w3.org/2000/svg">
<path d="M15.9997 26.7C18.9552 24.0111 21.1386 21.5722 22.5497 19.3833C23.9608 17.1944 24.6663 15.2667 24.6663 13.6C24.6663 10.9824 23.8298 8.83916 22.1566 7.17016C20.4835 5.50116 18.4312 4.66666 15.9997 4.66666C13.5682 4.66666 11.5159 5.50116 9.84274 7.17016C8.16959 8.83916 7.33301 10.9824 7.33301 13.6C7.33301 15.2667 8.05523 17.1944 9.49967 19.3833C10.9441 21.5722 13.1108 24.0111 15.9997 26.7ZM15.9913 28.6667C15.7525 28.6667 15.5163 28.6278 15.283 28.55C15.0497 28.4722 14.8441 28.3444 14.6663 28.1667C13.733 27.3222 12.7219 26.35 11.633 25.25C10.5441 24.15 9.53301 22.9667 8.59967 21.7C7.66634 20.4333 6.88856 19.1111 6.26634 17.7333C5.64412 16.3556 5.33301 14.9778 5.33301 13.6C5.33301 10.2667 6.40523 7.61111 8.54967 5.63333C10.6941 3.65555 13.1775 2.66666 15.9997 2.66666C18.8219 2.66666 21.3052 3.65555 23.4497 5.63333C25.5941 7.61111 26.6663 10.2667 26.6663 13.6C26.6663 14.9778 26.3552 16.3556 25.733 17.7333C25.1108 19.1111 24.333 20.4333 23.3997 21.7C22.4663 22.9667 21.4552 24.15 20.3663 25.25C19.2775 26.35 18.2663 27.3222 17.333 28.1667C17.1552 28.3444 16.9469 28.4722 16.708 28.55C16.4691 28.6278 16.2302 28.6667 15.9913 28.6667ZM16.0026 15.6667C16.6451 15.6667 17.1941 15.4379 17.6497 14.9804C18.1052 14.5229 18.333 13.9729 18.333 13.3304C18.333 12.6879 18.1042 12.1389 17.6467 11.6833C17.1892 11.2278 16.6392 11 15.9967 11C15.3542 11 14.8052 11.2288 14.3497 11.6863C13.8941 12.1438 13.6663 12.6938 13.6663 13.3363C13.6663 13.9788 13.8951 14.5278 14.3526 14.9833C14.8102 15.4389 15.3602 15.6667 16.0026 15.6667Z" fill="#121212"/>
</svg>
