<svg width="32" height="32" viewBox="0 0 32 32" fill="none" xmlns="http://www.w3.org/2000/svg">
<path fill-rule="evenodd" clip-rule="evenodd" d="M20.5456 11.1683C20.947 10.7636 21.5979 10.7636 21.9993 11.1683L26.0658 15.2673C26.4672 15.672 26.4672 16.328 26.0658 16.7327L21.9993 20.8317C21.5979 21.2364 20.947 21.2364 20.5456 20.8317C20.1442 20.4271 20.1442 19.771 20.5456 19.3664L22.8573 17.0362H15.8505C15.2828 17.0362 14.8226 16.5723 14.8226 16C14.8226 15.4278 15.2828 14.9639 15.8505 14.9639H22.8573L20.5456 12.6336C20.1442 12.229 20.1442 11.5729 20.5456 11.1683Z" fill="#121212"/>
<path fill-rule="evenodd" clip-rule="evenodd" d="M5.33398 6.43553C5.33398 4.35405 7.00794 2.66667 9.07288 2.66667H22.6278C24.6928 2.66667 26.3667 4.35406 26.3667 6.43553V7.80188C26.3667 8.37413 25.9065 8.83804 25.3388 8.83804C24.7711 8.83804 24.3108 8.37413 24.3108 7.80188V6.43553C24.3108 5.49854 23.5573 4.73897 22.6278 4.73897H9.07288C8.14334 4.73897 7.38981 5.49855 7.38981 6.43553V25.5645C7.38981 26.5015 8.14333 27.261 9.07288 27.261H22.6278C23.5573 27.261 24.3108 26.5015 24.3108 25.5645V24.1981C24.3108 23.6259 24.7711 23.162 25.3388 23.162C25.9065 23.162 26.3667 23.6259 26.3667 24.1981V25.5645C26.3667 27.646 24.6927 29.3333 22.6278 29.3333H9.07288C7.00795 29.3333 5.33398 27.646 5.33398 25.5645V6.43553Z" fill="#121212"/>
</svg>
