<svg width="32" height="32" viewBox="0 0 32 32" fill="none" xmlns="http://www.w3.org/2000/svg">
<path d="M4.73333 11.7667V4.83333H6.73333V8.36667C7.88889 7.01111 9.26111 5.94444 10.85 5.16667C12.4389 4.38889 14.1222 4 15.9 4C19.2556 4 22.1111 5.15556 24.4667 7.46667C26.8222 9.77778 28 12.6 28 15.9333V16.2667H26V15.8333C26 13.0778 25.0111 10.75 23.0333 8.85C21.0556 6.95 18.6778 6 15.9 6C14.3889 6 12.9722 6.34444 11.65 7.03333C10.3278 7.72222 9.17778 8.63333 8.2 9.76667H11.7V11.7667H4.73333ZM4 15.9667H6C6 18.7444 6.95556 21.1111 8.86667 23.0667C10.7778 25.0222 13.1222 26 15.9 26H16.3L17.4333 27.9C17.1889 27.9444 16.9389 27.9722 16.6833 27.9833C16.4278 27.9944 16.1667 28 15.9 28C12.5889 28 9.77778 26.8278 7.46667 24.4833C5.15556 22.1389 4 19.3 4 15.9667ZM18.6667 19.9333L15.0333 16.3667V9.23333H17.0333V15.5333L19.7333 18.1667L18.6667 19.9333ZM24.5 31.6667L24.1667 29.4667C23.7667 29.3556 23.3889 29.2056 23.0333 29.0167C22.6778 28.8278 22.3444 28.5778 22.0333 28.2667L20.2 28.6667L19.3667 27.2667L20.9333 25.8C20.8667 25.5333 20.8333 25.2556 20.8333 24.9667C20.8333 24.6778 20.8667 24.4 20.9333 24.1333L19.3667 22.6667L20.2 21.2667L22.0333 21.6667C22.3444 21.3556 22.6778 21.1056 23.0333 20.9167C23.3889 20.7278 23.7667 20.5778 24.1667 20.4667L24.5 18.2667H26.3L26.6333 20.4667C27.0333 20.5778 27.4111 20.7278 27.7667 20.9167C28.1222 21.1056 28.4556 21.3556 28.7667 21.6667L30.6 21.2667L31.4333 22.6667L29.8667 24.1333C29.9333 24.4 29.9667 24.6778 29.9667 24.9667C29.9667 25.2556 29.9333 25.5333 29.8667 25.8L31.4333 27.2667L30.6 28.6667L28.7667 28.2667C28.4556 28.5778 28.1222 28.8278 27.7667 29.0167C27.4111 29.2056 27.0333 29.3556 26.6333 29.4667L26.3 31.6667H24.5ZM25.4 27.6333C26.2 27.6333 26.8444 27.3889 27.3333 26.9C27.8222 26.4111 28.0667 25.7667 28.0667 24.9667C28.0667 24.1667 27.8222 23.5222 27.3333 23.0333C26.8444 22.5444 26.2 22.3 25.4 22.3C24.6 22.3 23.9556 22.5444 23.4667 23.0333C22.9778 23.5222 22.7333 24.1667 22.7333 24.9667C22.7333 25.7667 22.9778 26.4111 23.4667 26.9C23.9556 27.3889 24.6 27.6333 25.4 27.6333Z" fill="black"/>
</svg>
