<svg width="32" height="32" viewBox="0 0 32 32" fill="none" xmlns="http://www.w3.org/2000/svg">
<path d="M15.9941 27C15.4425 27 14.9722 26.8006 14.5833 26.4017C14.1944 26.0028 14 25.5233 14 24.9632C14 24.4031 14.1964 23.9256 14.5892 23.5308C14.9821 23.1359 15.4543 22.9385 16.0059 22.9385C16.5575 22.9385 17.0278 23.1379 17.4167 23.5368C17.8056 23.9356 18 24.4151 18 24.9752C18 25.5353 17.8036 26.0128 17.4107 26.4077C17.0179 26.8026 16.5457 27 15.9941 27ZM15.9941 18.0308C15.4425 18.0308 14.9722 17.8313 14.5833 17.4325C14.1944 17.0336 14 16.5541 14 15.994C14 15.4339 14.1964 14.9564 14.5892 14.5615C14.9821 14.1667 15.4543 13.9692 16.0059 13.9692C16.5575 13.9692 17.0278 14.1687 17.4167 14.5675C17.8056 14.9664 18 15.4459 18 16.006C18 16.5661 17.8036 17.0436 17.4107 17.4385C17.0179 17.8333 16.5457 18.0308 15.9941 18.0308ZM15.9941 9.06154C15.4425 9.06154 14.9722 8.8621 14.5833 8.46322C14.1944 8.06437 14 7.58489 14 7.02476C14 6.46466 14.1964 5.98718 14.5892 5.59231C14.9821 5.19744 15.4543 5 16.0059 5C16.5575 5 17.0278 5.19944 17.4167 5.59832C17.8056 5.99717 18 6.47665 18 7.03678C18 7.59688 17.8036 8.07436 17.4107 8.46923C17.0179 8.8641 16.5457 9.06154 15.9941 9.06154Z" fill="#121212"/>
</svg>
