<svg width="32" height="32" viewBox="0 0 32 32" fill="none" xmlns="http://www.w3.org/2000/svg">
<path d="M22.934 26.1333C23.4963 26.1333 23.9521 25.6558 23.9521 25.0667C23.9521 24.4776 23.4963 24 22.934 24C22.3717 24 21.9159 24.4776 21.9159 25.0667C21.9159 25.6558 22.3717 26.1333 22.934 26.1333Z" fill="#121212"/>
<path fill-rule="evenodd" clip-rule="evenodd" d="M22.4249 20.8C21.769 20.8 21.2372 21.3571 21.2372 22.0444C21.2372 22.1593 21.252 22.2705 21.2798 22.3761C21.2638 22.387 21.2478 22.398 21.2319 22.4092C21.1329 22.35 21.0251 22.303 20.9098 22.2707C20.1856 22.0674 19.4413 22.5176 19.2472 23.2763C19.0841 23.9142 19.3619 24.567 19.8848 24.8796C19.8814 24.9415 19.8797 25.0039 19.8797 25.0667C19.8797 25.1295 19.8814 25.1918 19.8848 25.2537C19.3619 25.5663 19.0841 26.2191 19.2473 26.857C19.4413 27.6157 20.1857 28.0659 20.9098 27.8626C21.0251 27.8303 21.1329 27.7833 21.2319 27.7241C21.2478 27.7353 21.2638 27.7463 21.2798 27.7572C21.252 27.8628 21.2372 27.974 21.2372 28.0889C21.2372 28.7762 21.769 29.3333 22.4249 29.3333H23.443C24.099 29.3333 24.6308 28.7762 24.6308 28.0889C24.6308 27.974 24.6159 27.8628 24.5881 27.7572C24.6043 27.7462 24.6204 27.7351 24.6363 27.7239C24.9362 27.9033 25.301 27.9637 25.6609 27.8626C26.385 27.6593 26.8148 26.8795 26.6207 26.1208C26.5232 25.7393 26.2864 25.4357 25.9831 25.2541C25.9865 25.1921 25.9883 25.1296 25.9883 25.0667C25.9883 25.0037 25.9865 24.9412 25.9831 24.8792C26.2864 24.6976 26.5232 24.3941 26.6207 24.0125C26.8148 23.2538 26.385 22.474 25.6609 22.2707C25.301 22.1697 24.9362 22.23 24.6363 22.4094C24.6204 22.3982 24.6043 22.3871 24.5881 22.3761C24.6159 22.2705 24.6308 22.1593 24.6308 22.0444C24.6308 21.3571 24.099 20.8 23.443 20.8H22.4249ZM24.6308 25.0667C24.6308 26.0485 23.8711 26.8444 22.934 26.8444C21.9969 26.8444 21.2372 26.0485 21.2372 25.0667C21.2372 24.0848 21.9969 23.2889 22.934 23.2889C23.8711 23.2889 24.6308 24.0848 24.6308 25.0667Z" fill="#121212"/>
<path fill-rule="evenodd" clip-rule="evenodd" d="M20.6003 8.15237C20.6003 11.182 18.1669 13.6381 15.1652 13.6381C12.1634 13.6381 9.73 11.182 9.73 8.15237C9.73 5.1227 12.1634 2.66666 15.1652 2.66666C18.1669 2.66666 20.6003 5.1227 20.6003 8.15237ZM18.1847 8.15237C18.1847 9.83553 16.8328 11.2 15.1652 11.2C13.4975 11.2 12.1456 9.83553 12.1456 8.15237C12.1456 6.46922 13.4975 5.10475 15.1652 5.10475C16.8328 5.10475 18.1847 6.46922 18.1847 8.15237Z" fill="#121212"/>
<path fill-rule="evenodd" clip-rule="evenodd" d="M8.77345 18.3139C8.87052 17.7261 9.3744 17.2952 9.96483 17.2952H10.938V18.5143C10.938 20.5341 12.5603 22.1714 14.5615 22.1714H15.7693C17.7704 22.1714 19.3927 20.5341 19.3927 18.5143V17.2952H20.9698C21.5602 17.2952 22.0641 17.7261 22.1612 18.3139L22.487 20.2872C22.6342 20.2736 22.7833 20.2667 22.934 20.2667C23.6778 20.2667 24.382 20.4358 25.0104 20.7378L24.5439 17.913C24.2527 16.1496 22.7411 14.8571 20.9698 14.8571H9.96483C8.19355 14.8571 6.68189 16.1496 6.39069 17.913L5.38418 24.0083C5.01608 26.2374 6.71925 28.2667 8.95832 28.2667H19.3562C18.7565 27.5966 18.3422 26.757 18.1941 25.8286H8.95832C8.21196 25.8286 7.64424 25.1522 7.76694 24.4091L8.77345 18.3139ZM13.3536 18.5143V17.2952H16.9771V18.5143C16.9771 19.1875 16.4363 19.7333 15.7693 19.7333H14.5615C13.8944 19.7333 13.3536 19.1875 13.3536 18.5143Z" fill="#121212"/>
</svg>
