<svg width="32" height="32" viewBox="0 0 32 32" fill="none" xmlns="http://www.w3.org/2000/svg">
<path fill-rule="evenodd" clip-rule="evenodd" d="M10.1387 5.31193C11.7181 3.62731 13.8756 2.66667 16.1411 2.66667C18.4067 2.66667 20.5642 3.62731 22.1435 5.31194C23.7207 6.9942 24.5955 9.26174 24.5955 11.6126C24.5955 16.0523 25.4864 18.8292 26.3203 20.46C26.7383 21.2774 27.1468 21.8164 27.4334 22.1391C27.577 22.3007 27.6908 22.409 27.7609 22.4714C27.7961 22.5026 27.8203 22.5224 27.832 22.5317C27.8351 22.5341 27.8373 22.5359 27.8386 22.5369C28.2141 22.8109 28.3727 23.295 28.231 23.7388C28.0879 24.1869 27.6715 24.491 27.2011 24.491H5.08113C4.61076 24.491 4.19437 24.1869 4.0513 23.7388C3.9096 23.295 4.06821 22.8109 4.44368 22.5368C4.44498 22.5358 4.44719 22.5341 4.45027 22.5317C4.46196 22.5224 4.48622 22.5026 4.52133 22.4714C4.59153 22.409 4.70531 22.3007 4.84889 22.1391C5.1355 21.8164 5.54395 21.2774 5.96196 20.46C6.79588 18.8292 7.68675 16.0523 7.68675 11.6126C7.68675 9.26171 8.56162 6.99417 10.1387 5.31193ZM24.8951 22.3289C24.7303 22.065 24.5623 21.7709 24.3953 21.4444C23.3859 19.4704 22.4334 16.3486 22.4334 11.6126C22.4334 9.79171 21.7547 8.05834 20.5662 6.79071L20.5662 6.79067C19.38 5.52538 17.7866 4.82878 16.1411 4.82878C14.4957 4.82878 12.9023 5.52538 11.7161 6.79068L11.7161 6.79068C10.5276 8.05834 9.84885 9.79172 9.84885 11.6126C9.84885 16.3486 8.89639 19.4704 7.88697 21.4444C7.72 21.7709 7.55198 22.065 7.38721 22.3289H24.8951Z" fill="#121212"/>
<path fill-rule="evenodd" clip-rule="evenodd" d="M20.7845 25.9943C21.1841 26.5554 21.0532 27.3343 20.492 27.7339C19.1653 28.6788 17.9128 29.3335 16.5551 29.3333C15.175 29.3332 13.9771 28.6591 12.7586 27.6968C12.2179 27.2699 12.1257 26.4855 12.5527 25.9448C12.9796 25.4042 13.764 25.312 14.3047 25.739C15.3954 26.6003 16.0349 26.8385 16.5554 26.8386C17.0983 26.8387 17.8095 26.5816 19.0449 25.7019C19.606 25.3022 20.3849 25.4332 20.7845 25.9943Z" fill="#121212"/>
</svg>
