<svg width="32" height="32" viewBox="0 0 32 32" fill="none" xmlns="http://www.w3.org/2000/svg">
<path d="M29.3288 19.569C29.3015 19.1412 29.1502 18.7306 28.8933 18.3874C28.6364 18.0442 28.2851 17.7833 27.8823 17.6365C27.4795 17.4898 27.0427 17.4636 26.6253 17.5611C26.2078 17.6586 25.8279 17.8756 25.5318 18.1856L23.0056 20.8307L18.8099 16.635C18.1925 16.0167 17.3873 15.6207 16.5206 15.5092V14.3196C16.7166 14.3429 16.9137 14.3546 17.1111 14.3548C17.8612 14.353 18.6012 14.1827 19.2766 13.8563C19.9519 13.53 20.5452 13.056 21.0127 12.4695C21.4802 11.8829 21.8098 11.1988 21.9772 10.4677C22.1447 9.73655 22.1456 8.97715 21.98 8.24562C21.9581 8.15052 21.9099 8.0635 21.8408 7.9945C21.7718 7.92549 21.6848 7.87729 21.5897 7.85538C20.5474 7.61765 19.4563 7.72069 18.4769 8.14936C18.5688 7.76589 18.6153 7.37296 18.6155 6.97865C18.6174 6.13322 18.4041 5.3012 17.9958 4.56094C17.5874 3.82067 16.9974 3.1965 16.2812 2.74718C16.198 2.69458 16.1016 2.66666 16.0032 2.66666C15.9047 2.66666 15.8083 2.69458 15.7251 2.74718C15.009 3.1965 14.4189 3.82067 14.0106 4.56094C13.6022 5.3012 13.3889 6.13322 13.3909 6.97865C13.3911 7.37296 13.4376 7.76588 13.5294 8.14936C12.5502 7.72079 11.4594 7.61774 10.4173 7.85538C10.3216 7.87674 10.2339 7.92471 10.1642 7.99375C10.0946 8.06279 10.0459 8.1501 10.0238 8.24562C9.85814 8.97715 9.85908 9.73655 10.0265 10.4677C10.1939 11.1988 10.5236 11.8829 10.991 12.4695C11.4585 13.056 12.0518 13.53 12.7272 13.8563C13.4025 14.1827 14.1426 14.353 14.8926 14.3548C15.09 14.3546 15.2872 14.3428 15.4832 14.3196V15.5105C14.6212 15.6243 13.821 16.0196 13.2068 16.635L10.28 19.5618C9.12856 19.3906 7.95336 19.4795 6.84079 19.8221C5.72822 20.1648 4.70655 20.7523 3.85088 21.5416L2.83497 22.4775C2.78466 22.5239 2.74397 22.5797 2.71523 22.6417C2.68648 22.7038 2.67024 22.7709 2.66743 22.8392C2.66462 22.9076 2.6753 22.9758 2.69886 23.04C2.72242 23.1042 2.75839 23.1632 2.80472 23.2135C2.85106 23.2638 2.90685 23.3045 2.96891 23.3332C3.03097 23.3619 3.09808 23.3782 3.16642 23.381C3.23476 23.3838 3.30298 23.3731 3.36719 23.3496C3.4314 23.326 3.49034 23.29 3.54064 23.2437L4.55721 22.3045C5.63921 21.3084 7.0164 20.692 8.48014 20.5489C9.94387 20.4057 11.4144 20.7435 12.6689 21.5111L13.558 22.0548C13.6398 22.1049 13.7339 22.1315 13.8299 22.1315H18.1569C18.4674 22.1315 18.7652 22.2549 18.9848 22.4744C19.2043 22.694 19.3277 22.9917 19.3277 23.3022C19.3277 23.6127 19.2043 23.9105 18.9848 24.1301C18.7652 24.3496 18.4674 24.4729 18.1569 24.4729H13.6042C13.4662 24.4729 13.3339 24.5278 13.2363 24.6253C13.1387 24.7229 13.0839 24.8553 13.0839 24.9933C13.0839 25.1313 13.1387 25.2636 13.2363 25.3612C13.3339 25.4588 13.4662 25.5136 13.6042 25.5136H18.6512C19.0687 25.5128 19.4816 25.4277 19.8654 25.2636C20.2491 25.0994 20.5958 24.8595 20.8847 24.5581L26.2875 18.8997C26.4975 18.6727 26.7891 18.5384 27.0981 18.5264C27.4072 18.5144 27.7083 18.6256 27.9353 18.8357C28.1623 19.0457 28.2966 19.3373 28.3086 19.6463C28.3206 19.9553 28.2094 20.2564 27.9994 20.4834L23.005 26.123C22.4036 26.8031 21.6647 27.3477 20.8372 27.721C20.0096 28.0942 19.1123 28.2875 18.2044 28.2882H3.18748C3.04948 28.2882 2.91714 28.343 2.81956 28.4406C2.72198 28.5381 2.66717 28.6705 2.66717 28.8085C2.66717 28.9465 2.72198 29.0788 2.81956 29.1764C2.91714 29.274 3.04948 29.3288 3.18748 29.3288H18.2044C19.2596 29.3285 20.3027 29.1042 21.2647 28.6709C22.2268 28.2376 23.086 27.605 23.7855 26.815L28.7792 21.1722C28.9727 20.9548 29.1209 20.7011 29.2153 20.4259C29.3096 20.1506 29.3482 19.8593 29.3288 19.569ZM17.6809 9.93014C18.1128 9.49613 18.6399 9.16873 19.2204 8.97387C19.8009 8.77902 20.4189 8.72207 21.0252 8.80756C21.101 9.35515 21.0615 9.91256 20.909 10.4439C20.7565 10.9753 20.4945 11.4689 20.1398 11.8929C19.7851 12.317 19.3456 12.6621 18.8495 12.9061C18.3534 13.15 17.8118 13.2875 17.2594 13.3096L19.0766 11.4924C19.1702 11.3941 19.2216 11.2631 19.22 11.1275C19.2184 10.9918 19.1638 10.8621 19.068 10.7661C18.9721 10.67 18.8425 10.6153 18.7068 10.6134C18.5711 10.6115 18.4401 10.6628 18.3417 10.7561L16.5206 12.5733C16.5547 11.7058 16.8748 10.8738 17.4311 10.2072L17.474 10.1571C17.5395 10.0782 17.6084 10.0025 17.6809 9.93014ZM16.0002 3.81448C16.441 4.14807 16.8071 4.5702 17.0749 5.05373C17.3427 5.53727 17.5064 6.0715 17.5554 6.62208C17.6044 7.17267 17.5377 7.72741 17.3595 8.25065C17.1812 8.77389 16.8955 9.25404 16.5206 9.66022V7.27067C16.5206 7.13268 16.4657 7.00033 16.3682 6.90276C16.2706 6.80518 16.1382 6.75036 16.0002 6.75036C15.8622 6.75036 15.7299 6.80518 15.6323 6.90276C15.5347 7.00033 15.4799 7.13268 15.4799 7.27067V9.66087C15.105 9.25469 14.8193 8.77454 14.641 8.2513C14.4628 7.72806 14.396 7.17332 14.445 6.62273C14.4941 6.07215 14.6577 5.53792 14.9256 5.05438C15.1934 4.57085 15.5595 4.14872 16.0002 3.81513V3.81448ZM10.9753 8.80756C11.5816 8.72207 12.1995 8.77902 12.78 8.97387C13.3605 9.16873 13.8877 9.49613 14.3196 9.93014C14.392 10.0025 14.461 10.0771 14.5264 10.1539L14.5694 10.204C15.1262 10.8713 15.4464 11.7042 15.4799 12.5727L13.6588 10.7561C13.6104 10.7078 13.553 10.6694 13.4898 10.6432C13.4266 10.617 13.3588 10.6035 13.2904 10.6035C13.2219 10.6035 13.1542 10.617 13.091 10.6432C13.0278 10.6694 12.9703 10.7078 12.9219 10.7561C12.8735 10.8045 12.8352 10.862 12.809 10.9252C12.7828 10.9884 12.7693 11.0562 12.7693 11.1246C12.7693 11.193 12.7828 11.2608 12.809 11.324C12.8352 11.3872 12.8735 11.4446 12.9219 11.493L14.7391 13.3102C14.1868 13.2881 13.6452 13.1505 13.1492 12.9065C12.6532 12.6625 12.2138 12.3174 11.8592 11.8933C11.5046 11.4693 11.2426 10.9758 11.0902 10.4444C10.9377 9.9131 10.8981 9.35575 10.974 8.80821L10.9753 8.80756ZM20.3488 23.6131C20.3934 23.2994 20.3701 22.9798 20.2804 22.6758C20.1908 22.3719 20.0368 22.0908 19.829 21.8515C19.6213 21.6123 19.3645 21.4205 19.0761 21.2892C18.7877 21.1578 18.4745 21.09 18.1576 21.0902H13.9769L13.2127 20.6226C12.668 20.2894 12.0846 20.0242 11.4755 19.833L13.9372 17.3713C14.486 16.8232 15.2298 16.5153 16.0054 16.5153C16.781 16.5153 17.5249 16.8232 18.0737 17.3713L22.2863 21.5839L20.3488 23.6131Z" fill="#121212"/>
</svg>
