<svg width="32" height="32" viewBox="0 0 32 32" fill="none" xmlns="http://www.w3.org/2000/svg">
<path d="M14.1116 11.3846C14.5982 11.3846 14.9927 11.7791 14.9927 12.2657V16.0839H18.8109C19.2975 16.0839 19.692 16.4784 19.692 16.965C19.692 17.4517 19.2975 17.8462 18.8109 17.8462H14.1116C13.625 17.8462 13.2305 17.4517 13.2305 16.965V12.2657C13.2305 11.7791 13.625 11.3846 14.1116 11.3846Z" fill="#121212"/>
<path d="M21.3288 19.05C20.9544 18.6756 20.3475 18.6756 19.9731 19.05C19.5988 19.4243 19.5988 20.0313 19.9731 20.4056L22.4906 22.9231L19.9732 25.4405C19.5988 25.8149 19.5988 26.4218 19.9732 26.7962C20.3475 27.1705 20.9545 27.1705 21.3288 26.7962L23.8462 24.2787L26.3636 26.7961C26.738 27.1705 27.3449 27.1705 27.7193 26.7961C28.0936 26.4218 28.0936 25.8148 27.7193 25.4405L25.2019 22.9231L27.7193 20.4056C28.0937 20.0313 28.0937 19.4244 27.7193 19.05C27.345 18.6757 26.738 18.6757 26.3637 19.05L23.8462 21.5674L21.3288 19.05Z" fill="#121212"/>
<path d="M4.00005 15.0437C4.00129 14.6324 4.35992 14.3229 4.7702 14.3518C5.18048 14.3807 5.48664 14.737 5.48969 15.1482C5.50231 16.8462 5.96588 18.5153 6.83914 19.9819C7.83975 21.6624 9.3304 22.9967 11.1111 23.8057C12.8917 24.6148 14.8772 24.8599 16.8012 24.5081C16.9245 24.4856 17.0472 24.4606 17.1692 24.4333C17.4626 24.3677 17.7673 24.4942 17.9412 24.7395C18.2279 25.1436 18.0888 25.748 17.6065 25.8612C17.4286 25.9029 17.2494 25.9403 17.0691 25.9732C14.8462 26.3796 12.5523 26.0965 10.495 25.1618C8.43767 24.227 6.71545 22.6855 5.55939 20.7439C4.53065 19.0162 3.99402 17.0452 4.00005 15.0437Z" fill="#121212"/>
<path d="M25.7652 17.0928C25.847 17.1537 25.9661 17.1102 25.9839 17.0098C26.3782 14.7848 26.0826 12.4924 25.1367 10.4402C24.1908 8.38801 22.6399 6.67421 20.6921 5.52872C18.9588 4.50938 16.9849 3.98348 14.9834 4.0004C14.5721 4.00387 14.2647 4.36418 14.2958 4.77429C14.3269 5.18441 14.6848 5.48863 15.0961 5.48945C16.7941 5.49283 18.4657 5.94732 19.9371 6.81259C21.623 7.80405 22.9653 9.28742 23.784 11.0637C24.4839 12.582 24.7725 14.2523 24.6283 15.9082C24.6023 16.2076 24.767 16.4922 25.0331 16.6319C25.2897 16.7667 25.5344 16.921 25.7652 17.0928Z" fill="#121212"/>
<path fill-rule="evenodd" clip-rule="evenodd" d="M12.3234 5.41778C12.4771 5.81595 12.2789 6.26334 11.8808 6.41704C11.735 6.4733 11.591 6.53304 11.4488 6.59616C11.0587 6.76934 10.6021 6.59349 10.4289 6.2034C10.2557 5.8133 10.4316 5.35667 10.8217 5.18349C10.9871 5.11007 11.1546 5.04057 11.3242 4.97512C11.7223 4.82142 12.1697 5.0196 12.3234 5.41778ZM8.76657 7.31654C9.06092 7.62561 9.04898 8.11478 8.73991 8.40913C8.62691 8.51675 8.51654 8.62712 8.40892 8.74013C8.11457 9.0492 7.6254 9.06113 7.31633 8.76678C7.00726 8.47243 6.99532 7.98326 7.28967 7.67419C7.41463 7.54299 7.54277 7.41484 7.67398 7.28989C7.98305 6.99554 8.47222 7.00747 8.76657 7.31654ZM6.20318 10.4291C6.59328 10.6023 6.76913 11.0589 6.59595 11.449C6.53282 11.5912 6.47308 11.7352 6.41683 11.881C6.26312 12.2792 5.81574 12.4773 5.41756 12.3236C5.01939 12.1699 4.82121 11.7225 4.97491 11.3244C5.04036 11.1548 5.10986 10.9873 5.18328 10.8219C5.35646 10.4318 5.81309 10.256 6.20318 10.4291Z" fill="#121212"/>
</svg>
