<svg width="32" height="32" viewBox="0 0 32 32" fill="none" xmlns="http://www.w3.org/2000/svg"><path d="M14.112 11.385a.88.88 0 0 1 .88.88v3.819h3.819a.881.881 0 0 1 0 1.762h-4.7a.88.88 0 0 1-.88-.881v-4.7a.88.88 0 0 1 .88-.88m14.605 7.388a1.09 1.09 0 0 0 0-1.469.926.926 0 0 0-1.373 0l-5.784 6.189-1.902-2.035a.926.926 0 0 0-1.373 0 1.09 1.09 0 0 0 0 1.469l2.589 2.769a.926.926 0 0 0 1.372 0zM4 15.044a.707.707 0 0 1 .77-.692c.41.029.717.385.72.796a9.588 9.588 0 0 0 11.68 9.285.75.75 0 0 1 .771.306c.287.405.148 1.009-.334 1.122q-.268.064-.538.112A11.077 11.077 0 0 1 4 15.043m21.765 2.05c.082.06.201.017.219-.083a11.077 11.077 0 0 0-11-13.01.707.707 0 0 0-.688.774c.03.41.389.715.8.715a9.59 9.59 0 0 1 9.532 10.42.75.75 0 0 0 .405.723q.386.203.732.46" fill="#121212"/><path fill-rule="evenodd" clip-rule="evenodd" d="M12.323 5.418a.773.773 0 0 1-.442.999 10 10 0 0 0-.432.18.773.773 0 1 1-.627-1.414q.248-.11.502-.208a.773.773 0 0 1 1 .443M8.767 7.317a.773.773 0 0 1-.027 1.092 10 10 0 0 0-.331.331.773.773 0 0 1-1.12-1.066q.189-.197.385-.384a.773.773 0 0 1 1.093.027m-2.564 3.112c.39.173.566.63.393 1.02a9 9 0 0 0-.18.432.773.773 0 0 1-1.441-.557q.098-.255.208-.502a.773.773 0 0 1 1.02-.393" fill="#121212"/></svg>
