<svg width="32" height="32" viewBox="0 0 32 32" fill="none" xmlns="http://www.w3.org/2000/svg">
<path fill-rule="evenodd" clip-rule="evenodd" d="M10.4126 4.00005C10.4662 4.00007 10.5206 4.00009 10.5759 4.00009H21.1916C21.2469 4.00009 21.3013 4.00007 21.3549 4.00005C22.4899 3.99955 23.271 3.99921 23.9288 4.22811C25.1712 4.6604 26.1358 5.66019 26.5493 6.91971L25.7539 7.18088L26.5493 6.91971C26.7682 7.58626 26.7679 8.37864 26.7675 9.55519C26.7675 9.60785 26.7674 9.66127 26.7674 9.71549V25.348C26.7674 26.9836 24.8397 27.9573 23.57 26.7954C23.4812 26.7143 23.356 26.7143 23.2673 26.7954L22.728 27.2889C21.6919 28.237 20.1221 28.237 19.086 27.2889C18.6897 26.9263 18.101 26.9263 17.7048 27.2889C16.6686 28.237 15.0989 28.237 14.0628 27.2889C13.6665 26.9263 13.0778 26.9263 12.6815 27.2889C11.6454 28.237 10.0756 28.237 9.03952 27.2889L8.50026 26.7954C8.41154 26.7143 8.28626 26.7143 8.19754 26.7954C6.92786 27.9573 5.00008 26.9836 5.00008 25.348V9.71549C5.00008 9.66127 5.00006 9.60785 5.00004 9.5552C4.99961 8.37864 4.99932 7.58626 5.21817 6.91971C5.63171 5.66019 6.59629 4.6604 7.83867 4.22811C8.49651 3.99921 9.2776 3.99955 10.4126 4.00005ZM10.5759 5.6745C9.21282 5.6745 8.74331 5.68621 8.38893 5.80952C7.65289 6.06563 7.0642 6.66486 6.80903 7.44204C6.68503 7.8197 6.67449 8.31771 6.67449 9.71549V25.348C6.67449 25.4809 6.74138 25.5621 6.8253 25.6009C6.86902 25.6211 6.91177 25.6263 6.9474 25.6216C6.97882 25.6174 7.01946 25.6038 7.06717 25.5602C7.79574 24.8935 8.90206 24.8935 9.63063 25.5602L10.1699 26.0536C10.5662 26.4162 11.1549 26.4162 11.5511 26.0536C12.5873 25.1055 14.157 25.1055 15.1931 26.0536C15.5894 26.4162 16.1781 26.4162 16.5744 26.0536C17.6105 25.1055 19.1803 25.1055 20.2164 26.0536C20.6126 26.4162 21.2014 26.4162 21.5976 26.0536L22.1369 25.5602C22.8655 24.8935 23.9718 24.8935 24.7003 25.5602C24.7481 25.6038 24.7887 25.6174 24.8201 25.6216C24.8557 25.6263 24.8985 25.6211 24.9422 25.6009C25.0261 25.5621 25.093 25.4809 25.093 25.348V9.71549C25.093 8.31771 25.0825 7.8197 24.9585 7.44204C24.7033 6.66486 24.1146 6.06563 23.3786 5.80952C23.0242 5.68621 22.5547 5.6745 21.1916 5.6745H10.5759ZM19.232 10.9104C19.5769 11.2184 19.6069 11.7476 19.2989 12.0925L15.3123 16.5576C15.1534 16.7355 14.9262 16.8373 14.6877 16.8373C14.4493 16.8373 14.2221 16.7355 14.0632 16.5576L12.4686 14.7716C12.1606 14.4267 12.1906 13.8975 12.5355 13.5895C12.8804 13.2816 13.4096 13.3115 13.7176 13.6564L14.6877 14.743L18.0499 10.9774C18.3579 10.6325 18.8871 10.6025 19.232 10.9104ZM10.0233 19.907C10.0233 19.4446 10.3981 19.0698 10.8605 19.0698H20.907C21.3694 19.0698 21.7442 19.4446 21.7442 19.907C21.7442 20.3694 21.3694 20.7442 20.907 20.7442H10.8605C10.3981 20.7442 10.0233 20.3694 10.0233 19.907Z" fill="#121212"/>
</svg>
