<svg width="32" height="32" viewBox="0 0 32 32" fill="none" xmlns="http://www.w3.org/2000/svg">
<path fill-rule="evenodd" clip-rule="evenodd" d="M8.91752 12.0346C9.33028 11.4449 10.1429 11.3015 10.7326 11.7143L16.0002 15.4016L21.2679 11.7143C21.8576 11.3015 22.6702 11.4449 23.0829 12.0346C23.4957 12.6242 23.3523 13.4368 22.7626 13.8496L16.7476 18.0601C16.2989 18.3743 15.7016 18.3743 15.2529 18.0601L9.23782 13.8496C8.64816 13.4368 8.50476 12.6242 8.91752 12.0346Z" fill="#121212"/>
<path fill-rule="evenodd" clip-rule="evenodd" d="M6.37627 9.27318C5.76723 9.27318 5.27351 9.7669 5.27351 10.3759V22.406C5.27351 23.0151 5.76722 23.5088 6.37627 23.5088H25.6244C26.2335 23.5088 26.7271 23.0151 26.7271 22.406V10.3759C26.7271 9.76689 26.2334 9.27318 25.6244 9.27318H6.37627ZM2.66699 10.3759C2.66699 8.32737 4.32769 6.66667 6.37627 6.66667H25.6244C27.673 6.66667 29.3337 8.32738 29.3337 10.3759V22.406C29.3337 24.4546 27.673 26.1153 25.6244 26.1153H6.37627C4.3277 26.1153 2.66699 24.4546 2.66699 22.406V10.3759Z" fill="#121212"/>
</svg>
