<svg width="32" height="32" viewBox="0 0 32 32" fill="none" xmlns="http://www.w3.org/2000/svg">
<path fill-rule="evenodd" clip-rule="evenodd" d="M6.74093 6.74061C7.42857 6.05297 8.3612 5.66667 9.33366 5.66667H12.0003C12.5526 5.66667 13.0003 6.11438 13.0003 6.66667C13.0003 7.21895 12.5526 7.66667 12.0003 7.66667H9.33366C8.89163 7.66667 8.46771 7.84226 8.15515 8.15482C7.84259 8.46738 7.66699 8.89131 7.66699 9.33333V25.3333C7.66699 25.7754 7.84259 26.1993 8.15515 26.5118C8.46771 26.8244 8.89163 27 9.33366 27H22.667C23.109 27 23.5329 26.8244 23.8455 26.5118C24.1581 26.1993 24.3337 25.7754 24.3337 25.3333V9.33333C24.3337 8.89131 24.1581 8.46738 23.8455 8.15482C23.5329 7.84226 23.109 7.66667 22.667 7.66667H20.0003C19.448 7.66667 19.0003 7.21895 19.0003 6.66667C19.0003 6.11438 19.448 5.66667 20.0003 5.66667H22.667C23.6395 5.66667 24.5721 6.05298 25.2597 6.74061C25.9473 7.42824 26.3337 8.36087 26.3337 9.33333V25.3333C26.3337 26.3058 25.9473 27.2384 25.2597 27.9261C24.5721 28.6137 23.6395 29 22.667 29H9.33366C8.3612 29 7.42857 28.6137 6.74093 27.9261C6.0533 27.2384 5.66699 26.3058 5.66699 25.3333V9.33333C5.66699 8.36087 6.0533 7.42824 6.74093 6.74061Z" fill="#121212"/>
<path fill-rule="evenodd" clip-rule="evenodd" d="M14.667 5C14.225 5 13.801 5.17559 13.4885 5.48816C13.1759 5.80072 13.0003 6.22464 13.0003 6.66667C13.0003 7.10869 13.1759 7.53262 13.4885 7.84518C13.801 8.15774 14.225 8.33333 14.667 8.33333H17.3337C17.7757 8.33333 18.1996 8.15774 18.5122 7.84518C18.8247 7.53262 19.0003 7.10869 19.0003 6.66667C19.0003 6.22464 18.8247 5.80072 18.5122 5.48816C18.1996 5.17559 17.7757 5 17.3337 5H14.667ZM12.0743 4.07394C12.7619 3.38631 13.6945 3 14.667 3H17.3337C18.3061 3 19.2388 3.38631 19.9264 4.07394C20.614 4.76157 21.0003 5.69421 21.0003 6.66667C21.0003 7.63913 20.614 8.57176 19.9264 9.25939C19.2388 9.94703 18.3061 10.3333 17.3337 10.3333H14.667C13.6945 10.3333 12.7619 9.94703 12.0743 9.25939C11.3866 8.57176 11.0003 7.63913 11.0003 6.66667C11.0003 5.69421 11.3866 4.76157 12.0743 4.07394ZM16.0003 12.3333C16.5526 12.3333 17.0003 12.781 17.0003 13.3333V13.6667H18.667C19.2193 13.6667 19.667 14.1144 19.667 14.6667C19.667 15.219 19.2193 15.6667 18.667 15.6667H15.3337C15.0684 15.6667 14.8141 15.772 14.6266 15.9596C14.439 16.1471 14.3337 16.4015 14.3337 16.6667C14.3337 16.9319 14.439 17.1862 14.6266 17.3738C14.8141 17.5613 15.0684 17.6667 15.3337 17.6667H16.667C17.4626 17.6667 18.2257 17.9827 18.7883 18.5453C19.3509 19.108 19.667 19.871 19.667 20.6667C19.667 21.4623 19.3509 22.2254 18.7883 22.788C18.3048 23.2715 17.6733 23.5729 17.0003 23.6481V24C17.0003 24.5523 16.5526 25 16.0003 25C15.448 25 15.0003 24.5523 15.0003 24V23.6667H13.3337C12.7814 23.6667 12.3337 23.219 12.3337 22.6667C12.3337 22.1144 12.7814 21.6667 13.3337 21.6667H16.667C16.9322 21.6667 17.1866 21.5613 17.3741 21.3738C17.5616 21.1862 17.667 20.9319 17.667 20.6667C17.667 20.4015 17.5616 20.1471 17.3741 19.9596C17.1866 19.772 16.9322 19.6667 16.667 19.6667H15.3337C14.538 19.6667 13.7749 19.3506 13.2123 18.788C12.6497 18.2254 12.3337 17.4623 12.3337 16.6667C12.3337 15.871 12.6497 15.108 13.2123 14.5453C13.6958 14.0619 14.3273 13.7605 15.0003 13.6852V13.3333C15.0003 12.781 15.448 12.3333 16.0003 12.3333Z" fill="#121212"/>
</svg>
