<svg width="32" height="32" viewBox="0 0 32 32" fill="none" xmlns="http://www.w3.org/2000/svg">
<path fill-rule="evenodd" clip-rule="evenodd" d="M26.0324 15.1222C26.0086 15.122 25.9774 15.122 25.9268 15.122H22.8799C21.2135 15.122 19.9756 16.3614 19.9756 17.7561C19.9756 19.1508 21.2135 20.3902 22.8799 20.3902H25.9268C25.9774 20.3902 26.0086 20.3902 26.0324 20.39C26.0549 20.3897 26.061 20.3894 26.061 20.3894C26.3023 20.3747 26.4061 20.2118 26.414 20.1139C26.414 20.1139 26.4142 20.1065 26.4144 20.0959C26.4146 20.0751 26.4146 20.0474 26.4146 20V15.5122C26.4146 15.486 26.4146 15.4657 26.4146 15.4494C26.4145 15.4362 26.4145 15.4256 26.4144 15.4163C26.4142 15.4057 26.414 15.3983 26.414 15.3983C26.4061 15.3004 26.3023 15.1375 26.061 15.1228C26.061 15.1228 26.0552 15.1225 26.0324 15.1222ZM25.9462 13.3658C26.0239 13.3658 26.0989 13.3658 26.1677 13.37C27.1878 13.4321 28.09 14.2015 28.1659 15.2762C28.1708 15.3467 28.1708 15.4227 28.1707 15.4931C28.1707 15.4995 28.1707 15.5059 28.1707 15.5122V20C28.1707 20.0063 28.1707 20.0127 28.1707 20.0191C28.1708 20.0895 28.1708 20.1655 28.1659 20.236C28.09 21.3107 27.1878 22.0801 26.1677 22.1422C26.0989 22.1464 26.0239 22.1464 25.9462 22.1463C25.9398 22.1463 25.9333 22.1463 25.9268 22.1463H22.8799C20.3685 22.1463 18.2195 20.2409 18.2195 17.7561C18.2195 15.2713 20.3685 13.3659 22.8799 13.3659H25.9268C25.9333 13.3659 25.9398 13.3659 25.9462 13.3658Z" fill="#121212"/>
<path d="M23.7805 17.7561C23.7805 18.4027 23.2563 18.9268 22.6098 18.9268C21.9632 18.9268 21.439 18.4027 21.439 17.7561C21.439 17.1095 21.9632 16.5854 22.6098 16.5854C23.2563 16.5854 23.7805 17.1095 23.7805 17.7561Z" fill="#121212"/>
<path fill-rule="evenodd" clip-rule="evenodd" d="M25.9462 13.3658C26.0239 13.3658 26.0989 13.3658 26.1677 13.37C26.4316 13.386 26.6877 13.4495 26.9235 13.5533C26.7983 11.6725 26.4534 10.2232 25.3712 9.14097C24.4951 8.26483 23.3841 7.87601 22.0115 7.69147L21.962 7.68492C21.9497 7.67582 21.9371 7.667 21.9243 7.65845L17.551 4.7587C16.0254 3.7471 13.9746 3.7471 12.449 4.7587L8.07575 7.65845C8.06286 7.667 8.05027 7.67582 8.03798 7.68492L7.98846 7.69147C6.61587 7.87601 5.5049 8.26483 4.62877 9.14097C3.75264 10.0171 3.36382 11.1281 3.17928 12.5007C2.99997 13.8344 2.99998 15.5385 3 17.69V17.8221C2.99998 19.9737 2.99997 21.6778 3.17928 23.0115C3.36382 24.3841 3.75264 25.4951 4.62877 26.3712C5.50491 27.2474 6.61587 27.6362 7.98846 27.8207C9.32218 28 11.0263 28 13.1779 28H16.8221C18.9737 28 20.6778 28 22.0115 27.8207C23.3841 27.6362 24.4951 27.2474 25.3712 26.3712C26.4534 25.289 26.7983 23.8397 26.9235 21.9589C26.6877 22.0627 26.4316 22.1261 26.1677 22.1422C26.0989 22.1464 26.0239 22.1464 25.9462 22.1463L25.9268 22.1463H25.1478C25.0145 23.7168 24.7131 24.5458 24.1295 25.1295C23.634 25.6249 22.9554 25.9219 21.7775 26.0803C20.5744 26.242 18.9885 26.2439 16.7561 26.2439H13.2439C11.0115 26.2439 9.42558 26.242 8.22246 26.0803C7.0446 25.9219 6.36599 25.6249 5.87052 25.1295C5.37506 24.634 5.07808 23.9554 4.91972 22.7775C4.75796 21.5744 4.7561 19.9885 4.7561 17.7561C4.7561 15.5237 4.75796 13.9378 4.91972 12.7347C5.07808 11.5568 5.37506 10.8782 5.87052 10.3827C6.36599 9.88725 7.0446 9.59027 8.22246 9.43191C9.42558 9.27016 11.0115 9.26829 13.2439 9.26829H16.7561C18.9885 9.26829 20.5744 9.27016 21.7775 9.43191C22.9554 9.59027 23.634 9.88725 24.1295 10.3827C24.7131 10.9664 25.0145 11.7954 25.1478 13.3659H25.9268L25.9462 13.3658ZM13.1779 7.51219H16.8221C17.4268 7.51219 17.9962 7.51218 18.5319 7.51616L16.5805 6.22229C15.6431 5.6007 14.3569 5.6007 13.4195 6.22229L11.4681 7.51616C12.0038 7.51218 12.5732 7.51219 13.1779 7.51219Z" fill="#121212"/>
<path d="M8.56098 12.1951C8.07604 12.1951 7.68293 12.5882 7.68293 13.0732C7.68293 13.5581 8.07604 13.9512 8.56098 13.9512H13.2439C13.7288 13.9512 14.122 13.5581 14.122 13.0732C14.122 12.5882 13.7288 12.1951 13.2439 12.1951H8.56098Z" fill="#121212"/>
<path fill-rule="evenodd" clip-rule="evenodd" d="M23.7805 17.7561C23.7805 18.4027 23.2563 18.9268 22.6098 18.9268C21.9632 18.9268 21.439 18.4027 21.439 17.7561C21.439 17.1095 21.9632 16.5854 22.6098 16.5854C23.2563 16.5854 23.7805 17.1095 23.7805 17.7561Z" fill="#121212"/>
</svg>
