<svg width="32" height="32" viewBox="0 0 32 32" fill="none" xmlns="http://www.w3.org/2000/svg">
<path fill-rule="evenodd" clip-rule="evenodd" d="M2.66699 16C2.66699 8.6362 8.63653 2.66667 16.0003 2.66667C23.3641 2.66667 29.3337 8.6362 29.3337 16C29.3337 19.2004 28.206 22.1375 26.3264 24.4356C26.3133 24.4524 26.2997 24.469 26.2856 24.4852C23.8401 27.4462 20.1406 29.3333 16.0003 29.3333C11.8575 29.3333 8.15591 27.4439 5.7104 24.4797C5.69964 24.4671 5.68916 24.4543 5.67896 24.4414C3.7965 22.1425 2.66699 19.2031 2.66699 16ZM7.72159 24.4461C7.72106 24.4467 7.72077 24.4471 7.72071 24.4471L7.72263 24.4447L7.72499 24.4418L7.72652 24.4398M8.53525 23.7031C8.79594 23.5031 9.12181 23.2795 9.51683 23.0537C10.8261 22.3054 12.9288 21.5138 16.0003 21.5138C19.0719 21.5138 21.1747 22.3054 22.4839 23.0537C22.8789 23.2795 23.2048 23.5031 23.4655 23.703C21.5345 25.5747 18.9019 26.7268 16.0003 26.7268C13.0987 26.7268 10.4662 25.5747 8.53525 23.7031ZM25.1044 21.6754C24.7464 21.3972 24.3058 21.0928 23.7773 20.7907C22.0917 19.8273 19.5453 18.9073 16.0003 18.9073C12.4554 18.9073 9.90907 19.8273 8.22344 20.7907C7.69493 21.0928 7.25427 21.3972 6.89626 21.6755C5.86784 20.0293 5.27351 18.0841 5.27351 16C5.27351 10.0757 10.0761 5.27319 16.0003 5.27319C21.9245 5.27319 26.7271 10.0757 26.7271 16C26.7271 18.084 26.1328 20.0292 25.1044 21.6754ZM11.0881 12.391C11.0881 9.67803 13.2874 7.47871 16.0004 7.47871C18.7134 7.47871 20.9127 9.67803 20.9127 12.391C20.9127 15.104 18.7134 17.3033 16.0004 17.3033C13.2874 17.3033 11.0881 15.104 11.0881 12.391ZM16.0004 10.0852C14.7269 10.0852 13.6946 11.1175 13.6946 12.391C13.6946 13.6645 14.7269 14.6968 16.0004 14.6968C17.2739 14.6968 18.3062 13.6645 18.3062 12.391C18.3062 11.1175 17.2739 10.0852 16.0004 10.0852Z" fill="#121212"/>
</svg>
