<svg width="32" height="32" viewBox="0 0 32 32" fill="none" xmlns="http://www.w3.org/2000/svg">
<path fill-rule="evenodd" clip-rule="evenodd" d="M12.697 4.47457C13.0693 3.42128 14.0738 2.66666 15.2546 2.66666H17.5145C18.6952 2.66666 19.6997 3.42128 20.072 4.47457H21.5822C24.0784 4.47457 26.102 6.49814 26.102 8.99434V24.8135C26.102 27.3098 24.0784 29.3333 21.5822 29.3333H11.1868C8.69056 29.3333 6.66699 27.3098 6.66699 24.8135V8.99434C6.66699 6.49814 8.69056 4.47457 11.1868 4.47457H12.697ZM21.5822 6.28248C23.08 6.28248 24.2941 7.49662 24.2941 8.99434V24.8135C24.2941 26.3113 23.08 27.5254 21.5822 27.5254H11.1868C9.68904 27.5254 8.4749 26.3113 8.4749 24.8135V8.99434C8.4749 7.49662 9.68904 6.28248 11.1868 6.28248H21.5822Z" fill="black"/>
<path fill-rule="evenodd" clip-rule="evenodd" d="M11.6387 9.89829C11.6387 8.89981 12.4482 8.09039 13.4467 8.09039H19.7743C20.7728 8.09039 21.5822 8.89981 21.5822 9.89829V16.226C21.5822 17.2245 20.7728 18.0339 19.7743 18.0339H13.4467C12.4482 18.0339 11.6387 17.2245 11.6387 16.226V9.89829ZM19.7743 9.89829H13.4467V16.226H19.7743V9.89829ZM10.7348 20.2938C10.7348 19.7945 11.1395 19.3898 11.6387 19.3898H21.1303C21.6295 19.3898 22.0342 19.7945 22.0342 20.2938C22.0342 20.793 21.6295 21.1977 21.1303 21.1977H11.6387C11.1395 21.1977 10.7348 20.793 10.7348 20.2938ZM12.5427 23.9096C12.5427 23.4104 12.9474 23.0056 13.4467 23.0056H19.7743C20.2736 23.0056 20.6783 23.4104 20.6783 23.9096C20.6783 24.4088 20.2736 24.8135 19.7743 24.8135H13.4467C12.9474 24.8135 12.5427 24.4088 12.5427 23.9096Z" fill="black"/>
</svg>
