<svg width="32" height="32" viewBox="0 0 32 32" fill="none" xmlns="http://www.w3.org/2000/svg">
<path d="M19.8893 3.7778H11.0004C9.46707 3.7778 8.22262 5.02225 8.22262 6.55558V25.4445C8.22262 26.9778 9.46707 28.2222 11.0004 28.2222H19.8893C21.4226 28.2222 22.6671 26.9778 22.6671 25.4445V6.55558C22.6671 5.02225 21.4226 3.7778 19.8893 3.7778ZM15.4448 27.1111C14.5226 27.1111 13.7782 26.3667 13.7782 25.4445C13.7782 24.5222 14.5226 23.7778 15.4448 23.7778C16.3671 23.7778 17.1115 24.5222 17.1115 25.4445C17.1115 26.3667 16.3671 27.1111 15.4448 27.1111ZM20.4448 22.6667H10.4448V7.11113H20.4448V22.6667Z" fill="#121212"/>
</svg>
