<svg width="32" height="32" viewBox="0 0 32 32" fill="none" xmlns="http://www.w3.org/2000/svg">
<path d="M16 16.0773C14.2125 16.0773 12.75 15.5137 11.6125 14.3865C10.475 13.2593 9.90625 11.81 9.90625 10.0386C9.90625 8.26731 10.475 6.81804 11.6125 5.69082C12.75 4.56361 14.2125 4 16 4C17.7875 4 19.25 4.56361 20.3875 5.69082C21.525 6.81804 22.0938 8.26731 22.0938 10.0386C22.0938 11.81 21.525 13.2593 20.3875 14.3865C19.25 15.5137 17.7875 16.0773 16 16.0773ZM26.5625 29H5.4375C4.76719 29 4.19336 28.7635 3.71602 28.2905C3.23867 27.8174 3 27.2488 3 26.5845V25.2158C3 24.1959 3.25729 23.3237 3.77187 22.599C4.28646 21.8744 4.95 21.3242 5.7625 20.9485C7.57708 20.1433 9.31719 19.5395 10.9828 19.1369C12.6484 18.7343 14.3208 18.533 16 18.533C17.6792 18.533 19.3448 18.741 20.9969 19.157C22.649 19.573 24.3812 20.1728 26.1937 20.9563C27.0414 21.3354 27.7211 21.8851 28.2326 22.6055C28.7442 23.3258 29 24.1959 29 25.2158V26.5845C29 27.2488 28.7613 27.8174 28.284 28.2905C27.8066 28.7635 27.2328 29 26.5625 29ZM5.4375 26.5845H26.5625V25.2158C26.5625 24.7864 26.4339 24.3771 26.1766 23.9879C25.9193 23.5988 25.601 23.3103 25.2219 23.1224C23.4885 22.2904 21.9042 21.7201 20.4688 21.4114C19.0333 21.1028 17.5437 20.9485 16 20.9485C14.4562 20.9485 12.9531 21.1028 11.4906 21.4114C10.0281 21.7201 8.44375 22.2904 6.7375 23.1224C6.35833 23.3103 6.04688 23.5988 5.80312 23.9879C5.55937 24.3771 5.4375 24.7864 5.4375 25.2158V26.5845ZM16 13.6618C17.0562 13.6618 17.9297 13.3196 18.6203 12.6353C19.3109 11.9509 19.6562 11.0853 19.6562 10.0386C19.6562 8.99195 19.3109 8.12641 18.6203 7.44203C17.9297 6.75765 17.0562 6.41546 16 6.41546C14.9437 6.41546 14.0703 6.75765 13.3797 7.44203C12.6891 8.12641 12.3438 8.99195 12.3438 10.0386C12.3438 11.0853 12.6891 11.9509 13.3797 12.6353C14.0703 13.3196 14.9437 13.6618 16 13.6618Z" fill="#121212"/>
</svg>
