<svg width="32" height="32" viewBox="0 0 32 32" fill="none" xmlns="http://www.w3.org/2000/svg">
<path fill-rule="evenodd" clip-rule="evenodd" d="M9.96003 18.8919C9.96003 18.2362 10.4916 17.7047 11.1472 17.7047H20.4014C21.0571 17.7047 21.5886 18.2362 21.5886 18.8919C21.5886 19.5476 21.0571 20.0791 20.4014 20.0791H11.1472C10.4916 20.0791 9.96003 19.5476 9.96003 18.8919Z" fill="#121212"/>
<path fill-rule="evenodd" clip-rule="evenodd" d="M9.96003 14.2648C9.96003 13.6092 10.4916 13.0776 11.1472 13.0776H13.4608C14.1165 13.0776 14.648 13.6092 14.648 14.2648C14.648 14.9205 14.1165 15.4521 13.4608 15.4521H11.1472C10.4916 15.4521 9.96003 14.9205 9.96003 14.2648Z" fill="#121212"/>
<path fill-rule="evenodd" clip-rule="evenodd" d="M9.96003 23.519C9.96003 22.8633 10.4916 22.3318 11.1472 22.3318H15.7743C16.43 22.3318 16.9616 22.8633 16.9616 23.519C16.9616 24.1747 16.43 24.7062 15.7743 24.7062H11.1472C10.4916 24.7062 9.96003 24.1747 9.96003 23.519Z" fill="#121212"/>
<path fill-rule="evenodd" clip-rule="evenodd" d="M13.4609 2.66667C14.1165 2.66667 14.6481 3.19821 14.6481 3.85389V8.48098C14.6481 9.13666 14.1165 9.66819 13.4609 9.66819C12.8052 9.66819 12.2736 9.13666 12.2736 8.48098V7.35465H8.83377C8.21171 7.35465 7.70744 7.85892 7.70744 8.48098V25.8326C7.70744 26.4547 8.2117 26.9589 8.83377 26.9589H22.715C23.3371 26.9589 23.8414 26.4547 23.8414 25.8326V8.48098C23.8414 7.85891 23.3371 7.35465 22.715 7.35465H18.6663C18.0107 7.35465 17.4791 6.82311 17.4791 6.16743C17.4791 5.51175 18.0107 4.98022 18.6663 4.98022H22.715C24.6485 4.98022 26.2158 6.54757 26.2158 8.48098V25.8326C26.2158 27.766 24.6485 29.3333 22.715 29.3333H8.83377C6.90036 29.3333 5.33301 27.766 5.33301 25.8326V8.48098C5.33301 6.54756 6.90035 4.98022 8.83377 4.98022H12.2736V3.85389C12.2736 3.19821 12.8052 2.66667 13.4609 2.66667Z" fill="#121212"/>
</svg>
