<svg width="32" height="32" viewBox="0 0 32 32" fill="none" xmlns="http://www.w3.org/2000/svg">
<path d="M16.2009 22.5C16.5559 22.5 16.8556 22.3775 17.1 22.1324C17.3444 21.8873 17.4667 21.5873 17.4667 21.2324C17.4667 20.8775 17.3441 20.5778 17.0991 20.3333C16.854 20.0889 16.554 19.9667 16.1991 19.9667C15.8441 19.9667 15.5444 20.0892 15.3 20.3343C15.0556 20.5793 14.9333 20.8793 14.9333 21.2343C14.9333 21.5892 15.0559 21.8889 15.3009 22.1333C15.546 22.3778 15.846 22.5 16.2009 22.5ZM15.1 17.5667H17C17 17.2333 17.0222 16.9389 17.0667 16.6833C17.1111 16.4278 17.1889 16.1778 17.3 15.9333C17.4111 15.6889 17.5667 15.4444 17.7667 15.2C17.9667 14.9556 18.2127 14.6873 18.5048 14.3952C19.2349 13.6651 19.7444 13.0167 20.0333 12.45C20.3222 11.8833 20.4667 11.2889 20.4667 10.6667C20.4667 9.48889 20.0889 8.55555 19.3333 7.86666C18.5778 7.17778 17.5609 6.83333 16.2826 6.83333C15.13 6.83333 14.1503 7.10555 13.3435 7.65C12.5367 8.19444 11.9444 8.94444 11.5667 9.9L13.3333 10.6333C13.6444 10.0111 14.0467 9.53889 14.54 9.21666C15.0333 8.89444 15.6089 8.73333 16.2667 8.73333C16.9778 8.73333 17.5389 8.91111 17.95 9.26666C18.3611 9.62222 18.5667 10.1122 18.5667 10.7366C18.5667 11.1789 18.4444 11.6056 18.2 12.0167C17.9556 12.4278 17.5444 12.9165 16.9667 13.4829C16.5889 13.8276 16.2833 14.1429 16.05 14.4286C15.8167 14.7143 15.6222 15.0159 15.4667 15.3333C15.335 15.6528 15.241 15.9882 15.1846 16.3396C15.1282 16.691 15.1 17.1 15.1 17.5667ZM16 30.6667L12 26.6667H6C5.46667 26.6667 5 26.4611 4.6 26.05C4.2 25.6389 4 25.1778 4 24.6667V4.66666C4 4.13333 4.2 3.66666 4.6 3.26666C5 2.86666 5.46667 2.66666 6 2.66666H26C26.5111 2.66666 26.9722 2.86666 27.3833 3.26666C27.7944 3.66666 28 4.13333 28 4.66666V24.6667C28 25.1778 27.7944 25.6389 27.3833 26.05C26.9722 26.4611 26.5111 26.6667 26 26.6667H20L16 30.6667ZM6 24.6667H12.8L16 27.8667L19.2 24.6667H26V4.66666H6V24.6667Z" fill="#121212"/>
</svg>
