<svg width="32" height="32" viewBox="0 0 32 32" fill="none" xmlns="http://www.w3.org/2000/svg">
<path d="M29.2251 11.3334L24.762 5.53721C24.6823 5.43374 24.5668 5.36382 24.4382 5.34122C24.3096 5.31862 24.1772 5.34497 24.067 5.4151L21.1852 7.24794H17.4267C17.3778 7.24915 17.3292 7.2573 17.2826 7.27214L14.3687 8.11119L11.3451 7.28396L8.40708 5.41566C8.29867 5.3466 8.16861 5.3199 8.04176 5.34066C7.91491 5.36142 7.80015 5.42819 7.71941 5.52821L2.78305 11.6413C2.6977 11.7469 2.65685 11.8817 2.66914 12.017C2.68143 12.1523 2.7459 12.2775 2.84889 12.3661L5.4375 14.5928L7.7588 17.7211C7.52289 17.9722 7.36196 18.2844 7.29422 18.6222C7.22648 18.9601 7.25462 19.3101 7.37547 19.6328C7.49632 19.9555 7.70505 20.2379 7.97806 20.4481C8.25107 20.6583 8.57745 20.788 8.9203 20.8224C8.90604 20.9155 8.89889 21.0095 8.89891 21.1037C8.89891 21.5939 9.09362 22.0639 9.44019 22.4105C9.78677 22.7571 10.2568 22.9518 10.747 22.9518H10.7666C10.7666 22.9642 10.7666 22.9771 10.7666 22.9895C10.7666 23.2322 10.8143 23.4725 10.9072 23.6968C11 23.921 11.1361 24.1248 11.3078 24.2964C11.4794 24.468 11.6831 24.6041 11.9074 24.697C12.1316 24.7898 12.372 24.8376 12.6147 24.8375C12.7113 24.8374 12.8079 24.8299 12.9034 24.815C12.9379 25.1631 13.0705 25.4943 13.2858 25.77C13.5011 26.0457 13.7903 26.2546 14.1196 26.3725C14.449 26.4904 14.805 26.5124 15.1464 26.4359C15.4877 26.3594 15.8004 26.1876 16.048 25.9405L16.3293 25.6591L16.4481 25.7548C16.7105 26.009 17.0424 26.1796 17.4018 26.2451C17.7613 26.3107 18.132 26.2681 18.4673 26.1229C18.8025 25.9776 19.0871 25.7362 19.2852 25.4292C19.4832 25.1222 19.5857 24.7633 19.5797 24.398C19.8271 24.4022 20.0729 24.3566 20.3023 24.2638C20.5317 24.1711 20.7401 24.0331 20.9151 23.8582C21.0901 23.6832 21.2281 23.4749 21.3209 23.2455C21.4137 23.0161 21.4594 22.7704 21.4553 22.523C21.7028 22.5269 21.9486 22.4811 22.178 22.3881C22.4074 22.2952 22.6158 22.1571 22.7908 21.982C22.9658 21.8069 23.1038 21.5985 23.1966 21.369C23.2894 21.1395 23.3351 20.8937 23.3309 20.6462C23.666 20.6517 23.9962 20.5659 24.2862 20.3981C24.5762 20.2303 24.8151 19.9867 24.9773 19.6935C25.1395 19.4003 25.2189 19.0685 25.2069 18.7336C25.195 18.3988 25.0921 18.0735 24.9094 17.7926L26.6044 14.2428L29.1525 12.0481C29.2536 11.9608 29.3175 11.8381 29.331 11.7052C29.3445 11.5723 29.3066 11.4393 29.2251 11.3334ZM8.23826 6.54677L10.3508 7.89003L5.75657 13.4887L3.91529 11.9024L8.23826 6.54677ZM8.53651 18.4178L9.17409 17.7802C9.19323 17.7611 9.21348 17.7425 9.23431 17.7239C9.35853 17.6227 9.51026 17.5612 9.66987 17.5472H9.68337C9.70588 17.5472 9.72895 17.5444 9.75203 17.5444C9.85945 17.5456 9.96551 17.5685 10.0639 17.6118C10.1622 17.655 10.2508 17.7176 10.3243 17.7959C10.4662 17.9535 10.5417 18.1598 10.5351 18.3717C10.5285 18.5836 10.4403 18.7848 10.2889 18.9332L9.66987 19.5523C9.51942 19.7026 9.31541 19.7871 9.10271 19.787C8.89 19.787 8.68603 19.7024 8.53566 19.552C8.3853 19.4015 8.30085 19.1975 8.3009 18.9848C8.30096 18.7721 8.3855 18.5681 8.53595 18.4178H8.53651ZM10.1769 21.6721C10.0266 21.5217 9.94209 21.3178 9.94209 21.1051C9.94209 20.8925 10.0266 20.6886 10.1769 20.5382L11.4149 19.3002C11.5326 19.184 11.6831 19.1067 11.846 19.0785C12.009 19.0503 12.1767 19.0727 12.3266 19.1426C12.4782 19.2164 12.6026 19.3363 12.6819 19.485C12.7613 19.6338 12.7915 19.8039 12.7683 19.9709C12.7438 20.1538 12.6599 20.3236 12.5297 20.4543L11.3131 21.671C11.2386 21.7455 11.1502 21.8046 11.0528 21.845C10.9555 21.8853 10.8512 21.9061 10.7458 21.9061C10.6405 21.9061 10.5361 21.8853 10.4388 21.845C10.3415 21.8046 10.2531 21.7455 10.1786 21.671L10.1769 21.6721ZM12.0435 23.5573C11.969 23.4828 11.9099 23.3944 11.8695 23.2971C11.8292 23.1997 11.8084 23.0954 11.8084 22.99C11.8084 22.8847 11.8292 22.7804 11.8695 22.683C11.9099 22.5857 11.969 22.4973 12.0435 22.4228L13.2815 21.1848C13.4073 21.0609 13.57 20.9815 13.745 20.9586C13.92 20.9356 14.0977 20.9704 14.2511 21.0576C14.3887 21.1388 14.4987 21.2595 14.567 21.404C14.6352 21.5484 14.6585 21.7101 14.6338 21.8679C14.6066 22.046 14.5235 22.2108 14.3963 22.3384L13.1797 23.555C13.1052 23.6296 13.0168 23.6887 12.9194 23.729C12.8221 23.7694 12.7178 23.7901 12.6124 23.7901C12.5071 23.7901 12.4028 23.7694 12.3054 23.729C12.2081 23.6887 12.1197 23.6296 12.0452 23.555L12.0435 23.5573ZM14.1701 25.201C14.0199 25.0505 13.9355 24.8465 13.9355 24.6338C13.9355 24.4211 14.0199 24.2171 14.1701 24.0666L14.8077 23.429C14.8268 23.4098 14.8471 23.3913 14.8679 23.3727C14.9709 23.2889 15.0931 23.232 15.2235 23.2073H15.2326C15.2551 23.2033 15.2776 23.1999 15.3006 23.1977H15.3282C15.3468 23.1977 15.3654 23.1977 15.3845 23.1977C15.4919 23.1989 15.598 23.2218 15.6963 23.265C15.7947 23.3082 15.8833 23.3709 15.9568 23.4492C15.9752 23.4685 15.9924 23.4888 16.0086 23.51C16.1258 23.6708 16.1812 23.8685 16.1645 24.0668C16.1479 24.2652 16.0604 24.4509 15.918 24.5899L15.3029 25.205C15.1519 25.3536 14.9483 25.4365 14.7364 25.4357C14.5246 25.4348 14.3216 25.3503 14.1718 25.2005L14.1701 25.201ZM23.9246 19.3654C23.7741 19.5157 23.5701 19.6 23.3574 19.6C23.1447 19.6 22.9407 19.5157 22.7902 19.3654C22.7789 19.3542 22.7665 19.3435 22.7547 19.3334L19.3923 15.9355C19.2948 15.8369 19.1621 15.7812 19.0234 15.7804C18.8848 15.7797 18.7515 15.8341 18.6529 15.9316C18.5543 16.0291 18.4985 16.1618 18.4978 16.3005C18.497 16.4392 18.5514 16.5724 18.6489 16.671L22.0473 20.1037C22.1218 20.1782 22.1809 20.2667 22.2212 20.364C22.2615 20.4613 22.2823 20.5656 22.2823 20.671C22.2823 20.7763 22.2615 20.8806 22.2212 20.978C22.1809 21.0753 22.1218 21.1637 22.0473 21.2382C21.9728 21.3127 21.8844 21.3718 21.7871 21.4121C21.6898 21.4524 21.5854 21.4732 21.4801 21.4732C21.3747 21.4732 21.2704 21.4524 21.1731 21.4121C21.0758 21.3718 20.9873 21.3127 20.9129 21.2382L18.6394 18.9411C18.5911 18.8923 18.5337 18.8535 18.4704 18.8269C18.4071 18.8003 18.3391 18.7864 18.2705 18.786C18.2018 18.7856 18.1338 18.7988 18.0702 18.8247C18.0066 18.8507 17.9488 18.8889 17.8999 18.9372C17.8511 18.9855 17.8123 19.0429 17.7857 19.1062C17.7591 19.1695 17.7452 19.2374 17.7448 19.3061C17.7445 19.3748 17.7576 19.4428 17.7836 19.5064C17.8095 19.57 17.8477 19.6278 17.896 19.6766L20.1346 21.9388C20.146 21.9532 20.1582 21.9669 20.1712 21.9799C20.2456 22.0544 20.3047 22.1428 20.3449 22.2402C20.3852 22.3375 20.4059 22.4418 20.4059 22.5471C20.4059 22.6524 20.3851 22.7567 20.3448 22.854C20.3045 22.9513 20.2454 23.0397 20.1709 23.1141C20.0964 23.1886 20.008 23.2476 19.9106 23.2879C19.8133 23.3282 19.709 23.3489 19.6037 23.3489C19.4984 23.3489 19.3941 23.3281 19.2968 23.2878C19.1995 23.2474 19.1111 23.1883 19.0367 23.1138L17.7986 21.8601C17.7011 21.7615 17.5684 21.7057 17.4297 21.7049C17.2911 21.7042 17.1578 21.7586 17.0592 21.8561C16.9606 21.9536 16.9048 22.0864 16.9041 22.225C16.9034 22.3637 16.9577 22.497 17.0553 22.5956L18.2618 23.8145C18.2731 23.8289 18.2853 23.8426 18.2984 23.8555C18.3729 23.93 18.4319 24.0185 18.4723 24.1158C18.5126 24.2131 18.5333 24.3174 18.5333 24.4228C18.5333 24.5281 18.5126 24.6324 18.4723 24.7298C18.4319 24.8271 18.3729 24.9155 18.2984 24.99C18.2239 25.0645 18.1354 25.1236 18.0381 25.1639C17.9408 25.2042 17.8365 25.225 17.7311 25.225C17.6258 25.225 17.5215 25.2042 17.4241 25.1639C17.3268 25.1236 17.2384 25.0645 17.1639 24.99C17.1264 24.9559 17.0868 24.9243 17.0451 24.8955C17.0108 24.8696 17.0018 24.8516 17.0193 24.8099C17.0367 24.7683 17.0626 24.7295 17.0795 24.6873C17.0963 24.6451 17.1138 24.5916 17.129 24.5426C17.2093 24.2826 17.2323 24.0083 17.1965 23.7385C17.145 23.3414 16.9646 22.9723 16.683 22.6876C16.4014 22.403 16.0342 22.2186 15.6377 22.1628C15.7053 21.8669 15.6996 21.5589 15.6211 21.2657C15.5427 20.9725 15.3938 20.7029 15.1875 20.4802C15.0182 20.3001 14.8142 20.1561 14.5879 20.0567C14.3615 19.9574 14.1174 19.9049 13.8702 19.9023H13.8139C13.8212 19.6589 13.7799 19.4165 13.6924 19.1893C13.6049 18.9621 13.473 18.7546 13.3043 18.5791C13.1356 18.4035 12.9335 18.2634 12.71 18.1669C12.4864 18.0704 12.2459 18.0195 12.0024 18.0171C11.8523 18.015 11.7025 18.0309 11.5562 18.0644C11.5069 17.7351 11.3692 17.4253 11.1579 17.1681C10.9465 16.9108 10.6694 16.7156 10.3559 16.6034C10.0424 16.4912 9.70439 16.466 9.37777 16.5306C9.05114 16.5953 8.74816 16.7472 8.50106 16.9704L6.47969 14.2467L11.3198 8.35711L12.8612 8.7786L10.8482 12.33C10.6066 12.7565 10.5443 13.2614 10.675 13.7337C10.8056 14.2061 11.1185 14.6072 11.5449 14.8489C11.5719 14.8641 11.6012 14.8787 11.6265 14.8922L11.6327 14.895C11.7045 14.9307 11.7786 14.9617 11.8544 14.9879C12.2624 15.1283 12.7066 15.1216 13.1101 14.9688C13.5137 14.8161 13.851 14.527 14.0637 14.1516L15.3716 11.8444L17.7069 12.0099L23.9258 18.2287C24.0764 18.3794 24.161 18.5837 24.161 18.7968C24.161 19.0098 24.0764 19.2142 23.9258 19.3649L23.9246 19.3654ZM24.1413 16.9687L18.3113 11.1348C18.3 11.1235 18.2888 11.1128 18.277 11.1033C18.1926 11.033 18.0883 10.9911 17.9787 10.9834L15.1194 10.7808C15.0211 10.7749 14.923 10.7965 14.8361 10.8431C14.7493 10.8897 14.6771 10.9595 14.6276 11.0447L13.1572 13.6401C13.1052 13.7317 13.0357 13.8123 12.9527 13.877C12.8696 13.9418 12.7746 13.9896 12.6731 14.0177C12.5715 14.0457 12.4655 14.0535 12.3609 14.0406C12.2564 14.0276 12.1554 13.9943 12.0638 13.9423C11.9721 13.8903 11.8916 13.8209 11.8268 13.7378C11.7621 13.6547 11.7143 13.5597 11.6862 13.4582C11.6582 13.3567 11.6504 13.2506 11.6633 13.146C11.6762 13.0415 11.7096 12.9405 11.7616 12.8489L13.7244 9.38411L14.5201 9.15507L14.5359 9.15001L17.5049 8.29295H21.0924L25.5673 13.9845L24.1413 16.9687ZM26.251 13.1646L22.1098 7.89678L24.2235 6.5524L28.0934 11.5794L26.251 13.1646Z" fill="#121212"/>
</svg>
