<svg width="32" height="32" viewBox="0 0 32 32" fill="none" xmlns="http://www.w3.org/2000/svg">
<path fill-rule="evenodd" clip-rule="evenodd" d="M9.14035 7.08333C9.14035 5.93273 9.92582 5 10.8947 5H22.2982C23.2672 5 24.0526 5.93273 24.0526 7.08333V27.9167C24.0526 29.0673 23.2672 30 22.2982 30H10.8947C9.92582 30 9.14035 29.0672 9.14035 27.9167V26.3542H11.3333V26.875C11.3333 27.1627 11.5297 27.3958 11.7719 27.3958H21.4211C21.6633 27.3958 21.8596 27.1627 21.8596 26.875V8.125C21.8596 7.83734 21.6633 7.60417 21.4211 7.60417H11.7719C11.5297 7.60417 11.3333 7.83734 11.3333 8.125V9.16667H9.14035V7.08333ZM24.9298 27.9167H26.2456C27.2145 27.9167 28 26.9839 28 25.8333V9.16667C28 8.01606 27.2145 7.08333 26.2456 7.08333H24.9298V9.25348H25.3684C25.6106 9.25348 25.807 9.48666 25.807 9.77432V25.2257C25.807 25.5133 25.6106 25.7465 25.3684 25.7465H24.9298V27.9167ZM10.1754 12.2236C9.74148 12.7614 9.75682 13.615 10.2096 14.1303L12.2557 16.4584H4.13596C3.50859 16.4584 3 17.0623 3 17.8073C3 18.5523 3.50859 19.1563 4.13596 19.1563H12.0537L10.2903 21.1628C9.83732 21.6783 9.82196 22.5322 10.256 23.0701C10.6901 23.6081 11.4092 23.6263 11.8622 23.1108L15.7327 18.7066C16.1353 18.2485 16.1922 17.5231 15.8952 16.9897C15.8375 16.8431 15.7564 16.7065 15.6521 16.5878L11.781 12.1829C11.3281 11.6677 10.6093 11.6859 10.1754 12.2236Z" fill="#121212"/>
</svg>
