<svg width="32" height="32" viewBox="0 0 32 32" fill="none" xmlns="http://www.w3.org/2000/svg">
<path fill-rule="evenodd" clip-rule="evenodd" d="M17.6279 9.72947C18.0844 9.46129 18.6491 9.46291 19.1041 9.73372L23.8173 12.5392C23.9218 12.6014 23.9859 12.7145 23.9859 12.8368V16.0995C23.9859 16.6175 23.7152 17.0972 23.2735 17.3621L14.5037 22.6217C14.0169 22.9137 13.4062 22.8951 12.9377 22.574L9.01219 19.8833C8.61303 19.6098 8.37412 19.1549 8.37412 18.6684V15.3646C8.37412 15.2417 8.43896 15.1279 8.54441 15.066L17.6279 9.72947ZM18.6678 10.4779C18.4804 10.3664 18.2479 10.3657 18.0599 10.4761L10.0767 15.1663C9.85867 15.2944 9.84786 15.6078 10.0565 15.7508L13.4202 18.0563C13.6131 18.1885 13.8645 18.1962 14.065 18.0759L22.2189 13.1858C22.4428 13.0515 22.4423 12.7246 22.2179 12.591L18.6678 10.4779ZM23.1281 14.1925C23.1281 13.9516 22.8677 13.8025 22.6623 13.9257L14.5037 18.8186C14.0169 19.1106 13.4062 19.092 12.9377 18.7709L9.66995 16.5312C9.48382 16.4036 9.23191 16.5379 9.23191 16.7647C9.23191 16.8583 9.27784 16.9457 9.35458 16.9983L13.4202 19.7849C13.6131 19.9171 13.8645 19.9248 14.065 19.8046L22.9775 14.4594C23.0709 14.4034 23.1281 14.302 23.1281 14.1925ZM23.1281 15.9831C23.1281 15.7149 22.8382 15.5488 22.6095 15.686L14.5037 20.5473C14.0169 20.8393 13.4062 20.8207 12.9377 20.4996L9.76801 18.327C9.54022 18.1709 9.23191 18.3353 9.23191 18.6129V18.6684C9.23191 18.8687 9.33028 19.056 9.49464 19.1687L13.4202 21.8593C13.6131 21.9915 13.8645 21.9992 14.065 21.8789L22.8348 16.6194C23.0167 16.5103 23.1281 16.3128 23.1281 16.0995V15.9831Z" fill="#121212"/>
<path fill-rule="evenodd" clip-rule="evenodd" d="M16.7452 14.2912C16.861 14.2004 16.8662 14.1323 16.8662 14.1178C16.8662 14.1033 16.861 14.0352 16.7452 13.9444C16.6282 13.8528 16.4313 13.7721 16.18 13.7721C15.9287 13.7721 15.7318 13.8528 15.6149 13.9444C15.4991 14.0352 15.4938 14.1033 15.4938 14.1178C15.4938 14.1323 15.4991 14.2004 15.6149 14.2912C15.7318 14.3828 15.9287 14.4635 16.18 14.4635C16.4313 14.4635 16.6282 14.3828 16.7452 14.2912ZM16.18 15.3279C17.0327 15.3279 17.724 14.7861 17.724 14.1178C17.724 13.4495 17.0327 12.9078 16.18 12.9078C15.3273 12.9078 14.636 13.4495 14.636 14.1178C14.636 14.7861 15.3273 15.3279 16.18 15.3279Z" fill="#121212"/>
<path fill-rule="evenodd" clip-rule="evenodd" d="M17.5519 9.60014C18.0555 9.30424 18.6788 9.30604 19.1808 9.60482L23.894 12.4103C24.0443 12.4997 24.1359 12.662 24.1359 12.8368V16.0995C24.1359 16.6698 23.8379 17.1985 23.3506 17.4908L14.5809 22.7503C14.0437 23.0725 13.3697 23.0519 12.8529 22.6977L8.92738 20.0071C8.48717 19.7053 8.22412 19.204 8.22412 18.6684V15.3646C8.22412 15.1888 8.31681 15.0257 8.46843 14.9366L17.5519 9.60014ZM19.0273 9.86261C18.6194 9.61979 18.1132 9.61834 17.7039 9.8588L8.62039 15.1953C8.56112 15.2301 8.52412 15.2945 8.52412 15.3646V18.6684C8.52412 19.1057 8.73889 19.5142 9.09699 19.7596L13.0225 22.4502C13.4426 22.7382 13.99 22.7548 14.4266 22.493L23.1963 17.2335C23.5926 16.9958 23.8359 16.5651 23.8359 16.0995V12.8368C23.8359 12.7671 23.7993 12.703 23.7406 12.6681L19.0273 9.86261ZM18.5911 10.6068C18.4507 10.5233 18.2767 10.5228 18.1359 10.6055L10.1527 15.2956C10.0295 15.368 10.0232 15.5461 10.1413 15.6271L13.505 17.9326C13.6495 18.0316 13.8377 18.0373 13.9879 17.9473L22.1417 13.0571C22.2683 12.9812 22.268 12.7954 22.1412 12.7199L18.5911 10.6068ZM17.984 10.3468C18.2191 10.2087 18.5102 10.2095 18.7445 10.349L22.2946 12.4621C22.6165 12.6537 22.6173 13.1217 22.296 13.3144L14.1421 18.2046C13.8913 18.355 13.5766 18.3454 13.3354 18.18L9.97172 15.8745C9.67254 15.6695 9.68783 15.2208 10.0007 15.0369L17.984 10.3468ZM16.18 13.0578C15.374 13.0578 14.786 13.5643 14.786 14.1178C14.786 14.6713 15.374 15.1779 16.18 15.1779C16.986 15.1779 17.574 14.6713 17.574 14.1178C17.574 13.5643 16.986 13.0578 16.18 13.0578ZM14.486 14.1178C14.486 13.3347 15.2805 12.7578 16.18 12.7578C17.0795 12.7578 17.874 13.3347 17.874 14.1178C17.874 14.9009 17.0795 15.4779 16.18 15.4779C15.2805 15.4779 14.486 14.9009 14.486 14.1178ZM16.18 13.9221C15.9598 13.9221 15.796 13.993 15.7074 14.0625C15.6764 14.0868 15.6597 14.1058 15.651 14.1178C15.6597 14.1298 15.6764 14.1488 15.7074 14.1731C15.796 14.2426 15.9598 14.3135 16.18 14.3135C16.4003 14.3135 16.564 14.2426 16.6526 14.1731C16.6837 14.1488 16.7003 14.1298 16.709 14.1178C16.7003 14.1058 16.6837 14.0868 16.6526 14.0625C16.564 13.993 16.4003 13.9221 16.18 13.9221ZM15.5223 13.8264C15.6676 13.7125 15.8977 13.6221 16.18 13.6221C16.4623 13.6221 16.6924 13.7125 16.8377 13.8264C16.9845 13.9414 17.0162 14.051 17.0162 14.1178C17.0162 14.1846 16.9845 14.2942 16.8377 14.4092C16.6924 14.5231 16.4623 14.6135 16.18 14.6135C15.8977 14.6135 15.6676 14.5231 15.5223 14.4092C15.3755 14.2942 15.3438 14.1846 15.3438 14.1178C15.3438 14.051 15.3755 13.9414 15.5223 13.8264ZM22.9781 14.1925C22.9781 14.0662 22.8432 13.9921 22.7394 14.0543L14.5809 18.9473C14.0437 19.2695 13.3697 19.2489 12.8529 18.8947L9.58515 16.6549C9.5003 16.5967 9.38191 16.6565 9.38191 16.7647C9.38191 16.8091 9.4037 16.8501 9.43939 16.8746L13.505 19.6612C13.6495 19.7603 13.8377 19.766 13.9879 19.6759L22.9004 14.3308C22.9482 14.3021 22.9781 14.2497 22.9781 14.1925ZM22.5851 13.797C22.8923 13.6128 23.2781 13.8371 23.2781 14.1925C23.2781 14.3544 23.1936 14.5048 23.0547 14.588L14.1421 19.9332C13.8913 20.0836 13.5766 20.074 13.3354 19.9087L9.26978 17.1221C9.15198 17.0413 9.08191 16.9074 9.08191 16.7647C9.08191 16.4194 9.46735 16.2105 9.75476 16.4074L13.0225 18.6472C13.4426 18.9352 13.99 18.9518 14.4266 18.69L22.5851 13.797ZM22.9781 15.9831C22.9781 15.8294 22.8137 15.7384 22.6867 15.8146L14.5809 20.6759C14.0437 20.9981 13.3697 20.9776 12.8529 20.6233L9.6832 18.4508C9.55669 18.364 9.38191 18.4539 9.38191 18.6129V18.6684C9.38191 18.8196 9.45615 18.9605 9.57945 19.045L13.505 21.7356C13.6495 21.8346 13.8377 21.8404 13.9879 21.7503L22.7576 16.4908C22.894 16.409 22.9781 16.2605 22.9781 16.0995V15.9831ZM22.5324 15.5573C22.8628 15.3592 23.2781 15.6003 23.2781 15.9831V16.0995C23.2781 16.3651 23.1393 16.6117 22.9119 16.748L14.1421 22.0076C13.8913 22.158 13.5766 22.1484 13.3354 21.983L9.40984 19.2924C9.20442 19.1516 9.08191 18.9179 9.08191 18.6684V18.6129C9.08191 18.2167 9.52374 17.9778 9.85281 18.2033L13.0225 20.3759C13.4426 20.6638 13.99 20.6805 14.4266 20.4187L22.5324 15.5573Z" fill="#121212"/>
<path fill-rule="evenodd" clip-rule="evenodd" d="M20.5615 5.02206C17.8991 3.91583 14.9253 3.81489 12.194 4.73804C9.46262 5.66119 7.15984 7.54551 5.71441 10.0401C5.51428 10.3855 5.07206 10.5033 4.72668 10.3032C4.38129 10.103 4.26354 9.66082 4.46366 9.31544C6.08485 6.51746 8.66764 4.40401 11.7311 3.36861C14.7946 2.33321 18.13 2.44642 21.1162 3.68717C24.1024 4.92792 26.5359 7.21164 27.9637 10.1131C29.3914 13.0146 29.716 16.336 28.8771 19.459C28.0382 22.582 26.0929 25.2937 23.4034 27.0892C20.714 28.8847 17.4636 29.6416 14.2577 29.2189C11.0517 28.7963 8.10855 27.2229 5.97628 24.7918C3.844 22.3607 2.66791 19.2375 2.66699 16.0038C2.66688 15.6046 2.99038 15.2809 3.38955 15.2808C3.78873 15.2807 4.11241 15.6042 4.11253 16.0034C4.11335 18.8865 5.16193 21.6711 7.06303 23.8386C8.96414 26.0062 11.5882 27.409 14.4466 27.7858C17.305 28.1626 20.2029 27.4878 22.6008 25.887C24.9987 24.2861 26.7331 21.8684 27.4811 19.084C28.229 16.2996 27.9396 13.3382 26.6667 10.7513C25.3937 8.16443 23.224 6.1283 20.5615 5.02206Z" fill="#121212"/>
<path fill-rule="evenodd" clip-rule="evenodd" d="M4.96569 2.67026C5.36487 2.67026 5.68846 2.99385 5.68846 3.39302V8.97553H11.271C11.6701 8.97553 11.9937 9.29912 11.9937 9.6983C11.9937 10.0975 11.6701 10.4211 11.271 10.4211H4.96569C4.56652 10.4211 4.24293 10.0975 4.24293 9.6983V3.39302C4.24293 2.99385 4.56652 2.67026 4.96569 2.67026Z" fill="#121212"/>
<path fill-rule="evenodd" clip-rule="evenodd" d="M11.571 2.89493C14.7494 1.8207 18.2098 1.93816 21.308 3.22544C24.4062 4.51271 26.931 6.88207 28.4123 9.89234C29.8936 12.9026 30.2304 16.3486 29.36 19.5887C28.4896 22.8289 26.4714 25.6422 23.6811 27.5051C20.8907 29.3679 17.5185 30.1531 14.1923 29.7146C10.8661 29.2761 7.81261 27.6438 5.60037 25.1215C3.38814 22.5992 2.16795 19.3589 2.16699 16.0039C2.1668 15.3286 2.7141 14.781 3.38941 14.7808C4.06473 14.7806 4.61234 15.3279 4.61253 16.0032C4.61331 18.7651 5.61779 21.4326 7.43894 23.5089C9.26008 25.5853 11.7738 26.9291 14.5119 27.2901C17.2501 27.651 20.0262 27.0046 22.3232 25.4711C24.6202 23.9376 26.2817 21.6216 26.9982 18.9543C27.7147 16.287 27.4374 13.4502 26.218 10.9721C24.9986 8.49399 22.9202 6.5435 20.3697 5.4838C17.8192 4.42409 14.9705 4.3274 12.3541 5.21172C10.45 5.85525 8.76343 6.98636 7.45251 8.47553H11.271C11.9463 8.47553 12.4937 9.02298 12.4937 9.6983C12.4937 10.3736 11.9463 10.9211 11.271 10.9211H4.96569C4.29038 10.9211 3.74293 10.3736 3.74293 9.6983V3.39302C3.74293 2.71771 4.29038 2.17026 4.96569 2.17026C5.64101 2.17026 6.18846 2.71771 6.18846 3.39302V6.24863C7.68762 4.74023 9.5261 3.58608 11.571 2.89493ZM5.18846 7.37063V3.39302C5.18846 3.26999 5.08872 3.17026 4.96569 3.17026C4.84266 3.17026 4.74293 3.26999 4.74293 3.39302V7.96053C4.88638 7.75964 5.03496 7.56295 5.18846 7.37063ZM6.37074 9.92107H11.271C11.394 9.92107 11.4937 9.82133 11.4937 9.6983C11.4937 9.57527 11.394 9.47553 11.271 9.47553H6.66684C6.56485 9.62144 6.46611 9.76999 6.37074 9.92107ZM5.49427 9.43642C5.42159 9.55275 5.35075 9.67044 5.28178 9.78948C5.2201 9.89593 5.0838 9.93222 4.97735 9.87054C4.8709 9.80886 4.8346 9.67256 4.89628 9.56611C4.99323 9.39879 5.09375 9.23401 5.19773 9.07187C5.22992 9.23677 5.34315 9.37266 5.49427 9.43642ZM6.18846 8.43786C7.67462 6.50954 9.70471 5.05158 12.0339 4.26437C14.8801 3.30239 17.9789 3.40757 20.7534 4.56033C23.5278 5.71309 25.7888 7.83486 27.1153 10.5306C28.4418 13.2263 28.7434 16.3122 27.964 19.2137C27.1845 22.1153 25.3772 24.6347 22.8784 26.3028C20.3797 27.971 17.3599 28.6742 14.3812 28.2815C11.4026 27.8888 8.6682 26.427 6.68713 24.1683C4.70607 21.9096 3.61338 19.0079 3.61253 16.0035C3.61249 15.8805 3.51273 15.7808 3.3897 15.7808C3.26667 15.7808 3.16696 15.8806 3.16699 16.0036C3.16788 19.1161 4.29986 22.1221 6.35218 24.4621C8.40449 26.8021 11.2373 28.3164 14.323 28.7232C17.4088 29.13 20.5372 28.4015 23.1258 26.6734C25.7144 24.9452 27.5868 22.3352 28.3942 19.3293C29.2017 16.3234 28.8892 13.1265 27.515 10.3339C26.1408 7.5412 23.7986 5.34312 20.9243 4.1489C18.0501 2.95468 14.8398 2.84571 11.8912 3.84229C9.65781 4.59714 7.68984 5.94731 6.18846 7.72819V8.43786Z" fill="#121212"/>
</svg>
