<svg width="32" height="32" viewBox="0 0 32 32" fill="none" xmlns="http://www.w3.org/2000/svg">
<path fill-rule="evenodd" clip-rule="evenodd" d="M8.25812 9.33408H13.3337V12.0008H4.00034V2.66742H6.667V7.02743C7.79593 5.64702 9.22105 4.53836 10.8367 3.78361C12.4524 3.02887 14.2172 2.64736 16.0003 2.66742C18.6374 2.66742 21.2153 3.44938 23.4079 4.91446C25.6006 6.37955 27.3095 8.46193 28.3187 10.8983C29.3279 13.3346 29.5919 16.0155 29.0774 18.6019C28.563 21.1883 27.2931 23.5642 25.4284 25.4289C23.5637 27.2936 21.188 28.5634 18.6015 29.0779C16.0151 29.5923 13.3342 29.3283 10.8979 28.3191C8.46154 27.31 6.37915 25.601 4.91407 23.4084C3.44898 21.2157 2.66699 18.6378 2.66699 16.0007H5.33365C5.33365 18.1104 5.95924 20.1727 7.13131 21.9269C8.30338 23.681 9.96928 25.0482 11.9184 25.8555C13.8674 26.6628 16.0122 26.874 18.0813 26.4624C20.1504 26.0509 22.0511 25.035 23.5428 23.5432C25.0346 22.0514 26.0504 20.1508 26.462 18.0817C26.8736 16.0126 26.6624 13.8679 25.855 11.9188C25.0477 9.96971 23.6805 8.3038 21.9264 7.13173C20.1723 5.95966 18.11 5.33411 16.0003 5.33411C14.4805 5.31333 12.979 5.66739 11.6286 6.36506C10.2782 7.06274 9.12058 8.0825 8.25812 9.33408Z" fill="#121212"/>
</svg>
