<svg width="32" height="32" viewBox="0 0 32 32" fill="none" xmlns="http://www.w3.org/2000/svg">
<path fill-rule="evenodd" clip-rule="evenodd" d="M7.46773 4.80042V20.3865C7.46773 21.8475 8.29316 23.183 9.59994 23.8364L16.2489 27.1608L22.898 23.8365C24.2047 23.183 25.0301 21.8475 25.0301 20.3865V4.80042H7.46773ZM16.1019 27.2344C16.1016 27.2345 16.1021 27.2343 16.1019 27.2344V27.2344ZM16.3953 27.234C16.3951 27.2339 16.3955 27.2342 16.3953 27.234V27.234ZM5.33398 4.47215C5.33398 3.47501 6.14233 2.66667 7.13946 2.66667H25.3584C26.3556 2.66667 27.1639 3.47505 27.1639 4.47215V20.3865C27.1639 22.6557 25.8818 24.7301 23.8523 25.7449L17.0565 29.1426C17.0565 29.1427 17.0566 29.1426 17.0565 29.1426C16.5483 29.3968 15.9498 29.3969 15.4415 29.1428C15.4415 29.1427 15.4416 29.1428 15.4415 29.1428L8.64569 25.7449C6.6161 24.7301 5.33398 22.6557 5.33398 20.3865V4.47215Z" fill="#121212"/>
<path fill-rule="evenodd" clip-rule="evenodd" d="M21.954 11.4356C22.3706 11.8522 22.3706 12.5277 21.954 12.9444L16.6687 18.2296C16.2521 18.6463 15.5765 18.6463 15.1599 18.2296L11.9888 15.0585C11.5721 14.6418 11.5721 13.9663 11.9888 13.5497C12.4054 13.133 13.0809 13.133 13.4975 13.5497L15.9143 15.9664L20.4452 11.4356C20.8618 11.0189 21.5373 11.0189 21.954 11.4356Z" fill="#121212"/>
</svg>
