<svg width="32" height="32" viewBox="0 0 32 32" fill="none" xmlns="http://www.w3.org/2000/svg">
<path fill-rule="evenodd" clip-rule="evenodd" d="M14.2024 11.0198C14.7373 11.5014 14.7807 12.3254 14.2992 12.8604L14.2858 12.8752C13.8043 13.4102 12.9802 13.4535 12.4452 12.972C11.9103 12.4905 11.8669 11.6664 12.3485 11.1315L12.3618 11.1166C12.8434 10.5816 13.6674 10.5383 14.2024 11.0198Z" fill="#121212"/>
<path fill-rule="evenodd" clip-rule="evenodd" d="M19.5488 11.0198C20.0838 11.5014 20.1271 12.3254 19.6456 12.8604L19.6322 12.8752C19.1507 13.4102 18.3266 13.4535 17.7917 12.972C17.2567 12.4905 17.2133 11.6664 17.6949 11.1315L17.7082 11.1166C18.1898 10.5816 19.0138 10.5383 19.5488 11.0198Z" fill="#121212"/>
<path fill-rule="evenodd" clip-rule="evenodd" d="M19.5488 16.3038C20.0838 16.7854 20.1271 17.6094 19.6456 18.1444L19.6322 18.1592C19.1507 18.6942 18.3266 18.7375 17.7917 18.256C17.2567 17.7745 17.2133 16.9505 17.6949 16.4155L17.7082 16.4006C18.1898 15.8656 19.0138 15.8223 19.5488 16.3038Z" fill="#121212"/>
<path fill-rule="evenodd" clip-rule="evenodd" d="M14.2028 16.367C14.7376 16.8487 14.7805 17.6728 14.2987 18.2075L14.2854 18.2224C13.8036 18.7571 12.9795 18.8001 12.4448 18.3183C11.91 17.8365 11.8671 17.0125 12.3489 16.4777L12.3622 16.4629C12.844 15.9281 13.6681 15.8852 14.2028 16.367Z" fill="#121212"/>
<path fill-rule="evenodd" clip-rule="evenodd" d="M14.2028 21.651C14.7376 22.1327 14.7805 22.9568 14.2987 23.4916L14.2854 23.5064C13.8036 24.0411 12.9795 24.0841 12.4448 23.6023C11.91 23.1205 11.8671 22.2965 12.3489 21.7617L12.3622 21.7469C12.844 21.2121 13.6681 21.1692 14.2028 21.651Z" fill="#121212"/>
<path fill-rule="evenodd" clip-rule="evenodd" d="M16.026 22.7688C16.648 20.7615 18.3971 19.2413 20.5352 19.2413C22.5333 19.2413 24.1948 20.5719 24.9086 22.3825C25.0609 22.7688 24.8711 23.2054 24.4848 23.3577C24.0985 23.51 23.6619 23.3203 23.5096 22.934C22.9865 21.6072 21.8236 20.7451 20.5352 20.7451C19.1587 20.7451 17.9215 21.7323 17.4624 23.2139C17.3394 23.6105 16.9183 23.8324 16.5216 23.7095C16.125 23.5866 15.9031 23.1654 16.026 22.7688Z" fill="#121212"/>
<path fill-rule="evenodd" clip-rule="evenodd" d="M24.5426 19.791C24.9578 19.791 25.2944 20.1276 25.2944 20.5429V22.1641C25.2944 22.9104 24.6895 23.5156 23.9429 23.5156H22.5388C22.1236 23.5156 21.7869 23.179 21.7869 22.7638C21.7869 22.3485 22.1236 22.0119 22.5388 22.0119H23.7907V20.5429C23.7907 20.1276 24.1273 19.791 24.5426 19.791Z" fill="#121212"/>
<path fill-rule="evenodd" clip-rule="evenodd" d="M24.5681 24.2719C24.9648 24.3948 25.1867 24.816 25.0638 25.2126C24.4418 27.2199 22.6928 28.7401 20.5547 28.7401C18.5565 28.7401 16.895 27.4095 16.1812 25.5989C16.0289 25.2126 16.2186 24.7759 16.6049 24.6237C16.9913 24.4714 17.4279 24.6611 17.5802 25.0474C18.1032 26.3742 19.2663 27.2363 20.5547 27.2363C21.9311 27.2363 23.1683 26.2491 23.6274 24.7675C23.7503 24.3709 24.1715 24.149 24.5681 24.2719Z" fill="#121212"/>
<path fill-rule="evenodd" clip-rule="evenodd" d="M15.7955 25.8172C15.7955 25.071 16.4005 24.4657 17.147 24.4657H18.551C18.9663 24.4657 19.3029 24.8024 19.3029 25.2176C19.3029 25.6329 18.9663 25.9695 18.551 25.9695H17.2993V27.4385C17.2993 27.8538 16.9626 28.1904 16.5474 28.1904C16.1321 28.1904 15.7955 27.8538 15.7955 27.4385V25.8172Z" fill="#121212"/>
<path fill-rule="evenodd" clip-rule="evenodd" d="M17.2936 5.27319V6.64328C17.2936 7.36305 16.7101 7.94654 15.9903 7.94654H9.27351V26.7268H12.3813C13.101 26.7268 13.6845 27.3103 13.6845 28.0301C13.6845 28.7498 13.101 29.3333 12.3813 29.3333H8.77226C7.60959 29.3333 6.66699 28.3909 6.66699 27.2281V7.44528C6.66699 6.28258 7.60955 5.34002 8.77226 5.34002H14.687V4.77193C14.687 3.60927 15.6295 2.66667 16.7923 2.66667H23.2083C24.3711 2.66667 25.3136 3.60927 25.3136 4.77193V16C25.3136 16.7198 24.7301 17.3033 24.0104 17.3033C23.2906 17.3033 22.7071 16.7198 22.7071 16V5.27319H17.2936Z" fill="#121212"/>
</svg>
