<svg width="32" height="32" viewBox="0 0 32 32" fill="none" xmlns="http://www.w3.org/2000/svg">
<path d="M11.4951 21.7843L15.217 25.5062C15.5341 25.8233 15.9604 26 16.4074 26C16.8545 26 17.2807 25.8233 17.5978 25.5062L21.3197 21.7843C21.9799 21.1241 21.9799 20.0585 21.3197 19.4035C20.9922 19.076 20.5608 18.9097 20.1293 18.9097C19.6979 18.9097 19.2664 19.076 18.9389 19.4035L18.0708 20.2716V7.66342C18.0708 6.74334 17.3275 6 16.4074 6C15.4873 6 14.744 6.74334 14.744 7.66342V20.2716L13.8759 19.4035C13.2157 18.7433 12.1501 18.7433 11.4951 19.4035C10.835 20.0637 10.835 21.1293 11.4951 21.7843Z" fill="#121212"/>
</svg>
