<svg width="32" height="32" viewBox="0 0 32 32" fill="none" xmlns="http://www.w3.org/2000/svg">
<path d="M18.9355 21.6294C18.9098 21.25 18.746 20.8933 18.4751 20.6265L16.4964 18.6472C16.8142 18.5473 17.1033 18.3723 17.3392 18.137L17.3895 18.0867C17.807 17.625 18.025 17.017 17.9958 16.3953C17.9666 15.7736 17.6928 15.1886 17.2339 14.7681C16.7926 14.3188 16.2019 14.0468 15.5736 14.0035C15.2698 13.9801 14.9644 14.0223 14.6783 14.1272C14.3922 14.2322 14.1319 14.3974 13.9153 14.6118L13.8649 14.6621C13.6295 14.8982 13.4545 15.1875 13.3548 15.5055L11.3761 13.5262C11.1159 13.2466 10.7556 13.0814 10.374 13.0666C9.99234 13.0519 9.62036 13.1888 9.33935 13.4474L7.54604 15.242C7.43735 15.3525 7.35806 15.4885 7.31542 15.6375C7.27278 15.7865 7.26815 15.9438 7.30194 16.0951C7.33739 16.2633 7.41442 16.4199 7.52599 16.5506C7.63755 16.6814 7.7801 16.7821 7.94061 16.8436C8.15 16.9252 8.33988 17.0499 8.49791 17.2097L8.55473 17.2665C8.82373 17.5279 8.98775 17.8786 9.01582 18.2526C9.03165 18.4092 9.01247 18.5673 8.95965 18.7155C8.90683 18.8638 8.82171 18.9984 8.71044 19.1097C8.59917 19.2209 8.46455 19.306 8.31633 19.3589C8.1681 19.4117 8.00998 19.4309 7.85343 19.415C7.47944 19.387 7.12867 19.2229 6.86733 18.9539L6.8105 18.8971C6.65072 18.7391 6.52597 18.5492 6.44435 18.3398C6.38282 18.1792 6.28202 18.0366 6.15116 17.9251C6.02029 17.8135 5.86355 17.7365 5.69526 17.7011C5.54399 17.6674 5.38667 17.672 5.23766 17.7146C5.08864 17.7573 4.95269 17.8366 4.84219 17.9452L3.04888 19.7386C2.79022 20.0196 2.65331 20.3915 2.66807 20.7732C2.68284 21.1548 2.84807 21.5151 3.12767 21.7753L5.10437 23.7546C4.78635 23.8545 4.49706 24.0294 4.261 24.2648L4.21063 24.3151C3.79323 24.7769 3.57541 25.3849 3.60468 26.0067C3.63396 26.6284 3.90797 27.2133 4.3669 27.6338C4.8426 28.1177 5.49071 28.3933 6.16925 28.4003C6.44983 28.4038 6.72832 28.3516 6.9886 28.2468C7.24887 28.1419 7.48575 27.9864 7.68552 27.7894L7.7359 27.739C7.97126 27.503 8.14626 27.2137 8.24606 26.8957L10.2247 28.8749C10.4917 29.146 10.8487 29.3098 11.2282 29.3354C11.2566 29.3354 11.2851 29.3354 11.3135 29.3354C11.4892 29.3362 11.6634 29.3025 11.826 29.236C11.9887 29.1695 12.1367 29.0716 12.2615 28.9479L13.9676 27.2418C14.1019 27.5662 14.2994 27.8606 14.5488 28.1078L14.6056 28.1646C15.0262 28.6234 15.6111 28.8973 16.2329 28.9265C16.8546 28.9556 17.4626 28.7377 17.9242 28.3202C18.3417 27.8586 18.5597 27.2506 18.5305 26.6288C18.5013 26.0071 18.2275 25.4221 17.7686 25.0016L17.7118 24.9448C17.4646 24.6954 17.1702 24.4978 16.8458 24.3636L18.5539 22.6555C18.6859 22.5208 18.7882 22.3599 18.8539 22.1831C18.9197 22.0063 18.9475 21.8176 18.9355 21.6294ZM17.817 21.9264L16.0237 23.7197C15.915 23.8302 15.8358 23.9662 15.7931 24.1152C15.7505 24.2642 15.7458 24.4215 15.7796 24.5728C15.815 24.7411 15.892 24.8978 16.0035 25.0287C16.1151 25.1596 16.2577 25.2604 16.4183 25.3219C16.6277 25.4035 16.8176 25.5283 16.9756 25.6881L17.0324 25.7449C17.2951 25.9706 17.4586 26.2904 17.4877 26.6355C17.5168 26.9806 17.4092 27.3233 17.1881 27.5899C16.9216 27.811 16.5788 27.9186 16.2337 27.8895C15.8886 27.8604 15.5688 27.6969 15.3431 27.4342L15.2863 27.3774C15.1265 27.2194 15.0017 27.0295 14.9201 26.8201C14.8586 26.6595 14.7578 26.5169 14.6269 26.4053C14.4961 26.2938 14.3393 26.2168 14.171 26.1814C14.0197 26.1476 13.8624 26.1523 13.7134 26.1949C13.5644 26.2375 13.4284 26.3168 13.3179 26.4255L11.5266 28.2169C11.4954 28.2458 11.4585 28.2678 11.4181 28.2812C11.3778 28.2947 11.3351 28.2994 11.2928 28.295C11.1677 28.284 11.0508 28.2283 10.9635 28.1381L10.1698 27.3445L9.43105 26.6076L8.89183 26.0684C8.70202 25.8758 8.44351 25.7664 8.17308 25.7643C8.08171 25.7641 7.9908 25.7772 7.90315 25.803C7.74769 25.8478 7.60748 25.9343 7.49773 26.0532C7.38798 26.172 7.31289 26.3187 7.28063 26.4772C7.24054 26.676 7.14284 26.8586 6.99972 27.0022L6.94935 27.0526C6.68283 27.2737 6.34011 27.3813 5.99502 27.3522C5.64992 27.3231 5.33007 27.1596 5.10437 26.8969C4.8416 26.6713 4.67797 26.3515 4.64874 26.0064C4.61951 25.6613 4.72702 25.3186 4.9481 25.052L4.99847 25.0016C5.14211 24.8585 5.3247 24.7608 5.52348 24.7207C5.68201 24.6884 5.82866 24.6133 5.94752 24.5036C6.06638 24.3938 6.15289 24.2536 6.19767 24.0982C6.24658 23.9248 6.24781 23.7414 6.20121 23.5674C6.15461 23.3934 6.06191 23.2352 5.9329 23.1095L3.8632 21.0391C3.77302 20.9518 3.71731 20.8349 3.70628 20.7098C3.70194 20.6675 3.70666 20.6248 3.72014 20.5845C3.73361 20.5442 3.75552 20.5072 3.78442 20.476L5.49184 18.7693C5.6261 19.0937 5.82368 19.3881 6.07303 19.6352L6.12986 19.6921C6.5504 20.1509 7.13536 20.4248 7.75709 20.454C8.37882 20.4831 8.98684 20.2652 9.44848 19.8477C9.86588 19.386 10.0837 18.7779 10.0544 18.1562C10.0251 17.5344 9.75114 16.9495 9.29221 16.5291L9.23538 16.4722C8.98824 16.2228 8.69383 16.0253 8.3694 15.891L10.0775 14.183C10.1638 14.1222 10.27 14.0965 10.3746 14.1111C10.4792 14.1257 10.5743 14.1796 10.6406 14.2618L12.7103 16.3315C12.836 16.4605 12.9942 16.5532 13.1682 16.5998C13.3422 16.6464 13.5256 16.6451 13.699 16.5962C13.8544 16.5514 13.9946 16.4648 14.1043 16.346C14.214 16.2272 14.2891 16.0805 14.3215 15.922C14.3616 15.7233 14.4593 15.5407 14.6024 15.397L14.6528 15.3467C14.7657 15.2373 14.9009 15.1535 15.0491 15.1009C15.1973 15.0483 15.355 15.0282 15.5116 15.0419C15.8856 15.0699 16.2364 15.2339 16.4977 15.5029C16.7604 15.7286 16.9239 16.0485 16.953 16.3936C16.9821 16.7387 16.8745 17.0814 16.6534 17.3479L16.603 17.3983C16.4593 17.5414 16.2768 17.6391 16.078 17.6792C15.9195 17.7115 15.7728 17.7865 15.6539 17.8963C15.5351 18.006 15.4486 18.1463 15.4038 18.3017C15.3549 18.4751 15.3537 18.6584 15.4003 18.8324C15.4469 19.0065 15.5395 19.1647 15.6686 19.2904L17.7383 21.3601C17.8284 21.4474 17.8842 21.5644 17.8952 21.6894C17.9 21.7321 17.8956 21.7753 17.8822 21.816C17.8688 21.8568 17.8468 21.8943 17.8177 21.9258L17.817 21.9264Z" fill="#121212"/>
<path d="M28.1977 14.6382C27.9176 14.357 27.578 14.1421 27.2039 14.0092L28.9475 12.2657C29.0805 12.1302 29.1832 11.968 29.249 11.7899C29.3148 11.6118 29.3421 11.4218 29.3291 11.2324C29.3036 10.8529 29.1398 10.4958 28.8687 10.2289L26.9314 8.29158C27.2041 8.18772 27.4519 8.02753 27.6585 7.82146L27.7089 7.77108C28.1263 7.30936 28.3441 6.70129 28.3148 6.07956C28.2856 5.45783 28.0116 4.87292 27.5526 4.45246C27.1321 3.99362 26.5471 3.71973 25.9254 3.69057C25.3037 3.66142 24.6956 3.87936 24.234 4.29683L24.1836 4.3472C23.9775 4.55406 23.8173 4.80205 23.7135 5.07499L21.7723 3.12734C21.5121 2.84774 21.1518 2.68251 20.7702 2.66775C20.3885 2.65298 20.0166 2.78989 19.7355 3.04855L17.992 4.79214C17.8591 4.41805 17.6442 4.07846 17.363 3.79829L17.3061 3.74147C16.8856 3.28262 16.3006 3.00874 15.6789 2.97958C15.0572 2.95042 14.4492 3.16836 13.9875 3.58584C13.5701 4.04747 13.3521 4.6555 13.3813 5.27723C13.4104 5.89896 13.6843 6.48392 14.1432 6.90446L14.2 6.96129C14.4802 7.2425 14.8198 7.45741 15.1938 7.59027L13.4502 9.33385C13.1916 9.61486 13.0547 9.98684 13.0694 10.3685C13.0842 10.7501 13.2494 11.1104 13.529 11.3706L15.6007 13.441C15.7264 13.57 15.8846 13.6627 16.0586 13.7093C16.2326 13.7559 16.416 13.7546 16.5893 13.7057C16.7448 13.6609 16.885 13.5744 16.9947 13.4555C17.1044 13.3367 17.1795 13.19 17.2119 13.0315C17.252 12.8328 17.3496 12.6502 17.4928 12.5065L17.5431 12.4562C17.6561 12.3467 17.7912 12.2628 17.9394 12.2101C18.0876 12.1574 18.2453 12.1371 18.402 12.1507C18.7746 12.184 19.1237 12.3472 19.3882 12.6117C19.6527 12.8763 19.8159 13.2253 19.8492 13.5979C19.8628 13.7546 19.8425 13.9123 19.7898 14.0605C19.7371 14.2087 19.6532 14.3438 19.5438 14.4568L19.4934 14.5071C19.3497 14.6503 19.1671 14.748 18.9684 14.788C18.8098 14.8203 18.6632 14.8954 18.5443 15.0051C18.4255 15.1149 18.339 15.2551 18.2942 15.4106C18.2453 15.5839 18.244 15.7673 18.2906 15.9413C18.3372 16.1153 18.4299 16.2735 18.5589 16.3992L20.6254 18.4657C20.9105 18.7611 21.3011 18.9314 21.7116 18.9391C21.8868 18.9409 22.0606 18.908 22.223 18.8423C22.3854 18.7766 22.5331 18.6793 22.6577 18.5561L24.4012 16.8125C24.534 17.1863 24.7487 17.5257 25.0296 17.8057L25.0864 17.8626C25.507 18.3214 26.0919 18.5953 26.7136 18.6245C27.3354 18.6536 27.9434 18.4357 28.405 18.0182C28.8225 17.5566 29.0404 16.9485 29.0113 16.3268C28.9821 15.7051 28.7082 15.1201 28.2494 14.6996L28.1977 14.6382ZM27.674 17.2768C27.4075 17.498 27.0648 17.6056 26.7197 17.5765C26.3746 17.5474 26.0548 17.3839 25.8291 17.1212L25.7722 17.0644C25.5931 16.8868 25.4584 16.6696 25.3789 16.4302C25.3238 16.2624 25.2268 16.1115 25.0971 15.9916C24.9674 15.8717 24.8092 15.7869 24.6376 15.7451C24.4829 15.7057 24.3206 15.7069 24.1665 15.7486C24.0124 15.7904 23.8717 15.8712 23.7581 15.9834L21.9241 17.8174C21.8929 17.8463 21.856 17.8682 21.8156 17.8817C21.7753 17.8952 21.7326 17.8999 21.6903 17.8955C21.5652 17.8845 21.4483 17.8288 21.361 17.7386L19.3836 15.7599C19.7016 15.6601 19.9909 15.4851 20.227 15.2498L20.2774 15.1994C20.4917 14.9827 20.6569 14.7225 20.7618 14.4364C20.8668 14.1503 20.909 13.8449 20.8857 13.5411C20.837 12.9141 20.5659 12.3252 20.1213 11.8806C19.6766 11.4359 19.0877 11.1648 18.4608 11.1162C18.1569 11.0928 17.8516 11.1351 17.5655 11.24C17.2793 11.345 17.0191 11.5102 16.8024 11.7245L16.7521 11.7749C16.5167 12.0109 16.3417 12.3002 16.2419 12.6182L14.2607 10.639C14.1705 10.5516 14.1148 10.4347 14.1038 10.3096C14.0994 10.2673 14.1042 10.2246 14.1176 10.1843C14.1311 10.144 14.153 10.107 14.1819 10.0758L16.0159 8.24185C16.1281 8.12813 16.209 7.98732 16.2508 7.8331C16.2925 7.67887 16.2937 7.51647 16.2542 7.36166C16.2124 7.19005 16.1276 7.03191 16.0077 6.90219C15.8878 6.77248 15.7368 6.67546 15.569 6.62032C15.3297 6.54083 15.1124 6.4061 14.9349 6.22704L14.878 6.17022C14.6154 5.94452 14.4519 5.62467 14.4228 5.27957C14.3936 4.93448 14.5013 4.59176 14.7224 4.32524C14.9889 4.10409 15.3317 3.99647 15.6767 4.02558C16.0218 4.05469 16.3417 4.2182 16.5674 4.48088L16.6242 4.5377C16.8033 4.71526 16.938 4.93251 17.0175 5.17185C17.0726 5.33965 17.1697 5.49063 17.2994 5.61051C17.4291 5.7304 17.5872 5.81524 17.7588 5.85702C17.9135 5.89643 18.0758 5.8952 18.2299 5.85345C18.384 5.8117 18.5247 5.73085 18.6384 5.61873L20.4724 3.78473C20.5587 3.72392 20.6649 3.69823 20.7695 3.71286C20.8741 3.72749 20.9692 3.78135 21.0355 3.86352L23.0593 5.88737C23.1819 6.01252 23.335 6.10354 23.5035 6.15145C23.6721 6.19935 23.8501 6.20248 24.0202 6.16053C24.1722 6.12174 24.3111 6.0434 24.423 5.93349C24.5348 5.82358 24.6156 5.68601 24.657 5.53478C24.7039 5.36242 24.7949 5.20527 24.9211 5.07886L24.9715 5.02849C25.238 4.80733 25.5807 4.69972 25.9258 4.72883C26.2709 4.75794 26.5907 4.92144 26.8164 5.18412C27.0791 5.40982 27.2426 5.72967 27.2717 6.07477C27.3008 6.41986 27.1932 6.76258 26.9721 7.02909L26.9217 7.07946C26.7953 7.20571 26.6382 7.29675 26.4658 7.34358C26.3145 7.38501 26.177 7.46575 26.0671 7.57759C25.9572 7.68943 25.8788 7.82838 25.84 7.98031C25.7981 8.15041 25.8012 8.3285 25.8491 8.49701C25.897 8.66553 25.988 8.81863 26.1132 8.94122L28.1351 10.9631C28.2253 11.0505 28.281 11.1674 28.292 11.2925C28.2964 11.3348 28.2916 11.3775 28.2782 11.4178C28.2647 11.4581 28.2428 11.4951 28.2139 11.5262L27.3776 12.3625L26.6408 13.0993L26.3825 13.3577C26.2704 13.4713 26.1895 13.612 26.1478 13.7661C26.106 13.9202 26.1048 14.0825 26.1442 14.2372C26.186 14.4088 26.2708 14.567 26.3907 14.6967C26.5106 14.8264 26.6616 14.9234 26.8294 14.9785C27.0687 15.0581 27.2859 15.1928 27.4635 15.3718L27.5203 15.4286C27.7839 15.6547 27.9478 15.9756 27.9764 16.3217C28.0051 16.6677 27.8962 17.0111 27.6734 17.2775L27.674 17.2768Z" fill="#121212"/>
</svg>
