<svg width="32" height="32" viewBox="0 0 32 32" fill="none" xmlns="http://www.w3.org/2000/svg">
<path d="M17.1003 15.6V9.9C17.1003 9.61111 17.0059 9.37222 16.817 9.18333C16.6281 8.99444 16.3892 8.9 16.1003 8.9C15.8114 8.9 15.5725 8.99444 15.3837 9.18333C15.1948 9.37222 15.1003 9.61111 15.1003 9.9V16C15.1003 16.1333 15.1225 16.2556 15.167 16.3667C15.2114 16.4778 15.2781 16.5889 15.367 16.7L20.167 21.6667C20.367 21.8889 20.617 21.9944 20.917 21.9833C21.217 21.9722 21.467 21.8667 21.667 21.6667C21.867 21.4667 21.967 21.2222 21.967 20.9333C21.967 20.6444 21.867 20.4 21.667 20.2L17.1003 15.6ZM16.0003 29.3333C14.1781 29.3333 12.4559 28.9833 10.8337 28.2833C9.21144 27.5833 7.79477 26.6278 6.58366 25.4167C5.37255 24.2056 4.41699 22.7889 3.71699 21.1667C3.01699 19.5444 2.66699 17.8222 2.66699 16C2.66699 14.1778 3.01699 12.4556 3.71699 10.8333C4.41699 9.21111 5.37255 7.79444 6.58366 6.58333C7.79477 5.37222 9.21144 4.41666 10.8337 3.71666C12.4559 3.01666 14.1781 2.66666 16.0003 2.66666C17.8225 2.66666 19.5448 3.01666 21.167 3.71666C22.7892 4.41666 24.2059 5.37222 25.417 6.58333C26.6281 7.79444 27.5837 9.21111 28.2837 10.8333C28.9837 12.4556 29.3337 14.1778 29.3337 16C29.3337 17.8222 28.9837 19.5444 28.2837 21.1667C27.5837 22.7889 26.6281 24.2056 25.417 25.4167C24.2059 26.6278 22.7892 27.5833 21.167 28.2833C19.5448 28.9833 17.8225 29.3333 16.0003 29.3333ZM16.0003 27.3333C19.1114 27.3333 21.7781 26.2222 24.0003 24C26.2225 21.7778 27.3337 19.1111 27.3337 16C27.3337 12.8889 26.2225 10.2222 24.0003 8C21.7781 5.77778 19.1114 4.66666 16.0003 4.66666C12.8892 4.66666 10.2225 5.77778 8.00033 8C5.7781 10.2222 4.66699 12.8889 4.66699 16C4.66699 19.1111 5.7781 21.7778 8.00033 24C10.2225 26.2222 12.8892 27.3333 16.0003 27.3333Z" fill="#121212"/>
</svg>
