<svg width="32" height="32" viewBox="0 0 32 32" fill="none" xmlns="http://www.w3.org/2000/svg">
<path d="M13.4417 5.45199C14.1483 5.93999 14.8243 6.26132 15.3803 6.33199C15.0756 6.93664 14.8643 7.58399 14.7537 8.25199C13.8577 8.05332 13.0057 7.57999 12.3057 7.09732C11.9703 6.86495 11.646 6.61713 11.3337 6.35465V9.33332C11.3335 9.53265 11.2737 9.72736 11.162 9.89248C11.0504 10.0576 10.8919 10.1856 10.707 10.26L10.699 10.264C10.6241 10.2942 10.5502 10.3271 10.4777 10.3627C10.3217 10.436 10.095 10.5493 9.82966 10.7013C9.17753 11.0678 8.57601 11.5178 8.04033 12.04C7.43633 12.644 7.06299 13.4573 6.85366 14.088C6.58299 14.896 5.89499 15.6413 4.91633 15.8053C4.84685 15.817 4.78372 15.8528 4.73809 15.9065C4.69247 15.9601 4.66728 16.0282 4.66699 16.0987V18.4373C4.66699 18.6573 4.82699 18.8453 5.04433 18.8813C5.87633 19.02 6.53099 19.564 6.90033 20.2227C7.39116 21.1015 7.99892 21.9098 8.70699 22.6253C9.31568 23.2188 10.0333 23.6892 10.8203 24.0107C11.1551 24.15 11.5001 24.2632 11.8523 24.3493L11.859 24.352C12.0866 24.3965 12.2916 24.5187 12.439 24.6977C12.5864 24.8768 12.667 25.1014 12.667 25.3333V27C12.667 27.184 12.8163 27.3333 13.0003 27.3333H14.667C14.667 26.8029 14.8777 26.2942 15.2528 25.9191C15.6279 25.544 16.1366 25.3333 16.667 25.3333H19.3337C19.8641 25.3333 20.3728 25.544 20.7479 25.9191C21.1229 26.2942 21.3337 26.8029 21.3337 27.3333H23.0003C23.0887 27.3333 23.1735 27.2982 23.236 27.2357C23.2985 27.1732 23.3337 27.0884 23.3337 27V24C23.3337 23.6227 23.547 23.2773 23.883 23.1067L23.9003 23.0973C24.0631 23.0046 24.2206 22.9031 24.3723 22.7933C24.6963 22.5587 25.135 22.1947 25.575 21.6813C26.4443 20.668 27.3337 19.0587 27.3337 16.6667C27.3337 15.324 27.083 14.24 26.655 13.3493C27.1311 12.7173 27.4913 12.0058 27.719 11.248C27.8523 11.4293 27.9777 11.6173 28.095 11.812C28.9003 13.144 29.3337 14.7507 29.3337 16.6653C29.3337 19.608 28.223 21.6653 27.0937 22.984C26.5789 23.5845 25.9871 24.1144 25.3337 24.56V26.9987C25.3338 27.3052 25.2736 27.6087 25.1564 27.892C25.0392 28.1752 24.8674 28.4326 24.6507 28.6494C24.434 28.8662 24.1767 29.0382 23.8936 29.1556C23.6104 29.2729 23.3069 29.3333 23.0003 29.3333H21.3337C20.8032 29.3333 20.2945 29.1226 19.9194 28.7475C19.5444 28.3725 19.3337 27.8638 19.3337 27.3333H16.667C16.667 27.8638 16.4563 28.3725 16.0812 28.7475C15.7061 29.1226 15.1974 29.3333 14.667 29.3333H13.0003C12.3815 29.3333 11.788 29.0875 11.3504 28.6499C10.9128 28.2123 10.667 27.6188 10.667 27V26.0893C10.4581 26.0189 10.2517 25.941 10.0483 25.856C9.02161 25.4339 8.08622 24.8173 7.29366 24.04C6.45494 23.1942 5.73502 22.2383 5.15366 21.1987C5.11044 21.1125 5.0487 21.037 4.97286 20.9775C4.89702 20.918 4.80896 20.8761 4.71499 20.8547C4.14273 20.7593 3.62285 20.4641 3.24783 20.0214C2.87282 19.5788 2.667 19.0175 2.66699 18.4373V16.1C2.66699 14.976 3.48033 14.0173 4.58699 13.8333C4.70299 13.8133 4.87499 13.6973 4.95633 13.4547C5.21233 12.6853 5.70966 11.5427 6.62699 10.6253C7.28811 9.97731 8.03134 9.41878 8.83766 8.96399C9.01899 8.85999 9.18699 8.77065 9.33366 8.69732V4.89332C9.33366 3.64265 10.8403 3.12932 11.6537 3.93865C12.0937 4.37732 12.7337 4.96132 13.4417 5.45065V5.45199ZM17.427 11.7973C16.7737 11.5267 16.2217 11.012 16.091 10.3173C15.8533 9.02306 16.1023 7.68662 16.7901 6.56476C17.4778 5.44289 18.5559 4.61473 19.8171 4.23935C21.0783 3.86398 22.4338 3.96787 23.6231 4.53108C24.8123 5.09428 25.7516 6.07708 26.2603 7.29065C26.7292 8.42157 26.7949 9.67935 26.4462 10.8529C26.0976 12.0265 25.3559 13.0445 24.3457 13.736C23.7617 14.1347 23.0083 14.108 22.355 13.8373L17.427 11.7973ZM23.2857 12.0373C23.9442 11.5572 24.4042 10.8526 24.5789 10.0566C24.7536 9.26057 24.6308 8.42813 24.2337 7.71641C23.8367 7.00469 23.1929 6.46292 22.4237 6.19338C21.6546 5.92384 20.8135 5.94516 20.059 6.25332C19.3656 6.5405 18.7893 7.05311 18.4232 7.70829C18.0572 8.36348 17.9227 9.12296 18.0417 9.86399L18.0697 9.88532C18.1084 9.91057 18.1495 9.932 18.1923 9.94932L23.1203 11.9893C23.1734 12.0114 23.2289 12.0284 23.2857 12.0373ZM12.0003 13.3333C12.0003 13.6869 11.8598 14.0261 11.6098 14.2761C11.3598 14.5262 11.0206 14.6667 10.667 14.6667C10.3134 14.6667 9.97423 14.5262 9.72418 14.2761C9.47413 14.0261 9.33366 13.6869 9.33366 13.3333C9.33366 12.9797 9.47413 12.6406 9.72418 12.3905C9.97423 12.1405 10.3134 12 10.667 12C11.0206 12 11.3598 12.1405 11.6098 12.3905C11.8598 12.6406 12.0003 12.9797 12.0003 13.3333Z" fill="#121212"/>
</svg>
