<svg width="32" height="32" viewBox="0 0 32 32" fill="none" xmlns="http://www.w3.org/2000/svg">
<path fill-rule="evenodd" clip-rule="evenodd" d="M3.078 3.04838C3.58696 2.53943 4.41214 2.53943 4.92109 3.04838L16.9512 15.0785C17.4601 15.5874 17.4601 16.4126 16.9512 16.9215L4.92109 28.9516C4.41214 29.4606 3.58696 29.4606 3.078 28.9516C2.56905 28.4427 2.56905 27.6175 3.078 27.1085L14.1865 16L3.078 4.89146C2.56905 4.38251 2.56905 3.55733 3.078 3.04838Z" fill="#121212"/>
<path fill-rule="evenodd" clip-rule="evenodd" d="M15.078 3.04838C15.587 2.53943 16.4121 2.53943 16.9211 3.04838L28.9512 15.0785C29.4601 15.5874 29.4601 16.4126 28.9512 16.9215L16.9211 28.9516C16.4121 29.4606 15.587 29.4606 15.078 28.9516C14.5691 28.4427 14.5691 27.6175 15.078 27.1085L26.1865 16L15.078 4.89146C14.5691 4.38251 14.5691 3.55733 15.078 3.04838Z" fill="#121212"/>
</svg>
