<svg width="32" height="32" viewBox="0 0 32 32" fill="none" xmlns="http://www.w3.org/2000/svg">
<path d="M15.0763 2.21993C15.4179 1.39864 16.5813 1.39863 16.9229 2.21993L19.9971 9.61111C20.1411 9.95735 20.4667 10.1939 20.8405 10.2239L28.8199 10.8636C29.7066 10.9347 30.0661 12.0412 29.3906 12.6199L23.3111 17.8276C23.0263 18.0715 22.9019 18.4543 22.9889 18.819L24.8463 26.6056C25.0527 27.4708 24.1115 28.1547 23.3524 27.691L16.5209 23.5184C16.2009 23.3229 15.7984 23.3229 15.4784 23.5184L8.64688 27.691C7.88778 28.1547 6.94653 27.4708 7.15291 26.6056L9.01029 18.819C9.0973 18.4543 8.97293 18.0715 8.68814 17.8276L2.60867 12.6199C1.93314 12.0412 2.29266 10.9347 3.17931 10.8636L11.1587 10.2239C11.5325 10.1939 11.8581 9.95735 12.0021 9.61111L15.0763 2.21993Z" fill="#121212"/>
</svg>
