<svg width="32" height="32" viewBox="0 0 32 32" fill="none" xmlns="http://www.w3.org/2000/svg">
<path fill-rule="evenodd" clip-rule="evenodd" d="M20.5842 20.5841C21.0422 20.1261 21.7849 20.1261 22.2429 20.5841L27.6565 25.9977C28.1145 26.4557 28.1145 27.1984 27.6565 27.6564C27.1984 28.1145 26.4557 28.1145 25.9977 27.6564L20.5842 22.2429C20.1261 21.7849 20.1261 21.0422 20.5842 20.5841Z" fill="#121212"/>
<path fill-rule="evenodd" clip-rule="evenodd" d="M4 14.4533C4 8.68008 8.68008 4 14.4533 4C20.2264 4 24.9065 8.68008 24.9065 14.4533C24.9065 17.3345 23.7394 19.9455 21.8547 21.835C19.9635 23.7312 17.3445 24.9065 14.4533 24.9065C8.68008 24.9065 4 20.2264 4 14.4533ZM14.4533 6.34586C9.97567 6.34586 6.34586 9.97567 6.34586 14.4533C6.34586 18.9309 9.97567 22.5607 14.4533 22.5607C16.6962 22.5607 18.7247 21.6514 20.1937 20.1785C21.6577 18.7107 22.5607 16.6886 22.5607 14.4533C22.5607 9.97567 18.9308 6.34586 14.4533 6.34586Z" fill="#121212"/>
</svg>
