<svg width="32" height="32" viewBox="0 0 32 32" fill="none" xmlns="http://www.w3.org/2000/svg">
<path fill-rule="evenodd" clip-rule="evenodd" d="M21.9601 16C21.9601 19.2916 19.2919 21.9598 16.0004 21.9598C12.7088 21.9598 10.0406 19.2916 10.0406 16C10.0406 12.7085 12.7088 10.0402 16.0004 10.0402C19.2919 10.0402 21.9601 12.7085 21.9601 16ZM19.1605 16C19.1605 17.7453 17.7457 19.1601 16.0004 19.1601C14.255 19.1601 12.8403 17.7453 12.8403 16C12.8403 14.2547 14.255 12.8399 16.0004 12.8399C17.7457 12.8399 19.1605 14.2547 19.1605 16Z" fill="#121212"/>
<path fill-rule="evenodd" clip-rule="evenodd" d="M24.4272 9.67982L22.8732 11.5177L24.0295 14.3098L26.534 14.9466L26.5339 17.0294L24.0205 17.6833L22.8639 20.4762L24.4272 22.3202L22.3205 24.4269C22.3205 24.4269 20.9479 23.1959 20.4825 22.8632L17.6904 24.0195L17.0537 26.5336H14.947L14.3118 24.0185L11.5669 22.8893L9.68014 24.4269L7.57341 22.3202L9.17005 20.5292L7.99593 17.7438L5.46668 17.0534V14.9466L7.96579 14.3634L9.10434 11.5641L7.57341 9.67982L9.68014 7.57309L11.4755 9.16995L14.2613 7.99563L14.9269 5.46636H16.9855L17.6413 7.96256L20.4926 9.13518L22.3205 7.57309L24.4272 9.67982ZM19.9895 5.88238L20.5016 5.44471C21.6126 4.49532 23.2669 4.56008 24.3002 5.59341L26.4069 7.70014C27.4363 8.72948 27.505 10.3759 26.5651 11.4875L26.1627 11.9634L27.2239 12.2333C28.465 12.5489 29.3337 13.6662 29.3337 14.9468L29.3336 17.0295C29.3335 18.3042 28.4724 19.4179 27.2388 19.7388L26.1495 20.0223L26.5628 20.5097C27.505 21.6212 27.4372 23.2695 26.4069 24.2999L24.3002 26.4066C23.2486 27.4582 21.5584 27.5041 20.4513 26.5112L20.3963 26.4621C20.3597 26.4294 20.3064 26.3819 20.2408 26.3237C20.1823 26.2718 20.1143 26.2116 20.0399 26.1461L19.7677 27.221C19.4531 28.4633 18.3352 29.3333 17.0537 29.3333H14.947C13.6648 29.3333 12.5464 28.4623 12.2325 27.2192L11.9685 26.1737L11.4488 26.5972C10.3354 27.5045 8.71605 27.4222 7.70046 26.4066L5.59373 24.2999C4.54444 23.2506 4.49611 21.5649 5.48357 20.4572L5.83994 20.0574L4.72935 19.7542C3.51165 19.4218 2.66699 18.3156 2.66699 17.0534V14.9466C2.66699 13.6455 3.56334 12.5159 4.83038 12.2202L5.8389 11.9848L5.40049 11.4452C4.49583 10.3317 4.57927 8.7146 5.59373 7.70014L7.70046 5.59341C8.74889 4.54498 10.4329 4.49575 11.5408 5.48114L11.9356 5.83232L12.2194 4.75384C12.5431 3.52391 13.6551 2.66667 14.9269 2.66667H16.9855C18.2578 2.66667 19.3701 3.52453 19.6934 4.75505L19.9895 5.88238Z" fill="#121212"/>
</svg>
