<svg width="32" height="32" viewBox="0 0 32 32" fill="none" xmlns="http://www.w3.org/2000/svg">
<g id="icon Sorting">
<path id="order-arrow-down" d="M18.3713 20.3382L21.1628 23.1296C21.4006 23.3674 21.7203 23.5 22.0556 23.5C22.3908 23.5 22.7105 23.3674 22.9483 23.1296L25.7398 20.3382C26.2349 19.8431 26.2349 19.0439 25.7398 18.5526C25.4942 18.307 25.1706 18.1823 24.847 18.1823C24.5234 18.1823 24.1998 18.307 23.9542 18.5526L23.3031 19.2037V9.74756C23.3031 9.0575 22.7456 8.5 22.0556 8.5C21.3655 8.5 20.808 9.0575 20.808 9.74756V19.2037L20.1569 18.5526C19.6618 18.0575 18.8626 18.0575 18.3713 18.5526C17.8762 19.0478 17.8762 19.847 18.3713 20.3382Z" fill="#121212"/>
<path id="order-arrow-up" d="M13.753 11.6618L10.9568 8.87037C10.7186 8.63255 10.3984 8.5 10.0625 8.5C9.72664 8.5 9.40641 8.63255 9.16818 8.87037L6.37198 11.6618C5.87601 12.1569 5.87601 12.9561 6.37198 13.4474C6.61802 13.693 6.94216 13.8177 7.2663 13.8177C7.59044 13.8177 7.91458 13.693 8.16061 13.4474L8.8128 12.7963V22.2524C8.8128 22.9425 9.37126 23.5 10.0625 23.5C10.7537 23.5 11.3122 22.9425 11.3122 22.2524V12.7963L11.9644 13.4474C12.4604 13.9425 13.261 13.9425 13.753 13.4474C14.249 12.9522 14.249 12.153 13.753 11.6618Z" fill="#121212"/>
</g>
</svg>
