<svg width="32" height="32" viewBox="0 0 32 32" fill="none" xmlns="http://www.w3.org/2000/svg">
<path d="M10.7622 26.1353H5.89386C5.46967 26.1351 5.04967 26.0513 4.65788 25.8887C4.26609 25.7261 3.91018 25.4879 3.6105 25.1877C3.31082 24.8875 3.07325 24.5311 2.91136 24.139C2.74946 23.747 2.66643 23.3268 2.667 22.9026V5.89353C2.66738 5.03783 3.00747 4.21728 3.61254 3.61221C4.21761 3.00714 5.03816 2.66705 5.89386 2.66667H23.197C24.0527 2.66705 24.8732 3.00714 25.4783 3.61221C26.0834 4.21728 26.4235 5.03783 26.4238 5.89353V11.1727C26.4238 11.406 26.3311 11.6298 26.1661 11.7948C26.0011 11.9598 25.7773 12.0525 25.544 12.0525C25.3106 12.0525 25.0868 11.9598 24.9218 11.7948C24.7568 11.6298 24.6641 11.406 24.6641 11.1727V5.89353C24.6637 5.50453 24.509 5.13158 24.234 4.85652C23.9589 4.58146 23.586 4.42676 23.197 4.42638H5.89386C5.50486 4.42676 5.13191 4.58146 4.85685 4.85652C4.58179 5.13158 4.42709 5.50453 4.42671 5.89353V22.8998C4.42709 23.2888 4.58179 23.6617 4.85685 23.9368C5.13191 24.2118 5.50486 24.3665 5.89386 24.3669H10.7622C10.8808 24.3621 10.9991 24.3813 11.11 24.4234C11.2209 24.4654 11.3222 24.5295 11.4078 24.6116C11.4934 24.6938 11.5615 24.7924 11.608 24.9016C11.6545 25.0107 11.6784 25.1281 11.6784 25.2468C11.6784 25.3654 11.6545 25.4828 11.608 25.592C11.5615 25.7011 11.4934 25.7997 11.4078 25.8819C11.3222 25.9641 11.2209 26.0281 11.11 26.0702C10.9991 26.1122 10.8808 26.1314 10.7622 26.1266V26.1353Z" fill="#121212"/>
<path d="M18.8253 26.1511C17.5666 26.1511 16.3361 25.7779 15.2894 25.0786C14.2428 24.3792 13.4271 23.3853 12.9454 22.2223C12.4637 21.0594 12.3377 19.7797 12.5832 18.5452C12.8288 17.3106 13.4349 16.1766 14.325 15.2865C15.2151 14.3964 16.3491 13.7903 17.5837 13.5447C18.8182 13.2991 20.0979 13.4252 21.2608 13.9069C22.4238 14.3886 23.4178 15.2043 24.1171 16.2509C24.8164 17.2975 25.1897 18.528 25.1897 19.7868C25.1881 21.4742 24.5171 23.0922 23.3239 24.2854C22.1307 25.4786 20.5128 26.1496 18.8253 26.1511ZM18.8253 15.0135C17.8812 15.0135 16.9584 15.2935 16.1734 15.818C15.3884 16.3425 14.7766 17.0879 14.4154 17.9601C14.0541 18.8323 13.9596 19.7921 14.1437 20.718C14.3279 21.6439 14.7825 22.4945 15.4501 23.162C16.1176 23.8296 16.9681 24.2842 17.8941 24.4683C18.82 24.6525 19.7797 24.558 20.6519 24.1967C21.5241 23.8354 22.2696 23.2236 22.7941 22.4387C23.3186 21.6537 23.5986 20.7308 23.5986 19.7868C23.597 18.5213 23.0937 17.3081 22.1988 16.4133C21.304 15.5184 20.0908 15.015 18.8253 15.0135Z" fill="#121212"/>
<path fill-rule="evenodd" clip-rule="evenodd" d="M21.2161 14.0096C20.0735 13.5363 18.8162 13.4124 17.6032 13.6537C16.3902 13.895 15.2759 14.4906 14.4014 15.3651C13.5269 16.2396 12.9313 17.3538 12.69 18.5669C12.4488 19.7799 12.5726 21.0372 13.0459 22.1798C13.5192 23.3225 14.3207 24.2991 15.349 24.9862C16.3773 25.6733 17.5863 26.04 18.823 26.0401C20.4811 26.0386 22.0708 25.3792 23.2432 24.2068C24.4156 23.0344 25.0749 21.4447 25.0764 19.7867C25.0764 18.55 24.7096 17.341 24.0225 16.3127C23.3354 15.2843 22.3588 14.4828 21.2161 14.0096ZM17.5598 13.4358C18.8159 13.1859 20.1179 13.3141 21.3012 13.8042C22.4844 14.2944 23.4958 15.1243 24.2073 16.1892C24.9188 17.2541 25.2986 18.5061 25.2986 19.7868V19.7869C25.2971 21.5038 24.6143 23.1499 23.4003 24.364C22.1863 25.578 20.5401 26.2607 18.8232 26.2623H18.8231C17.5424 26.2623 16.2904 25.8825 15.2255 25.171C14.1607 24.4594 13.3307 23.4481 12.8406 22.2649C12.3505 21.0816 12.2222 19.7796 12.4721 18.5235C12.7219 17.2674 13.3387 16.1136 14.2443 15.208C15.1499 14.3024 16.3037 13.6856 17.5598 13.4358ZM16.1095 15.7256C16.9127 15.1889 17.8571 14.9024 18.8231 14.9024H18.8233C20.1182 14.904 21.3596 15.4191 22.2752 16.3347C23.1909 17.2504 23.706 18.4918 23.7075 19.7867V19.7868C23.7075 20.7528 23.4211 21.6972 22.8844 22.5004C22.3477 23.3037 21.5848 23.9297 20.6923 24.2994C19.7998 24.6691 18.8177 24.7658 17.8702 24.5773C16.9227 24.3889 16.0524 23.9237 15.3694 23.2406C14.6863 22.5575 14.2211 21.6872 14.0326 20.7397C13.8441 19.7922 13.9409 18.8101 14.3105 17.9176C14.6802 17.0251 15.3063 16.2623 16.1095 15.7256ZM18.823 15.1246C17.901 15.1247 16.9996 15.3981 16.233 15.9104C15.4663 16.4227 14.8687 17.1508 14.5159 18.0027C14.163 18.8546 14.0707 19.792 14.2505 20.6964C14.4304 21.6007 14.8745 22.4314 15.5265 23.0835C16.1785 23.7355 17.0092 24.1795 17.9136 24.3594C18.8179 24.5393 19.7554 24.4469 20.6073 24.0941C21.4592 23.7412 22.1873 23.1437 22.6996 22.377C23.2118 21.6103 23.4853 20.709 23.4853 19.7869C23.4838 18.5509 22.9921 17.3659 22.1181 16.4919C21.2441 15.6178 20.0591 15.1261 18.823 15.1246Z" fill="#121212"/>
<path d="M27.5761 29.3333C27.4716 29.3335 27.3681 29.313 27.2716 29.2729C27.1752 29.2328 27.0876 29.174 27.014 29.0998L22.199 24.2833C22.0497 24.1341 21.9658 23.9316 21.9658 23.7205C21.9658 23.5094 22.0497 23.307 22.199 23.1577C22.3482 23.0085 22.5507 22.9246 22.7618 22.9246C22.9729 22.9246 23.1753 23.0085 23.3246 23.1577L28.1396 27.9728C28.2512 28.0841 28.3274 28.226 28.3582 28.3806C28.3891 28.5351 28.3733 28.6954 28.3129 28.841C28.2526 28.9866 28.1503 29.111 28.0191 29.1984C27.8879 29.2858 27.7337 29.3322 27.5761 29.3319V29.3333Z" fill="#121212"/>
<path fill-rule="evenodd" clip-rule="evenodd" d="M22.7625 23.0358C22.5809 23.0358 22.4067 23.1079 22.2783 23.2363C22.1499 23.3648 22.0777 23.5389 22.0777 23.7206C22.0777 23.9022 22.1499 24.0764 22.2783 24.2048L27.0934 29.0213C27.1566 29.085 27.2321 29.1359 27.315 29.1703C27.3833 29.1987 27.4557 29.2156 27.5293 29.2207L27.5771 29.2208C27.7127 29.2211 27.8454 29.1811 27.9583 29.106C28.0711 29.0308 28.1591 28.9238 28.211 28.7985C28.263 28.6732 28.2766 28.5353 28.25 28.4023C28.2235 28.2694 28.158 28.1473 28.0619 28.0515L23.2468 23.2363C23.1183 23.1079 22.9441 23.0358 22.7625 23.0358ZM22.1212 24.3619C21.9511 24.1918 21.8555 23.9611 21.8555 23.7206C21.8555 23.48 21.9511 23.2493 22.1212 23.0792C22.2913 22.9091 22.522 22.8135 22.7625 22.8135C23.0031 22.8135 23.2338 22.9091 23.4039 23.0792L28.2188 27.8941C28.2187 27.8941 28.2188 27.8942 28.2188 27.8941" fill="#121212"/>
<path d="M7.35067 12.9064C7.13929 12.9064 6.93654 12.8224 6.78708 12.6729C6.63762 12.5235 6.55371 12.3208 6.55371 12.1094C6.55371 11.898 6.63762 11.6953 6.78708 11.5458C6.93654 11.3964 7.13929 11.3124 7.35067 11.3124H11.2779C11.4893 11.3124 11.692 11.3964 11.8415 11.5458C11.991 11.6953 12.075 11.898 12.075 12.1094C12.0748 12.3208 11.9908 12.5234 11.8414 12.6729C11.7675 12.747 11.6797 12.8057 11.583 12.8458C11.4863 12.8858 11.3826 12.9064 11.2779 12.9064H7.35067ZM18.4839 8.58276H7.35067C7.24607 8.58295 7.14247 8.56249 7.04578 8.52259C6.9491 8.4827 6.86119 8.42416 6.78717 8.35027C6.71314 8.27638 6.65439 8.18862 6.61432 8.09201C6.57425 7.9954 6.55371 7.89181 6.55371 7.78721C6.55371 7.57584 6.63762 7.37309 6.78708 7.22363C6.93654 7.07416 7.13929 6.99026 7.35067 6.99026H18.4839C18.6953 6.99026 18.8981 7.07416 19.0475 7.22363C19.197 7.37309 19.281 7.57584 19.281 7.78721C19.2812 7.89191 19.2606 7.99564 19.2206 8.09236C19.1805 8.18908 19.1216 8.27686 19.0474 8.35071C18.9743 8.42422 18.8875 8.4826 18.7917 8.52242C18.696 8.56224 18.5934 8.58273 18.4898 8.58276H18.4839Z" fill="#121212"/>
<path fill-rule="evenodd" clip-rule="evenodd" d="M7.35143 7.1014C7.16949 7.1014 6.99501 7.17361 6.86641 7.30222C6.7378 7.43083 6.66558 7.60531 6.66558 7.78724C6.66558 7.87729 6.68326 7.96641 6.71771 8.04947C6.75218 8.13257 6.80272 8.20808 6.86642 8.27166C6.93009 8.33521 7.00571 8.38557 7.08892 8.41991C7.17212 8.45424 7.26126 8.47184 7.35123 8.47168L18.4905 8.47168M6.70927 7.14509C6.87959 6.97477 7.11061 6.87917 7.35143 6.87917H18.4847C18.7255 6.87917 18.9565 6.97477 19.1269 7.14509C19.2972 7.31538 19.3929 7.54639 19.3929 7.78724C19.3929 7.78716 19.3929 7.78732 19.3929 7.78724C19.3931 7.90657 19.3696 8.02475 19.324 8.13492C19.2783 8.24521 19.2112 8.3453 19.1266 8.42949C19.1265 8.42963 19.1267 8.42936 19.1266 8.42949C19.0433 8.51317 18.9443 8.57965 18.8352 8.62503C18.7259 8.67048 18.6088 8.69387 18.4905 8.6939H7.35147M7.35143 7.1014H18.4847H7.35143ZM18.4847 7.1014C18.6666 7.1014 18.8411 7.17361 18.9697 7.30222L18.4847 7.1014ZM18.9697 7.30222C19.0984 7.43085 19.1706 7.60534 19.1706 7.78724L18.9697 7.30222ZM19.1706 7.78724C19.1708 7.87721 19.1531 7.96666 19.1187 8.04986L19.1706 7.78724ZM19.1187 8.04986C19.0842 8.133 19.0336 8.20847 18.9698 8.27199L19.1187 8.04986ZM18.9698 8.27199C18.907 8.33514 18.832 8.38567 18.7498 8.41986L18.9698 8.27199ZM18.7498 8.41986C18.6676 8.45405 18.5795 8.47165 18.4905 8.47168L18.7498 8.41986ZM7.35143 11.4235C7.16953 11.4235 6.99504 11.4958 6.86641 11.6244C6.7378 11.753 6.66558 11.9275 6.66558 12.1095C6.66558 12.2914 6.73779 12.4658 6.86641 12.5944C6.99504 12.723 7.16953 12.7953 7.35143 12.7953H11.2787C11.3687 12.7954 11.458 12.7776 11.5412 12.7432C11.6244 12.7087 11.6999 12.6582 11.7635 12.5944C11.8921 12.4657 11.9645 12.2913 11.9646 12.1094C11.9646 11.9275 11.8923 11.753 11.7637 11.6244C11.6351 11.4958 11.4606 11.4235 11.2787 11.4235H7.35143ZM6.70927 11.4673C6.87957 11.297 7.11058 11.2013 7.35143 11.2013H11.2787C11.5195 11.2013 11.7505 11.297 11.9208 11.4673C12.0911 11.6376 12.1868 11.8686 12.1868 12.1095C12.1866 12.3502 12.0909 12.5811 11.9208 12.7515M6.70927 11.4673C6.53895 11.6376 6.44336 11.8686 6.44336 12.1095L6.70927 11.4673ZM6.44336 12.1095C6.44336 12.3503 6.53896 12.5812 6.70927 12.7515L6.44336 12.1095ZM6.70927 12.7515C6.87957 12.9218 7.11058 13.0175 7.35143 13.0175L6.70927 12.7515ZM11.9208 12.7515C11.8365 12.8359 11.7365 12.9028 11.6263 12.9484C11.5161 12.9941 11.3979 13.0176 11.2786 13.0175H7.35143" fill="#121212"/>
</svg>
