<svg width="32" height="32" viewBox="0 0 32 32" fill="none" xmlns="http://www.w3.org/2000/svg">
<path d="M15.6594 18.0226C15.5624 18.0227 15.4663 18.0037 15.3767 17.9665C15.2872 17.9293 15.2059 17.8747 15.1375 17.8059C15.0682 17.7376 15.0133 17.6561 14.9761 17.5662C14.9389 17.4763 14.9202 17.3798 14.9209 17.2826C14.9202 17.1853 14.9389 17.0888 14.9761 16.9989C15.0133 16.909 15.0682 16.8275 15.1375 16.7592L21.3785 10.9077L21.5719 9.22576L21.473 8.04679C21.4717 8.01967 21.4717 7.99245 21.473 7.96533C21.4772 7.77576 21.5542 7.59511 21.6882 7.4609L24.8255 4.32514C24.8938 4.25635 24.9751 4.20171 25.0647 4.16453C25.1543 4.12735 25.2504 4.1083 25.3474 4.10845C25.4342 4.10816 25.5203 4.12344 25.6018 4.15353C25.7342 4.20188 25.85 4.28717 25.9355 4.39923C26.021 4.51129 26.0727 4.64544 26.0844 4.78592L26.2763 7.05673L28.5471 7.24714C28.6876 7.25931 28.8218 7.31135 28.9338 7.3971C29.0458 7.48285 29.1311 7.59877 29.1795 7.73126C29.2277 7.86357 29.2372 8.00688 29.2068 8.14439C29.1764 8.28191 29.1075 8.40791 29.008 8.50757L25.8707 11.6434C25.8532 11.6623 25.8342 11.6797 25.814 11.6957H25.8067L25.7951 11.7059L25.782 11.7161L25.7515 11.7379H25.7398H25.7268L25.6846 11.7626H25.6715H25.6585L25.6148 11.7801L25.5858 11.7917L25.5436 11.8047L25.5116 11.812L25.4724 11.8207H25.4346H25.3866H25.3474C25.3266 11.822 25.3056 11.822 25.2848 11.8207L24.1058 11.7219L22.4238 11.9167L16.1828 17.7681C16.1174 17.8439 16.0373 17.9055 15.9473 17.9493C15.8573 17.993 15.7594 18.018 15.6594 18.0226ZM24.744 6.49701L22.9762 8.26631L23.139 10.1954L25.0682 10.3582L26.8374 8.58902L25.5291 8.47997C25.3553 8.46489 25.1923 8.38898 25.0689 8.2656C24.9455 8.14222 24.8696 7.97928 24.8545 7.80544L24.744 6.49701Z" fill="#121212"/>
<path fill-rule="evenodd" clip-rule="evenodd" d="M25.5652 4.2553C25.4959 4.2297 25.4226 4.21671 25.3488 4.21695C25.2661 4.21682 25.1836 4.23307 25.1073 4.26475C25.031 4.2964 24.9618 4.34295 24.9034 4.40163L21.766 7.53755C21.6518 7.65202 21.5861 7.80608 21.5825 7.96774L21.5824 7.97079C21.5813 7.99371 21.5812 8.01671 21.5823 8.03963L21.6819 9.22746L21.4828 10.9597L15.2138 16.8374C15.1552 16.8954 15.1089 16.9643 15.0774 17.0404C15.0458 17.1168 15.0298 17.1989 15.0304 17.2817V17.2834C15.0298 17.3662 15.0458 17.4483 15.0774 17.5248C15.109 17.6012 15.1557 17.6705 15.2147 17.7287C15.273 17.7873 15.3431 17.8347 15.4194 17.8663C15.495 17.8977 15.5761 17.9139 15.6579 17.9141C15.7423 17.9099 15.8249 17.8887 15.9009 17.8517C15.9776 17.8145 16.046 17.7619 16.1017 17.6973L16.1092 17.6885L22.3768 11.8131L24.1052 11.6129L25.2937 11.7125C25.3097 11.7135 25.3257 11.7135 25.3417 11.7125L25.3484 11.712L25.4616 11.7123L25.4886 11.7063L25.5165 11.6999L25.5506 11.6894L25.5755 11.6794L25.6386 11.6541H25.6563L25.6984 11.6295H25.7177L25.727 11.6223L25.7669 11.5872H25.7748C25.7809 11.5815 25.7867 11.5756 25.7924 11.5695L25.795 11.5667L28.9323 8.43095M25.6403 4.05175C25.5469 4.01727 25.4481 3.99973 25.3486 4C25.3484 4 25.3488 4 25.3486 4M25.6403 4.05175C25.7921 4.10723 25.9247 4.20501 26.0228 4.33344C26.1208 4.46192 26.1801 4.61573 26.1935 4.77681M26.1935 4.77681L26.3777 6.95631L28.5572 7.13907C28.7183 7.15302 28.8724 7.2127 29.0008 7.31099C29.1292 7.40928 29.2269 7.54215 29.2824 7.69404C29.3377 7.84575 29.3486 8.01016 29.3138 8.16782C29.279 8.32547 29.1999 8.46995 29.0858 8.58424L25.9498 11.7189C25.9288 11.7412 25.9062 11.7619 25.8824 11.7807L25.8528 11.8042H25.8465L25.7873 11.8464H25.7572L25.7151 11.8711H25.6804L25.6562 11.8808L25.619 11.8957L25.5688 11.9108L25.5368 11.9178L25.4853 11.9292H25.3516C25.3275 11.9306 25.3033 11.9305 25.2791 11.929L25.2768 11.9289L24.1086 11.8309L22.4729 12.0204L16.2621 17.8435C16.1878 17.9283 16.0972 17.9975 15.9958 18.0469C15.8925 18.097 15.7802 18.1257 15.6655 18.131L15.6607 18.1312C15.5494 18.1314 15.439 18.1094 15.3362 18.0667C15.2335 18.0241 15.1404 17.9615 15.062 17.8828C14.9826 17.8044 14.9196 17.7109 14.8769 17.6077C14.8343 17.5047 14.8127 17.3941 14.8135 17.2826C14.8127 17.1711 14.8343 17.0605 14.8769 16.9574C14.9197 16.8541 14.9828 16.7605 15.0624 16.682L15.0643 16.6801L21.2763 10.8559L21.4639 9.22411L21.3657 8.05225M21.3656 7.96143C21.3708 7.74452 21.4592 7.5379 21.6125 7.3843L24.7496 4.24869C24.7495 4.24876 24.7496 4.24862 24.7496 4.24869M21.3656 7.96143C21.3657 7.96093 21.3657 7.96043 21.3657 7.95993L21.4741 7.96536L21.3656 7.96298M25.5652 4.2553C25.6782 4.29654 25.7773 4.36944 25.8503 4.46506L25.5652 4.2553ZM25.8503 4.46506C25.9233 4.56067 25.9673 4.67511 25.9773 4.79495L25.8503 4.46506ZM25.9773 4.79495L26.1693 7.06589L25.9773 4.79495ZM24.8335 6.25505L24.9636 7.79609C24.9636 7.79603 24.9636 7.79615 24.9636 7.79609C24.9765 7.94439 25.0414 8.08361 25.1467 8.18892C25.252 8.29422 25.391 8.35902 25.5394 8.37192C25.5394 8.37192 25.5394 8.37192 25.5394 8.37192L27.0806 8.50038L25.1104 10.4706L23.0397 10.2958L22.8649 8.22528L24.8335 6.25505ZM23.0896 8.30739L23.2405 10.0951L25.0282 10.2459L26.5964 8.67772L25.5211 8.5881C25.3219 8.57081 25.1347 8.48376 24.9933 8.34233C24.8519 8.20092 24.7647 8.01415 24.7475 7.81484L24.6566 6.73901L23.0896 8.30739ZM28.5388 7.35524L26.177 7.15719L26.1693 7.06589M28.5388 7.35524C28.6587 7.36565 28.7733 7.41008 28.8689 7.48326C28.9645 7.55647 29.0373 7.65543 29.0787 7.76853M28.5388 7.35524C28.5387 7.35523 28.5389 7.35524 28.5388 7.35524V7.35524Z" fill="#121212"/>
<path d="M17.8488 16.7003C18.0109 17.1225 18.0441 17.5834 17.9443 18.0245C17.8445 18.4656 17.6161 18.8672 17.288 19.1786C16.96 19.4899 16.5469 19.697 16.1012 19.7736C15.6554 19.8501 15.197 19.7928 14.7838 19.6089C14.3706 19.4249 14.0213 19.1226 13.7799 18.7401C13.5386 18.3576 13.4161 17.9121 13.4279 17.4599C13.4398 17.0078 13.5854 16.5693 13.8464 16.2C14.1075 15.8306 14.4722 15.547 14.8944 15.3849C15.4606 15.1676 16.09 15.184 16.644 15.4307C17.1981 15.6774 17.6315 16.1341 17.8488 16.7003Z" fill="#121212"/>
<path d="M23.1004 17.1241C23.1715 21.3063 19.8388 24.7543 15.6565 24.8254C11.4743 24.8965 8.02626 21.5638 7.95516 17.3815C7.88406 13.1993 11.2168 9.75127 15.3991 9.68018C15.4016 9.68013 15.4041 9.68009 15.4067 9.68005C15.4074 9.68004 15.4079 9.68003 15.4087 9.68002C15.4107 9.67999 15.4127 9.67996 15.4147 9.67993C15.4155 9.67991 15.4158 9.67991 15.4166 9.6799C15.4191 9.67986 15.4216 9.67983 15.4241 9.67979C15.4239 9.67979 15.4244 9.67979 15.4241 9.67979C15.4262 9.67976 15.4296 9.67972 15.4316 9.67969C15.4324 9.67968 15.4332 9.67967 15.434 9.67966C15.4362 9.67963 15.4384 9.67961 15.4406 9.67958C15.4404 9.67958 15.4409 9.67958 15.4406 9.67958C15.4432 9.67955 15.4466 9.67951 15.4491 9.67949C15.4499 9.67948 15.4503 9.67947 15.4511 9.67947C15.453 9.67945 15.455 9.67943 15.4569 9.67941C15.4574 9.67941 15.4585 9.67939 15.459 9.67939C15.4615 9.67937 15.4639 9.67934 15.4664 9.67932C15.4669 9.67932 15.4674 9.67932 15.4679 9.67931C15.47 9.6793 15.472 9.67928 15.4741 9.67927C15.4748 9.67926 15.4757 9.67925 15.4764 9.67925C15.4784 9.67923 15.4804 9.67922 15.4824 9.67921C15.4829 9.67921 15.4835 9.6792 15.484 9.6792C15.4865 9.67918 15.489 9.67917 15.4916 9.67916C15.4911 9.67916 15.4921 9.67915 15.4916 9.67916C15.4937 9.67915 15.4972 9.67913 15.4992 9.67912C15.5 9.67912 15.5007 9.67912 15.5015 9.67911C15.5038 9.67911 15.506 9.6791 15.5083 9.67909C15.5081 9.67909 15.5086 9.67909 15.5083 9.67909C15.5108 9.67908 15.514 9.67908 15.5165 9.67907C15.517 9.67907 15.518 9.67907 15.5185 9.67907C15.5206 9.67907 15.5225 9.67906 15.5245 9.67906C15.5253 9.67906 15.5257 9.67906 15.5264 9.67906C15.5289 9.67906 15.5314 9.67906 15.5339 9.67906C15.5334 9.67906 15.5344 9.67906 15.5339 9.67906C15.536 9.67906 15.5395 9.67906 15.5416 9.67907C15.5421 9.67907 15.5431 9.67907 15.5436 9.67907C15.5457 9.67907 15.5478 9.67908 15.55 9.67909C15.5497 9.67909 15.5502 9.67909 15.55 9.67909C15.5525 9.67909 15.5564 9.6791 15.5589 9.67911C15.5595 9.67911 15.5601 9.67912 15.5606 9.67912C15.5626 9.67913 15.5647 9.67914 15.5667 9.67915C15.5675 9.67915 15.5679 9.67915 15.5686 9.67915C15.5737 9.67918 15.5789 9.67921 15.584 9.67925C15.5845 9.67925 15.5853 9.67926 15.5858 9.67926C15.5879 9.67928 15.5902 9.67929 15.5923 9.67931C15.5918 9.6793 15.5929 9.67931 15.5923 9.67931C15.595 9.67933 15.5987 9.67936 15.6013 9.67939C15.601 9.67938 15.6015 9.67939 15.6013 9.67939C15.6035 9.67941 15.6068 9.67944 15.609 9.67946C15.6095 9.67947 15.6103 9.67947 15.6108 9.67948C15.6133 9.67951 15.6158 9.67953 15.6183 9.67956C15.621 9.67959 15.6236 9.67962 15.6263 9.67966C15.6268 9.67966 15.6272 9.67967 15.6277 9.67968C15.6299 9.6797 15.632 9.67973 15.6342 9.67976C15.6347 9.67977 15.6353 9.67977 15.6358 9.67978C15.6409 9.67985 15.646 9.67993 15.6511 9.68001C15.6518 9.68002 15.6523 9.68002 15.653 9.68004C15.6552 9.68007 15.6574 9.68011 15.6595 9.68014C15.659 9.68013 15.66 9.68015 15.6595 9.68014C15.6621 9.68019 15.6658 9.68025 15.6685 9.6803C15.668 9.68029 15.669 9.68031 15.6685 9.6803C15.6707 9.68034 15.674 9.6804 15.6763 9.68044C15.6766 9.68045 15.6776 9.68047 15.6778 9.68047C15.6831 9.68057 15.6884 9.68068 15.6937 9.68079C15.6934 9.68079 15.6939 9.6808 15.6937 9.68079C15.6961 9.68084 15.6994 9.68092 15.7019 9.68097C15.7016 9.68097 15.7021 9.68098 15.7019 9.68097C15.7072 9.68109 15.7133 9.68123 15.7187 9.68136C15.7184 9.68136 15.7189 9.68137 15.7187 9.68136C15.7241 9.6815 15.7303 9.68165 15.7357 9.6818C15.7383 9.68187 15.7414 9.68195 15.744 9.68203C15.7495 9.68218 15.7554 9.68235 15.7609 9.68251C15.7693 9.68277 15.7777 9.68303 15.7861 9.68331C15.7916 9.6835 15.7972 9.68369 15.8028 9.68389C16.3824 9.70445 16.9459 9.79037 17.486 9.93459C17.9515 10.0589 18.2281 10.537 18.1038 11.0025C17.9794 11.468 17.5013 11.7446 17.0358 11.6203C16.5151 11.4812 15.9744 11.4154 15.4287 11.4247C12.2151 11.4793 9.64506 14.1383 9.69969 17.3519C9.75432 20.5655 12.4132 23.1355 15.6269 23.0809C18.8405 23.0263 21.4105 20.3673 21.3559 17.1537C21.3477 16.672 21.7316 16.2748 22.2133 16.2666C22.6951 16.2584 23.0922 16.6423 23.1004 17.1241Z" fill="#121212"/>
<path d="M28.4206 17.2728C28.4207 19.9102 27.604 22.4483 26.1493 24.5647C24.5165 26.9403 22.0801 28.7842 19.0925 29.6411C17.9179 29.9777 16.7345 30.1398 15.5702 30.1426C15.5593 30.1426 15.5483 30.1426 15.5373 30.1426C12.7442 30.1423 10.0622 29.2259 7.87463 27.6058C5.67848 25.9794 3.98068 23.6437 3.16906 20.8138C2.79674 19.5156 2.6377 18.2054 2.6714 16.9234C2.81511 11.4563 6.45981 6.47848 11.995 4.89173C13.1696 4.55491 14.353 4.39262 15.5175 4.3896C15.5213 4.38959 15.5253 4.38958 15.5291 4.38957C15.5301 4.38957 15.5309 4.38957 15.5319 4.38957C15.5356 4.38956 15.5393 4.38956 15.543 4.38956C15.5437 4.38956 15.5448 4.38956 15.5455 4.38956C15.5488 4.38956 15.5521 4.38955 15.5553 4.38956C15.556 4.38956 15.5571 4.38956 15.5577 4.38956C15.5614 4.38956 15.565 4.38956 15.5687 4.38957C15.5697 4.38957 15.571 4.38957 15.572 4.38957C15.5756 4.38958 15.5791 4.38959 15.5826 4.3896C15.5833 4.3896 15.5835 4.3896 15.5841 4.3896C15.5876 4.38961 15.591 4.38962 15.5944 4.38963C15.5955 4.38964 15.5969 4.38964 15.598 4.38964C15.6015 4.38966 15.605 4.38967 15.6085 4.38969C15.6096 4.38969 15.6108 4.3897 15.6118 4.38971C15.6147 4.38972 15.6174 4.38973 15.6202 4.38975C15.6216 4.38976 15.6225 4.38976 15.6239 4.38977C15.6273 4.38979 15.6308 4.38981 15.6341 4.38983C15.6352 4.38984 15.6371 4.38985 15.6381 4.38986C15.6412 4.38988 15.6444 4.3899 15.6475 4.38993C15.6485 4.38993 15.6498 4.38994 15.6509 4.38995C15.6539 4.38998 15.6568 4.39 15.6598 4.39003C15.6612 4.39004 15.6625 4.39005 15.6639 4.39006C15.6673 4.39009 15.6706 4.39012 15.674 4.39015C15.6754 4.39017 15.6766 4.39018 15.678 4.3902C15.6806 4.39022 15.6832 4.39025 15.6858 4.39028C15.6871 4.39029 15.6883 4.3903 15.6897 4.39032C15.6929 4.39035 15.6963 4.39039 15.6996 4.39043C15.7013 4.39045 15.7024 4.39046 15.7041 4.39048C15.7068 4.39051 15.7096 4.39055 15.7123 4.39058C15.714 4.39061 15.7158 4.39063 15.7175 4.39065C15.72 4.39068 15.7225 4.39072 15.725 4.39075C15.7267 4.39078 15.7283 4.3908 15.73 4.39082C15.7331 4.39087 15.7364 4.39091 15.7394 4.39096C15.7412 4.39099 15.7424 4.391 15.7441 4.39103C15.7464 4.39106 15.7486 4.3911 15.7509 4.39113C15.7526 4.39116 15.7538 4.39118 15.7556 4.3912C15.7587 4.39125 15.7618 4.39131 15.7649 4.39136C15.7666 4.39139 15.7684 4.39142 15.7701 4.39145C15.7724 4.39149 15.7747 4.39153 15.7769 4.39157C15.7793 4.39161 15.7815 4.39165 15.7838 4.39169C15.7861 4.39174 15.7883 4.39177 15.7906 4.39182C15.7923 4.39185 15.7939 4.39188 15.7956 4.39191C15.7987 4.39197 15.8017 4.39203 15.8048 4.39209C15.8065 4.39213 15.8086 4.39217 15.8103 4.3922C15.8121 4.39224 15.8139 4.39228 15.8158 4.39232C15.8185 4.39237 15.8215 4.39244 15.8242 4.39249C15.8261 4.39254 15.8282 4.39258 15.8301 4.39262C15.8321 4.39267 15.8342 4.39272 15.8363 4.39276C15.8378 4.3928 15.8395 4.39283 15.8411 4.39287C15.8442 4.39294 15.8477 4.39302 15.8507 4.39309C15.8523 4.39313 15.8538 4.39316 15.8554 4.3932C15.8578 4.39326 15.8593 4.3933 15.8617 4.39335C15.8635 4.3934 15.8652 4.39344 15.867 4.39349C15.8701 4.39356 15.8733 4.39364 15.8763 4.39372C15.8778 4.39376 15.8793 4.3938 15.8808 4.39384C15.8842 4.39392 15.8877 4.39401 15.8911 4.39411C15.8926 4.39415 15.894 4.39418 15.8955 4.39422C15.8975 4.39428 15.8999 4.39434 15.902 4.3944C15.9034 4.39444 15.9047 4.39448 15.9062 4.39452C15.9096 4.39461 15.9132 4.39472 15.9167 4.39481C15.918 4.39485 15.9194 4.39489 15.9208 4.39493C15.9231 4.395 15.925 4.39505 15.9274 4.39512C15.9282 4.39515 15.9289 4.39517 15.9297 4.39519C15.9341 4.39532 15.938 4.39544 15.9424 4.39558C15.9435 4.39561 15.9447 4.39565 15.9458 4.39569C15.9499 4.39581 15.9542 4.39595 15.9583 4.39608C15.9591 4.3961 15.9599 4.39613 15.9606 4.39615C15.963 4.39623 15.9654 4.39631 15.9678 4.39638C15.9687 4.39642 15.9698 4.39645 15.9707 4.39648C15.9748 4.39661 15.9788 4.39675 15.9829 4.39688C15.9839 4.39692 15.9848 4.39695 15.9858 4.39699C15.993 4.39723 16.0007 4.3975 16.0078 4.39776C16.009 4.3978 16.0101 4.39784 16.0113 4.39788C16.0153 4.39803 16.0197 4.39818 16.0238 4.39834C16.0246 4.39837 16.0253 4.39839 16.0261 4.39842C16.0285 4.39851 16.0309 4.3986 16.0333 4.39869C16.0341 4.39873 16.0349 4.39876 16.0357 4.39879C16.0398 4.39894 16.0446 4.39913 16.0487 4.39929C16.0495 4.39932 16.0503 4.39935 16.0511 4.39938C16.0586 4.39967 16.0663 4.39998 16.0737 4.40029C16.0745 4.40032 16.0753 4.40035 16.076 4.40038C16.0839 4.40071 16.0914 4.40102 16.0993 4.40136C16.1044 4.40158 16.1099 4.40182 16.115 4.40205C16.1153 4.40206 16.1146 4.40203 16.115 4.40205C16.1231 4.40241 16.1316 4.40279 16.1397 4.40317C16.14 4.40318 16.1395 4.40316 16.1397 4.40317C16.1534 4.4038 16.167 4.40445 16.1806 4.40512C16.1808 4.40513 16.1805 4.40512 16.1806 4.40512C16.1888 4.40553 16.1968 4.40593 16.205 4.40635C16.2053 4.40636 16.2046 4.40633 16.205 4.40635C16.2264 4.40745 16.2491 4.40867 16.2705 4.40988C16.2706 4.40989 16.2704 4.40988 16.2705 4.40988C17.1352 4.45872 17.9856 4.5949 18.8106 4.81211C19.2752 4.93557 19.5524 5.41186 19.43 5.87702C19.3075 6.34291 18.8304 6.62123 18.3646 6.49866C17.4358 6.25432 16.4794 6.13167 15.522 6.13412C14.497 6.13678 13.4721 6.28299 12.4757 6.56871C10.1059 7.24806 8.07875 8.65018 6.61351 10.6235C5.19352 12.5358 4.41151 14.8924 4.41151 17.2592C4.41151 18.2935 4.55768 19.3276 4.84598 20.3329C5.52709 22.7077 6.93339 24.7379 8.91287 26.2039C10.8313 27.6246 13.1941 28.4039 15.566 28.3981C16.591 28.3956 17.6158 28.2496 18.6115 27.9642C20.9818 27.2844 23.0091 25.882 24.4744 23.9085C25.8943 21.9962 26.6762 19.6396 26.6761 17.2729C26.676 16.5868 26.6112 15.8954 26.4834 15.2179C26.3941 14.7445 26.7054 14.2884 27.1788 14.1991C27.6514 14.1099 28.1068 14.42 28.1972 14.892C28.2153 14.9876 28.2322 15.0833 28.248 15.1788C28.2495 15.1877 28.251 15.1969 28.2525 15.2059C28.2529 15.2085 28.2533 15.211 28.2538 15.2136C28.2544 15.2174 28.255 15.2212 28.2556 15.225C28.256 15.2276 28.2565 15.2303 28.2569 15.2329C28.2573 15.2356 28.2577 15.2382 28.2582 15.2409C28.2587 15.2442 28.2592 15.2473 28.2597 15.2506C28.2602 15.2537 28.2607 15.2569 28.2612 15.2601C28.2617 15.2629 28.2622 15.2658 28.2626 15.2686C28.2636 15.2749 28.2646 15.2811 28.2655 15.2874C28.266 15.2903 28.2665 15.2931 28.2669 15.296C28.2679 15.3024 28.2689 15.3087 28.2699 15.315C28.2703 15.318 28.2708 15.3209 28.2712 15.3238C28.2722 15.3303 28.2731 15.3365 28.2741 15.3429C28.2746 15.3458 28.275 15.3487 28.2755 15.3516C28.3419 15.7897 28.3852 16.2272 28.406 16.6627C28.4063 16.6691 28.4066 16.6754 28.4069 16.6819C28.407 16.6849 28.4072 16.6879 28.4073 16.6909C28.4076 16.697 28.4079 16.7033 28.4082 16.7094C28.4083 16.7124 28.4085 16.7155 28.4086 16.7185C28.4088 16.7246 28.409 16.731 28.4093 16.7371C28.4095 16.7402 28.4096 16.7431 28.4097 16.7462C28.41 16.7526 28.4103 16.7591 28.4105 16.7654C28.4106 16.7683 28.4107 16.7712 28.4109 16.7741C28.4111 16.7804 28.4114 16.7868 28.4116 16.7931C28.4117 16.796 28.4118 16.7989 28.4119 16.8018C28.4121 16.8079 28.4125 16.8144 28.4126 16.8205C28.4127 16.8236 28.4128 16.8266 28.4129 16.8296C28.4131 16.836 28.4133 16.8424 28.4136 16.8488C28.4137 16.8517 28.4138 16.8546 28.4138 16.8575C28.4139 16.8605 28.4141 16.8636 28.4141 16.8666C28.4142 16.8699 28.4143 16.8733 28.4145 16.8766C28.4145 16.8796 28.4146 16.8824 28.4147 16.8853C28.4148 16.8884 28.4148 16.8915 28.415 16.8944C28.4151 16.8978 28.4152 16.9013 28.4153 16.9047C28.4154 16.9075 28.4154 16.9102 28.4155 16.9131C28.4156 16.9163 28.4157 16.9196 28.4158 16.9228C28.4159 16.9259 28.416 16.9292 28.4161 16.9323C28.4161 16.9351 28.4162 16.938 28.4163 16.9408C28.4164 16.9442 28.4165 16.9475 28.4165 16.9509C28.4166 16.954 28.4167 16.9571 28.4168 16.9602C28.4168 16.963 28.4169 16.9659 28.417 16.9687C28.4171 16.9721 28.4171 16.9754 28.4172 16.9788C28.4173 16.9818 28.4174 16.9848 28.4174 16.9878C28.4175 16.9907 28.4176 16.9935 28.4176 16.9963C28.4177 16.9995 28.4177 17.0028 28.4178 17.006C28.4179 17.0093 28.418 17.0125 28.418 17.0157C28.4181 17.0185 28.4181 17.0212 28.4182 17.024C28.4183 17.0274 28.4183 17.0309 28.4184 17.0343C28.4184 17.0372 28.4185 17.0402 28.4185 17.0432C28.4186 17.046 28.4186 17.0488 28.4187 17.0517C28.4188 17.0551 28.4188 17.0587 28.4189 17.0621C28.4189 17.0651 28.419 17.0681 28.419 17.0711C28.4191 17.0739 28.4191 17.0766 28.4191 17.0794C28.4192 17.083 28.4193 17.0865 28.4193 17.0901C28.4193 17.093 28.4194 17.0958 28.4194 17.0988C28.4195 17.1015 28.4195 17.1044 28.4195 17.1071C28.4196 17.1106 28.4196 17.1141 28.4197 17.1176C28.4197 17.1206 28.4197 17.1236 28.4198 17.1266C28.4198 17.1292 28.4198 17.132 28.4199 17.1347C28.4199 17.1382 28.42 17.1417 28.42 17.1452C28.42 17.1481 28.42 17.1511 28.4201 17.1539C28.4201 17.1567 28.4201 17.1595 28.4201 17.1623C28.4202 17.1659 28.4202 17.1694 28.4202 17.173C28.4203 17.1759 28.4203 17.1788 28.4203 17.1818C28.4203 17.1846 28.4204 17.1872 28.4203 17.1899C28.4204 17.1935 28.4204 17.1971 28.4204 17.2007C28.4204 17.2035 28.4204 17.2063 28.4205 17.2092C28.4205 17.2119 28.4206 17.2148 28.4205 17.2175C28.4205 17.2212 28.4205 17.2246 28.4205 17.2282C28.4206 17.2311 28.4206 17.234 28.4206 17.237C28.4206 17.2397 28.4206 17.2425 28.4206 17.2452C28.4206 17.2489 28.4206 17.2523 28.4206 17.256C28.4206 17.2587 28.4206 17.2617 28.4206 17.2645C28.4206 17.2672 28.4206 17.2701 28.4206 17.2728Z" fill="#121212"/>
</svg>
