<svg width="32" height="32" viewBox="0 0 32 32" fill="none" xmlns="http://www.w3.org/2000/svg">
<path fill-rule="evenodd" clip-rule="evenodd" d="M11.4735 7H17.1774C18.704 6.99998 19.9345 6.99996 20.9022 7.13007C21.907 7.26516 22.753 7.55415 23.4249 8.22605C24.0437 8.84493 24.3378 9.61151 24.4859 10.5138C25.3883 10.6619 26.155 10.9559 26.774 11.5749C27.4458 12.2468 27.7348 13.0928 27.8699 14.0976C28 15.0653 28 16.2958 28 17.8224V17.9449C28 19.4715 28 20.702 27.8699 21.6697C27.7348 22.6745 27.4458 23.5205 26.774 24.1924C26.1021 24.8643 25.2561 25.1533 24.2513 25.2884C23.2835 25.4185 22.053 25.4185 20.5265 25.4184H14.8226C13.296 25.4185 12.0655 25.4185 11.0978 25.2884C10.093 25.1533 9.24703 24.8643 8.57513 24.1924C7.95624 23.5735 7.66216 22.8069 7.51409 21.9046C6.61166 21.7565 5.84499 21.4625 5.22605 20.8435C4.55415 20.1716 4.26516 19.3257 4.13007 18.3209C3.99996 17.3531 3.99998 16.1226 4 14.596V14.4735C3.99998 12.9469 3.99996 11.7165 4.13007 10.7487C4.26516 9.74394 4.55415 8.89795 5.22605 8.22605C5.89795 7.55415 6.74394 7.26516 7.7487 7.13007C8.71646 6.99996 9.94695 6.99998 11.4735 7ZM9.25282 22.0491C9.3699 22.4988 9.53667 22.786 9.75911 23.0084C10.0681 23.3174 10.5018 23.5188 11.3209 23.6289C12.1641 23.7423 13.2816 23.744 14.8839 23.744H20.4652C22.0675 23.744 23.185 23.7423 24.0282 23.6289C24.8473 23.5188 25.281 23.3174 25.59 23.0084C25.8989 22.6995 26.1003 22.2657 26.2105 21.4466C26.3238 20.6035 26.3256 19.486 26.3256 17.8837C26.3256 16.2813 26.3238 15.1638 26.2105 14.3207C26.1003 13.5016 25.8989 13.0678 25.59 12.7589C25.3675 12.5364 25.0802 12.3696 24.6304 12.2525C24.6509 12.9099 24.6509 13.6485 24.6509 14.4735V14.596C24.6509 16.1226 24.651 17.3531 24.5208 18.3209C24.3858 19.3257 24.0968 20.1716 23.4249 20.8435C22.753 21.5154 21.907 21.8044 20.9022 21.9395C19.9345 22.0696 18.704 22.0696 17.1774 22.0696H11.4735C10.6486 22.0696 9.91011 22.0696 9.25282 22.0491ZM7.97181 8.78954C7.15272 8.89966 6.71897 9.10109 6.41003 9.41003C6.10109 9.71897 5.89966 10.1527 5.78954 10.9718C5.67618 11.815 5.6744 12.9325 5.6744 14.5348C5.6744 16.1371 5.67618 17.2546 5.78954 18.0978C5.89966 18.9169 6.10109 19.3506 6.41003 19.6596C6.71897 19.9685 7.15272 20.1699 7.97181 20.2801C8.81498 20.3934 9.93249 20.3952 11.5348 20.3952H17.1161C18.7184 20.3952 19.8359 20.3934 20.6791 20.2801C21.4982 20.1699 21.9319 19.9685 22.2409 19.6596C22.5498 19.3506 22.7513 18.9169 22.8614 18.0978C22.9747 17.2546 22.9765 16.1371 22.9765 14.5348C22.9765 12.9325 22.9747 11.815 22.8614 10.9718C22.7513 10.1527 22.5498 9.71897 22.2409 9.41003C21.9319 9.10109 21.4982 8.89966 20.6791 8.78954C19.8359 8.67618 18.7184 8.6744 17.1161 8.6744H11.5348C9.93249 8.6744 8.81498 8.67618 7.97181 8.78954ZM14.3255 12.5813C13.2466 12.5813 12.372 13.4559 12.372 14.5348C12.372 15.6137 13.2466 16.4883 14.3255 16.4883C15.4043 16.4883 16.2789 15.6137 16.2789 14.5348C16.2789 13.4559 15.4043 12.5813 14.3255 12.5813ZM10.6976 14.5348C10.6976 12.5312 12.3218 10.9069 14.3255 10.9069C16.3291 10.9069 17.9533 12.5312 17.9533 14.5348C17.9533 16.5384 16.3291 18.1627 14.3255 18.1627C12.3218 18.1627 10.6976 16.5384 10.6976 14.5348ZM8.186 11.4651C8.64837 11.4651 9.0232 11.8399 9.0232 12.3023V16.7673C9.0232 17.2297 8.64837 17.6045 8.186 17.6045C7.72363 17.6045 7.3488 17.2297 7.3488 16.7673L7.3488 12.3023C7.3488 11.8399 7.72363 11.4651 8.186 11.4651ZM20.4649 11.4651C20.9273 11.4651 21.3021 11.8399 21.3021 12.3023V16.7673C21.3021 17.2297 20.9273 17.6045 20.4649 17.6045C20.0026 17.6045 19.6277 17.2297 19.6277 16.7673V12.3023C19.6277 11.8399 20.0026 11.4651 20.4649 11.4651Z" fill="#121212"/>
</svg>
