<svg width="32" height="32" viewBox="0 0 32 32" fill="none" xmlns="http://www.w3.org/2000/svg">
<path fill-rule="evenodd" clip-rule="evenodd" d="M4 4.52259C4 3.4976 4.82964 2.66667 5.85306 2.66667H20.0498C20.5412 2.66667 21.0125 2.86218 21.36 3.21025C21.36 3.21021 21.3601 3.21029 21.36 3.21025L25.1965 7.05249C25.5439 7.40055 25.7392 7.87269 25.7392 8.36484V15.9937C25.7392 16.6143 25.2368 17.1174 24.6172 17.1174C23.9975 17.1174 23.4952 16.6143 23.4952 15.9937V8.52696L19.8878 4.91411H6.24398V27.0733H13.6511C14.2708 27.0733 14.7731 27.5764 14.7731 28.197C14.7731 28.8176 14.2708 29.3207 13.6511 29.3207H5.85306C4.82968 29.3207 4 28.4899 4 27.4648V4.52259ZM19.7732 4.79934C19.7732 4.7993 19.7733 4.79938 19.7732 4.79934V4.79934Z" fill="#121212"/>
<path fill-rule="evenodd" clip-rule="evenodd" d="M8.87384 8.67171C8.87384 8.0511 9.37617 7.54799 9.99583 7.54799H14.8696C15.4893 7.54799 15.9916 8.0511 15.9916 8.67171C15.9916 9.29233 15.4893 9.79543 14.8696 9.79543H9.99583C9.37617 9.79543 8.87384 9.29233 8.87384 8.67171ZM8.87384 13.553C8.87384 12.9324 9.37617 12.4293 9.99583 12.4293H19.7434C20.3631 12.4293 20.8654 12.9324 20.8654 13.553C20.8654 14.1736 20.3631 14.6768 19.7434 14.6768H9.99583C9.37617 14.6768 8.87384 14.1736 8.87384 13.553ZM8.87384 18.4344C8.87384 17.8137 9.37617 17.3106 9.99583 17.3106H13.6512C14.2708 17.3106 14.7732 17.8137 14.7732 18.4344C14.7732 19.055 14.2708 19.5581 13.6512 19.5581H9.99583C9.37617 19.5581 8.87384 19.055 8.87384 18.4344Z" fill="#121212"/>
<path fill-rule="evenodd" clip-rule="evenodd" d="M22.9336 19.4019C22.3868 18.2406 20.7555 18.2406 20.2087 19.4019C20.2087 19.4019 20.2087 19.4018 20.2087 19.4019L19.3558 21.2133L17.469 21.5023C17.469 21.5023 17.469 21.5023 17.469 21.5023C16.1785 21.7 15.8019 23.2545 16.6231 24.0931L18.0172 25.5164L17.6862 27.5392C17.6862 27.5393 17.6863 27.5392 17.6862 27.5392C17.5002 28.6764 18.6881 29.8003 19.8969 29.1339C19.8969 29.1339 19.8969 29.1338 19.8969 29.1339L21.5711 28.2109L23.2453 29.1338C23.2452 29.1338 23.2453 29.1338 23.2453 29.1338C24.4541 29.8002 25.6422 28.6766 25.4561 27.5394C25.4561 27.5393 25.4561 27.5394 25.4561 27.5394L25.1251 25.5164L26.5191 24.0932C27.3403 23.2546 26.9639 21.7 25.6734 21.5023C25.6733 21.5023 25.6734 21.5023 25.6734 21.5023L23.7865 21.2133L22.9336 19.4019C22.9336 19.4019 22.9336 19.4018 22.9336 19.4019ZM21.5711 21.7774L21.1306 22.7129C20.9714 23.0511 20.6546 23.2879 20.2855 23.3444L19.1966 23.5112L20.0173 24.3491C20.2676 24.6047 20.3814 24.9644 20.3236 25.3177L20.141 26.4339L21.0301 25.9438C21.367 25.7581 21.7753 25.7581 22.1122 25.9438L23.0013 26.4339L22.8187 25.3177C22.7609 24.9644 22.8747 24.6047 23.125 24.3491L23.9457 23.5112L22.8568 23.3444C22.4877 23.2879 22.1709 23.0511 22.0117 22.7129L21.5711 21.7774Z" fill="#121212"/>
<path fill-rule="evenodd" clip-rule="evenodd" d="M19.7435 2.66667C20.3632 2.66667 20.8655 3.16978 20.8655 3.79039V7.54799H24.6173C25.237 7.54799 25.7393 8.0511 25.7393 8.67171C25.7393 9.29233 25.237 9.79543 24.6173 9.79543H20.4746C19.4511 9.79543 18.6215 8.96447 18.6215 7.93951V3.79039C18.6215 3.16978 19.1239 2.66667 19.7435 2.66667Z" fill="#121212"/>
</svg>
