<svg width="32" height="32" viewBox="0 0 32 32" fill="none" xmlns="http://www.w3.org/2000/svg">
<path fill-rule="evenodd" clip-rule="evenodd" d="M6.66628 13C7.58675 13 8.33294 13.7462 8.33294 14.6667V26.3334H23.6663V14.6667C23.6663 13.7462 24.4125 13 25.3329 13C26.2534 13 26.9996 13.7462 26.9996 14.6667V27.2C26.9996 28.5624 25.8953 29.6667 24.5329 29.6667H7.46628C6.10403 29.6667 4.99961 28.5624 4.99961 27.2V14.6667C4.99961 13.7462 5.7458 13 6.66628 13Z" fill="#121212"/>
<path fill-rule="evenodd" clip-rule="evenodd" d="M13.3331 13C14.2535 13 14.9997 13.7462 14.9997 14.6667V22.6667C14.9997 23.5872 14.2535 24.3334 13.3331 24.3334C12.4126 24.3334 11.6664 23.5872 11.6664 22.6667V14.6667C11.6664 13.7462 12.4126 13 13.3331 13Z" fill="#121212"/>
<path fill-rule="evenodd" clip-rule="evenodd" d="M18.6663 13C19.5868 13 20.3329 13.7462 20.3329 14.6667V22.6667C20.3329 23.5872 19.5868 24.3334 18.6663 24.3334C17.7458 24.3334 16.9996 23.5872 16.9996 22.6667V14.6667C16.9996 13.7462 17.7458 13 18.6663 13Z" fill="#121212"/>
<path fill-rule="evenodd" clip-rule="evenodd" d="M12.333 5.66666V7.66666H19.6663V5.66666H12.333ZM22.9997 7.66666V4.79999C22.9997 3.43775 21.8954 2.33333 20.533 2.33333H11.4663C10.104 2.33333 8.99967 3.43769 8.99967 4.79999V7.66666H3.99967C3.0792 7.66666 2.33301 8.41285 2.33301 9.33333C2.33301 10.2538 3.0792 11 3.99967 11H27.9997C28.9201 11 29.6663 10.2538 29.6663 9.33333C29.6663 8.41285 28.9201 7.66666 27.9997 7.66666H22.9997Z" fill="#121212"/>
</svg>
