<svg width="32" height="32" viewBox="0 0 32 32" fill="none" xmlns="http://www.w3.org/2000/svg">
<path fill-rule="evenodd" clip-rule="evenodd" d="M16.7333 16.833C11.9048 16.833 7.99043 20.7473 7.99043 25.5758V27.0146C7.99043 27.7481 7.39577 28.3428 6.66221 28.3428C5.92865 28.3428 5.33398 27.7481 5.33398 27.0146V25.5758C5.33398 19.2802 10.4376 14.1765 16.7333 14.1765C19.9553 14.1765 22.867 15.515 24.9386 17.6627C25.4479 18.1906 25.4327 19.0315 24.9048 19.5408C24.3768 20.05 23.536 20.0349 23.0267 19.5069C21.4349 17.8567 19.2048 16.833 16.7333 16.833Z" fill="#121212"/>
<path fill-rule="evenodd" clip-rule="evenodd" d="M21.5172 21.4772C22.086 21.1481 22.7467 20.9602 23.4472 20.9602C25.5781 20.9602 27.3054 22.6875 27.3054 24.8183C27.3054 26.9492 25.5781 28.6765 23.4472 28.6765C22.7467 28.6765 22.086 28.4886 21.5172 28.1595M21.5172 21.4772C20.3675 22.1422 19.5891 23.3886 19.5891 24.8183C19.5891 26.2481 20.3675 27.4944 21.5172 28.1595M23.4472 23.6166C23.2262 23.6166 23.0228 23.6751 22.8474 23.7766C22.4847 23.9864 22.2455 24.3752 22.2455 24.8183C22.2455 25.2615 22.4846 25.6503 22.8473 25.8601C23.0228 25.9616 23.2262 26.0201 23.4472 26.0201C24.111 26.0201 24.649 25.4821 24.649 24.8183C24.649 24.1546 24.111 23.6166 23.4472 23.6166Z" fill="#121212"/>
<path fill-rule="evenodd" clip-rule="evenodd" d="M23.4475 21.9381C23.3193 21.9381 23.1934 21.9464 23.0703 21.9625C22.6227 22.0209 22.2125 21.7053 22.1541 21.2577C22.0957 20.8101 22.4112 20.3999 22.8589 20.3415C23.0519 20.3163 23.2484 20.3034 23.4475 20.3034C23.6466 20.3034 23.8432 20.3163 24.0362 20.3415C24.4838 20.3999 24.7994 20.8101 24.741 21.2577C24.6826 21.7053 24.2724 22.0209 23.8247 21.9625C23.7016 21.9464 23.5758 21.9381 23.4475 21.9381ZM25.0505 21.3866C25.3255 21.0286 25.8387 20.9615 26.1966 21.2365C26.5091 21.4767 26.7892 21.7567 27.0293 22.0692C27.3044 22.4272 27.2372 22.9403 26.8793 23.2154C26.5213 23.4904 26.0082 23.4233 25.7331 23.0653C25.5796 22.8655 25.4004 22.6863 25.2005 22.5327C24.8426 22.2577 24.7754 21.7445 25.0505 21.3866ZM21.8446 21.3866C22.1196 21.7445 22.0524 22.2577 21.6945 22.5327C21.4947 22.6863 21.3155 22.8655 21.1619 23.0653C20.8869 23.4233 20.3737 23.4904 20.0158 23.2154C19.6578 22.9403 19.5906 22.4272 19.8657 22.0692C20.1058 21.7567 20.3859 21.4767 20.6984 21.2365C21.0563 20.9615 21.5695 21.0286 21.8446 21.3866ZM19.8869 23.5249C20.3345 23.5833 20.65 23.9935 20.5917 24.4411C20.5756 24.5642 20.5673 24.6901 20.5673 24.8183C20.5673 24.9466 20.5756 25.0725 20.5917 25.1956C20.65 25.6432 20.3345 26.0534 19.8869 26.1118C19.4392 26.1702 19.029 25.8546 18.9706 25.407C18.9455 25.214 18.9325 25.0175 18.9325 24.8183C18.9325 24.6192 18.9455 24.4227 18.9706 24.2297C19.029 23.7821 19.4392 23.4665 19.8869 23.5249ZM27.0082 23.5249C27.4558 23.4665 27.866 23.7821 27.9244 24.2297C27.9496 24.4227 27.9625 24.6192 27.9625 24.8183C27.9625 25.0175 27.9496 25.214 27.9244 25.407C27.866 25.8546 27.4558 26.1702 27.0082 26.1118C26.5605 26.0534 26.245 25.6432 26.3034 25.1956C26.3194 25.0725 26.3278 24.9466 26.3278 24.8183C26.3278 24.6901 26.3194 24.5642 26.3034 24.4411C26.245 23.9935 26.5605 23.5833 27.0082 23.5249ZM26.8793 26.4213C27.2372 26.6964 27.3044 27.2095 27.0293 27.5675C26.7892 27.8799 26.5091 28.16 26.1966 28.4002C25.8387 28.6752 25.3255 28.608 25.0505 28.2501C24.7754 27.8922 24.8426 27.379 25.2005 27.1039C25.4004 26.9504 25.5796 26.7712 25.7331 26.5714C26.0082 26.2134 26.5213 26.1462 26.8793 26.4213ZM20.0158 26.4213C20.3737 26.1462 20.8869 26.2134 21.1619 26.5714C21.3155 26.7712 21.4947 26.9504 21.6945 27.1039C22.0524 27.379 22.1196 27.8922 21.8446 28.2501C21.5695 28.608 21.0563 28.6752 20.6984 28.4002C20.3859 28.16 20.1058 27.8799 19.8657 27.5675C19.5906 27.2095 19.6578 26.6964 20.0158 26.4213ZM22.1541 28.379C22.2125 27.9314 22.6227 27.6158 23.0703 27.6742C23.1934 27.6903 23.3193 27.6986 23.4475 27.6986C23.5758 27.6986 23.7016 27.6903 23.8247 27.6742C24.2724 27.6158 24.6826 27.9314 24.741 28.379C24.7994 28.8266 24.4838 29.2368 24.0362 29.2952C23.8432 29.3204 23.6466 29.3333 23.4475 29.3333C23.2484 29.3333 23.0519 29.3204 22.8589 29.2952C22.4112 29.2368 22.0957 28.8266 22.1541 28.379Z" fill="#121212"/>
<path fill-rule="evenodd" clip-rule="evenodd" d="M9.65003 9.74982C9.65003 5.8379 12.8213 2.66667 16.7332 2.66667C20.645 2.66667 23.8163 5.83789 23.8163 9.74982C23.8163 13.6617 20.6452 16.833 16.7333 16.833C12.8214 16.833 9.65003 13.6617 9.65003 9.74982ZM16.7332 5.32312C14.2884 5.32312 12.3065 7.30502 12.3065 9.74982C12.3065 12.1946 14.2885 14.1765 16.7333 14.1765C19.1781 14.1765 21.1599 12.1946 21.1599 9.74982C21.1599 7.30503 19.1779 5.32312 16.7332 5.32312Z" fill="#121212"/>
</svg>
