<svg width="32" height="32" viewBox="0 0 32 32" fill="none" xmlns="http://www.w3.org/2000/svg">
<path fill-rule="evenodd" clip-rule="evenodd" d="M9.51378 4C9.52835 4.00001 9.54313 4.00001 9.55814 4.00001L22.2537 4C22.5564 3.99997 22.7652 3.99994 22.9498 4.01688C25.0017 4.20523 26.5788 5.90065 26.7518 7.97495C26.7675 8.1631 26.7675 8.3769 26.7674 8.69868L26.7674 25.2202C26.7674 26.0818 26.229 26.7332 25.5461 26.972C24.8578 27.2127 24.0219 27.0308 23.5103 26.3152C23.4917 26.2891 23.4742 26.2769 23.4616 26.2705C23.448 26.2635 23.4333 26.2601 23.4186 26.2601C23.4039 26.2601 23.3892 26.2635 23.3756 26.2705C23.363 26.2769 23.3455 26.2891 23.3269 26.3152L22.8439 26.9909C21.8821 28.3364 19.9319 28.3364 18.9701 26.9909C18.6761 26.5796 18.1146 26.5796 17.8206 26.9909C16.8588 28.3364 14.9086 28.3364 13.9468 26.9909C13.6528 26.5796 13.0914 26.5796 12.7974 26.9909C11.8355 28.3364 9.88539 28.3364 8.92357 26.9909L8.44056 26.3152C8.42191 26.2891 8.40444 26.2769 8.39188 26.2705C8.37821 26.2635 8.36357 26.2601 8.34884 26.2601C8.33411 26.2601 8.31948 26.2635 8.3058 26.2705C8.29325 26.2769 8.27577 26.2891 8.25712 26.3152C7.74558 27.0308 6.90966 27.2127 6.22137 26.972C5.53845 26.7332 5 26.0818 5 25.2202V8.74114C5 8.72679 5 8.71264 5 8.6987C4.99997 8.37691 4.99995 8.1631 5.01564 7.97495C5.18862 5.90065 6.76571 4.20523 8.81765 4.01688C9.00224 3.99994 9.21102 3.99997 9.51378 4ZM9.55814 5.67443C9.19405 5.67443 9.06856 5.67531 8.97071 5.68429C7.78468 5.79316 6.79459 6.79119 6.68427 8.1141C6.67515 8.22344 6.67442 8.36173 6.67442 8.74114V25.2202C6.67442 25.2884 6.69313 25.3234 6.70656 25.3418C6.72296 25.3642 6.74687 25.3819 6.77412 25.3914C6.80134 25.401 6.82192 25.3991 6.83318 25.3958C6.83884 25.3941 6.86219 25.3873 6.89495 25.3415C7.61527 24.3338 9.08241 24.3338 9.80274 25.3415L10.2857 26.0171C10.5797 26.4284 11.1412 26.4284 11.4352 26.0171C12.397 24.6716 14.3472 24.6716 15.309 26.0171C15.603 26.4284 16.1645 26.4284 16.4585 26.0171C17.4203 24.6716 19.3704 24.6716 20.3323 26.0171C20.6262 26.4284 21.1877 26.4284 21.4817 26.0171L21.9647 25.3415C22.685 24.3338 24.1522 24.3338 24.8725 25.3415C24.9053 25.3873 24.9285 25.3941 24.9341 25.3957C24.9454 25.3991 24.9661 25.401 24.9933 25.3914C25.0206 25.3819 25.0445 25.3642 25.0609 25.3418C25.0743 25.3234 25.093 25.2884 25.093 25.2202V8.74114C25.093 8.36173 25.0923 8.22343 25.0832 8.1141C24.9729 6.79119 23.9828 5.79316 22.7967 5.68429C22.6989 5.67531 22.5734 5.67443 22.2093 5.67443H9.55814ZM13.0592 10.9429C13.3861 10.6159 13.9162 10.6159 14.2432 10.9429L15.8838 12.5835L17.5243 10.9429C17.8513 10.616 18.3813 10.616 18.7083 10.9429C19.0352 11.2699 19.0352 11.8 18.7083 12.1269L17.0677 13.7675L18.7083 15.408C19.0352 15.7349 19.0352 16.265 18.7083 16.592C18.3813 16.9189 17.8512 16.9189 17.5243 16.592L15.8838 14.9514L14.2432 16.592C13.9163 16.919 13.3862 16.919 13.0592 16.592C12.7323 16.2651 12.7323 15.735 13.0592 15.408L14.6998 13.7675L13.0592 12.1269C12.7322 11.7999 12.7322 11.2698 13.0592 10.9429ZM10.0233 19.907C10.0233 19.4446 10.3981 19.0698 10.8605 19.0698H20.907C21.3694 19.0698 21.7442 19.4446 21.7442 19.907C21.7442 20.3694 21.3694 20.7442 20.907 20.7442H10.8605C10.3981 20.7442 10.0233 20.3694 10.0233 19.907Z" fill="#121212"/>
</svg>
