<svg width="32" height="32" viewBox="0 0 32 32" fill="none" xmlns="http://www.w3.org/2000/svg">
<path fill-rule="evenodd" clip-rule="evenodd" d="M15.8296 17.3033C10.7358 17.3033 6.60652 21.4326 6.60652 26.5263V28.0301C6.60652 28.7498 6.02303 29.3333 5.30326 29.3333C4.58349 29.3333 4 28.7498 4 28.0301V26.5263C4 19.993 9.29629 14.6967 15.8296 14.6967C22.3629 14.6967 27.6591 19.993 27.6591 26.5263V28.0301C27.6591 28.7498 27.0757 29.3333 26.3559 29.3333C25.6361 29.3333 25.0526 28.7498 25.0526 28.0301V26.5263C25.0526 21.4326 20.9233 17.3033 15.8296 17.3033Z" fill="#121212"/>
<path fill-rule="evenodd" clip-rule="evenodd" d="M8.5113 9.98497C8.5113 5.94318 11.7878 2.66667 15.8296 2.66667C19.8713 2.66667 23.1479 5.94317 23.1479 9.98497C23.1479 14.0267 19.8713 17.3033 15.8296 17.3033C11.7878 17.3033 8.5113 14.0267 8.5113 9.98497ZM15.8296 5.27319C13.2274 5.27319 11.1178 7.38272 11.1178 9.98497C11.1178 12.5872 13.2273 14.6967 15.8296 14.6967C18.4318 14.6967 20.5414 12.5872 20.5414 9.98497C20.5414 7.38273 18.4318 5.27319 15.8296 5.27319Z" fill="#121212"/>
</svg>
