<svg width="32" height="32" viewBox="0 0 32 32" fill="none" xmlns="http://www.w3.org/2000/svg">
<path fill-rule="evenodd" clip-rule="evenodd" d="M22.4761 19.8091C22.2217 20.0636 21.8091 20.0636 21.5546 19.8091L16.0003 14.2549L10.4461 19.8091C10.1916 20.0636 9.77899 20.0636 9.52452 19.8091C9.27004 19.5547 9.27004 19.1421 9.52452 18.8876L15.5396 12.8726C15.794 12.6181 16.2066 12.6181 16.4611 12.8726L22.4761 18.8876C22.7306 19.1421 22.7306 19.5547 22.4761 19.8091Z" fill="#121212"/>
<path fill-rule="evenodd" clip-rule="evenodd" d="M22.8297 20.1627C22.3799 20.6124 21.6508 20.6124 21.201 20.1627L16.0003 14.962L10.7996 20.1627C10.3499 20.6124 9.6207 20.6124 9.17096 20.1627C8.72122 19.713 8.72122 18.9838 9.17096 18.534L9.52452 18.8876L9.17096 18.534L15.186 12.519C15.6357 12.0693 16.3649 12.0693 16.8147 12.519L22.8297 18.534L22.4761 18.8876L22.8297 18.534C23.2794 18.9838 23.2794 19.713 22.8297 20.1627ZM21.9081 19.4556C21.9674 19.5148 22.0634 19.5148 22.1226 19.4556C22.1818 19.3964 22.1818 19.3004 22.1226 19.2412L16.1075 13.2261C16.0483 13.1669 15.9523 13.1669 15.8931 13.2261L9.87807 19.2412L9.53925 18.9023L9.87807 19.2412C9.81886 19.3004 9.81886 19.3964 9.87807 19.4556L9.52788 19.8058L9.87807 19.4556C9.93729 19.5148 10.0333 19.5148 10.0925 19.4556L15.6468 13.9013C15.7405 13.8076 15.8677 13.7549 16.0003 13.7549C16.1329 13.7549 16.2601 13.8076 16.3539 13.9013L21.9081 19.4556Z" fill="#121212"/>
</svg>
