<svg width="32" height="32" viewBox="0 0 32 32" fill="none" xmlns="http://www.w3.org/2000/svg">
<path d="M28.2225 16L25.5114 12.9L25.8892 8.8L21.8781 7.88889L19.7781 4.33333L16.0003 5.95555L12.2225 4.33333L10.1225 7.87778L6.11144 8.77778L6.48921 12.8889L3.7781 16L6.48921 19.1L6.11144 23.2111L10.1225 24.1222L12.2225 27.6667L16.0003 26.0333L19.7781 27.6556L21.8781 24.1111L25.8892 23.2L25.5114 19.1L28.2225 16ZM13.0892 20.4556L10.4448 17.7889C10.0114 17.3556 10.0114 16.6556 10.4448 16.2222L10.5225 16.1444C10.9559 15.7111 11.667 15.7111 12.1003 16.1444L13.8892 17.9444L19.6114 12.2111C20.0448 11.7778 20.7559 11.7778 21.1892 12.2111L21.267 12.2889C21.7003 12.7222 21.7003 13.4222 21.267 13.8556L14.6892 20.4556C14.2337 20.8889 13.5337 20.8889 13.0892 20.4556Z" fill="#121212"/>
</svg>
