<svg width="32" height="32" viewBox="0 0 32 32" fill="none" xmlns="http://www.w3.org/2000/svg">
<path fill-rule="evenodd" clip-rule="evenodd" d="M16.0003 29.3334C23.3641 29.3334 29.3337 23.3638 29.3337 16C29.3337 8.63622 23.3641 2.66669 16.0003 2.66669C8.63653 2.66669 2.66699 8.63622 2.66699 16C2.66699 23.3638 8.63653 29.3334 16.0003 29.3334ZM14.6672 10.3333C14.6672 9.78104 15.1149 9.33333 15.6672 9.33333H16.3338C16.8861 9.33333 17.3338 9.78104 17.3338 10.3333V19C17.3338 19.5523 16.8861 20 16.3338 20H15.6672C15.1149 20 14.6672 19.5523 14.6672 19V10.3333ZM15.6672 21.3333C15.1149 21.3333 14.6672 21.7811 14.6672 22.3333V23C14.6672 23.5523 15.1149 24 15.6672 24H16.3338C16.8861 24 17.3338 23.5523 17.3338 23V22.3333C17.3338 21.7811 16.8861 21.3333 16.3338 21.3333H15.6672Z" fill="#E22C2C"/>
</svg>
